<?xml version="1.0" encoding="UTF-8" standalone="no"?><svg xmlns="http://www.w3.org/2000/svg" xmlns:xlink="http://www.w3.org/1999/xlink" contentScriptType="application/ecmascript" contentStyleType="text/css" height="339px" preserveAspectRatio="none" style="width:390px;height:339px;" version="1.1" viewBox="0 0 390 339" width="390px" zoomAndPan="magnify"><defs><filter height="300%" id="f1spqlmeulc9xp" width="300%" x="-1" y="-1"><feGaussianBlur result="blurOut" stdDeviation="2.0"/><feColorMatrix in="blurOut" result="blurOut2" type="matrix" values="0 0 0 0 0 0 0 0 0 0 0 0 0 0 0 0 0 0 .4 0"/><feOffset dx="4.0" dy="4.0" in="blurOut2" result="blurOut3"/><feBlend in="SourceGraphic" in2="blurOut3" mode="normal"/></filter></defs><g><rect fill="#FFFFFF" filter="url(#f1spqlmeulc9xp)" height="60.2656" style="stroke: #000000; stroke-width: 2.0;" width="276.5" x="13" y="174.5625"/><line style="stroke: #A80036; stroke-width: 1.0; stroke-dasharray: 5.0,5.0;" x1="42" x2="42" y1="86.2969" y2="251.8281"/><line style="stroke: #A80036; stroke-width: 1.0; stroke-dasharray: 5.0,5.0;" x1="214.5" x2="214.5" y1="86.2969" y2="251.8281"/><line style="stroke: #A80036; stroke-width: 1.0; stroke-dasharray: 5.0,5.0;" x1="336.5" x2="336.5" y1="86.2969" y2="251.8281"/><text fill="#000000" font-family="sans-serif" font-size="14" lengthAdjust="spacingAndGlyphs" textLength="32" x="23" y="82.9951">User</text><ellipse cx="42" cy="13" fill="#FEFECE" filter="url(#f1spqlmeulc9xp)" rx="8" ry="8" style="stroke: #A80036; stroke-width: 2.0;"/><path d="M42,21 L42,48 M29,29 L55,29 M42,48 L29,63 M42,48 L55,63 " fill="#FEFECE" filter="url(#f1spqlmeulc9xp)" style="stroke: #A80036; stroke-width: 2.0;"/><text fill="#000000" font-family="sans-serif" font-size="14" lengthAdjust="spacingAndGlyphs" textLength="32" x="23" y="263.8232">User</text><ellipse cx="42" cy="277.125" fill="#FEFECE" filter="url(#f1spqlmeulc9xp)" rx="8" ry="8" style="stroke: #A80036; stroke-width: 2.0;"/><path d="M42,285.125 L42,312.125 M29,293.125 L55,293.125 M42,312.125 L29,327.125 M42,312.125 L55,327.125 " fill="#FEFECE" filter="url(#f1spqlmeulc9xp)" style="stroke: #A80036; stroke-width: 2.0;"/><rect fill="#FEFECE" filter="url(#f1spqlmeulc9xp)" height="30.2969" style="stroke: #A80036; stroke-width: 1.5;" width="125" x="150.5" y="51"/><text fill="#000000" font-family="sans-serif" font-size="14" lengthAdjust="spacingAndGlyphs" textLength="111" x="157.5" y="70.9951">Account Service</text><rect fill="#FEFECE" filter="url(#f1spqlmeulc9xp)" height="30.2969" style="stroke: #A80036; stroke-width: 1.5;" width="125" x="150.5" y="250.8281"/><text fill="#000000" font-family="sans-serif" font-size="14" lengthAdjust="spacingAndGlyphs" textLength="111" x="157.5" y="270.8232">Account Service</text><rect fill="#FEFECE" filter="url(#f1spqlmeulc9xp)" height="30.2969" style="stroke: #A80036; stroke-width: 1.5;" width="90" x="289.5" y="51"/><text fill="#000000" font-family="sans-serif" font-size="14" lengthAdjust="spacingAndGlyphs" textLength="76" x="296.5" y="70.9951">EventStore</text><rect fill="#FEFECE" filter="url(#f1spqlmeulc9xp)" height="30.2969" style="stroke: #A80036; stroke-width: 1.5;" width="90" x="289.5" y="250.8281"/><text fill="#000000" font-family="sans-serif" font-size="14" lengthAdjust="spacingAndGlyphs" textLength="76" x="296.5" y="270.8232">EventStore</text><line style="stroke: #A80036; stroke-width: 1.0;" x1="213" x2="203" y1="117.2969" y2="113.2969"/><line style="stroke: #A80036; stroke-width: 1.0;" x1="213" x2="203" y1="117.2969" y2="121.2969"/><line style="stroke: #A80036; stroke-width: 1.0;" x1="42" x2="214" y1="117.2969" y2="117.2969"/><text fill="#000000" font-family="sans-serif" font-size="13" lengthAdjust="spacingAndGlyphs" textLength="105" x="49" y="112.3638">withdraw 50 CHF</text><line style="stroke: #A80036; stroke-width: 1.0;" x1="215" x2="257" y1="146.5625" y2="146.5625"/><line style="stroke: #A80036; stroke-width: 1.0;" x1="257" x2="257" y1="146.5625" y2="159.5625"/><line style="stroke: #A80036; stroke-width: 1.0;" x1="216" x2="257" y1="159.5625" y2="159.5625"/><polygon fill="#A80036" points="226,155.5625,216,159.5625,226,163.5625,222,159.5625" style="stroke: #A80036; stroke-width: 1.0;"/><text fill="#000000" font-family="sans-serif" font-size="13" lengthAdjust="spacingAndGlyphs" textLength="91" x="222" y="141.4966">check balance</text><rect fill="none" height="60.2656" style="stroke: #000000; stroke-width: 2.0;" width="276.5" x="13" y="174.5625"/><polygon fill="#EEEEEE" points="13,174.5625,90,174.5625,90,181.5625,80,191.5625,13,191.5625,13,174.5625" style="stroke: #000000; stroke-width: 2.0;"/><text fill="#000000" font-family="sans-serif" font-size="13" font-weight="bold" lengthAdjust="spacingAndGlyphs" textLength="32" x="28" y="187.6294">loop</text><text fill="#000000" font-family="sans-serif" font-size="11" font-weight="bold" lengthAdjust="spacingAndGlyphs" textLength="88" x="105" y="186.7729">[for 1 minute]</text><polygon fill="#A80036" points="203,208.6953,213,212.6953,203,216.6953,207,212.6953" style="stroke: #A80036; stroke-width: 1.0;"/><line style="stroke: #A80036; stroke-width: 1.0;" x1="42" x2="209" y1="212.6953" y2="212.6953"/><text fill="#000000" font-family="sans-serif" font-size="13" lengthAdjust="spacingAndGlyphs" textLength="149" x="49" y="207.7622">poll for command state</text><polygon fill="#A80036" points="53,222.8281,43,226.8281,53,230.8281,49,226.8281" style="stroke: #A80036; stroke-width: 1.0;"/><line style="stroke: #A80036; stroke-width: 1.0; stroke-dasharray: 2.0,2.0;" x1="47" x2="214" y1="226.8281" y2="226.8281"/><!--
@startuml

actor "User" as U
participant "Account Service" as S
participant "EventStore" as ES

U ->> S: withdraw 50 CHF
S -> S: check balance
loop for 1 minute
  U -> S: poll for command state
  U <- - S:
end

@enduml

PlantUML version 1.2017.15(Mon Jul 03 18:45:34 CEST 2017)
(GPL source distribution)
Java Runtime: Java(TM) SE Runtime Environment
JVM: Java HotSpot(TM) 64-Bit Server VM
Java Version: 1.8.0_191-b12
Operating System: Linux
OS Version: 4.15.0-72-generic
Default Encoding: UTF-8
Language: en
Country: US
--></g></svg>