<?xml version="1.0" encoding="UTF-8" standalone="no"?><svg xmlns="http://www.w3.org/2000/svg" xmlns:xlink="http://www.w3.org/1999/xlink" contentScriptType="application/ecmascript" contentStyleType="text/css" height="381px" preserveAspectRatio="none" style="width:431px;height:381px;" version="1.1" viewBox="0 0 431 381" width="431px" zoomAndPan="magnify"><defs><filter height="300%" id="fk701qp6ih2sv" width="300%" x="-1" y="-1"><feGaussianBlur result="blurOut" stdDeviation="2.0"/><feColorMatrix in="blurOut" result="blurOut2" type="matrix" values="0 0 0 0 0 0 0 0 0 0 0 0 0 0 0 0 0 0 .4 0"/><feOffset dx="4.0" dy="4.0" in="blurOut2" result="blurOut3"/><feBlend in="SourceGraphic" in2="blurOut3" mode="normal"/></filter></defs><g><line style="stroke: #A80036; stroke-width: 1.0; stroke-dasharray: 5.0,5.0;" x1="33" x2="33" y1="86.2969" y2="293.9609"/><line style="stroke: #A80036; stroke-width: 1.0; stroke-dasharray: 5.0,5.0;" x1="95" x2="95" y1="86.2969" y2="293.9609"/><line style="stroke: #A80036; stroke-width: 1.0; stroke-dasharray: 5.0,5.0;" x1="165" x2="165" y1="86.2969" y2="293.9609"/><line style="stroke: #A80036; stroke-width: 1.0; stroke-dasharray: 5.0,5.0;" x1="280" x2="280" y1="86.2969" y2="293.9609"/><line style="stroke: #A80036; stroke-width: 1.0; stroke-dasharray: 5.0,5.0;" x1="380" x2="380" y1="86.2969" y2="293.9609"/><text fill="#000000" font-family="sans-serif" font-size="14" lengthAdjust="spacingAndGlyphs" textLength="45" x="8" y="82.9951">User A</text><ellipse cx="33.5" cy="13" fill="#FEFECE" filter="url(#fk701qp6ih2sv)" rx="8" ry="8" style="stroke: #A80036; stroke-width: 2.0;"/><path d="M33.5,21 L33.5,48 M20.5,29 L46.5,29 M33.5,48 L20.5,63 M33.5,48 L46.5,63 " fill="#FEFECE" filter="url(#fk701qp6ih2sv)" style="stroke: #A80036; stroke-width: 2.0;"/><text fill="#000000" font-family="sans-serif" font-size="14" lengthAdjust="spacingAndGlyphs" textLength="45" x="8" y="305.9561">User A</text><ellipse cx="33.5" cy="319.2578" fill="#FEFECE" filter="url(#fk701qp6ih2sv)" rx="8" ry="8" style="stroke: #A80036; stroke-width: 2.0;"/><path d="M33.5,327.2578 L33.5,354.2578 M20.5,335.2578 L46.5,335.2578 M33.5,354.2578 L20.5,369.2578 M33.5,354.2578 L46.5,369.2578 " fill="#FEFECE" filter="url(#fk701qp6ih2sv)" style="stroke: #A80036; stroke-width: 2.0;"/><text fill="#000000" font-family="sans-serif" font-size="14" lengthAdjust="spacingAndGlyphs" textLength="46" x="69" y="82.9951">User B</text><ellipse cx="95" cy="13" fill="#FEFECE" filter="url(#fk701qp6ih2sv)" rx="8" ry="8" style="stroke: #A80036; stroke-width: 2.0;"/><path d="M95,21 L95,48 M82,29 L108,29 M95,48 L82,63 M95,48 L108,63 " fill="#FEFECE" filter="url(#fk701qp6ih2sv)" style="stroke: #A80036; stroke-width: 2.0;"/><text fill="#000000" font-family="sans-serif" font-size="14" lengthAdjust="spacingAndGlyphs" textLength="46" x="69" y="305.9561">User B</text><ellipse cx="95" cy="319.2578" fill="#FEFECE" filter="url(#fk701qp6ih2sv)" rx="8" ry="8" style="stroke: #A80036; stroke-width: 2.0;"/><path d="M95,327.2578 L95,354.2578 M82,335.2578 L108,335.2578 M95,354.2578 L82,369.2578 M95,354.2578 L108,369.2578 " fill="#FEFECE" filter="url(#fk701qp6ih2sv)" style="stroke: #A80036; stroke-width: 2.0;"/><rect fill="#FEFECE" filter="url(#fk701qp6ih2sv)" height="30.2969" style="stroke: #A80036; stroke-width: 1.5;" width="64" x="131" y="51"/><text fill="#000000" font-family="sans-serif" font-size="14" lengthAdjust="spacingAndGlyphs" textLength="50" x="138" y="70.9951">Service</text><rect fill="#FEFECE" filter="url(#fk701qp6ih2sv)" height="30.2969" style="stroke: #A80036; stroke-width: 1.5;" width="64" x="131" y="292.9609"/><text fill="#000000" font-family="sans-serif" font-size="14" lengthAdjust="spacingAndGlyphs" textLength="50" x="138" y="312.9561">Service</text><rect fill="#FEFECE" filter="url(#fk701qp6ih2sv)" height="30.2969" style="stroke: #A80036; stroke-width: 1.5;" width="88" x="234" y="51"/><text fill="#000000" font-family="sans-serif" font-size="14" lengthAdjust="spacingAndGlyphs" textLength="74" x="241" y="70.9951">Repository</text><rect fill="#FEFECE" filter="url(#fk701qp6ih2sv)" height="30.2969" style="stroke: #A80036; stroke-width: 1.5;" width="88" x="234" y="292.9609"/><text fill="#000000" font-family="sans-serif" font-size="14" lengthAdjust="spacingAndGlyphs" textLength="74" x="241" y="312.9561">Repository</text><rect fill="#FEFECE" filter="url(#fk701qp6ih2sv)" height="30.2969" style="stroke: #A80036; stroke-width: 1.5;" width="84" x="336" y="51"/><text fill="#000000" font-family="sans-serif" font-size="14" lengthAdjust="spacingAndGlyphs" textLength="70" x="343" y="70.9951">Account X</text><rect fill="#FEFECE" filter="url(#fk701qp6ih2sv)" height="30.2969" style="stroke: #A80036; stroke-width: 1.5;" width="84" x="336" y="292.9609"/><text fill="#000000" font-family="sans-serif" font-size="14" lengthAdjust="spacingAndGlyphs" textLength="70" x="343" y="312.9561">Account X</text><polygon fill="#A80036" points="153,113.2969,163,117.2969,153,121.2969,157,117.2969" style="stroke: #A80036; stroke-width: 1.0;"/><line style="stroke: #A80036; stroke-width: 1.0;" x1="33.5" x2="159" y1="117.2969" y2="117.2969"/><text fill="#000000" font-family="sans-serif" font-size="13" lengthAdjust="spacingAndGlyphs" textLength="65" x="40.5" y="112.3638">withdraw()</text><polygon fill="#A80036" points="268,142.4297,278,146.4297,268,150.4297,272,146.4297" style="stroke: #A80036; stroke-width: 1.0;"/><line style="stroke: #A80036; stroke-width: 1.0;" x1="165" x2="274" y1="146.4297" y2="146.4297"/><text fill="#000000" font-family="sans-serif" font-size="13" lengthAdjust="spacingAndGlyphs" textLength="91" x="172" y="141.4966">getAccount(X)</text><polygon fill="#A80036" points="176,171.5625,166,175.5625,176,179.5625,172,175.5625" style="stroke: #A80036; stroke-width: 1.0;"/><line style="stroke: #A80036; stroke-width: 1.0; stroke-dasharray: 2.0,2.0;" x1="170" x2="279" y1="175.5625" y2="175.5625"/><text fill="#000000" font-family="sans-serif" font-size="13" lengthAdjust="spacingAndGlyphs" textLength="72" x="182" y="170.6294">X : Account</text><polygon fill="#A80036" points="368,200.6953,378,204.6953,368,208.6953,372,204.6953" style="stroke: #A80036; stroke-width: 1.0;"/><line style="stroke: #A80036; stroke-width: 1.0;" x1="165" x2="374" y1="204.6953" y2="204.6953"/><text fill="#000000" font-family="sans-serif" font-size="13" lengthAdjust="spacingAndGlyphs" textLength="55" x="172" y="199.7622">withdraw</text><polygon fill="#A80036" points="176,214.8281,166,218.8281,176,222.8281,172,218.8281" style="stroke: #A80036; stroke-width: 1.0;"/><line style="stroke: #A80036; stroke-width: 1.0; stroke-dasharray: 2.0,2.0;" x1="170" x2="379" y1="218.8281" y2="218.8281"/><polygon fill="#A80036" points="268,243.8281,278,247.8281,268,251.8281,272,247.8281" style="stroke: #A80036; stroke-width: 1.0;"/><line style="stroke: #A80036; stroke-width: 1.0;" x1="165" x2="274" y1="247.8281" y2="247.8281"/><text fill="#000000" font-family="sans-serif" font-size="13" lengthAdjust="spacingAndGlyphs" textLength="51" x="172" y="242.895">store(X)</text><polygon fill="#A80036" points="176,257.9609,166,261.9609,176,265.9609,172,261.9609" style="stroke: #A80036; stroke-width: 1.0;"/><line style="stroke: #A80036; stroke-width: 1.0; stroke-dasharray: 2.0,2.0;" x1="170" x2="279" y1="261.9609" y2="261.9609"/><polygon fill="#A80036" points="44.5,271.9609,34.5,275.9609,44.5,279.9609,40.5,275.9609" style="stroke: #A80036; stroke-width: 1.0;"/><line style="stroke: #A80036; stroke-width: 1.0; stroke-dasharray: 2.0,2.0;" x1="38.5" x2="164" y1="275.9609" y2="275.9609"/><!--
@startuml

actor "User A" as U1
actor "User B" as U2
participant "Service" as S
participant "Repository" as R
participant "Account X" as A

U1 -> S: withdraw()
S -> R: getAccount(X)
S <- - R: X : Account
S -> A: withdraw
S <- - A:
S -> R: store(X)
S <- - R:
U1 <- - S:

@enduml

PlantUML version 1.2017.15(Mon Jul 03 18:45:34 CEST 2017)
(GPL source distribution)
Java Runtime: Java(TM) SE Runtime Environment
JVM: Java HotSpot(TM) 64-Bit Server VM
Java Version: 1.8.0_191-b12
Operating System: Linux
OS Version: 4.15.0-72-generic
Default Encoding: UTF-8
Language: en
Country: US
--></g></svg>