<?xml version="1.0" encoding="UTF-8" standalone="no"?><svg xmlns="http://www.w3.org/2000/svg" xmlns:xlink="http://www.w3.org/1999/xlink" contentScriptType="application/ecmascript" contentStyleType="text/css" height="293px" preserveAspectRatio="none" style="width:331px;height:293px;" version="1.1" viewBox="0 0 331 293" width="331px" zoomAndPan="magnify"><defs><filter height="300%" id="f5zqa11s2yd6p" width="300%" x="-1" y="-1"><feGaussianBlur result="blurOut" stdDeviation="2.0"/><feColorMatrix in="blurOut" result="blurOut2" type="matrix" values="0 0 0 0 0 0 0 0 0 0 0 0 0 0 0 0 0 0 .4 0"/><feOffset dx="4.0" dy="4.0" in="blurOut2" result="blurOut3"/><feBlend in="SourceGraphic" in2="blurOut3" mode="normal"/></filter></defs><g><line style="stroke: #A80036; stroke-width: 1.0; stroke-dasharray: 5.0,5.0;" x1="27" x2="27" y1="86.2969" y2="206.6953"/><line style="stroke: #A80036; stroke-width: 1.0; stroke-dasharray: 5.0,5.0;" x1="155.5" x2="155.5" y1="86.2969" y2="206.6953"/><line style="stroke: #A80036; stroke-width: 1.0; stroke-dasharray: 5.0,5.0;" x1="277.5" x2="277.5" y1="86.2969" y2="206.6953"/><text fill="#000000" font-family="sans-serif" font-size="14" lengthAdjust="spacingAndGlyphs" textLength="32" x="8" y="82.9951">User</text><ellipse cx="27" cy="13" fill="#FEFECE" filter="url(#f5zqa11s2yd6p)" rx="8" ry="8" style="stroke: #A80036; stroke-width: 2.0;"/><path d="M27,21 L27,48 M14,29 L40,29 M27,48 L14,63 M27,48 L40,63 " fill="#FEFECE" filter="url(#f5zqa11s2yd6p)" style="stroke: #A80036; stroke-width: 2.0;"/><text fill="#000000" font-family="sans-serif" font-size="14" lengthAdjust="spacingAndGlyphs" textLength="32" x="8" y="218.6904">User</text><ellipse cx="27" cy="231.9922" fill="#FEFECE" filter="url(#f5zqa11s2yd6p)" rx="8" ry="8" style="stroke: #A80036; stroke-width: 2.0;"/><path d="M27,239.9922 L27,266.9922 M14,247.9922 L40,247.9922 M27,266.9922 L14,281.9922 M27,266.9922 L40,281.9922 " fill="#FEFECE" filter="url(#f5zqa11s2yd6p)" style="stroke: #A80036; stroke-width: 2.0;"/><rect fill="#FEFECE" filter="url(#f5zqa11s2yd6p)" height="30.2969" style="stroke: #A80036; stroke-width: 1.5;" width="125" x="91.5" y="51"/><text fill="#000000" font-family="sans-serif" font-size="14" lengthAdjust="spacingAndGlyphs" textLength="111" x="98.5" y="70.9951">Account Service</text><rect fill="#FEFECE" filter="url(#f5zqa11s2yd6p)" height="30.2969" style="stroke: #A80036; stroke-width: 1.5;" width="125" x="91.5" y="205.6953"/><text fill="#000000" font-family="sans-serif" font-size="14" lengthAdjust="spacingAndGlyphs" textLength="111" x="98.5" y="225.6904">Account Service</text><rect fill="#FEFECE" filter="url(#f5zqa11s2yd6p)" height="30.2969" style="stroke: #A80036; stroke-width: 1.5;" width="90" x="230.5" y="51"/><text fill="#000000" font-family="sans-serif" font-size="14" lengthAdjust="spacingAndGlyphs" textLength="76" x="237.5" y="70.9951">EventStore</text><rect fill="#FEFECE" filter="url(#f5zqa11s2yd6p)" height="30.2969" style="stroke: #A80036; stroke-width: 1.5;" width="90" x="230.5" y="205.6953"/><text fill="#000000" font-family="sans-serif" font-size="14" lengthAdjust="spacingAndGlyphs" textLength="76" x="237.5" y="225.6904">EventStore</text><polygon fill="#A80036" points="144,113.2969,154,117.2969,144,121.2969,148,117.2969" style="stroke: #A80036; stroke-width: 1.0;"/><line style="stroke: #A80036; stroke-width: 1.0;" x1="27" x2="150" y1="117.2969" y2="117.2969"/><text fill="#000000" font-family="sans-serif" font-size="13" lengthAdjust="spacingAndGlyphs" textLength="105" x="34" y="112.3638">withdraw 50 CHF</text><line style="stroke: #A80036; stroke-width: 1.0;" x1="156" x2="198" y1="146.5625" y2="146.5625"/><line style="stroke: #A80036; stroke-width: 1.0;" x1="198" x2="198" y1="146.5625" y2="159.5625"/><line style="stroke: #A80036; stroke-width: 1.0;" x1="157" x2="198" y1="159.5625" y2="159.5625"/><polygon fill="#A80036" points="167,155.5625,157,159.5625,167,163.5625,163,159.5625" style="stroke: #A80036; stroke-width: 1.0;"/><text fill="#000000" font-family="sans-serif" font-size="13" lengthAdjust="spacingAndGlyphs" textLength="91" x="163" y="141.4966">check balance</text><polygon fill="#A80036" points="38,184.5625,28,188.5625,38,192.5625,34,188.5625" style="stroke: #A80036; stroke-width: 1.0;"/><line style="stroke: #A80036; stroke-width: 1.0; stroke-dasharray: 2.0,2.0;" x1="32" x2="155" y1="188.5625" y2="188.5625"/><text fill="#000000" font-family="sans-serif" font-size="13" lengthAdjust="spacingAndGlyphs" textLength="94" x="44" y="183.6294">error message</text><!--
@startuml

actor "User" as U
participant "Account Service" as S
participant "EventStore" as ES

U -> S: withdraw 50 CHF
S -> S: check balance
U <- - S: error message

@enduml

PlantUML version 1.2017.15(Mon Jul 03 18:45:34 CEST 2017)
(GPL source distribution)
Java Runtime: Java(TM) SE Runtime Environment
JVM: Java HotSpot(TM) 64-Bit Server VM
Java Version: 1.8.0_191-b12
Operating System: Linux
OS Version: 4.15.0-72-generic
Default Encoding: UTF-8
Language: en
Country: US
--></g></svg>