<?xml version="1.0" encoding="UTF-8" standalone="no"?><svg xmlns="http://www.w3.org/2000/svg" xmlns:xlink="http://www.w3.org/1999/xlink" contentScriptType="application/ecmascript" contentStyleType="text/css" height="137px" preserveAspectRatio="none" style="width:467px;height:137px;" version="1.1" viewBox="0 0 467 137" width="467px" zoomAndPan="magnify"><defs><filter height="300%" id="fh1ha4izhpfmp" width="300%" x="-1" y="-1"><feGaussianBlur result="blurOut" stdDeviation="2.0"/><feColorMatrix in="blurOut" result="blurOut2" type="matrix" values="0 0 0 0 0 0 0 0 0 0 0 0 0 0 0 0 0 0 .4 0"/><feOffset dx="4.0" dy="4.0" in="blurOut2" result="blurOut3"/><feBlend in="SourceGraphic" in2="blurOut3" mode="normal"/></filter></defs><g><!--cluster A--><rect fill="#FFFFFF" filter="url(#fh1ha4izhpfmp)" height="71" style="stroke: #000000; stroke-width: 2.0;" width="266" x="66.5" y="55"/><rect fill="#FFFFFF" height="10" style="stroke: #000000; stroke-width: 2.0;" width="15" x="312.5" y="60"/><rect fill="#FFFFFF" height="2" style="stroke: #000000; stroke-width: 2.0;" width="4" x="310.5" y="62"/><rect fill="#FFFFFF" height="2" style="stroke: #000000; stroke-width: 2.0;" width="4" x="310.5" y="66"/><text fill="#000000" font-family="sans-serif" font-size="14" font-weight="bold" lengthAdjust="spacingAndGlyphs" textLength="87" x="156" y="80.9951">Application</text><!--entity R--><rect fill="#FEFECE" filter="url(#fh1ha4izhpfmp)" height="36.2969" style="stroke: #A80036; stroke-width: 1.5;" width="90" x="234.5" y="82"/><rect fill="#FEFECE" height="5" style="stroke: #A80036; stroke-width: 1.5;" width="10" x="229.5" y="87"/><rect fill="#FEFECE" height="5" style="stroke: #A80036; stroke-width: 1.5;" width="10" x="229.5" y="108.2969"/><text fill="#000000" font-family="sans-serif" font-size="14" lengthAdjust="spacingAndGlyphs" textLength="70" x="244.5" y="104.9951">Read Side</text><!--entity W--><rect fill="#FEFECE" filter="url(#fh1ha4izhpfmp)" height="36.2969" style="stroke: #A80036; stroke-width: 1.5;" width="89" x="110" y="82"/><rect fill="#FEFECE" height="5" style="stroke: #A80036; stroke-width: 1.5;" width="10" x="105" y="87"/><rect fill="#FEFECE" height="5" style="stroke: #A80036; stroke-width: 1.5;" width="10" x="105" y="108.2969"/><text fill="#000000" font-family="sans-serif" font-size="14" lengthAdjust="spacingAndGlyphs" textLength="69" x="120" y="104.9951">Write Side</text><!--entity ES--><path d="M359.5,87.5 C359.5,77.5 407.5,77.5 407.5,77.5 C407.5,77.5 455.5,77.5 455.5,87.5 L455.5,112.7969 C455.5,122.7969 407.5,122.7969 407.5,122.7969 C407.5,122.7969 359.5,122.7969 359.5,112.7969 L359.5,87.5 " fill="#FEFECE" filter="url(#fh1ha4izhpfmp)" style="stroke: #000000; stroke-width: 1.5;"/><path d="M359.5,87.5 C359.5,97.5 407.5,97.5 407.5,97.5 C407.5,97.5 455.5,97.5 455.5,87.5 " fill="none" style="stroke: #000000; stroke-width: 1.5;"/><text fill="#000000" font-family="sans-serif" font-size="14" lengthAdjust="spacingAndGlyphs" textLength="76" x="369.5" y="114.4951">EventStore</text><!--entity UI--><rect fill="#FEFECE" filter="url(#fh1ha4izhpfmp)" height="36.2969" style="stroke: #A80036; stroke-width: 1.5;" width="33" x="6" y="82"/><rect fill="#FEFECE" height="5" style="stroke: #A80036; stroke-width: 1.5;" width="10" x="1" y="87"/><rect fill="#FEFECE" height="5" style="stroke: #A80036; stroke-width: 1.5;" width="10" x="1" y="108.2969"/><text fill="#000000" font-family="sans-serif" font-size="14" lengthAdjust="spacingAndGlyphs" textLength="13" x="16" y="104.9951">UI</text><!--link UI to R--><path d="M29.5252,81.8885 C37.6595,63.7461 52.965,36.8634 76,25 C124.5999,-0.0298 148.1327,4.976 199,25 C225.769,35.5377 248.9032,59.6352 263.4141,77.6903 " fill="none" id="UI-R" style="stroke: #A80036; stroke-width: 1.0;"/><polygon fill="#A80036" points="266.5564,81.6746,264.1239,72.1309,263.4601,77.7486,257.8424,77.0849,266.5564,81.6746" style="stroke: #A80036; stroke-width: 1.0;"/><!--link UI to W--><path d="M39.2179,100 C55.6643,100 81.5964,100 104.7037,100 " fill="none" id="UI-W" style="stroke: #A80036; stroke-width: 1.0;"/><polygon fill="#A80036" points="109.8928,100,100.8928,96,104.8928,100,100.8928,104,109.8928,100" style="stroke: #A80036; stroke-width: 1.0;"/><!--link A to ES--><path d="M85.5758,54.8056 C85.6304,54.6827 85.6853,54.5598 85.7404,54.4369 C87.5043,50.506 89.5385,46.6425 91.8834,42.9989 C96.573,35.7119 102.5049,29.305 110,25 C151.0447,1.4251 278.7503,8.1949 323,25 C348.5719,34.7117 371.3584,56.0982 386.8058,73.5583 " fill="none" id="A-ES" style="stroke: #A80036; stroke-width: 1.0;"/><polygon fill="#A80036" points="390.1828,77.4457,387.3002,68.0281,386.9037,73.6711,381.2608,73.2746,390.1828,77.4457" style="stroke: #A80036; stroke-width: 1.0;"/><!--
@startuml


database "EventStore" as ES
[UI] as UI

component "Application" as A {

[Read Side] as R  
[Write Side] as W

}

UI -> R
UI -> W

A -> ES


@enduml

PlantUML version 1.2017.15(Mon Jul 03 18:45:34 CEST 2017)
(GPL source distribution)
Java Runtime: Java(TM) SE Runtime Environment
JVM: Java HotSpot(TM) 64-Bit Server VM
Java Version: 1.8.0_191-b12
Operating System: Linux
OS Version: 4.15.0-76-generic
Default Encoding: UTF-8
Language: en
Country: US
--></g></svg>