<?xml version="1.0" encoding="UTF-8" standalone="no"?><svg xmlns="http://www.w3.org/2000/svg" xmlns:xlink="http://www.w3.org/1999/xlink" contentScriptType="application/ecmascript" contentStyleType="text/css" height="760px" preserveAspectRatio="none" style="width:817px;height:760px;" version="1.1" viewBox="0 0 817 760" width="817px" zoomAndPan="magnify"><defs><filter height="300%" id="f132aeqvdyist9" width="300%" x="-1" y="-1"><feGaussianBlur result="blurOut" stdDeviation="2.0"/><feColorMatrix in="blurOut" result="blurOut2" type="matrix" values="0 0 0 0 0 0 0 0 0 0 0 0 0 0 0 0 0 0 .4 0"/><feOffset dx="4.0" dy="4.0" in="blurOut2" result="blurOut3"/><feBlend in="SourceGraphic" in2="blurOut3" mode="normal"/></filter></defs><g><rect fill="#FEFECE" filter="url(#f132aeqvdyist9)" height="30.2969" style="stroke: #A80036; stroke-width: 1.5;" width="71" x="563" y="212.8281"/><text fill="#000000" font-family="sans-serif" font-size="14" lengthAdjust="spacingAndGlyphs" textLength="57" x="570" y="232.8232">Account</text><line style="stroke: #A80036; stroke-width: 1.0; stroke-dasharray: 5.0,5.0;" x1="27" x2="27" y1="86.2969" y2="672.8516"/><line style="stroke: #A80036; stroke-width: 1.0; stroke-dasharray: 5.0,5.0;" x1="170.5" x2="170.5" y1="86.2969" y2="672.8516"/><line style="stroke: #A80036; stroke-width: 1.0; stroke-dasharray: 5.0,5.0;" x1="309" x2="309" y1="86.2969" y2="672.8516"/><line style="stroke: #A80036; stroke-width: 1.0; stroke-dasharray: 5.0,5.0;" x1="506" x2="506" y1="86.2969" y2="672.8516"/><line style="stroke: #A80036; stroke-width: 1.0; stroke-dasharray: 5.0,5.0;" x1="600" x2="600" y1="245.4766" y2="672.8516"/><text fill="#000000" font-family="sans-serif" font-size="14" lengthAdjust="spacingAndGlyphs" textLength="32" x="8" y="82.9951">User</text><ellipse cx="27" cy="13" fill="#FEFECE" filter="url(#f132aeqvdyist9)" rx="8" ry="8" style="stroke: #A80036; stroke-width: 2.0;"/><path d="M27,21 L27,48 M14,29 L40,29 M27,48 L14,63 M27,48 L40,63 " fill="#FEFECE" filter="url(#f132aeqvdyist9)" style="stroke: #A80036; stroke-width: 2.0;"/><text fill="#000000" font-family="sans-serif" font-size="14" lengthAdjust="spacingAndGlyphs" textLength="32" x="8" y="684.8467">User</text><ellipse cx="27" cy="698.1484" fill="#FEFECE" filter="url(#f132aeqvdyist9)" rx="8" ry="8" style="stroke: #A80036; stroke-width: 2.0;"/><path d="M27,706.1484 L27,733.1484 M14,714.1484 L40,714.1484 M27,733.1484 L14,748.1484 M27,733.1484 L40,748.1484 " fill="#FEFECE" filter="url(#f132aeqvdyist9)" style="stroke: #A80036; stroke-width: 2.0;"/><rect fill="#FEFECE" filter="url(#f132aeqvdyist9)" height="30.2969" style="stroke: #A80036; stroke-width: 1.5;" width="143" x="97.5" y="51"/><text fill="#000000" font-family="sans-serif" font-size="14" lengthAdjust="spacingAndGlyphs" textLength="129" x="104.5" y="70.9951">Application Service</text><rect fill="#FEFECE" filter="url(#f132aeqvdyist9)" height="30.2969" style="stroke: #A80036; stroke-width: 1.5;" width="143" x="97.5" y="671.8516"/><text fill="#000000" font-family="sans-serif" font-size="14" lengthAdjust="spacingAndGlyphs" textLength="129" x="104.5" y="691.8467">Application Service</text><rect fill="#FEFECE" filter="url(#f132aeqvdyist9)" height="30.2969" style="stroke: #A80036; stroke-width: 1.5;" width="88" x="263" y="51"/><text fill="#000000" font-family="sans-serif" font-size="14" lengthAdjust="spacingAndGlyphs" textLength="74" x="270" y="70.9951">Repository</text><rect fill="#FEFECE" filter="url(#f132aeqvdyist9)" height="30.2969" style="stroke: #A80036; stroke-width: 1.5;" width="88" x="263" y="671.8516"/><text fill="#000000" font-family="sans-serif" font-size="14" lengthAdjust="spacingAndGlyphs" textLength="74" x="270" y="691.8467">Repository</text><rect fill="#FEFECE" filter="url(#f132aeqvdyist9)" height="30.2969" style="stroke: #A80036; stroke-width: 1.5;" width="90" x="459" y="51"/><text fill="#000000" font-family="sans-serif" font-size="14" lengthAdjust="spacingAndGlyphs" textLength="76" x="466" y="70.9951">EventStore</text><rect fill="#FEFECE" filter="url(#f132aeqvdyist9)" height="30.2969" style="stroke: #A80036; stroke-width: 1.5;" width="90" x="459" y="671.8516"/><text fill="#000000" font-family="sans-serif" font-size="14" lengthAdjust="spacingAndGlyphs" textLength="76" x="466" y="691.8467">EventStore</text><rect fill="#FEFECE" filter="url(#f132aeqvdyist9)" height="30.2969" style="stroke: #A80036; stroke-width: 1.5;" width="71" x="563" y="671.8516"/><text fill="#000000" font-family="sans-serif" font-size="14" lengthAdjust="spacingAndGlyphs" textLength="57" x="570" y="691.8467">Account</text><polygon fill="#A80036" points="159,113.2969,169,117.2969,159,121.2969,163,117.2969" style="stroke: #A80036; stroke-width: 1.0;"/><line style="stroke: #A80036; stroke-width: 1.0;" x1="27" x2="165" y1="117.2969" y2="117.2969"/><text fill="#000000" font-family="sans-serif" font-size="13" font-weight="bold" lengthAdjust="spacingAndGlyphs" textLength="9" x="34" y="112.3638">1</text><text fill="#000000" font-family="sans-serif" font-size="13" lengthAdjust="spacingAndGlyphs" textLength="107" x="47" y="112.3638">withdraw("X", 42)</text><polygon fill="#A80036" points="297,142.4297,307,146.4297,297,150.4297,301,146.4297" style="stroke: #A80036; stroke-width: 1.0;"/><line style="stroke: #A80036; stroke-width: 1.0;" x1="171" x2="303" y1="146.4297" y2="146.4297"/><text fill="#000000" font-family="sans-serif" font-size="13" font-weight="bold" lengthAdjust="spacingAndGlyphs" textLength="9" x="178" y="141.4966">2</text><text fill="#000000" font-family="sans-serif" font-size="13" lengthAdjust="spacingAndGlyphs" textLength="101" x="191" y="141.4966">getAccount("X")</text><polygon fill="#A80036" points="494,171.5625,504,175.5625,494,179.5625,498,175.5625" style="stroke: #A80036; stroke-width: 1.0;"/><line style="stroke: #A80036; stroke-width: 1.0;" x1="309" x2="500" y1="175.5625" y2="175.5625"/><text fill="#000000" font-family="sans-serif" font-size="13" font-weight="bold" lengthAdjust="spacingAndGlyphs" textLength="9" x="316" y="170.6294">3</text><text fill="#000000" font-family="sans-serif" font-size="13" lengthAdjust="spacingAndGlyphs" textLength="139" x="329" y="170.6294">loadEventStream("X")</text><polygon fill="#A80036" points="320,200.6953,310,204.6953,320,208.6953,316,204.6953" style="stroke: #A80036; stroke-width: 1.0;"/><line style="stroke: #A80036; stroke-width: 1.0; stroke-dasharray: 2.0,2.0;" x1="314" x2="505" y1="204.6953" y2="204.6953"/><text fill="#000000" font-family="sans-serif" font-size="13" font-weight="bold" lengthAdjust="spacingAndGlyphs" textLength="9" x="326" y="199.7622">4</text><text fill="#000000" font-family="sans-serif" font-size="13" lengthAdjust="spacingAndGlyphs" textLength="142" x="339" y="199.7622">events : List&lt;Events&gt;</text><polygon fill="#A80036" points="551,229.8281,561,233.8281,551,237.8281,555,233.8281" style="stroke: #A80036; stroke-width: 1.0;"/><line style="stroke: #A80036; stroke-width: 1.0;" x1="309" x2="557" y1="233.8281" y2="233.8281"/><text fill="#000000" font-family="sans-serif" font-size="13" font-weight="bold" lengthAdjust="spacingAndGlyphs" textLength="9" x="316" y="228.895">5</text><text fill="#000000" font-family="sans-serif" font-size="13" lengthAdjust="spacingAndGlyphs" textLength="94" x="329" y="228.895">create(events)</text><rect fill="#FEFECE" filter="url(#f132aeqvdyist9)" height="30.2969" style="stroke: #A80036; stroke-width: 1.5;" width="71" x="563" y="212.8281"/><text fill="#000000" font-family="sans-serif" font-size="14" lengthAdjust="spacingAndGlyphs" textLength="57" x="570" y="232.8232">Account</text><line style="stroke: #A80036; stroke-width: 1.0;" x1="600.5" x2="642.5" y1="279.2578" y2="279.2578"/><line style="stroke: #A80036; stroke-width: 1.0;" x1="642.5" x2="642.5" y1="279.2578" y2="292.2578"/><line style="stroke: #A80036; stroke-width: 1.0;" x1="601.5" x2="642.5" y1="292.2578" y2="292.2578"/><polygon fill="#A80036" points="611.5,288.2578,601.5,292.2578,611.5,296.2578,607.5,292.2578" style="stroke: #A80036; stroke-width: 1.0;"/><text fill="#000000" font-family="sans-serif" font-size="13" font-weight="bold" lengthAdjust="spacingAndGlyphs" textLength="9" x="607.5" y="274.1919">6</text><text fill="#000000" font-family="sans-serif" font-size="13" lengthAdjust="spacingAndGlyphs" textLength="87" x="620.5" y="274.1919">apply(events)</text><polygon fill="#A80036" points="320,317.2578,310,321.2578,320,325.2578,316,321.2578" style="stroke: #A80036; stroke-width: 1.0;"/><line style="stroke: #A80036; stroke-width: 1.0; stroke-dasharray: 2.0,2.0;" x1="314" x2="599.5" y1="321.2578" y2="321.2578"/><text fill="#000000" font-family="sans-serif" font-size="13" font-weight="bold" lengthAdjust="spacingAndGlyphs" textLength="9" x="326" y="316.3247">7</text><text fill="#000000" font-family="sans-serif" font-size="13" lengthAdjust="spacingAndGlyphs" textLength="0" x="343" y="316.3247"/><polygon fill="#A80036" points="182,346.3906,172,350.3906,182,354.3906,178,350.3906" style="stroke: #A80036; stroke-width: 1.0;"/><line style="stroke: #A80036; stroke-width: 1.0; stroke-dasharray: 2.0,2.0;" x1="176" x2="308" y1="350.3906" y2="350.3906"/><text fill="#000000" font-family="sans-serif" font-size="13" font-weight="bold" lengthAdjust="spacingAndGlyphs" textLength="9" x="188" y="345.4575">8</text><text fill="#000000" font-family="sans-serif" font-size="13" lengthAdjust="spacingAndGlyphs" textLength="68" x="201" y="345.4575">a: Account</text><polygon fill="#A80036" points="588.5,375.5234,598.5,379.5234,588.5,383.5234,592.5,379.5234" style="stroke: #A80036; stroke-width: 1.0;"/><line style="stroke: #A80036; stroke-width: 1.0;" x1="171" x2="594.5" y1="379.5234" y2="379.5234"/><text fill="#000000" font-family="sans-serif" font-size="13" font-weight="bold" lengthAdjust="spacingAndGlyphs" textLength="9" x="178" y="374.5903">9</text><text fill="#000000" font-family="sans-serif" font-size="13" lengthAdjust="spacingAndGlyphs" textLength="93" x="191" y="374.5903">a.withdraw(42)</text><line style="stroke: #A80036; stroke-width: 1.0;" x1="600.5" x2="642.5" y1="408.7891" y2="408.7891"/><line style="stroke: #A80036; stroke-width: 1.0;" x1="642.5" x2="642.5" y1="408.7891" y2="421.7891"/><line style="stroke: #A80036; stroke-width: 1.0;" x1="601.5" x2="642.5" y1="421.7891" y2="421.7891"/><polygon fill="#A80036" points="611.5,417.7891,601.5,421.7891,611.5,425.7891,607.5,421.7891" style="stroke: #A80036; stroke-width: 1.0;"/><text fill="#000000" font-family="sans-serif" font-size="13" font-weight="bold" lengthAdjust="spacingAndGlyphs" textLength="18" x="607.5" y="403.7231">10</text><text fill="#000000" font-family="sans-serif" font-size="13" lengthAdjust="spacingAndGlyphs" textLength="176" x="629.5" y="403.7231">emit MoneyWithdrawnEvent</text><polygon fill="#A80036" points="182,446.7891,172,450.7891,182,454.7891,178,450.7891" style="stroke: #A80036; stroke-width: 1.0;"/><line style="stroke: #A80036; stroke-width: 1.0; stroke-dasharray: 2.0,2.0;" x1="176" x2="599.5" y1="450.7891" y2="450.7891"/><text fill="#000000" font-family="sans-serif" font-size="13" font-weight="bold" lengthAdjust="spacingAndGlyphs" textLength="18" x="188" y="445.856">11</text><text fill="#000000" font-family="sans-serif" font-size="13" lengthAdjust="spacingAndGlyphs" textLength="0" x="214" y="445.856"/><polygon fill="#A80036" points="297,475.9219,307,479.9219,297,483.9219,301,479.9219" style="stroke: #A80036; stroke-width: 1.0;"/><line style="stroke: #A80036; stroke-width: 1.0;" x1="171" x2="303" y1="479.9219" y2="479.9219"/><text fill="#000000" font-family="sans-serif" font-size="13" font-weight="bold" lengthAdjust="spacingAndGlyphs" textLength="18" x="178" y="474.9888">12</text><text fill="#000000" font-family="sans-serif" font-size="13" lengthAdjust="spacingAndGlyphs" textLength="48" x="200" y="474.9888">save(a)</text><polygon fill="#A80036" points="588.5,505.0547,598.5,509.0547,588.5,513.0547,592.5,509.0547" style="stroke: #A80036; stroke-width: 1.0;"/><line style="stroke: #A80036; stroke-width: 1.0;" x1="309" x2="594.5" y1="509.0547" y2="509.0547"/><text fill="#000000" font-family="sans-serif" font-size="13" font-weight="bold" lengthAdjust="spacingAndGlyphs" textLength="18" x="316" y="504.1216">13</text><text fill="#000000" font-family="sans-serif" font-size="13" lengthAdjust="spacingAndGlyphs" textLength="124" x="338" y="504.1216">getEmittedEvents()</text><polygon fill="#A80036" points="320,534.1875,310,538.1875,320,542.1875,316,538.1875" style="stroke: #A80036; stroke-width: 1.0;"/><line style="stroke: #A80036; stroke-width: 1.0; stroke-dasharray: 2.0,2.0;" x1="314" x2="599.5" y1="538.1875" y2="538.1875"/><text fill="#000000" font-family="sans-serif" font-size="13" font-weight="bold" lengthAdjust="spacingAndGlyphs" textLength="18" x="326" y="533.2544">14</text><text fill="#000000" font-family="sans-serif" font-size="13" lengthAdjust="spacingAndGlyphs" textLength="181" x="348" y="533.2544">emittedEvents: List&lt;Event&gt;</text><line style="stroke: #A80036; stroke-width: 2.0;" x1="591.5" x2="609.5" y1="529.1875" y2="547.1875"/><line style="stroke: #A80036; stroke-width: 2.0;" x1="591.5" x2="609.5" y1="547.1875" y2="529.1875"/><polygon fill="#A80036" points="494,563.3203,504,567.3203,494,571.3203,498,567.3203" style="stroke: #A80036; stroke-width: 1.0;"/><line style="stroke: #A80036; stroke-width: 1.0;" x1="309" x2="500" y1="567.3203" y2="567.3203"/><text fill="#000000" font-family="sans-serif" font-size="13" font-weight="bold" lengthAdjust="spacingAndGlyphs" textLength="18" x="316" y="562.3872">15</text><text fill="#000000" font-family="sans-serif" font-size="13" lengthAdjust="spacingAndGlyphs" textLength="151" x="338" y="562.3872">append(emittedEvents)</text><polygon fill="#A80036" points="320,592.4531,310,596.4531,320,600.4531,316,596.4531" style="stroke: #A80036; stroke-width: 1.0;"/><line style="stroke: #A80036; stroke-width: 1.0; stroke-dasharray: 2.0,2.0;" x1="314" x2="505" y1="596.4531" y2="596.4531"/><text fill="#000000" font-family="sans-serif" font-size="13" font-weight="bold" lengthAdjust="spacingAndGlyphs" textLength="18" x="326" y="591.52">16</text><text fill="#000000" font-family="sans-serif" font-size="13" lengthAdjust="spacingAndGlyphs" textLength="0" x="352" y="591.52"/><polygon fill="#A80036" points="182,621.5859,172,625.5859,182,629.5859,178,625.5859" style="stroke: #A80036; stroke-width: 1.0;"/><line style="stroke: #A80036; stroke-width: 1.0; stroke-dasharray: 2.0,2.0;" x1="176" x2="308" y1="625.5859" y2="625.5859"/><text fill="#000000" font-family="sans-serif" font-size="13" font-weight="bold" lengthAdjust="spacingAndGlyphs" textLength="18" x="188" y="620.6528">17</text><text fill="#000000" font-family="sans-serif" font-size="13" lengthAdjust="spacingAndGlyphs" textLength="0" x="214" y="620.6528"/><polygon fill="#A80036" points="38,650.7188,28,654.7188,38,658.7188,34,654.7188" style="stroke: #A80036; stroke-width: 1.0;"/><line style="stroke: #A80036; stroke-width: 1.0; stroke-dasharray: 2.0,2.0;" x1="32" x2="170" y1="654.7188" y2="654.7188"/><text fill="#000000" font-family="sans-serif" font-size="13" font-weight="bold" lengthAdjust="spacingAndGlyphs" textLength="18" x="44" y="649.7856">18</text><text fill="#000000" font-family="sans-serif" font-size="13" lengthAdjust="spacingAndGlyphs" textLength="0" x="70" y="649.7856"/><!--
@startuml

actor "User" as U
participant "Application Service" as AS
participant "Repository" as R
participant "EventStore" as ES
autonumber
U -> AS: withdraw("X", 42)
AS -> R: getAccount("X")
R -> ES: loadEventStream("X")
R <- - ES: events : List<Events>
create "Account" as A
R ->  A: create(events)
A -> A: apply(events)
R <- - A
AS <- - R: a: Account
AS -> A: a.withdraw(42)
A -> A: emit MoneyWithdrawnEvent
AS <- - A
AS -> R: save(a)
R -> A: getEmittedEvents()
R <- - A: emittedEvents: List<Event>
destroy A
R -> ES: append(emittedEvents)
R <- - ES
AS <- - R
U <- - AS

@enduml

PlantUML version 1.2017.15(Mon Jul 03 18:45:34 CEST 2017)
(GPL source distribution)
Java Runtime: Java(TM) SE Runtime Environment
JVM: Java HotSpot(TM) 64-Bit Server VM
Java Version: 1.8.0_191-b12
Operating System: Linux
OS Version: 4.15.0-72-generic
Default Encoding: UTF-8
Language: en
Country: US
--></g></svg>