<?xml version="1.0" encoding="UTF-8" standalone="no"?><svg xmlns="http://www.w3.org/2000/svg" xmlns:xlink="http://www.w3.org/1999/xlink" contentScriptType="application/ecmascript" contentStyleType="text/css" height="440px" preserveAspectRatio="none" style="width:430px;height:440px;" version="1.1" viewBox="0 0 430 440" width="430px" zoomAndPan="magnify"><defs><filter height="300%" id="f1cokqkp4w1jih" width="300%" x="-1" y="-1"><feGaussianBlur result="blurOut" stdDeviation="2.0"/><feColorMatrix in="blurOut" result="blurOut2" type="matrix" values="0 0 0 0 0 0 0 0 0 0 0 0 0 0 0 0 0 0 .4 0"/><feOffset dx="4.0" dy="4.0" in="blurOut2" result="blurOut3"/><feBlend in="SourceGraphic" in2="blurOut3" mode="normal"/></filter></defs><g><rect fill="#FEFECE" filter="url(#f1cokqkp4w1jih)" height="30.2969" style="stroke: #A80036; stroke-width: 1.5;" width="71" x="348" y="154.5625"/><text fill="#000000" font-family="sans-serif" font-size="14" lengthAdjust="spacingAndGlyphs" textLength="57" x="355" y="174.5576">Account</text><line style="stroke: #A80036; stroke-width: 1.0; stroke-dasharray: 5.0,5.0;" x1="27" x2="27" y1="86.2969" y2="353.2578"/><line style="stroke: #A80036; stroke-width: 1.0; stroke-dasharray: 5.0,5.0;" x1="132" x2="132" y1="86.2969" y2="353.2578"/><line style="stroke: #A80036; stroke-width: 1.0; stroke-dasharray: 5.0,5.0;" x1="273" x2="273" y1="86.2969" y2="353.2578"/><line style="stroke: #A80036; stroke-width: 1.0; stroke-dasharray: 5.0,5.0;" x1="385" x2="385" y1="187.2109" y2="353.2578"/><text fill="#000000" font-family="sans-serif" font-size="14" lengthAdjust="spacingAndGlyphs" textLength="32" x="8" y="82.9951">User</text><ellipse cx="27" cy="13" fill="#FEFECE" filter="url(#f1cokqkp4w1jih)" rx="8" ry="8" style="stroke: #A80036; stroke-width: 2.0;"/><path d="M27,21 L27,48 M14,29 L40,29 M27,48 L14,63 M27,48 L40,63 " fill="#FEFECE" filter="url(#f1cokqkp4w1jih)" style="stroke: #A80036; stroke-width: 2.0;"/><text fill="#000000" font-family="sans-serif" font-size="14" lengthAdjust="spacingAndGlyphs" textLength="32" x="8" y="365.2529">User</text><ellipse cx="27" cy="378.5547" fill="#FEFECE" filter="url(#f1cokqkp4w1jih)" rx="8" ry="8" style="stroke: #A80036; stroke-width: 2.0;"/><path d="M27,386.5547 L27,413.5547 M14,394.5547 L40,394.5547 M27,413.5547 L14,428.5547 M27,413.5547 L40,428.5547 " fill="#FEFECE" filter="url(#f1cokqkp4w1jih)" style="stroke: #A80036; stroke-width: 2.0;"/><rect fill="#FEFECE" filter="url(#f1cokqkp4w1jih)" height="30.2969" style="stroke: #A80036; stroke-width: 1.5;" width="64" x="98" y="51"/><text fill="#000000" font-family="sans-serif" font-size="14" lengthAdjust="spacingAndGlyphs" textLength="50" x="105" y="70.9951">Service</text><rect fill="#FEFECE" filter="url(#f1cokqkp4w1jih)" height="30.2969" style="stroke: #A80036; stroke-width: 1.5;" width="64" x="98" y="352.2578"/><text fill="#000000" font-family="sans-serif" font-size="14" lengthAdjust="spacingAndGlyphs" textLength="50" x="105" y="372.2529">Service</text><rect fill="#FEFECE" filter="url(#f1cokqkp4w1jih)" height="30.2969" style="stroke: #A80036; stroke-width: 1.5;" width="88" x="227" y="51"/><text fill="#000000" font-family="sans-serif" font-size="14" lengthAdjust="spacingAndGlyphs" textLength="74" x="234" y="70.9951">Repository</text><rect fill="#FEFECE" filter="url(#f1cokqkp4w1jih)" height="30.2969" style="stroke: #A80036; stroke-width: 1.5;" width="88" x="227" y="352.2578"/><text fill="#000000" font-family="sans-serif" font-size="14" lengthAdjust="spacingAndGlyphs" textLength="74" x="234" y="372.2529">Repository</text><rect fill="#FEFECE" filter="url(#f1cokqkp4w1jih)" height="30.2969" style="stroke: #A80036; stroke-width: 1.5;" width="71" x="348" y="352.2578"/><text fill="#000000" font-family="sans-serif" font-size="14" lengthAdjust="spacingAndGlyphs" textLength="57" x="355" y="372.2529">Account</text><polygon fill="#A80036" points="120,113.2969,130,117.2969,120,121.2969,124,117.2969" style="stroke: #A80036; stroke-width: 1.0;"/><line style="stroke: #A80036; stroke-width: 1.0;" x1="27" x2="126" y1="117.2969" y2="117.2969"/><text fill="#000000" font-family="sans-serif" font-size="13" lengthAdjust="spacingAndGlyphs" textLength="81" x="34" y="112.3638">withdraw(42)</text><polygon fill="#A80036" points="261,142.4297,271,146.4297,261,150.4297,265,146.4297" style="stroke: #A80036; stroke-width: 1.0;"/><line style="stroke: #A80036; stroke-width: 1.0;" x1="132" x2="267" y1="146.4297" y2="146.4297"/><text fill="#000000" font-family="sans-serif" font-size="13" lengthAdjust="spacingAndGlyphs" textLength="117" x="139" y="141.4966">getAccount("123")</text><polygon fill="#A80036" points="336,171.5625,346,175.5625,336,179.5625,340,175.5625" style="stroke: #A80036; stroke-width: 1.0;"/><line style="stroke: #A80036; stroke-width: 1.0;" x1="273" x2="342" y1="175.5625" y2="175.5625"/><text fill="#000000" font-family="sans-serif" font-size="13" lengthAdjust="spacingAndGlyphs" textLength="51" x="280" y="170.6294">create()</text><rect fill="#FEFECE" filter="url(#f1cokqkp4w1jih)" height="30.2969" style="stroke: #A80036; stroke-width: 1.5;" width="71" x="348" y="154.5625"/><text fill="#000000" font-family="sans-serif" font-size="14" lengthAdjust="spacingAndGlyphs" textLength="57" x="355" y="174.5576">Account</text><polygon fill="#A80036" points="284,201.8594,274,205.8594,284,209.8594,280,205.8594" style="stroke: #A80036; stroke-width: 1.0;"/><line style="stroke: #A80036; stroke-width: 1.0; stroke-dasharray: 2.0,2.0;" x1="278" x2="384.5" y1="205.8594" y2="205.8594"/><polygon fill="#A80036" points="143,230.8594,133,234.8594,143,238.8594,139,234.8594" style="stroke: #A80036; stroke-width: 1.0;"/><line style="stroke: #A80036; stroke-width: 1.0; stroke-dasharray: 2.0,2.0;" x1="137" x2="272" y1="234.8594" y2="234.8594"/><text fill="#000000" font-family="sans-serif" font-size="13" lengthAdjust="spacingAndGlyphs" textLength="68" x="149" y="229.9263">a: Account</text><polygon fill="#A80036" points="373.5,259.9922,383.5,263.9922,373.5,267.9922,377.5,263.9922" style="stroke: #A80036; stroke-width: 1.0;"/><line style="stroke: #A80036; stroke-width: 1.0;" x1="132" x2="379.5" y1="263.9922" y2="263.9922"/><text fill="#000000" font-family="sans-serif" font-size="13" lengthAdjust="spacingAndGlyphs" textLength="81" x="139" y="259.0591">withdraw(42)</text><polygon fill="#A80036" points="143,274.125,133,278.125,143,282.125,139,278.125" style="stroke: #A80036; stroke-width: 1.0;"/><line style="stroke: #A80036; stroke-width: 1.0; stroke-dasharray: 2.0,2.0;" x1="137" x2="384.5" y1="278.125" y2="278.125"/><polygon fill="#A80036" points="261,303.125,271,307.125,261,311.125,265,307.125" style="stroke: #A80036; stroke-width: 1.0;"/><line style="stroke: #A80036; stroke-width: 1.0;" x1="132" x2="267" y1="307.125" y2="307.125"/><text fill="#000000" font-family="sans-serif" font-size="13" lengthAdjust="spacingAndGlyphs" textLength="51" x="139" y="302.1919">store(a)</text><polygon fill="#A80036" points="143,317.2578,133,321.2578,143,325.2578,139,321.2578" style="stroke: #A80036; stroke-width: 1.0;"/><line style="stroke: #A80036; stroke-width: 1.0; stroke-dasharray: 2.0,2.0;" x1="137" x2="272" y1="321.2578" y2="321.2578"/><polygon fill="#A80036" points="38,331.2578,28,335.2578,38,339.2578,34,335.2578" style="stroke: #A80036; stroke-width: 1.0;"/><line style="stroke: #A80036; stroke-width: 1.0; stroke-dasharray: 2.0,2.0;" x1="32" x2="131" y1="335.2578" y2="335.2578"/><!--
@startuml

actor "User" as U
participant "Service" as S
participant "Repository" as R

U -> S: withdraw(42)
S -> R: getAccount("123")
create   "Account" as A
R -> A: create()
return
S <- - R: a: Account
S -> A: withdraw(42)
return
S -> R: store(a)
return
U <- - S:

@enduml

PlantUML version 1.2017.15(Mon Jul 03 18:45:34 CEST 2017)
(GPL source distribution)
Java Runtime: Java(TM) SE Runtime Environment
JVM: Java HotSpot(TM) 64-Bit Server VM
Java Version: 1.8.0_191-b12
Operating System: Linux
OS Version: 4.15.0-72-generic
Default Encoding: UTF-8
Language: en
Country: US
--></g></svg>