<?xml version="1.0" encoding="UTF-8" standalone="no"?><svg xmlns="http://www.w3.org/2000/svg" xmlns:xlink="http://www.w3.org/1999/xlink" contentScriptType="application/ecmascript" contentStyleType="text/css" height="684px" preserveAspectRatio="none" style="width:752px;height:684px;" version="1.1" viewBox="0 0 752 684" width="752px" zoomAndPan="magnify"><defs><filter height="300%" id="f1k7n8c46b2sic" width="300%" x="-1" y="-1"><feGaussianBlur result="blurOut" stdDeviation="2.0"/><feColorMatrix in="blurOut" result="blurOut2" type="matrix" values="0 0 0 0 0 0 0 0 0 0 0 0 0 0 0 0 0 0 .4 0"/><feOffset dx="4.0" dy="4.0" in="blurOut2" result="blurOut3"/><feBlend in="SourceGraphic" in2="blurOut3" mode="normal"/></filter></defs><g><rect fill="#FEFECE" filter="url(#f1k7n8c46b2sic)" height="30.2969" style="stroke: #A80036; stroke-width: 1.5;" width="71" x="519.5" y="212.8281"/><text fill="#000000" font-family="sans-serif" font-size="14" lengthAdjust="spacingAndGlyphs" textLength="57" x="526.5" y="232.8232">Account</text><line style="stroke: #A80036; stroke-width: 1.0; stroke-dasharray: 5.0,5.0;" x1="27" x2="27" y1="86.2969" y2="597.1875"/><line style="stroke: #A80036; stroke-width: 1.0; stroke-dasharray: 5.0,5.0;" x1="157.5" x2="157.5" y1="86.2969" y2="597.1875"/><line style="stroke: #A80036; stroke-width: 1.0; stroke-dasharray: 5.0,5.0;" x1="287.5" x2="287.5" y1="86.2969" y2="597.1875"/><line style="stroke: #A80036; stroke-width: 1.0; stroke-dasharray: 5.0,5.0;" x1="462.5" x2="462.5" y1="86.2969" y2="597.1875"/><line style="stroke: #A80036; stroke-width: 1.0; stroke-dasharray: 5.0,5.0;" x1="556.5" x2="556.5" y1="245.4766" y2="597.1875"/><text fill="#000000" font-family="sans-serif" font-size="14" lengthAdjust="spacingAndGlyphs" textLength="32" x="8" y="82.9951">User</text><ellipse cx="27" cy="13" fill="#FEFECE" filter="url(#f1k7n8c46b2sic)" rx="8" ry="8" style="stroke: #A80036; stroke-width: 2.0;"/><path d="M27,21 L27,48 M14,29 L40,29 M27,48 L14,63 M27,48 L40,63 " fill="#FEFECE" filter="url(#f1k7n8c46b2sic)" style="stroke: #A80036; stroke-width: 2.0;"/><text fill="#000000" font-family="sans-serif" font-size="14" lengthAdjust="spacingAndGlyphs" textLength="32" x="8" y="609.1826">User</text><ellipse cx="27" cy="622.4844" fill="#FEFECE" filter="url(#f1k7n8c46b2sic)" rx="8" ry="8" style="stroke: #A80036; stroke-width: 2.0;"/><path d="M27,630.4844 L27,657.4844 M14,638.4844 L40,638.4844 M27,657.4844 L14,672.4844 M27,657.4844 L40,672.4844 " fill="#FEFECE" filter="url(#f1k7n8c46b2sic)" style="stroke: #A80036; stroke-width: 2.0;"/><rect fill="#FEFECE" filter="url(#f1k7n8c46b2sic)" height="30.2969" style="stroke: #A80036; stroke-width: 1.5;" width="143" x="84.5" y="51"/><text fill="#000000" font-family="sans-serif" font-size="14" lengthAdjust="spacingAndGlyphs" textLength="129" x="91.5" y="70.9951">Application Service</text><rect fill="#FEFECE" filter="url(#f1k7n8c46b2sic)" height="30.2969" style="stroke: #A80036; stroke-width: 1.5;" width="143" x="84.5" y="596.1875"/><text fill="#000000" font-family="sans-serif" font-size="14" lengthAdjust="spacingAndGlyphs" textLength="129" x="91.5" y="616.1826">Application Service</text><rect fill="#FEFECE" filter="url(#f1k7n8c46b2sic)" height="30.2969" style="stroke: #A80036; stroke-width: 1.5;" width="88" x="241.5" y="51"/><text fill="#000000" font-family="sans-serif" font-size="14" lengthAdjust="spacingAndGlyphs" textLength="74" x="248.5" y="70.9951">Repository</text><rect fill="#FEFECE" filter="url(#f1k7n8c46b2sic)" height="30.2969" style="stroke: #A80036; stroke-width: 1.5;" width="88" x="241.5" y="596.1875"/><text fill="#000000" font-family="sans-serif" font-size="14" lengthAdjust="spacingAndGlyphs" textLength="74" x="248.5" y="616.1826">Repository</text><rect fill="#FEFECE" filter="url(#f1k7n8c46b2sic)" height="30.2969" style="stroke: #A80036; stroke-width: 1.5;" width="90" x="415.5" y="51"/><text fill="#000000" font-family="sans-serif" font-size="14" lengthAdjust="spacingAndGlyphs" textLength="76" x="422.5" y="70.9951">EventStore</text><rect fill="#FEFECE" filter="url(#f1k7n8c46b2sic)" height="30.2969" style="stroke: #A80036; stroke-width: 1.5;" width="90" x="415.5" y="596.1875"/><text fill="#000000" font-family="sans-serif" font-size="14" lengthAdjust="spacingAndGlyphs" textLength="76" x="422.5" y="616.1826">EventStore</text><rect fill="#FEFECE" filter="url(#f1k7n8c46b2sic)" height="30.2969" style="stroke: #A80036; stroke-width: 1.5;" width="71" x="519.5" y="596.1875"/><text fill="#000000" font-family="sans-serif" font-size="14" lengthAdjust="spacingAndGlyphs" textLength="57" x="526.5" y="616.1826">Account</text><polygon fill="#A80036" points="146,113.2969,156,117.2969,146,121.2969,150,117.2969" style="stroke: #A80036; stroke-width: 1.0;"/><line style="stroke: #A80036; stroke-width: 1.0;" x1="27" x2="152" y1="117.2969" y2="117.2969"/><text fill="#000000" font-family="sans-serif" font-size="13" lengthAdjust="spacingAndGlyphs" textLength="107" x="34" y="112.3638">withdraw("X", 42)</text><polygon fill="#A80036" points="275.5,142.4297,285.5,146.4297,275.5,150.4297,279.5,146.4297" style="stroke: #A80036; stroke-width: 1.0;"/><line style="stroke: #A80036; stroke-width: 1.0;" x1="158" x2="281.5" y1="146.4297" y2="146.4297"/><text fill="#000000" font-family="sans-serif" font-size="13" lengthAdjust="spacingAndGlyphs" textLength="101" x="165" y="141.4966">getAccount("X")</text><polygon fill="#A80036" points="450.5,171.5625,460.5,175.5625,450.5,179.5625,454.5,175.5625" style="stroke: #A80036; stroke-width: 1.0;"/><line style="stroke: #A80036; stroke-width: 1.0;" x1="287.5" x2="456.5" y1="175.5625" y2="175.5625"/><text fill="#000000" font-family="sans-serif" font-size="13" lengthAdjust="spacingAndGlyphs" textLength="144" x="294.5" y="170.6294">loadEventStream for X</text><polygon fill="#A80036" points="298.5,200.6953,288.5,204.6953,298.5,208.6953,294.5,204.6953" style="stroke: #A80036; stroke-width: 1.0;"/><line style="stroke: #A80036; stroke-width: 1.0; stroke-dasharray: 2.0,2.0;" x1="292.5" x2="461.5" y1="204.6953" y2="204.6953"/><text fill="#000000" font-family="sans-serif" font-size="13" lengthAdjust="spacingAndGlyphs" textLength="142" x="304.5" y="199.7622">events : List&lt;Events&gt;</text><polygon fill="#A80036" points="507.5,229.8281,517.5,233.8281,507.5,237.8281,511.5,233.8281" style="stroke: #A80036; stroke-width: 1.0;"/><line style="stroke: #A80036; stroke-width: 1.0;" x1="287.5" x2="513.5" y1="233.8281" y2="233.8281"/><text fill="#000000" font-family="sans-serif" font-size="13" lengthAdjust="spacingAndGlyphs" textLength="94" x="294.5" y="228.895">create(events)</text><rect fill="#FEFECE" filter="url(#f1k7n8c46b2sic)" height="30.2969" style="stroke: #A80036; stroke-width: 1.5;" width="71" x="519.5" y="212.8281"/><text fill="#000000" font-family="sans-serif" font-size="14" lengthAdjust="spacingAndGlyphs" textLength="57" x="526.5" y="232.8232">Account</text><line style="stroke: #A80036; stroke-width: 1.0;" x1="557" x2="599" y1="279.2578" y2="279.2578"/><line style="stroke: #A80036; stroke-width: 1.0;" x1="599" x2="599" y1="279.2578" y2="292.2578"/><line style="stroke: #A80036; stroke-width: 1.0;" x1="558" x2="599" y1="292.2578" y2="292.2578"/><polygon fill="#A80036" points="568,288.2578,558,292.2578,568,296.2578,564,292.2578" style="stroke: #A80036; stroke-width: 1.0;"/><text fill="#000000" font-family="sans-serif" font-size="13" lengthAdjust="spacingAndGlyphs" textLength="87" x="564" y="274.1919">apply(events)</text><polygon fill="#A80036" points="298.5,302.2578,288.5,306.2578,298.5,310.2578,294.5,306.2578" style="stroke: #A80036; stroke-width: 1.0;"/><line style="stroke: #A80036; stroke-width: 1.0; stroke-dasharray: 2.0,2.0;" x1="292.5" x2="556" y1="306.2578" y2="306.2578"/><polygon fill="#A80036" points="169,331.2578,159,335.2578,169,339.2578,165,335.2578" style="stroke: #A80036; stroke-width: 1.0;"/><line style="stroke: #A80036; stroke-width: 1.0; stroke-dasharray: 2.0,2.0;" x1="163" x2="286.5" y1="335.2578" y2="335.2578"/><text fill="#000000" font-family="sans-serif" font-size="13" lengthAdjust="spacingAndGlyphs" textLength="68" x="175" y="330.3247">a: Account</text><polygon fill="#A80036" points="545,360.3906,555,364.3906,545,368.3906,549,364.3906" style="stroke: #A80036; stroke-width: 1.0;"/><line style="stroke: #A80036; stroke-width: 1.0;" x1="158" x2="551" y1="364.3906" y2="364.3906"/><text fill="#000000" font-family="sans-serif" font-size="13" lengthAdjust="spacingAndGlyphs" textLength="81" x="165" y="359.4575">withdraw(42)</text><line style="stroke: #A80036; stroke-width: 1.0;" x1="557" x2="599" y1="393.6563" y2="393.6563"/><line style="stroke: #A80036; stroke-width: 1.0;" x1="599" x2="599" y1="393.6563" y2="406.6563"/><line style="stroke: #A80036; stroke-width: 1.0;" x1="558" x2="599" y1="406.6563" y2="406.6563"/><polygon fill="#A80036" points="568,402.6563,558,406.6563,568,410.6563,564,406.6563" style="stroke: #A80036; stroke-width: 1.0;"/><text fill="#000000" font-family="sans-serif" font-size="13" lengthAdjust="spacingAndGlyphs" textLength="176" x="564" y="388.5903">emit MoneyWithdrawnEvent</text><polygon fill="#A80036" points="169,416.6563,159,420.6563,169,424.6563,165,420.6563" style="stroke: #A80036; stroke-width: 1.0;"/><line style="stroke: #A80036; stroke-width: 1.0; stroke-dasharray: 2.0,2.0;" x1="163" x2="556" y1="420.6563" y2="420.6563"/><polygon fill="#A80036" points="275.5,445.6563,285.5,449.6563,275.5,453.6563,279.5,449.6563" style="stroke: #A80036; stroke-width: 1.0;"/><line style="stroke: #A80036; stroke-width: 1.0;" x1="158" x2="281.5" y1="449.6563" y2="449.6563"/><text fill="#000000" font-family="sans-serif" font-size="13" lengthAdjust="spacingAndGlyphs" textLength="49" x="165" y="444.7231">save(A)</text><polygon fill="#A80036" points="545,474.7891,555,478.7891,545,482.7891,549,478.7891" style="stroke: #A80036; stroke-width: 1.0;"/><line style="stroke: #A80036; stroke-width: 1.0;" x1="287.5" x2="551" y1="478.7891" y2="478.7891"/><text fill="#000000" font-family="sans-serif" font-size="13" lengthAdjust="spacingAndGlyphs" textLength="124" x="294.5" y="473.856">getEmittedEvents()</text><polygon fill="#A80036" points="298.5,503.9219,288.5,507.9219,298.5,511.9219,294.5,507.9219" style="stroke: #A80036; stroke-width: 1.0;"/><line style="stroke: #A80036; stroke-width: 1.0; stroke-dasharray: 2.0,2.0;" x1="292.5" x2="556" y1="507.9219" y2="507.9219"/><text fill="#000000" font-family="sans-serif" font-size="13" lengthAdjust="spacingAndGlyphs" textLength="181" x="304.5" y="502.9888">emittedEvents: List&lt;Event&gt;</text><line style="stroke: #A80036; stroke-width: 2.0;" x1="548" x2="566" y1="498.9219" y2="516.9219"/><line style="stroke: #A80036; stroke-width: 2.0;" x1="548" x2="566" y1="516.9219" y2="498.9219"/><polygon fill="#A80036" points="450.5,533.0547,460.5,537.0547,450.5,541.0547,454.5,537.0547" style="stroke: #A80036; stroke-width: 1.0;"/><line style="stroke: #A80036; stroke-width: 1.0;" x1="287.5" x2="456.5" y1="537.0547" y2="537.0547"/><text fill="#000000" font-family="sans-serif" font-size="13" lengthAdjust="spacingAndGlyphs" textLength="151" x="294.5" y="532.1216">append(emittedEvents)</text><polygon fill="#A80036" points="298.5,547.1875,288.5,551.1875,298.5,555.1875,294.5,551.1875" style="stroke: #A80036; stroke-width: 1.0;"/><line style="stroke: #A80036; stroke-width: 1.0; stroke-dasharray: 2.0,2.0;" x1="292.5" x2="461.5" y1="551.1875" y2="551.1875"/><polygon fill="#A80036" points="169,561.1875,159,565.1875,169,569.1875,165,565.1875" style="stroke: #A80036; stroke-width: 1.0;"/><line style="stroke: #A80036; stroke-width: 1.0; stroke-dasharray: 2.0,2.0;" x1="163" x2="286.5" y1="565.1875" y2="565.1875"/><polygon fill="#A80036" points="38,575.1875,28,579.1875,38,583.1875,34,579.1875" style="stroke: #A80036; stroke-width: 1.0;"/><line style="stroke: #A80036; stroke-width: 1.0; stroke-dasharray: 2.0,2.0;" x1="32" x2="157" y1="579.1875" y2="579.1875"/><!--
@startuml

actor "User" as U
participant "Application Service" as AS
participant "Repository" as R
participant "EventStore" as ES

U -> AS: withdraw("X", 42)
AS -> R: getAccount("X")
R -> ES: loadEventStream for X
R <- - ES: events : List<Events>
create "Account" as A
R ->  A: create(events)
A -> A: apply(events)
R <- - A
AS <- - R: a: Account
AS -> A: withdraw(42)
A -> A: emit MoneyWithdrawnEvent
AS <- - A
AS -> R: save(A)
R -> A: getEmittedEvents()
R <- - A: emittedEvents: List<Event>
destroy A
R -> ES: append(emittedEvents)
R <- - ES
AS <- - R
U <- - AS

@enduml

PlantUML version 1.2017.15(Mon Jul 03 18:45:34 CEST 2017)
(GPL source distribution)
Java Runtime: Java(TM) SE Runtime Environment
JVM: Java HotSpot(TM) 64-Bit Server VM
Java Version: 1.8.0_191-b12
Operating System: Linux
OS Version: 4.15.0-72-generic
Default Encoding: UTF-8
Language: en
Country: US
--></g></svg>