<?xml version="1.0" encoding="UTF-8" standalone="no"?><svg xmlns="http://www.w3.org/2000/svg" xmlns:xlink="http://www.w3.org/1999/xlink" contentScriptType="application/ecmascript" contentStyleType="text/css" height="497px" preserveAspectRatio="none" style="width:1111px;height:497px;" version="1.1" viewBox="0 0 1111 497" width="1111px" zoomAndPan="magnify"><defs><filter height="300%" id="fqbdiarwlr9ki" width="300%" x="-1" y="-1"><feGaussianBlur result="blurOut" stdDeviation="2.0"/><feColorMatrix in="blurOut" result="blurOut2" type="matrix" values="0 0 0 0 0 0 0 0 0 0 0 0 0 0 0 0 0 0 .4 0"/><feOffset dx="4.0" dy="4.0" in="blurOut2" result="blurOut3"/><feBlend in="SourceGraphic" in2="blurOut3" mode="normal"/></filter></defs><g><line style="stroke: #A80036; stroke-width: 1.0; stroke-dasharray: 5.0,5.0;" x1="27" x2="27" y1="86.2969" y2="410.4922"/><line style="stroke: #A80036; stroke-width: 1.0; stroke-dasharray: 5.0,5.0;" x1="157.5" x2="157.5" y1="86.2969" y2="410.4922"/><line style="stroke: #A80036; stroke-width: 1.0; stroke-dasharray: 5.0,5.0;" x1="395" x2="395" y1="86.2969" y2="410.4922"/><line style="stroke: #A80036; stroke-width: 1.0; stroke-dasharray: 5.0,5.0;" x1="620" x2="620" y1="86.2969" y2="410.4922"/><line style="stroke: #A80036; stroke-width: 1.0; stroke-dasharray: 5.0,5.0;" x1="956" x2="956" y1="86.2969" y2="410.4922"/><line style="stroke: #A80036; stroke-width: 1.0; stroke-dasharray: 5.0,5.0;" x1="1057" x2="1057" y1="86.2969" y2="410.4922"/><text fill="#000000" font-family="sans-serif" font-size="14" lengthAdjust="spacingAndGlyphs" textLength="32" x="8" y="82.9951">User</text><ellipse cx="27" cy="13" fill="#FEFECE" filter="url(#fqbdiarwlr9ki)" rx="8" ry="8" style="stroke: #A80036; stroke-width: 2.0;"/><path d="M27,21 L27,48 M14,29 L40,29 M27,48 L14,63 M27,48 L40,63 " fill="#FEFECE" filter="url(#fqbdiarwlr9ki)" style="stroke: #A80036; stroke-width: 2.0;"/><text fill="#000000" font-family="sans-serif" font-size="14" lengthAdjust="spacingAndGlyphs" textLength="32" x="8" y="422.4873">User</text><ellipse cx="27" cy="435.7891" fill="#FEFECE" filter="url(#fqbdiarwlr9ki)" rx="8" ry="8" style="stroke: #A80036; stroke-width: 2.0;"/><path d="M27,443.7891 L27,470.7891 M14,451.7891 L40,451.7891 M27,470.7891 L14,485.7891 M27,470.7891 L40,485.7891 " fill="#FEFECE" filter="url(#fqbdiarwlr9ki)" style="stroke: #A80036; stroke-width: 2.0;"/><rect fill="#FEFECE" filter="url(#fqbdiarwlr9ki)" height="30.2969" style="stroke: #A80036; stroke-width: 1.5;" width="143" x="84.5" y="51"/><text fill="#000000" font-family="sans-serif" font-size="14" lengthAdjust="spacingAndGlyphs" textLength="129" x="91.5" y="70.9951">Application Service</text><rect fill="#FEFECE" filter="url(#fqbdiarwlr9ki)" height="30.2969" style="stroke: #A80036; stroke-width: 1.5;" width="143" x="84.5" y="409.4922"/><text fill="#000000" font-family="sans-serif" font-size="14" lengthAdjust="spacingAndGlyphs" textLength="129" x="91.5" y="429.4873">Application Service</text><rect fill="#FEFECE" filter="url(#fqbdiarwlr9ki)" height="30.2969" style="stroke: #A80036; stroke-width: 1.5;" width="148" x="319" y="51"/><text fill="#000000" font-family="sans-serif" font-size="14" lengthAdjust="spacingAndGlyphs" textLength="134" x="326" y="70.9951">Command Gateway</text><rect fill="#FEFECE" filter="url(#fqbdiarwlr9ki)" height="30.2969" style="stroke: #A80036; stroke-width: 1.5;" width="148" x="319" y="409.4922"/><text fill="#000000" font-family="sans-serif" font-size="14" lengthAdjust="spacingAndGlyphs" textLength="134" x="326" y="429.4873">Command Gateway</text><rect fill="#FEFECE" filter="url(#fqbdiarwlr9ki)" height="30.2969" style="stroke: #A80036; stroke-width: 1.5;" width="124" x="556" y="51"/><text fill="#000000" font-family="sans-serif" font-size="14" lengthAdjust="spacingAndGlyphs" textLength="110" x="563" y="70.9951">Account X Actor</text><rect fill="#FEFECE" filter="url(#fqbdiarwlr9ki)" height="30.2969" style="stroke: #A80036; stroke-width: 1.5;" width="124" x="556" y="409.4922"/><text fill="#000000" font-family="sans-serif" font-size="14" lengthAdjust="spacingAndGlyphs" textLength="110" x="563" y="429.4873">Account X Actor</text><rect fill="#FEFECE" filter="url(#fqbdiarwlr9ki)" height="30.2969" style="stroke: #A80036; stroke-width: 1.5;" width="84" x="912" y="51"/><text fill="#000000" font-family="sans-serif" font-size="14" lengthAdjust="spacingAndGlyphs" textLength="70" x="919" y="70.9951">Account X</text><rect fill="#FEFECE" filter="url(#fqbdiarwlr9ki)" height="30.2969" style="stroke: #A80036; stroke-width: 1.5;" width="84" x="912" y="409.4922"/><text fill="#000000" font-family="sans-serif" font-size="14" lengthAdjust="spacingAndGlyphs" textLength="70" x="919" y="429.4873">Account X</text><rect fill="#FEFECE" filter="url(#fqbdiarwlr9ki)" height="30.2969" style="stroke: #A80036; stroke-width: 1.5;" width="90" x="1010" y="51"/><text fill="#000000" font-family="sans-serif" font-size="14" lengthAdjust="spacingAndGlyphs" textLength="76" x="1017" y="70.9951">EventStore</text><rect fill="#FEFECE" filter="url(#fqbdiarwlr9ki)" height="30.2969" style="stroke: #A80036; stroke-width: 1.5;" width="90" x="1010" y="409.4922"/><text fill="#000000" font-family="sans-serif" font-size="14" lengthAdjust="spacingAndGlyphs" textLength="76" x="1017" y="429.4873">EventStore</text><polygon fill="#A80036" points="146,113.2969,156,117.2969,146,121.2969,150,117.2969" style="stroke: #A80036; stroke-width: 1.0;"/><line style="stroke: #A80036; stroke-width: 1.0;" x1="27" x2="152" y1="117.2969" y2="117.2969"/><text fill="#000000" font-family="sans-serif" font-size="13" lengthAdjust="spacingAndGlyphs" textLength="107" x="34" y="112.3638">withdraw("X", 42)</text><polygon fill="#A80036" points="383,142.4297,393,146.4297,383,150.4297,387,146.4297" style="stroke: #A80036; stroke-width: 1.0;"/><line style="stroke: #A80036; stroke-width: 1.0;" x1="158" x2="389" y1="146.4297" y2="146.4297"/><text fill="#000000" font-family="sans-serif" font-size="13" lengthAdjust="spacingAndGlyphs" textLength="213" x="165" y="141.4966">handle(cmd: WithdrawCommand)</text><polygon fill="#A80036" points="608,171.5625,618,175.5625,608,179.5625,612,175.5625" style="stroke: #A80036; stroke-width: 1.0;"/><line style="stroke: #A80036; stroke-width: 1.0;" x1="395" x2="614" y1="175.5625" y2="175.5625"/><text fill="#000000" font-family="sans-serif" font-size="13" lengthAdjust="spacingAndGlyphs" textLength="201" x="402" y="170.6294">send(cmd: WithdrawCommand)</text><polygon fill="#A80036" points="1045,200.6953,1055,204.6953,1045,208.6953,1049,204.6953" style="stroke: #A80036; stroke-width: 1.0;"/><line style="stroke: #A80036; stroke-width: 1.0;" x1="620" x2="1051" y1="204.6953" y2="204.6953"/><text fill="#000000" font-family="sans-serif" font-size="13" lengthAdjust="spacingAndGlyphs" textLength="150" x="627" y="199.7622">load event stream for X</text><polygon fill="#A80036" points="631,229.8281,621,233.8281,631,237.8281,627,233.8281" style="stroke: #A80036; stroke-width: 1.0;"/><line style="stroke: #A80036; stroke-width: 1.0; stroke-dasharray: 2.0,2.0;" x1="625" x2="1056" y1="233.8281" y2="233.8281"/><text fill="#000000" font-family="sans-serif" font-size="13" lengthAdjust="spacingAndGlyphs" textLength="100" x="637" y="228.895">EventStream: X</text><polygon fill="#A80036" points="944,258.9609,954,262.9609,944,266.9609,948,262.9609" style="stroke: #A80036; stroke-width: 1.0;"/><line style="stroke: #A80036; stroke-width: 1.0;" x1="620" x2="950" y1="262.9609" y2="262.9609"/><text fill="#000000" font-family="sans-serif" font-size="13" lengthAdjust="spacingAndGlyphs" textLength="215" x="627" y="258.0278">apply events from EventStream X</text><polygon fill="#A80036" points="631,273.0938,621,277.0938,631,281.0938,627,277.0938" style="stroke: #A80036; stroke-width: 1.0;"/><line style="stroke: #A80036; stroke-width: 1.0; stroke-dasharray: 2.0,2.0;" x1="625" x2="955" y1="277.0938" y2="277.0938"/><polygon fill="#A80036" points="944,302.0938,954,306.0938,944,310.0938,948,306.0938" style="stroke: #A80036; stroke-width: 1.0;"/><line style="stroke: #A80036; stroke-width: 1.0;" x1="620" x2="950" y1="306.0938" y2="306.0938"/><text fill="#000000" font-family="sans-serif" font-size="13" lengthAdjust="spacingAndGlyphs" textLength="312" x="627" y="301.1606">handle(cmd: WithdrawCommand) : List&lt;Events&gt;</text><polygon fill="#A80036" points="631,316.2266,621,320.2266,631,324.2266,627,320.2266" style="stroke: #A80036; stroke-width: 1.0;"/><line style="stroke: #A80036; stroke-width: 1.0; stroke-dasharray: 2.0,2.0;" x1="625" x2="955" y1="320.2266" y2="320.2266"/><polygon fill="#A80036" points="1045,345.2266,1055,349.2266,1045,353.2266,1049,349.2266" style="stroke: #A80036; stroke-width: 1.0;"/><line style="stroke: #A80036; stroke-width: 1.0;" x1="620" x2="1051" y1="349.2266" y2="349.2266"/><text fill="#000000" font-family="sans-serif" font-size="13" lengthAdjust="spacingAndGlyphs" textLength="178" x="627" y="344.2935">save(events: List&lt;Events&gt;)</text><polygon fill="#A80036" points="406,374.3594,396,378.3594,406,382.3594,402,378.3594" style="stroke: #A80036; stroke-width: 1.0;"/><line style="stroke: #A80036; stroke-width: 1.0; stroke-dasharray: 2.0,2.0;" x1="400" x2="619" y1="378.3594" y2="378.3594"/><text fill="#000000" font-family="sans-serif" font-size="13" lengthAdjust="spacingAndGlyphs" textLength="116" x="412" y="373.4263">send(r: Response)</text><polygon fill="#A80036" points="169,388.4922,159,392.4922,169,396.4922,165,392.4922" style="stroke: #A80036; stroke-width: 1.0;"/><line style="stroke: #A80036; stroke-width: 1.0; stroke-dasharray: 2.0,2.0;" x1="163" x2="394" y1="392.4922" y2="392.4922"/><!--
@startuml

actor "User" as U
participant "Application Service" as AS
participant "Command Gateway" as CG
participant "Account X Actor" as AC
participant "Account X" as A
participant "EventStore" as ES

U -> AS: withdraw("X", 42)
AS -> CG: handle(cmd: WithdrawCommand)
CG -> AC: send(cmd: WithdrawCommand)
AC -> ES: load event stream for X
AC <- - ES: EventStream: X
AC -> A: apply events from EventStream X
AC <- - A
AC -> A: handle(cmd: WithdrawCommand) : List<Events>
AC <- - A:
AC -> ES: save(events: List<Events>)
CG <- - AC: send(r: Response)
AS <- - CG

@enduml

PlantUML version 1.2017.15(Mon Jul 03 18:45:34 CEST 2017)
(GPL source distribution)
Java Runtime: Java(TM) SE Runtime Environment
JVM: Java HotSpot(TM) 64-Bit Server VM
Java Version: 1.8.0_191-b12
Operating System: Linux
OS Version: 4.15.0-72-generic
Default Encoding: UTF-8
Language: en
Country: US
--></g></svg>