<?xml version="1.0" encoding="UTF-8" standalone="no"?><svg xmlns="http://www.w3.org/2000/svg" xmlns:xlink="http://www.w3.org/1999/xlink" contentScriptType="application/ecmascript" contentStyleType="text/css" height="684px" preserveAspectRatio="none" style="width:723px;height:684px;" version="1.1" viewBox="0 0 723 684" width="723px" zoomAndPan="magnify"><defs><filter height="300%" id="f1h0dxx4r48721" width="300%" x="-1" y="-1"><feGaussianBlur result="blurOut" stdDeviation="2.0"/><feColorMatrix in="blurOut" result="blurOut2" type="matrix" values="0 0 0 0 0 0 0 0 0 0 0 0 0 0 0 0 0 0 .4 0"/><feOffset dx="4.0" dy="4.0" in="blurOut2" result="blurOut3"/><feBlend in="SourceGraphic" in2="blurOut3" mode="normal"/></filter></defs><g><rect fill="#FEFECE" filter="url(#f1h0dxx4r48721)" height="30.2969" style="stroke: #A80036; stroke-width: 1.5;" width="71" x="491" y="212.8281"/><text fill="#000000" font-family="sans-serif" font-size="14" lengthAdjust="spacingAndGlyphs" textLength="57" x="498" y="232.8232">Account</text><line style="stroke: #A80036; stroke-width: 1.0; stroke-dasharray: 5.0,5.0;" x1="27" x2="27" y1="86.2969" y2="597.1875"/><line style="stroke: #A80036; stroke-width: 1.0; stroke-dasharray: 5.0,5.0;" x1="129" x2="129" y1="86.2969" y2="597.1875"/><line style="stroke: #A80036; stroke-width: 1.0; stroke-dasharray: 5.0,5.0;" x1="259" x2="259" y1="86.2969" y2="597.1875"/><line style="stroke: #A80036; stroke-width: 1.0; stroke-dasharray: 5.0,5.0;" x1="434" x2="434" y1="86.2969" y2="597.1875"/><line style="stroke: #A80036; stroke-width: 1.0; stroke-dasharray: 5.0,5.0;" x1="528" x2="528" y1="245.4766" y2="597.1875"/><text fill="#000000" font-family="sans-serif" font-size="14" lengthAdjust="spacingAndGlyphs" textLength="32" x="8" y="82.9951">User</text><ellipse cx="27" cy="13" fill="#FEFECE" filter="url(#f1h0dxx4r48721)" rx="8" ry="8" style="stroke: #A80036; stroke-width: 2.0;"/><path d="M27,21 L27,48 M14,29 L40,29 M27,48 L14,63 M27,48 L40,63 " fill="#FEFECE" filter="url(#f1h0dxx4r48721)" style="stroke: #A80036; stroke-width: 2.0;"/><text fill="#000000" font-family="sans-serif" font-size="14" lengthAdjust="spacingAndGlyphs" textLength="32" x="8" y="609.1826">User</text><ellipse cx="27" cy="622.4844" fill="#FEFECE" filter="url(#f1h0dxx4r48721)" rx="8" ry="8" style="stroke: #A80036; stroke-width: 2.0;"/><path d="M27,630.4844 L27,657.4844 M14,638.4844 L40,638.4844 M27,657.4844 L14,672.4844 M27,657.4844 L40,672.4844 " fill="#FEFECE" filter="url(#f1h0dxx4r48721)" style="stroke: #A80036; stroke-width: 2.0;"/><rect fill="#FEFECE" filter="url(#f1h0dxx4r48721)" height="30.2969" style="stroke: #A80036; stroke-width: 1.5;" width="143" x="56" y="51"/><text fill="#000000" font-family="sans-serif" font-size="14" lengthAdjust="spacingAndGlyphs" textLength="129" x="63" y="70.9951">Application Service</text><rect fill="#FEFECE" filter="url(#f1h0dxx4r48721)" height="30.2969" style="stroke: #A80036; stroke-width: 1.5;" width="143" x="56" y="596.1875"/><text fill="#000000" font-family="sans-serif" font-size="14" lengthAdjust="spacingAndGlyphs" textLength="129" x="63" y="616.1826">Application Service</text><rect fill="#FEFECE" filter="url(#f1h0dxx4r48721)" height="30.2969" style="stroke: #A80036; stroke-width: 1.5;" width="88" x="213" y="51"/><text fill="#000000" font-family="sans-serif" font-size="14" lengthAdjust="spacingAndGlyphs" textLength="74" x="220" y="70.9951">Repository</text><rect fill="#FEFECE" filter="url(#f1h0dxx4r48721)" height="30.2969" style="stroke: #A80036; stroke-width: 1.5;" width="88" x="213" y="596.1875"/><text fill="#000000" font-family="sans-serif" font-size="14" lengthAdjust="spacingAndGlyphs" textLength="74" x="220" y="616.1826">Repository</text><rect fill="#FEFECE" filter="url(#f1h0dxx4r48721)" height="30.2969" style="stroke: #A80036; stroke-width: 1.5;" width="90" x="387" y="51"/><text fill="#000000" font-family="sans-serif" font-size="14" lengthAdjust="spacingAndGlyphs" textLength="76" x="394" y="70.9951">EventStore</text><rect fill="#FEFECE" filter="url(#f1h0dxx4r48721)" height="30.2969" style="stroke: #A80036; stroke-width: 1.5;" width="90" x="387" y="596.1875"/><text fill="#000000" font-family="sans-serif" font-size="14" lengthAdjust="spacingAndGlyphs" textLength="76" x="394" y="616.1826">EventStore</text><rect fill="#FEFECE" filter="url(#f1h0dxx4r48721)" height="30.2969" style="stroke: #A80036; stroke-width: 1.5;" width="71" x="491" y="596.1875"/><text fill="#000000" font-family="sans-serif" font-size="14" lengthAdjust="spacingAndGlyphs" textLength="57" x="498" y="616.1826">Account</text><polygon fill="#A80036" points="117.5,113.2969,127.5,117.2969,117.5,121.2969,121.5,117.2969" style="stroke: #A80036; stroke-width: 1.0;"/><line style="stroke: #A80036; stroke-width: 1.0;" x1="27" x2="123.5" y1="117.2969" y2="117.2969"/><text fill="#000000" font-family="sans-serif" font-size="13" lengthAdjust="spacingAndGlyphs" textLength="55" x="34" y="112.3638">withdraw</text><polygon fill="#A80036" points="247,142.4297,257,146.4297,247,150.4297,251,146.4297" style="stroke: #A80036; stroke-width: 1.0;"/><line style="stroke: #A80036; stroke-width: 1.0;" x1="129.5" x2="253" y1="146.4297" y2="146.4297"/><text fill="#000000" font-family="sans-serif" font-size="13" lengthAdjust="spacingAndGlyphs" textLength="101" x="136.5" y="141.4966">getAccount("X")</text><polygon fill="#A80036" points="422,171.5625,432,175.5625,422,179.5625,426,175.5625" style="stroke: #A80036; stroke-width: 1.0;"/><line style="stroke: #A80036; stroke-width: 1.0;" x1="259" x2="428" y1="175.5625" y2="175.5625"/><text fill="#000000" font-family="sans-serif" font-size="13" lengthAdjust="spacingAndGlyphs" textLength="150" x="266" y="170.6294">load event stream for X</text><polygon fill="#A80036" points="270,200.6953,260,204.6953,270,208.6953,266,204.6953" style="stroke: #A80036; stroke-width: 1.0;"/><line style="stroke: #A80036; stroke-width: 1.0; stroke-dasharray: 2.0,2.0;" x1="264" x2="433" y1="204.6953" y2="204.6953"/><text fill="#000000" font-family="sans-serif" font-size="13" lengthAdjust="spacingAndGlyphs" textLength="142" x="276" y="199.7622">events : List&lt;Events&gt;</text><polygon fill="#A80036" points="479,229.8281,489,233.8281,479,237.8281,483,233.8281" style="stroke: #A80036; stroke-width: 1.0;"/><line style="stroke: #A80036; stroke-width: 1.0;" x1="259" x2="485" y1="233.8281" y2="233.8281"/><text fill="#000000" font-family="sans-serif" font-size="13" lengthAdjust="spacingAndGlyphs" textLength="94" x="266" y="228.895">create(events)</text><rect fill="#FEFECE" filter="url(#f1h0dxx4r48721)" height="30.2969" style="stroke: #A80036; stroke-width: 1.5;" width="71" x="491" y="212.8281"/><text fill="#000000" font-family="sans-serif" font-size="14" lengthAdjust="spacingAndGlyphs" textLength="57" x="498" y="232.8232">Account</text><line style="stroke: #A80036; stroke-width: 1.0;" x1="528.5" x2="570.5" y1="279.2578" y2="279.2578"/><line style="stroke: #A80036; stroke-width: 1.0;" x1="570.5" x2="570.5" y1="279.2578" y2="292.2578"/><line style="stroke: #A80036; stroke-width: 1.0;" x1="529.5" x2="570.5" y1="292.2578" y2="292.2578"/><polygon fill="#A80036" points="539.5,288.2578,529.5,292.2578,539.5,296.2578,535.5,292.2578" style="stroke: #A80036; stroke-width: 1.0;"/><text fill="#000000" font-family="sans-serif" font-size="13" lengthAdjust="spacingAndGlyphs" textLength="87" x="535.5" y="274.1919">apply(events)</text><polygon fill="#A80036" points="270,302.2578,260,306.2578,270,310.2578,266,306.2578" style="stroke: #A80036; stroke-width: 1.0;"/><line style="stroke: #A80036; stroke-width: 1.0; stroke-dasharray: 2.0,2.0;" x1="264" x2="527.5" y1="306.2578" y2="306.2578"/><polygon fill="#A80036" points="140.5,331.2578,130.5,335.2578,140.5,339.2578,136.5,335.2578" style="stroke: #A80036; stroke-width: 1.0;"/><line style="stroke: #A80036; stroke-width: 1.0; stroke-dasharray: 2.0,2.0;" x1="134.5" x2="258" y1="335.2578" y2="335.2578"/><text fill="#000000" font-family="sans-serif" font-size="13" lengthAdjust="spacingAndGlyphs" textLength="68" x="146.5" y="330.3247">a: Account</text><polygon fill="#A80036" points="516.5,360.3906,526.5,364.3906,516.5,368.3906,520.5,364.3906" style="stroke: #A80036; stroke-width: 1.0;"/><line style="stroke: #A80036; stroke-width: 1.0;" x1="129.5" x2="522.5" y1="364.3906" y2="364.3906"/><text fill="#000000" font-family="sans-serif" font-size="13" lengthAdjust="spacingAndGlyphs" textLength="81" x="136.5" y="359.4575">withdraw(42)</text><line style="stroke: #A80036; stroke-width: 1.0;" x1="528.5" x2="570.5" y1="393.6563" y2="393.6563"/><line style="stroke: #A80036; stroke-width: 1.0;" x1="570.5" x2="570.5" y1="393.6563" y2="406.6563"/><line style="stroke: #A80036; stroke-width: 1.0;" x1="529.5" x2="570.5" y1="406.6563" y2="406.6563"/><polygon fill="#A80036" points="539.5,402.6563,529.5,406.6563,539.5,410.6563,535.5,406.6563" style="stroke: #A80036; stroke-width: 1.0;"/><text fill="#000000" font-family="sans-serif" font-size="13" lengthAdjust="spacingAndGlyphs" textLength="176" x="535.5" y="388.5903">emit MoneyWithdrawnEvent</text><polygon fill="#A80036" points="140.5,416.6563,130.5,420.6563,140.5,424.6563,136.5,420.6563" style="stroke: #A80036; stroke-width: 1.0;"/><line style="stroke: #A80036; stroke-width: 1.0; stroke-dasharray: 2.0,2.0;" x1="134.5" x2="527.5" y1="420.6563" y2="420.6563"/><polygon fill="#A80036" points="247,445.6563,257,449.6563,247,453.6563,251,449.6563" style="stroke: #A80036; stroke-width: 1.0;"/><line style="stroke: #A80036; stroke-width: 1.0;" x1="129.5" x2="253" y1="449.6563" y2="449.6563"/><text fill="#000000" font-family="sans-serif" font-size="13" lengthAdjust="spacingAndGlyphs" textLength="49" x="136.5" y="444.7231">save(A)</text><polygon fill="#A80036" points="516.5,474.7891,526.5,478.7891,516.5,482.7891,520.5,478.7891" style="stroke: #A80036; stroke-width: 1.0;"/><line style="stroke: #A80036; stroke-width: 1.0;" x1="259" x2="522.5" y1="478.7891" y2="478.7891"/><text fill="#000000" font-family="sans-serif" font-size="13" lengthAdjust="spacingAndGlyphs" textLength="124" x="266" y="473.856">getEmittedEvents()</text><polygon fill="#A80036" points="270,503.9219,260,507.9219,270,511.9219,266,507.9219" style="stroke: #A80036; stroke-width: 1.0;"/><line style="stroke: #A80036; stroke-width: 1.0; stroke-dasharray: 2.0,2.0;" x1="264" x2="527.5" y1="507.9219" y2="507.9219"/><text fill="#000000" font-family="sans-serif" font-size="13" lengthAdjust="spacingAndGlyphs" textLength="181" x="276" y="502.9888">emittedEvents: List&lt;Event&gt;</text><polygon fill="#A80036" points="422,533.0547,432,537.0547,422,541.0547,426,537.0547" style="stroke: #A80036; stroke-width: 1.0;"/><line style="stroke: #A80036; stroke-width: 1.0;" x1="259" x2="428" y1="537.0547" y2="537.0547"/><text fill="#000000" font-family="sans-serif" font-size="13" lengthAdjust="spacingAndGlyphs" textLength="151" x="266" y="532.1216">append(emittedEvents)</text><polygon fill="#A80036" points="270,547.1875,260,551.1875,270,555.1875,266,551.1875" style="stroke: #A80036; stroke-width: 1.0;"/><line style="stroke: #A80036; stroke-width: 1.0; stroke-dasharray: 2.0,2.0;" x1="264" x2="433" y1="551.1875" y2="551.1875"/><polygon fill="#A80036" points="140.5,561.1875,130.5,565.1875,140.5,569.1875,136.5,565.1875" style="stroke: #A80036; stroke-width: 1.0;"/><line style="stroke: #A80036; stroke-width: 1.0; stroke-dasharray: 2.0,2.0;" x1="134.5" x2="258" y1="565.1875" y2="565.1875"/><polygon fill="#A80036" points="38,575.1875,28,579.1875,38,583.1875,34,579.1875" style="stroke: #A80036; stroke-width: 1.0;"/><line style="stroke: #A80036; stroke-width: 1.0; stroke-dasharray: 2.0,2.0;" x1="32" x2="128.5" y1="579.1875" y2="579.1875"/><!--
@startuml

actor "User" as U
participant "Application Service" as AS
participant "Repository" as R
participant "EventStore" as ES

U -> AS: withdraw
AS -> R: getAccount("X")
R -> ES: load event stream for X
R <- - ES: events : List<Events>
create "Account" as A
R ->  A: create(events)
A -> A: apply(events)
R <- - A
AS <- - R: a: Account
AS -> A: withdraw(42)
A -> A: emit MoneyWithdrawnEvent
AS <- - A
AS -> R: save(A)
R -> A: getEmittedEvents()
R <- - A: emittedEvents: List<Event>
R -> ES: append(emittedEvents)
R <- - ES
AS <- - R
U <- - AS

@enduml

PlantUML version 1.2017.15(Mon Jul 03 18:45:34 CEST 2017)
(GPL source distribution)
Java Runtime: Java(TM) SE Runtime Environment
JVM: Java HotSpot(TM) 64-Bit Server VM
Java Version: 1.8.0_191-b12
Operating System: Linux
OS Version: 4.15.0-72-generic
Default Encoding: UTF-8
Language: en
Country: US
--></g></svg>