<?xml version="1.0" encoding="UTF-8" standalone="no"?><svg xmlns="http://www.w3.org/2000/svg" xmlns:xlink="http://www.w3.org/1999/xlink" contentScriptType="application/ecmascript" contentStyleType="text/css" height="440px" preserveAspectRatio="none" style="width:414px;height:440px;" version="1.1" viewBox="0 0 414 440" width="414px" zoomAndPan="magnify"><defs><filter height="300%" id="f7lz8wrgbi8cp" width="300%" x="-1" y="-1"><feGaussianBlur result="blurOut" stdDeviation="2.0"/><feColorMatrix in="blurOut" result="blurOut2" type="matrix" values="0 0 0 0 0 0 0 0 0 0 0 0 0 0 0 0 0 0 .4 0"/><feOffset dx="4.0" dy="4.0" in="blurOut2" result="blurOut3"/><feBlend in="SourceGraphic" in2="blurOut3" mode="normal"/></filter></defs><g><rect fill="#FEFECE" filter="url(#f7lz8wrgbi8cp)" height="30.2969" style="stroke: #A80036; stroke-width: 1.5;" width="71" x="332" y="154.5625"/><text fill="#000000" font-family="sans-serif" font-size="14" lengthAdjust="spacingAndGlyphs" textLength="57" x="339" y="174.5576">Account</text><line style="stroke: #A80036; stroke-width: 1.0; stroke-dasharray: 5.0,5.0;" x1="27" x2="27" y1="86.2969" y2="353.2578"/><line style="stroke: #A80036; stroke-width: 1.0; stroke-dasharray: 5.0,5.0;" x1="116" x2="116" y1="86.2969" y2="353.2578"/><line style="stroke: #A80036; stroke-width: 1.0; stroke-dasharray: 5.0,5.0;" x1="257" x2="257" y1="86.2969" y2="353.2578"/><line style="stroke: #A80036; stroke-width: 1.0; stroke-dasharray: 5.0,5.0;" x1="369" x2="369" y1="187.2109" y2="353.2578"/><text fill="#000000" font-family="sans-serif" font-size="14" lengthAdjust="spacingAndGlyphs" textLength="32" x="8" y="82.9951">User</text><ellipse cx="27" cy="13" fill="#FEFECE" filter="url(#f7lz8wrgbi8cp)" rx="8" ry="8" style="stroke: #A80036; stroke-width: 2.0;"/><path d="M27,21 L27,48 M14,29 L40,29 M27,48 L14,63 M27,48 L40,63 " fill="#FEFECE" filter="url(#f7lz8wrgbi8cp)" style="stroke: #A80036; stroke-width: 2.0;"/><text fill="#000000" font-family="sans-serif" font-size="14" lengthAdjust="spacingAndGlyphs" textLength="32" x="8" y="365.2529">User</text><ellipse cx="27" cy="378.5547" fill="#FEFECE" filter="url(#f7lz8wrgbi8cp)" rx="8" ry="8" style="stroke: #A80036; stroke-width: 2.0;"/><path d="M27,386.5547 L27,413.5547 M14,394.5547 L40,394.5547 M27,413.5547 L14,428.5547 M27,413.5547 L40,428.5547 " fill="#FEFECE" filter="url(#f7lz8wrgbi8cp)" style="stroke: #A80036; stroke-width: 2.0;"/><rect fill="#FEFECE" filter="url(#f7lz8wrgbi8cp)" height="30.2969" style="stroke: #A80036; stroke-width: 1.5;" width="64" x="82" y="51"/><text fill="#000000" font-family="sans-serif" font-size="14" lengthAdjust="spacingAndGlyphs" textLength="50" x="89" y="70.9951">Service</text><rect fill="#FEFECE" filter="url(#f7lz8wrgbi8cp)" height="30.2969" style="stroke: #A80036; stroke-width: 1.5;" width="64" x="82" y="352.2578"/><text fill="#000000" font-family="sans-serif" font-size="14" lengthAdjust="spacingAndGlyphs" textLength="50" x="89" y="372.2529">Service</text><rect fill="#FEFECE" filter="url(#f7lz8wrgbi8cp)" height="30.2969" style="stroke: #A80036; stroke-width: 1.5;" width="88" x="211" y="51"/><text fill="#000000" font-family="sans-serif" font-size="14" lengthAdjust="spacingAndGlyphs" textLength="74" x="218" y="70.9951">Repository</text><rect fill="#FEFECE" filter="url(#f7lz8wrgbi8cp)" height="30.2969" style="stroke: #A80036; stroke-width: 1.5;" width="88" x="211" y="352.2578"/><text fill="#000000" font-family="sans-serif" font-size="14" lengthAdjust="spacingAndGlyphs" textLength="74" x="218" y="372.2529">Repository</text><rect fill="#FEFECE" filter="url(#f7lz8wrgbi8cp)" height="30.2969" style="stroke: #A80036; stroke-width: 1.5;" width="71" x="332" y="352.2578"/><text fill="#000000" font-family="sans-serif" font-size="14" lengthAdjust="spacingAndGlyphs" textLength="57" x="339" y="372.2529">Account</text><polygon fill="#A80036" points="104,113.2969,114,117.2969,104,121.2969,108,117.2969" style="stroke: #A80036; stroke-width: 1.0;"/><line style="stroke: #A80036; stroke-width: 1.0;" x1="27" x2="110" y1="117.2969" y2="117.2969"/><text fill="#000000" font-family="sans-serif" font-size="13" lengthAdjust="spacingAndGlyphs" textLength="65" x="34" y="112.3638">withdraw()</text><polygon fill="#A80036" points="245,142.4297,255,146.4297,245,150.4297,249,146.4297" style="stroke: #A80036; stroke-width: 1.0;"/><line style="stroke: #A80036; stroke-width: 1.0;" x1="116" x2="251" y1="146.4297" y2="146.4297"/><text fill="#000000" font-family="sans-serif" font-size="13" lengthAdjust="spacingAndGlyphs" textLength="117" x="123" y="141.4966">getAccount("123")</text><polygon fill="#A80036" points="320,171.5625,330,175.5625,320,179.5625,324,175.5625" style="stroke: #A80036; stroke-width: 1.0;"/><line style="stroke: #A80036; stroke-width: 1.0;" x1="257" x2="326" y1="175.5625" y2="175.5625"/><text fill="#000000" font-family="sans-serif" font-size="13" lengthAdjust="spacingAndGlyphs" textLength="51" x="264" y="170.6294">create()</text><rect fill="#FEFECE" filter="url(#f7lz8wrgbi8cp)" height="30.2969" style="stroke: #A80036; stroke-width: 1.5;" width="71" x="332" y="154.5625"/><text fill="#000000" font-family="sans-serif" font-size="14" lengthAdjust="spacingAndGlyphs" textLength="57" x="339" y="174.5576">Account</text><polygon fill="#A80036" points="268,201.8594,258,205.8594,268,209.8594,264,205.8594" style="stroke: #A80036; stroke-width: 1.0;"/><line style="stroke: #A80036; stroke-width: 1.0; stroke-dasharray: 2.0,2.0;" x1="262" x2="368.5" y1="205.8594" y2="205.8594"/><polygon fill="#A80036" points="127,230.8594,117,234.8594,127,238.8594,123,234.8594" style="stroke: #A80036; stroke-width: 1.0;"/><line style="stroke: #A80036; stroke-width: 1.0; stroke-dasharray: 2.0,2.0;" x1="121" x2="256" y1="234.8594" y2="234.8594"/><text fill="#000000" font-family="sans-serif" font-size="13" lengthAdjust="spacingAndGlyphs" textLength="68" x="133" y="229.9263">a: Account</text><polygon fill="#A80036" points="357.5,259.9922,367.5,263.9922,357.5,267.9922,361.5,263.9922" style="stroke: #A80036; stroke-width: 1.0;"/><line style="stroke: #A80036; stroke-width: 1.0;" x1="116" x2="363.5" y1="263.9922" y2="263.9922"/><text fill="#000000" font-family="sans-serif" font-size="13" lengthAdjust="spacingAndGlyphs" textLength="65" x="123" y="259.0591">withdraw()</text><polygon fill="#A80036" points="127,274.125,117,278.125,127,282.125,123,278.125" style="stroke: #A80036; stroke-width: 1.0;"/><line style="stroke: #A80036; stroke-width: 1.0; stroke-dasharray: 2.0,2.0;" x1="121" x2="368.5" y1="278.125" y2="278.125"/><polygon fill="#A80036" points="245,303.125,255,307.125,245,311.125,249,307.125" style="stroke: #A80036; stroke-width: 1.0;"/><line style="stroke: #A80036; stroke-width: 1.0;" x1="116" x2="251" y1="307.125" y2="307.125"/><text fill="#000000" font-family="sans-serif" font-size="13" lengthAdjust="spacingAndGlyphs" textLength="51" x="123" y="302.1919">store(a)</text><polygon fill="#A80036" points="127,317.2578,117,321.2578,127,325.2578,123,321.2578" style="stroke: #A80036; stroke-width: 1.0;"/><line style="stroke: #A80036; stroke-width: 1.0; stroke-dasharray: 2.0,2.0;" x1="121" x2="256" y1="321.2578" y2="321.2578"/><polygon fill="#A80036" points="38,331.2578,28,335.2578,38,339.2578,34,335.2578" style="stroke: #A80036; stroke-width: 1.0;"/><line style="stroke: #A80036; stroke-width: 1.0; stroke-dasharray: 2.0,2.0;" x1="32" x2="115" y1="335.2578" y2="335.2578"/><!--
@startuml

actor "User" as U
participant "Service" as S
participant "Repository" as R

U -> S: withdraw()
S -> R: getAccount("123")
create   "Account" as A
R -> A: create()
return
S <- - R: a: Account
S -> A: withdraw()
return
S -> R: store(a)
return
U <- - S:

@enduml

PlantUML version 1.2017.15(Mon Jul 03 18:45:34 CEST 2017)
(GPL source distribution)
Java Runtime: Java(TM) SE Runtime Environment
JVM: Java HotSpot(TM) 64-Bit Server VM
Java Version: 1.8.0_191-b12
Operating System: Linux
OS Version: 4.15.0-72-generic
Default Encoding: UTF-8
Language: en
Country: US
--></g></svg>