<?xml version="1.0" encoding="UTF-8" standalone="no"?><svg xmlns="http://www.w3.org/2000/svg" xmlns:xlink="http://www.w3.org/1999/xlink" contentScriptType="application/ecmascript" contentStyleType="text/css" height="175px" preserveAspectRatio="none" style="width:100px;height:175px;" version="1.1" viewBox="0 0 100 175" width="100px" zoomAndPan="magnify"><defs><filter height="300%" id="f18zhbptvgedp6" width="300%" x="-1" y="-1"><feGaussianBlur result="blurOut" stdDeviation="2.0"/><feColorMatrix in="blurOut" result="blurOut2" type="matrix" values="0 0 0 0 0 0 0 0 0 0 0 0 0 0 0 0 0 0 .4 0"/><feOffset dx="4.0" dy="4.0" in="blurOut2" result="blurOut3"/><feBlend in="SourceGraphic" in2="blurOut3" mode="normal"/></filter></defs><g><!--class Person--><rect fill="#FEFECE" filter="url(#f18zhbptvgedp6)" height="48" id="Person" style="stroke: #A80036; stroke-width: 1.5;" width="76" x="9.5" y="8"/><ellipse cx="24.5" cy="24" fill="#ADD1B2" rx="11" ry="11" style="stroke: #A80036; stroke-width: 1.0;"/><path d="M27.4688,29.6406 Q26.8906,29.9375 26.25,30.0859 Q25.6094,30.2344 24.9063,30.2344 Q22.4063,30.2344 21.0859,28.5859 Q19.7656,26.9375 19.7656,23.8125 Q19.7656,20.6875 21.0859,19.0313 Q22.4063,17.375 24.9063,17.375 Q25.6094,17.375 26.2578,17.5313 Q26.9063,17.6875 27.4688,17.9844 L27.4688,20.7031 Q26.8438,20.125 26.25,19.8516 Q25.6563,19.5781 25.0313,19.5781 Q23.6875,19.5781 23,20.6484 Q22.3125,21.7188 22.3125,23.8125 Q22.3125,25.9063 23,26.9766 Q23.6875,28.0469 25.0313,28.0469 Q25.6563,28.0469 26.25,27.7734 Q26.8438,27.5 27.4688,26.9219 L27.4688,29.6406 Z "/><text fill="#000000" font-family="sans-serif" font-size="12" lengthAdjust="spacingAndGlyphs" textLength="44" x="38.5" y="28.1543">Person</text><line style="stroke: #A80036; stroke-width: 1.5;" x1="10.5" x2="84.5" y1="40" y2="40"/><line style="stroke: #A80036; stroke-width: 1.5;" x1="10.5" x2="84.5" y1="48" y2="48"/><!--class Address--><rect fill="#FEFECE" filter="url(#f18zhbptvgedp6)" height="48" id="Address" style="stroke: #A80036; stroke-width: 1.5;" width="83" x="6" y="116"/><ellipse cx="21" cy="132" fill="#ADD1B2" rx="11" ry="11" style="stroke: #A80036; stroke-width: 1.0;"/><path d="M23.9688,137.6406 Q23.3906,137.9375 22.75,138.0859 Q22.1094,138.2344 21.4063,138.2344 Q18.9063,138.2344 17.5859,136.5859 Q16.2656,134.9375 16.2656,131.8125 Q16.2656,128.6875 17.5859,127.0313 Q18.9063,125.375 21.4063,125.375 Q22.1094,125.375 22.7578,125.5313 Q23.4063,125.6875 23.9688,125.9844 L23.9688,128.7031 Q23.3438,128.125 22.75,127.8516 Q22.1563,127.5781 21.5313,127.5781 Q20.1875,127.5781 19.5,128.6484 Q18.8125,129.7188 18.8125,131.8125 Q18.8125,133.9063 19.5,134.9766 Q20.1875,136.0469 21.5313,136.0469 Q22.1563,136.0469 22.75,135.7734 Q23.3438,135.5 23.9688,134.9219 L23.9688,137.6406 Z "/><text fill="#000000" font-family="sans-serif" font-size="12" lengthAdjust="spacingAndGlyphs" textLength="51" x="35" y="136.1543">Address</text><line style="stroke: #A80036; stroke-width: 1.5;" x1="7" x2="88" y1="148" y2="148"/><line style="stroke: #A80036; stroke-width: 1.5;" x1="7" x2="88" y1="156" y2="156"/><!--link Person to Address--><path d="M47.5,69.6145 C47.5,84.9531 47.5,102.2402 47.5,115.8436 " fill="none" id="Person-Address" style="stroke: #A80036; stroke-width: 1.0;"/><polygon fill="#A80036" points="47.5,56.2373,43.5,62.2373,47.5,68.2373,51.5,62.2373,47.5,56.2373" style="stroke: #A80036; stroke-width: 1.0;"/><text fill="#000000" font-family="sans-serif" font-size="13" lengthAdjust="spacingAndGlyphs" textLength="8" x="38.525" y="76.0563">1</text><text fill="#000000" font-family="sans-serif" font-size="13" lengthAdjust="spacingAndGlyphs" textLength="23" x="21.5531" y="104.8156">1..*</text><!--
@startuml

Person "1" *- - "1..*" Address

@enduml

PlantUML version 1.2017.15(Mon Jul 03 18:45:34 CEST 2017)
(GPL source distribution)
Java Runtime: Java(TM) SE Runtime Environment
JVM: Java HotSpot(TM) 64-Bit Server VM
Java Version: 1.8.0_191-b12
Operating System: Linux
OS Version: 4.15.0-66-generic
Default Encoding: UTF-8
Language: en
Country: US
--></g></svg>