<?xml version="1.0" encoding="UTF-8" standalone="no"?><svg xmlns="http://www.w3.org/2000/svg" xmlns:xlink="http://www.w3.org/1999/xlink" contentScriptType="application/ecmascript" contentStyleType="text/css" height="525px" preserveAspectRatio="none" style="width:450px;height:525px;" version="1.1" viewBox="0 0 450 525" width="450px" zoomAndPan="magnify"><defs><filter height="300%" id="f1vivqisj8wlwk" width="300%" x="-1" y="-1"><feGaussianBlur result="blurOut" stdDeviation="2.0"/><feColorMatrix in="blurOut" result="blurOut2" type="matrix" values="0 0 0 0 0 0 0 0 0 0 0 0 0 0 0 0 0 0 .4 0"/><feOffset dx="4.0" dy="4.0" in="blurOut2" result="blurOut3"/><feBlend in="SourceGraphic" in2="blurOut3" mode="normal"/></filter></defs><g><line style="stroke: #A80036; stroke-width: 1.0; stroke-dasharray: 5.0,5.0;" x1="33" x2="33" y1="86.2969" y2="438.4922"/><line style="stroke: #A80036; stroke-width: 1.0; stroke-dasharray: 5.0,5.0;" x1="95" x2="95" y1="86.2969" y2="438.4922"/><line style="stroke: #A80036; stroke-width: 1.0; stroke-dasharray: 5.0,5.0;" x1="184" x2="184" y1="86.2969" y2="438.4922"/><line style="stroke: #A80036; stroke-width: 1.0; stroke-dasharray: 5.0,5.0;" x1="299" x2="299" y1="86.2969" y2="438.4922"/><line style="stroke: #A80036; stroke-width: 1.0; stroke-dasharray: 5.0,5.0;" x1="399" x2="399" y1="86.2969" y2="438.4922"/><text fill="#000000" font-family="sans-serif" font-size="14" lengthAdjust="spacingAndGlyphs" textLength="45" x="8" y="82.9951">User A</text><ellipse cx="33.5" cy="13" fill="#FEFECE" filter="url(#f1vivqisj8wlwk)" rx="8" ry="8" style="stroke: #A80036; stroke-width: 2.0;"/><path d="M33.5,21 L33.5,48 M20.5,29 L46.5,29 M33.5,48 L20.5,63 M33.5,48 L46.5,63 " fill="#FEFECE" filter="url(#f1vivqisj8wlwk)" style="stroke: #A80036; stroke-width: 2.0;"/><text fill="#000000" font-family="sans-serif" font-size="14" lengthAdjust="spacingAndGlyphs" textLength="45" x="8" y="450.4873">User A</text><ellipse cx="33.5" cy="463.7891" fill="#FEFECE" filter="url(#f1vivqisj8wlwk)" rx="8" ry="8" style="stroke: #A80036; stroke-width: 2.0;"/><path d="M33.5,471.7891 L33.5,498.7891 M20.5,479.7891 L46.5,479.7891 M33.5,498.7891 L20.5,513.7891 M33.5,498.7891 L46.5,513.7891 " fill="#FEFECE" filter="url(#f1vivqisj8wlwk)" style="stroke: #A80036; stroke-width: 2.0;"/><text fill="#000000" font-family="sans-serif" font-size="14" lengthAdjust="spacingAndGlyphs" textLength="46" x="69" y="82.9951">User B</text><ellipse cx="95" cy="13" fill="#FEFECE" filter="url(#f1vivqisj8wlwk)" rx="8" ry="8" style="stroke: #A80036; stroke-width: 2.0;"/><path d="M95,21 L95,48 M82,29 L108,29 M95,48 L82,63 M95,48 L108,63 " fill="#FEFECE" filter="url(#f1vivqisj8wlwk)" style="stroke: #A80036; stroke-width: 2.0;"/><text fill="#000000" font-family="sans-serif" font-size="14" lengthAdjust="spacingAndGlyphs" textLength="46" x="69" y="450.4873">User B</text><ellipse cx="95" cy="463.7891" fill="#FEFECE" filter="url(#f1vivqisj8wlwk)" rx="8" ry="8" style="stroke: #A80036; stroke-width: 2.0;"/><path d="M95,471.7891 L95,498.7891 M82,479.7891 L108,479.7891 M95,498.7891 L82,513.7891 M95,498.7891 L108,513.7891 " fill="#FEFECE" filter="url(#f1vivqisj8wlwk)" style="stroke: #A80036; stroke-width: 2.0;"/><rect fill="#FEFECE" filter="url(#f1vivqisj8wlwk)" height="30.2969" style="stroke: #A80036; stroke-width: 1.5;" width="64" x="150" y="51"/><text fill="#000000" font-family="sans-serif" font-size="14" lengthAdjust="spacingAndGlyphs" textLength="50" x="157" y="70.9951">Service</text><rect fill="#FEFECE" filter="url(#f1vivqisj8wlwk)" height="30.2969" style="stroke: #A80036; stroke-width: 1.5;" width="64" x="150" y="437.4922"/><text fill="#000000" font-family="sans-serif" font-size="14" lengthAdjust="spacingAndGlyphs" textLength="50" x="157" y="457.4873">Service</text><rect fill="#FEFECE" filter="url(#f1vivqisj8wlwk)" height="30.2969" style="stroke: #A80036; stroke-width: 1.5;" width="88" x="253" y="51"/><text fill="#000000" font-family="sans-serif" font-size="14" lengthAdjust="spacingAndGlyphs" textLength="74" x="260" y="70.9951">Repository</text><rect fill="#FEFECE" filter="url(#f1vivqisj8wlwk)" height="30.2969" style="stroke: #A80036; stroke-width: 1.5;" width="88" x="253" y="437.4922"/><text fill="#000000" font-family="sans-serif" font-size="14" lengthAdjust="spacingAndGlyphs" textLength="74" x="260" y="457.4873">Repository</text><rect fill="#FEFECE" filter="url(#f1vivqisj8wlwk)" height="30.2969" style="stroke: #A80036; stroke-width: 1.5;" width="84" x="355" y="51"/><text fill="#000000" font-family="sans-serif" font-size="14" lengthAdjust="spacingAndGlyphs" textLength="70" x="362" y="70.9951">Account X</text><rect fill="#FEFECE" filter="url(#f1vivqisj8wlwk)" height="30.2969" style="stroke: #A80036; stroke-width: 1.5;" width="84" x="355" y="437.4922"/><text fill="#000000" font-family="sans-serif" font-size="14" lengthAdjust="spacingAndGlyphs" textLength="70" x="362" y="457.4873">Account X</text><polygon fill="#A80036" points="172,113.2969,182,117.2969,172,121.2969,176,117.2969" style="stroke: #A80036; stroke-width: 1.0;"/><line style="stroke: #A80036; stroke-width: 1.0;" x1="33.5" x2="178" y1="117.2969" y2="117.2969"/><text fill="#000000" font-family="sans-serif" font-size="13" lengthAdjust="spacingAndGlyphs" textLength="65" x="40.5" y="112.3638">withdraw()</text><polygon fill="#A80036" points="287,142.4297,297,146.4297,287,150.4297,291,146.4297" style="stroke: #A80036; stroke-width: 1.0;"/><line style="stroke: #A80036; stroke-width: 1.0;" x1="184" x2="293" y1="146.4297" y2="146.4297"/><text fill="#000000" font-family="sans-serif" font-size="13" lengthAdjust="spacingAndGlyphs" textLength="91" x="191" y="141.4966">getAccount(X)</text><polygon fill="#A80036" points="195,171.5625,185,175.5625,195,179.5625,191,175.5625" style="stroke: #A80036; stroke-width: 1.0;"/><line style="stroke: #A80036; stroke-width: 1.0; stroke-dasharray: 2.0,2.0;" x1="189" x2="298" y1="175.5625" y2="175.5625"/><text fill="#000000" font-family="sans-serif" font-size="13" lengthAdjust="spacingAndGlyphs" textLength="72" x="201" y="170.6294">X : Account</text><polygon fill="#A80036" points="387,200.6953,397,204.6953,387,208.6953,391,204.6953" style="stroke: #A80036; stroke-width: 1.0;"/><line style="stroke: #A80036; stroke-width: 1.0;" x1="184" x2="393" y1="204.6953" y2="204.6953"/><text fill="#000000" font-family="sans-serif" font-size="13" lengthAdjust="spacingAndGlyphs" textLength="55" x="191" y="199.7622">withdraw</text><polygon fill="#A80036" points="195,214.8281,185,218.8281,195,222.8281,191,218.8281" style="stroke: #A80036; stroke-width: 1.0;"/><line style="stroke: #A80036; stroke-width: 1.0; stroke-dasharray: 2.0,2.0;" x1="189" x2="398" y1="218.8281" y2="218.8281"/><polygon fill="#A80036" points="172,243.8281,182,247.8281,172,251.8281,176,247.8281" style="stroke: #A80036; stroke-width: 1.0;"/><line style="stroke: #A80036; stroke-width: 1.0;" x1="95" x2="178" y1="247.8281" y2="247.8281"/><text fill="#000000" font-family="sans-serif" font-size="13" lengthAdjust="spacingAndGlyphs" textLength="65" x="102" y="242.895">withdraw()</text><polygon fill="#A80036" points="287,272.9609,297,276.9609,287,280.9609,291,276.9609" style="stroke: #A80036; stroke-width: 1.0;"/><line style="stroke: #A80036; stroke-width: 1.0;" x1="184" x2="293" y1="276.9609" y2="276.9609"/><text fill="#000000" font-family="sans-serif" font-size="13" lengthAdjust="spacingAndGlyphs" textLength="90" x="191" y="272.0278">getAccount(Y)</text><polygon fill="#A80036" points="195,302.0938,185,306.0938,195,310.0938,191,306.0938" style="stroke: #A80036; stroke-width: 1.0;"/><line style="stroke: #A80036; stroke-width: 1.0; stroke-dasharray: 2.0,2.0;" x1="189" x2="298" y1="306.0938" y2="306.0938"/><text fill="#000000" font-family="sans-serif" font-size="13" lengthAdjust="spacingAndGlyphs" textLength="71" x="201" y="301.1606">Y : Account</text><polygon fill="#A80036" points="387,331.2266,397,335.2266,387,339.2266,391,335.2266" style="stroke: #A80036; stroke-width: 1.0;"/><line style="stroke: #A80036; stroke-width: 1.0;" x1="184" x2="393" y1="335.2266" y2="335.2266"/><text fill="#000000" font-family="sans-serif" font-size="13" lengthAdjust="spacingAndGlyphs" textLength="55" x="191" y="330.2935">withdraw</text><polygon fill="#A80036" points="195,345.3594,185,349.3594,195,353.3594,191,349.3594" style="stroke: #A80036; stroke-width: 1.0;"/><line style="stroke: #A80036; stroke-width: 1.0; stroke-dasharray: 2.0,2.0;" x1="189" x2="398" y1="349.3594" y2="349.3594"/><polygon fill="#A80036" points="106,359.3594,96,363.3594,106,367.3594,102,363.3594" style="stroke: #A80036; stroke-width: 1.0;"/><line style="stroke: #A80036; stroke-width: 1.0; stroke-dasharray: 2.0,2.0;" x1="100" x2="183" y1="363.3594" y2="363.3594"/><polygon fill="#A80036" points="287,388.3594,297,392.3594,287,396.3594,291,392.3594" style="stroke: #A80036; stroke-width: 1.0;"/><line style="stroke: #A80036; stroke-width: 1.0;" x1="184" x2="293" y1="392.3594" y2="392.3594"/><text fill="#000000" font-family="sans-serif" font-size="13" lengthAdjust="spacingAndGlyphs" textLength="51" x="191" y="387.4263">store(X)</text><polygon fill="#A80036" points="195,402.4922,185,406.4922,195,410.4922,191,406.4922" style="stroke: #A80036; stroke-width: 1.0;"/><line style="stroke: #A80036; stroke-width: 1.0; stroke-dasharray: 2.0,2.0;" x1="189" x2="298" y1="406.4922" y2="406.4922"/><polygon fill="#A80036" points="44.5,416.4922,34.5,420.4922,44.5,424.4922,40.5,420.4922" style="stroke: #A80036; stroke-width: 1.0;"/><line style="stroke: #A80036; stroke-width: 1.0; stroke-dasharray: 2.0,2.0;" x1="38.5" x2="183" y1="420.4922" y2="420.4922"/><!--
@startuml

actor "User A" as U1
actor "User B" as U2
participant "Service" as S
participant "Repository" as R
participant "Account X" as A

U1 -> S: withdraw()
S -> R: getAccount(X)
S <- - R: X : Account
S -> A: withdraw
S <- - A:

U2 -> S: withdraw()
S -> R: getAccount(Y)
S <- - R: Y : Account
S -> A: withdraw
S <- - A:
U2 <- - S:

S -> R: store(X)
S <- - R:
U1 <- - S:

@enduml

PlantUML version 1.2017.15(Mon Jul 03 18:45:34 CEST 2017)
(GPL source distribution)
Java Runtime: Java(TM) SE Runtime Environment
JVM: Java HotSpot(TM) 64-Bit Server VM
Java Version: 1.8.0_191-b12
Operating System: Linux
OS Version: 4.15.0-72-generic
Default Encoding: UTF-8
Language: en
Country: US
--></g></svg>