<?xml version="1.0" encoding="UTF-8" standalone="no"?><svg xmlns="http://www.w3.org/2000/svg" xmlns:xlink="http://www.w3.org/1999/xlink" contentScriptType="application/ecmascript" contentStyleType="text/css" height="684px" preserveAspectRatio="none" style="width:834px;height:684px;" version="1.1" viewBox="0 0 834 684" width="834px" zoomAndPan="magnify"><defs><filter height="300%" id="fsl99tl7p2tur" width="300%" x="-1" y="-1"><feGaussianBlur result="blurOut" stdDeviation="2.0"/><feColorMatrix in="blurOut" result="blurOut2" type="matrix" values="0 0 0 0 0 0 0 0 0 0 0 0 0 0 0 0 0 0 .4 0"/><feOffset dx="4.0" dy="4.0" in="blurOut2" result="blurOut3"/><feBlend in="SourceGraphic" in2="blurOut3" mode="normal"/></filter></defs><g><rect fill="#FEFECE" filter="url(#fsl99tl7p2tur)" height="30.2969" style="stroke: #A80036; stroke-width: 1.5;" width="71" x="589" y="212.8281"/><text fill="#000000" font-family="sans-serif" font-size="14" lengthAdjust="spacingAndGlyphs" textLength="57" x="596" y="232.8232">Account</text><line style="stroke: #A80036; stroke-width: 1.0; stroke-dasharray: 5.0,5.0;" x1="27" x2="27" y1="86.2969" y2="597.1875"/><line style="stroke: #A80036; stroke-width: 1.0; stroke-dasharray: 5.0,5.0;" x1="170.5" x2="170.5" y1="86.2969" y2="597.1875"/><line style="stroke: #A80036; stroke-width: 1.0; stroke-dasharray: 5.0,5.0;" x1="309" x2="309" y1="86.2969" y2="597.1875"/><line style="stroke: #A80036; stroke-width: 1.0; stroke-dasharray: 5.0,5.0;" x1="532" x2="532" y1="86.2969" y2="597.1875"/><line style="stroke: #A80036; stroke-width: 1.0; stroke-dasharray: 5.0,5.0;" x1="626" x2="626" y1="245.4766" y2="597.1875"/><text fill="#000000" font-family="sans-serif" font-size="14" lengthAdjust="spacingAndGlyphs" textLength="32" x="8" y="82.9951">User</text><ellipse cx="27" cy="13" fill="#FEFECE" filter="url(#fsl99tl7p2tur)" rx="8" ry="8" style="stroke: #A80036; stroke-width: 2.0;"/><path d="M27,21 L27,48 M14,29 L40,29 M27,48 L14,63 M27,48 L40,63 " fill="#FEFECE" filter="url(#fsl99tl7p2tur)" style="stroke: #A80036; stroke-width: 2.0;"/><text fill="#000000" font-family="sans-serif" font-size="14" lengthAdjust="spacingAndGlyphs" textLength="32" x="8" y="609.1826">User</text><ellipse cx="27" cy="622.4844" fill="#FEFECE" filter="url(#fsl99tl7p2tur)" rx="8" ry="8" style="stroke: #A80036; stroke-width: 2.0;"/><path d="M27,630.4844 L27,657.4844 M14,638.4844 L40,638.4844 M27,657.4844 L14,672.4844 M27,657.4844 L40,672.4844 " fill="#FEFECE" filter="url(#fsl99tl7p2tur)" style="stroke: #A80036; stroke-width: 2.0;"/><rect fill="#FEFECE" filter="url(#fsl99tl7p2tur)" height="30.2969" style="stroke: #A80036; stroke-width: 1.5;" width="143" x="97.5" y="51"/><text fill="#000000" font-family="sans-serif" font-size="14" lengthAdjust="spacingAndGlyphs" textLength="129" x="104.5" y="70.9951">Application Service</text><rect fill="#FEFECE" filter="url(#fsl99tl7p2tur)" height="30.2969" style="stroke: #A80036; stroke-width: 1.5;" width="143" x="97.5" y="596.1875"/><text fill="#000000" font-family="sans-serif" font-size="14" lengthAdjust="spacingAndGlyphs" textLength="129" x="104.5" y="616.1826">Application Service</text><rect fill="#FEFECE" filter="url(#fsl99tl7p2tur)" height="30.2969" style="stroke: #A80036; stroke-width: 1.5;" width="88" x="263" y="51"/><text fill="#000000" font-family="sans-serif" font-size="14" lengthAdjust="spacingAndGlyphs" textLength="74" x="270" y="70.9951">Repository</text><rect fill="#FEFECE" filter="url(#fsl99tl7p2tur)" height="30.2969" style="stroke: #A80036; stroke-width: 1.5;" width="88" x="263" y="596.1875"/><text fill="#000000" font-family="sans-serif" font-size="14" lengthAdjust="spacingAndGlyphs" textLength="74" x="270" y="616.1826">Repository</text><rect fill="#FEFECE" filter="url(#fsl99tl7p2tur)" height="30.2969" style="stroke: #A80036; stroke-width: 1.5;" width="90" x="485" y="51"/><text fill="#000000" font-family="sans-serif" font-size="14" lengthAdjust="spacingAndGlyphs" textLength="76" x="492" y="70.9951">EventStore</text><rect fill="#FEFECE" filter="url(#fsl99tl7p2tur)" height="30.2969" style="stroke: #A80036; stroke-width: 1.5;" width="90" x="485" y="596.1875"/><text fill="#000000" font-family="sans-serif" font-size="14" lengthAdjust="spacingAndGlyphs" textLength="76" x="492" y="616.1826">EventStore</text><rect fill="#FEFECE" filter="url(#fsl99tl7p2tur)" height="30.2969" style="stroke: #A80036; stroke-width: 1.5;" width="71" x="589" y="596.1875"/><text fill="#000000" font-family="sans-serif" font-size="14" lengthAdjust="spacingAndGlyphs" textLength="57" x="596" y="616.1826">Account</text><polygon fill="#A80036" points="159,113.2969,169,117.2969,159,121.2969,163,117.2969" style="stroke: #A80036; stroke-width: 1.0;"/><line style="stroke: #A80036; stroke-width: 1.0;" x1="27" x2="165" y1="117.2969" y2="117.2969"/><text fill="#000000" font-family="sans-serif" font-size="13" font-weight="bold" lengthAdjust="spacingAndGlyphs" textLength="9" x="34" y="112.3638">1</text><text fill="#000000" font-family="sans-serif" font-size="13" lengthAdjust="spacingAndGlyphs" textLength="107" x="47" y="112.3638">withdraw("X", 42)</text><polygon fill="#A80036" points="297,142.4297,307,146.4297,297,150.4297,301,146.4297" style="stroke: #A80036; stroke-width: 1.0;"/><line style="stroke: #A80036; stroke-width: 1.0;" x1="171" x2="303" y1="146.4297" y2="146.4297"/><text fill="#000000" font-family="sans-serif" font-size="13" font-weight="bold" lengthAdjust="spacingAndGlyphs" textLength="9" x="178" y="141.4966">2</text><text fill="#000000" font-family="sans-serif" font-size="13" lengthAdjust="spacingAndGlyphs" textLength="101" x="191" y="141.4966">getAccount("X")</text><polygon fill="#A80036" points="520,171.5625,530,175.5625,520,179.5625,524,175.5625" style="stroke: #A80036; stroke-width: 1.0;"/><line style="stroke: #A80036; stroke-width: 1.0;" x1="309" x2="526" y1="175.5625" y2="175.5625"/><text fill="#000000" font-family="sans-serif" font-size="13" font-weight="bold" lengthAdjust="spacingAndGlyphs" textLength="9" x="316" y="170.6294">3</text><text fill="#000000" font-family="sans-serif" font-size="13" lengthAdjust="spacingAndGlyphs" textLength="139" x="329" y="170.6294">loadEventStream("X")</text><polygon fill="#A80036" points="320,200.6953,310,204.6953,320,208.6953,316,204.6953" style="stroke: #A80036; stroke-width: 1.0;"/><line style="stroke: #A80036; stroke-width: 1.0; stroke-dasharray: 2.0,2.0;" x1="314" x2="531" y1="204.6953" y2="204.6953"/><text fill="#000000" font-family="sans-serif" font-size="13" lengthAdjust="spacingAndGlyphs" textLength="142" x="326" y="199.7622">events : List&lt;Events&gt;</text><polygon fill="#A80036" points="577,229.8281,587,233.8281,577,237.8281,581,233.8281" style="stroke: #A80036; stroke-width: 1.0;"/><line style="stroke: #A80036; stroke-width: 1.0;" x1="309" x2="583" y1="233.8281" y2="233.8281"/><text fill="#000000" font-family="sans-serif" font-size="13" font-weight="bold" lengthAdjust="spacingAndGlyphs" textLength="9" x="316" y="228.895">4</text><text fill="#000000" font-family="sans-serif" font-size="13" lengthAdjust="spacingAndGlyphs" textLength="94" x="329" y="228.895">create(events)</text><rect fill="#FEFECE" filter="url(#fsl99tl7p2tur)" height="30.2969" style="stroke: #A80036; stroke-width: 1.5;" width="71" x="589" y="212.8281"/><text fill="#000000" font-family="sans-serif" font-size="14" lengthAdjust="spacingAndGlyphs" textLength="57" x="596" y="232.8232">Account</text><line style="stroke: #A80036; stroke-width: 1.0;" x1="626.5" x2="668.5" y1="279.2578" y2="279.2578"/><line style="stroke: #A80036; stroke-width: 1.0;" x1="668.5" x2="668.5" y1="279.2578" y2="292.2578"/><line style="stroke: #A80036; stroke-width: 1.0;" x1="627.5" x2="668.5" y1="292.2578" y2="292.2578"/><polygon fill="#A80036" points="637.5,288.2578,627.5,292.2578,637.5,296.2578,633.5,292.2578" style="stroke: #A80036; stroke-width: 1.0;"/><text fill="#000000" font-family="sans-serif" font-size="13" font-weight="bold" lengthAdjust="spacingAndGlyphs" textLength="9" x="633.5" y="274.1919">5</text><text fill="#000000" font-family="sans-serif" font-size="13" lengthAdjust="spacingAndGlyphs" textLength="87" x="646.5" y="274.1919">apply(events)</text><polygon fill="#A80036" points="320,302.2578,310,306.2578,320,310.2578,316,306.2578" style="stroke: #A80036; stroke-width: 1.0;"/><line style="stroke: #A80036; stroke-width: 1.0; stroke-dasharray: 2.0,2.0;" x1="314" x2="625.5" y1="306.2578" y2="306.2578"/><polygon fill="#A80036" points="182,331.2578,172,335.2578,182,339.2578,178,335.2578" style="stroke: #A80036; stroke-width: 1.0;"/><line style="stroke: #A80036; stroke-width: 1.0; stroke-dasharray: 2.0,2.0;" x1="176" x2="308" y1="335.2578" y2="335.2578"/><text fill="#000000" font-family="sans-serif" font-size="13" lengthAdjust="spacingAndGlyphs" textLength="68" x="188" y="330.3247">a: Account</text><polygon fill="#A80036" points="614.5,360.3906,624.5,364.3906,614.5,368.3906,618.5,364.3906" style="stroke: #A80036; stroke-width: 1.0;"/><line style="stroke: #A80036; stroke-width: 1.0;" x1="171" x2="620.5" y1="364.3906" y2="364.3906"/><text fill="#000000" font-family="sans-serif" font-size="13" font-weight="bold" lengthAdjust="spacingAndGlyphs" textLength="9" x="178" y="359.4575">6</text><text fill="#000000" font-family="sans-serif" font-size="13" lengthAdjust="spacingAndGlyphs" textLength="81" x="191" y="359.4575">withdraw(42)</text><line style="stroke: #A80036; stroke-width: 1.0;" x1="626.5" x2="668.5" y1="393.6563" y2="393.6563"/><line style="stroke: #A80036; stroke-width: 1.0;" x1="668.5" x2="668.5" y1="393.6563" y2="406.6563"/><line style="stroke: #A80036; stroke-width: 1.0;" x1="627.5" x2="668.5" y1="406.6563" y2="406.6563"/><polygon fill="#A80036" points="637.5,402.6563,627.5,406.6563,637.5,410.6563,633.5,406.6563" style="stroke: #A80036; stroke-width: 1.0;"/><text fill="#000000" font-family="sans-serif" font-size="13" font-weight="bold" lengthAdjust="spacingAndGlyphs" textLength="9" x="633.5" y="388.5903">7</text><text fill="#000000" font-family="sans-serif" font-size="13" lengthAdjust="spacingAndGlyphs" textLength="176" x="646.5" y="388.5903">emit MoneyWithdrawnEvent</text><polygon fill="#A80036" points="182,416.6563,172,420.6563,182,424.6563,178,420.6563" style="stroke: #A80036; stroke-width: 1.0;"/><line style="stroke: #A80036; stroke-width: 1.0; stroke-dasharray: 2.0,2.0;" x1="176" x2="625.5" y1="420.6563" y2="420.6563"/><polygon fill="#A80036" points="297,445.6563,307,449.6563,297,453.6563,301,449.6563" style="stroke: #A80036; stroke-width: 1.0;"/><line style="stroke: #A80036; stroke-width: 1.0;" x1="171" x2="303" y1="449.6563" y2="449.6563"/><text fill="#000000" font-family="sans-serif" font-size="13" font-weight="bold" lengthAdjust="spacingAndGlyphs" textLength="9" x="178" y="444.7231">8</text><text fill="#000000" font-family="sans-serif" font-size="13" lengthAdjust="spacingAndGlyphs" textLength="48" x="191" y="444.7231">save(a)</text><polygon fill="#A80036" points="614.5,474.7891,624.5,478.7891,614.5,482.7891,618.5,478.7891" style="stroke: #A80036; stroke-width: 1.0;"/><line style="stroke: #A80036; stroke-width: 1.0;" x1="309" x2="620.5" y1="478.7891" y2="478.7891"/><text fill="#000000" font-family="sans-serif" font-size="13" font-weight="bold" lengthAdjust="spacingAndGlyphs" textLength="9" x="316" y="473.856">9</text><text fill="#000000" font-family="sans-serif" font-size="13" lengthAdjust="spacingAndGlyphs" textLength="124" x="329" y="473.856">getEmittedEvents()</text><polygon fill="#A80036" points="320,503.9219,310,507.9219,320,511.9219,316,507.9219" style="stroke: #A80036; stroke-width: 1.0;"/><line style="stroke: #A80036; stroke-width: 1.0; stroke-dasharray: 2.0,2.0;" x1="314" x2="625.5" y1="507.9219" y2="507.9219"/><text fill="#000000" font-family="sans-serif" font-size="13" lengthAdjust="spacingAndGlyphs" textLength="181" x="326" y="502.9888">emittedEvents: List&lt;Event&gt;</text><line style="stroke: #A80036; stroke-width: 2.0;" x1="617.5" x2="635.5" y1="498.9219" y2="516.9219"/><line style="stroke: #A80036; stroke-width: 2.0;" x1="617.5" x2="635.5" y1="516.9219" y2="498.9219"/><polygon fill="#A80036" points="520,533.0547,530,537.0547,520,541.0547,524,537.0547" style="stroke: #A80036; stroke-width: 1.0;"/><line style="stroke: #A80036; stroke-width: 1.0;" x1="309" x2="526" y1="537.0547" y2="537.0547"/><text fill="#000000" font-family="sans-serif" font-size="13" font-weight="bold" lengthAdjust="spacingAndGlyphs" textLength="18" x="316" y="532.1216">10</text><text fill="#000000" font-family="sans-serif" font-size="13" lengthAdjust="spacingAndGlyphs" textLength="177" x="338" y="532.1216">append("X", emittedEvents)</text><polygon fill="#A80036" points="320,547.1875,310,551.1875,320,555.1875,316,551.1875" style="stroke: #A80036; stroke-width: 1.0;"/><line style="stroke: #A80036; stroke-width: 1.0; stroke-dasharray: 2.0,2.0;" x1="314" x2="531" y1="551.1875" y2="551.1875"/><polygon fill="#A80036" points="182,561.1875,172,565.1875,182,569.1875,178,565.1875" style="stroke: #A80036; stroke-width: 1.0;"/><line style="stroke: #A80036; stroke-width: 1.0; stroke-dasharray: 2.0,2.0;" x1="176" x2="308" y1="565.1875" y2="565.1875"/><polygon fill="#A80036" points="38,575.1875,28,579.1875,38,583.1875,34,579.1875" style="stroke: #A80036; stroke-width: 1.0;"/><line style="stroke: #A80036; stroke-width: 1.0; stroke-dasharray: 2.0,2.0;" x1="32" x2="170" y1="579.1875" y2="579.1875"/><!--
@startuml

actor "User" as U
participant "Application Service" as AS
participant "Repository" as R
participant "EventStore" as ES
U -> AS: **1** withdraw("X", 42)
AS -> R: **2** getAccount("X")
R -> ES: **3** loadEventStream("X")
R <- - ES: events : List<Events>
create "Account" as A
R ->  A: **4** create(events)
A -> A: **5** apply(events)
R <- - A
AS <- - R: a: Account
AS -> A: **6** withdraw(42)
A -> A: **7** emit MoneyWithdrawnEvent
AS <- - A 
AS -> R: **8** save(a)
R -> A: **9** getEmittedEvents()
R <- - A: emittedEvents: List<Event>
destroy A
R -> ES: **10** append("X", emittedEvents)
R <- - ES
AS <- - R
U <- - AS

@enduml

PlantUML version 1.2017.15(Mon Jul 03 18:45:34 CEST 2017)
(GPL source distribution)
Java Runtime: Java(TM) SE Runtime Environment
JVM: Java HotSpot(TM) 64-Bit Server VM
Java Version: 1.8.0_191-b12
Operating System: Linux
OS Version: 4.15.0-72-generic
Default Encoding: UTF-8
Language: en
Country: US
--></g></svg>