<?xml version="1.0" encoding="UTF-8" standalone="no"?><svg xmlns="http://www.w3.org/2000/svg" xmlns:xlink="http://www.w3.org/1999/xlink" contentScriptType="application/ecmascript" contentStyleType="text/css" height="187px" preserveAspectRatio="none" style="width:577px;height:187px;" version="1.1" viewBox="0 0 577 187" width="577px" zoomAndPan="magnify"><defs><filter height="300%" id="f162cdjmoq4bfb" width="300%" x="-1" y="-1"><feGaussianBlur result="blurOut" stdDeviation="2.0"/><feColorMatrix in="blurOut" result="blurOut2" type="matrix" values="0 0 0 0 0 0 0 0 0 0 0 0 0 0 0 0 0 0 .4 0"/><feOffset dx="4.0" dy="4.0" in="blurOut2" result="blurOut3"/><feBlend in="SourceGraphic" in2="blurOut3" mode="normal"/></filter></defs><g><!--cluster org.jaun.app.domain--><polygon fill="#FFFFFF" filter="url(#f162cdjmoq4bfb)" points="14,16,181,16,188,38.2969,317,38.2969,317,175,14,175,14,16" style="stroke: #000000; stroke-width: 2.0;"/><line style="stroke: #000000; stroke-width: 2.0;" x1="14" x2="188" y1="38.2969" y2="38.2969"/><text fill="#000000" font-family="sans-serif" font-size="14" font-weight="bold" lengthAdjust="spacingAndGlyphs" textLength="161" x="18" y="30.9951">org.jaun.app.domain</text><!--cluster org.jaun.app.infrastructure--><polygon fill="#FFFFFF" filter="url(#f162cdjmoq4bfb)" points="325,108,545,108,552,130.2969,555,130.2969,555,175,325,175,325,108" style="stroke: #000000; stroke-width: 2.0;"/><line style="stroke: #000000; stroke-width: 2.0;" x1="325" x2="552" y1="130.2969" y2="130.2969"/><text fill="#000000" font-family="sans-serif" font-size="14" font-weight="bold" lengthAdjust="spacingAndGlyphs" textLength="214" x="329" y="122.9951">org.jaun.app.infrastructure</text><!--class MyBusinessLogic--><rect fill="#FEFECE" filter="url(#f162cdjmoq4bfb)" height="32" id="MyBusinessLogic" style="stroke: #A80036; stroke-width: 1.5;" width="136" x="22" y="43"/><ellipse cx="37" cy="59" fill="#ADD1B2" rx="11" ry="11" style="stroke: #A80036; stroke-width: 1.0;"/><path d="M39.9688,64.6406 Q39.3906,64.9375 38.75,65.0859 Q38.1094,65.2344 37.4063,65.2344 Q34.9063,65.2344 33.5859,63.5859 Q32.2656,61.9375 32.2656,58.8125 Q32.2656,55.6875 33.5859,54.0313 Q34.9063,52.375 37.4063,52.375 Q38.1094,52.375 38.7578,52.5313 Q39.4063,52.6875 39.9688,52.9844 L39.9688,55.7031 Q39.3438,55.125 38.75,54.8516 Q38.1563,54.5781 37.5313,54.5781 Q36.1875,54.5781 35.5,55.6484 Q34.8125,56.7188 34.8125,58.8125 Q34.8125,60.9063 35.5,61.9766 Q36.1875,63.0469 37.5313,63.0469 Q38.1563,63.0469 38.75,62.7734 Q39.3438,62.5 39.9688,61.9219 L39.9688,64.6406 Z "/><text fill="#000000" font-family="sans-serif" font-size="12" lengthAdjust="spacingAndGlyphs" textLength="104" x="51" y="63.1543">MyBusinessLogic</text><!--class org.jaun.app.domain.MyRepository--><rect fill="#FEFECE" filter="url(#f162cdjmoq4bfb)" height="32" id="org.jaun.app.domain.MyRepository" style="stroke: #A80036; stroke-width: 1.5;" width="115" x="193.5" y="43"/><ellipse cx="208.5" cy="59" fill="#B4A7E5" rx="11" ry="11" style="stroke: #A80036; stroke-width: 1.0;"/><path d="M204.4219,54.7656 L204.4219,52.6094 L211.8125,52.6094 L211.8125,54.7656 L209.3438,54.7656 L209.3438,62.8438 L211.8125,62.8438 L211.8125,65 L204.4219,65 L204.4219,62.8438 L206.8906,62.8438 L206.8906,54.7656 L204.4219,54.7656 Z "/><text fill="#000000" font-family="sans-serif" font-size="12" font-style="italic" lengthAdjust="spacingAndGlyphs" textLength="83" x="222.5" y="63.1543">MyRepository</text><!--class MyRepository--><rect fill="#FEFECE" filter="url(#f162cdjmoq4bfb)" height="32" id="MyRepository" style="stroke: #A80036; stroke-width: 1.5;" width="114" x="33" y="135"/><ellipse cx="48" cy="151" fill="#ADD1B2" rx="11" ry="11" style="stroke: #A80036; stroke-width: 1.0;"/><path d="M50.9688,156.6406 Q50.3906,156.9375 49.75,157.0859 Q49.1094,157.2344 48.4063,157.2344 Q45.9063,157.2344 44.5859,155.5859 Q43.2656,153.9375 43.2656,150.8125 Q43.2656,147.6875 44.5859,146.0313 Q45.9063,144.375 48.4063,144.375 Q49.1094,144.375 49.7578,144.5313 Q50.4063,144.6875 50.9688,144.9844 L50.9688,147.7031 Q50.3438,147.125 49.75,146.8516 Q49.1563,146.5781 48.5313,146.5781 Q47.1875,146.5781 46.5,147.6484 Q45.8125,148.7188 45.8125,150.8125 Q45.8125,152.9063 46.5,153.9766 Q47.1875,155.0469 48.5313,155.0469 Q49.1563,155.0469 49.75,154.7734 Q50.3438,154.5 50.9688,153.9219 L50.9688,156.6406 Z "/><text fill="#000000" font-family="sans-serif" font-size="12" lengthAdjust="spacingAndGlyphs" textLength="82" x="62" y="155.1543">MyRepository</text><!--class MyJdbcRepositoryImpl--><rect fill="#FEFECE" filter="url(#f162cdjmoq4bfb)" height="32" id="MyJdbcRepositoryImpl" style="stroke: #A80036; stroke-width: 1.5;" width="165" x="333.5" y="135"/><ellipse cx="348.5" cy="151" fill="#ADD1B2" rx="11" ry="11" style="stroke: #A80036; stroke-width: 1.0;"/><path d="M351.4688,156.6406 Q350.8906,156.9375 350.25,157.0859 Q349.6094,157.2344 348.9063,157.2344 Q346.4063,157.2344 345.0859,155.5859 Q343.7656,153.9375 343.7656,150.8125 Q343.7656,147.6875 345.0859,146.0313 Q346.4063,144.375 348.9063,144.375 Q349.6094,144.375 350.2578,144.5313 Q350.9063,144.6875 351.4688,144.9844 L351.4688,147.7031 Q350.8438,147.125 350.25,146.8516 Q349.6563,146.5781 349.0313,146.5781 Q347.6875,146.5781 347,147.6484 Q346.3125,148.7188 346.3125,150.8125 Q346.3125,152.9063 347,153.9766 Q347.6875,155.0469 349.0313,155.0469 Q349.6563,155.0469 350.25,154.7734 Q350.8438,154.5 351.4688,153.9219 L351.4688,156.6406 Z "/><text fill="#000000" font-family="sans-serif" font-size="12" lengthAdjust="spacingAndGlyphs" textLength="133" x="362.5" y="155.1543">MyJdbcRepositoryImpl</text><!--link MyBusinessLogic to MyRepository--><path d="M90,75.0252 C90,90.1037 90,112.7931 90,129.4514 " fill="none" id="MyBusinessLogic-MyRepository" style="stroke: #A80036; stroke-width: 1.0;"/><polygon fill="#A80036" points="90,134.8498,94,125.8498,90,129.8498,86,125.8498,90,134.8498" style="stroke: #A80036; stroke-width: 1.0;"/><!--link org.jaun.app.domain.MyRepository to MyJdbcRepositoryImpl--><path d="M297.4088,84.8764 C326.1919,100.9252 362.2749,121.0442 387.0349,134.8498 " fill="none" id="org.jaun.app.domain.MyRepository-MyJdbcRepositoryImpl" style="stroke: #A80036; stroke-width: 1.0;"/><polygon fill="none" points="293.8,90.8789,279.7408,75.0252,300.6179,78.6512,293.8,90.8789" style="stroke: #A80036; stroke-width: 1.0;"/><!--
@startuml

hide empty members

package org.jaun.app.domain {
  class MyBusinessLogic
  interface org.jaun.app.domain.MyRepository
  
  MyBusinessLogic - -> MyRepository
}

package org.jaun.app.infrastructure {
  
  class MyJdbcRepositoryImpl
  
  org.jaun.app.domain.MyRepository <|- - MyJdbcRepositoryImpl
}

@enduml

PlantUML version 1.2017.15(Mon Jul 03 18:45:34 CEST 2017)
(GPL source distribution)
Java Runtime: Java(TM) SE Runtime Environment
JVM: Java HotSpot(TM) 64-Bit Server VM
Java Version: 1.8.0_191-b12
Operating System: Linux
OS Version: 4.15.0-91-generic
Default Encoding: UTF-8
Language: en
Country: US
--></g></svg>