<?xml version="1.0" encoding="UTF-8" standalone="no"?><svg xmlns="http://www.w3.org/2000/svg" xmlns:xlink="http://www.w3.org/1999/xlink" contentScriptType="application/ecmascript" contentStyleType="text/css" height="554px" preserveAspectRatio="none" style="width:476px;height:554px;" version="1.1" viewBox="0 0 476 554" width="476px" zoomAndPan="magnify"><defs><filter height="300%" id="f6y5y7aqvgmmz" width="300%" x="-1" y="-1"><feGaussianBlur result="blurOut" stdDeviation="2.0"/><feColorMatrix in="blurOut" result="blurOut2" type="matrix" values="0 0 0 0 0 0 0 0 0 0 0 0 0 0 0 0 0 0 .4 0"/><feOffset dx="4.0" dy="4.0" in="blurOut2" result="blurOut3"/><feBlend in="SourceGraphic" in2="blurOut3" mode="normal"/></filter></defs><g><line style="stroke: #A80036; stroke-width: 1.0; stroke-dasharray: 5.0,5.0;" x1="33" x2="33" y1="86.2969" y2="467.625"/><line style="stroke: #A80036; stroke-width: 1.0; stroke-dasharray: 5.0,5.0;" x1="95" x2="95" y1="86.2969" y2="467.625"/><line style="stroke: #A80036; stroke-width: 1.0; stroke-dasharray: 5.0,5.0;" x1="184" x2="184" y1="86.2969" y2="467.625"/><line style="stroke: #A80036; stroke-width: 1.0; stroke-dasharray: 5.0,5.0;" x1="325" x2="325" y1="86.2969" y2="467.625"/><line style="stroke: #A80036; stroke-width: 1.0; stroke-dasharray: 5.0,5.0;" x1="425" x2="425" y1="86.2969" y2="467.625"/><text fill="#000000" font-family="sans-serif" font-size="14" lengthAdjust="spacingAndGlyphs" textLength="45" x="8" y="82.9951">User A</text><ellipse cx="33.5" cy="13" fill="#FEFECE" filter="url(#f6y5y7aqvgmmz)" rx="8" ry="8" style="stroke: #A80036; stroke-width: 2.0;"/><path d="M33.5,21 L33.5,48 M20.5,29 L46.5,29 M33.5,48 L20.5,63 M33.5,48 L46.5,63 " fill="#FEFECE" filter="url(#f6y5y7aqvgmmz)" style="stroke: #A80036; stroke-width: 2.0;"/><text fill="#000000" font-family="sans-serif" font-size="14" lengthAdjust="spacingAndGlyphs" textLength="45" x="8" y="479.6201">User A</text><ellipse cx="33.5" cy="492.9219" fill="#FEFECE" filter="url(#f6y5y7aqvgmmz)" rx="8" ry="8" style="stroke: #A80036; stroke-width: 2.0;"/><path d="M33.5,500.9219 L33.5,527.9219 M20.5,508.9219 L46.5,508.9219 M33.5,527.9219 L20.5,542.9219 M33.5,527.9219 L46.5,542.9219 " fill="#FEFECE" filter="url(#f6y5y7aqvgmmz)" style="stroke: #A80036; stroke-width: 2.0;"/><text fill="#000000" font-family="sans-serif" font-size="14" lengthAdjust="spacingAndGlyphs" textLength="46" x="69" y="82.9951">User B</text><ellipse cx="95" cy="13" fill="#FEFECE" filter="url(#f6y5y7aqvgmmz)" rx="8" ry="8" style="stroke: #A80036; stroke-width: 2.0;"/><path d="M95,21 L95,48 M82,29 L108,29 M95,48 L82,63 M95,48 L108,63 " fill="#FEFECE" filter="url(#f6y5y7aqvgmmz)" style="stroke: #A80036; stroke-width: 2.0;"/><text fill="#000000" font-family="sans-serif" font-size="14" lengthAdjust="spacingAndGlyphs" textLength="46" x="69" y="479.6201">User B</text><ellipse cx="95" cy="492.9219" fill="#FEFECE" filter="url(#f6y5y7aqvgmmz)" rx="8" ry="8" style="stroke: #A80036; stroke-width: 2.0;"/><path d="M95,500.9219 L95,527.9219 M82,508.9219 L108,508.9219 M95,527.9219 L82,542.9219 M95,527.9219 L108,542.9219 " fill="#FEFECE" filter="url(#f6y5y7aqvgmmz)" style="stroke: #A80036; stroke-width: 2.0;"/><rect fill="#FEFECE" filter="url(#f6y5y7aqvgmmz)" height="30.2969" style="stroke: #A80036; stroke-width: 1.5;" width="64" x="150" y="51"/><text fill="#000000" font-family="sans-serif" font-size="14" lengthAdjust="spacingAndGlyphs" textLength="50" x="157" y="70.9951">Service</text><rect fill="#FEFECE" filter="url(#f6y5y7aqvgmmz)" height="30.2969" style="stroke: #A80036; stroke-width: 1.5;" width="64" x="150" y="466.625"/><text fill="#000000" font-family="sans-serif" font-size="14" lengthAdjust="spacingAndGlyphs" textLength="50" x="157" y="486.6201">Service</text><rect fill="#FEFECE" filter="url(#f6y5y7aqvgmmz)" height="30.2969" style="stroke: #A80036; stroke-width: 1.5;" width="88" x="279" y="51"/><text fill="#000000" font-family="sans-serif" font-size="14" lengthAdjust="spacingAndGlyphs" textLength="74" x="286" y="70.9951">Repository</text><rect fill="#FEFECE" filter="url(#f6y5y7aqvgmmz)" height="30.2969" style="stroke: #A80036; stroke-width: 1.5;" width="88" x="279" y="466.625"/><text fill="#000000" font-family="sans-serif" font-size="14" lengthAdjust="spacingAndGlyphs" textLength="74" x="286" y="486.6201">Repository</text><rect fill="#FEFECE" filter="url(#f6y5y7aqvgmmz)" height="30.2969" style="stroke: #A80036; stroke-width: 1.5;" width="84" x="381" y="51"/><text fill="#000000" font-family="sans-serif" font-size="14" lengthAdjust="spacingAndGlyphs" textLength="70" x="388" y="70.9951">Account X</text><rect fill="#FEFECE" filter="url(#f6y5y7aqvgmmz)" height="30.2969" style="stroke: #A80036; stroke-width: 1.5;" width="84" x="381" y="466.625"/><text fill="#000000" font-family="sans-serif" font-size="14" lengthAdjust="spacingAndGlyphs" textLength="70" x="388" y="486.6201">Account X</text><polygon fill="#A80036" points="172,113.2969,182,117.2969,172,121.2969,176,117.2969" style="stroke: #A80036; stroke-width: 1.0;"/><line style="stroke: #A80036; stroke-width: 1.0;" x1="33.5" x2="178" y1="117.2969" y2="117.2969"/><text fill="#000000" font-family="sans-serif" font-size="13" lengthAdjust="spacingAndGlyphs" textLength="65" x="40.5" y="112.3638">withdraw()</text><polygon fill="#A80036" points="313,142.4297,323,146.4297,313,150.4297,317,146.4297" style="stroke: #A80036; stroke-width: 1.0;"/><line style="stroke: #A80036; stroke-width: 1.0;" x1="184" x2="319" y1="146.4297" y2="146.4297"/><text fill="#000000" font-family="sans-serif" font-size="13" lengthAdjust="spacingAndGlyphs" textLength="117" x="191" y="141.4966">getAccount("123")</text><polygon fill="#A80036" points="195,171.5625,185,175.5625,195,179.5625,191,175.5625" style="stroke: #A80036; stroke-width: 1.0;"/><line style="stroke: #A80036; stroke-width: 1.0; stroke-dasharray: 2.0,2.0;" x1="189" x2="324" y1="175.5625" y2="175.5625"/><text fill="#000000" font-family="sans-serif" font-size="13" lengthAdjust="spacingAndGlyphs" textLength="52" x="201" y="170.6294">Account</text><polygon fill="#A80036" points="413,200.6953,423,204.6953,413,208.6953,417,204.6953" style="stroke: #A80036; stroke-width: 1.0;"/><line style="stroke: #A80036; stroke-width: 1.0;" x1="184" x2="419" y1="204.6953" y2="204.6953"/><text fill="#000000" font-family="sans-serif" font-size="13" lengthAdjust="spacingAndGlyphs" textLength="55" x="191" y="199.7622">withdraw</text><polygon fill="#A80036" points="195,214.8281,185,218.8281,195,222.8281,191,218.8281" style="stroke: #A80036; stroke-width: 1.0;"/><line style="stroke: #A80036; stroke-width: 1.0; stroke-dasharray: 2.0,2.0;" x1="189" x2="424" y1="218.8281" y2="218.8281"/><polygon fill="#A80036" points="172,243.8281,182,247.8281,172,251.8281,176,247.8281" style="stroke: #A80036; stroke-width: 1.0;"/><line style="stroke: #A80036; stroke-width: 1.0;" x1="95" x2="178" y1="247.8281" y2="247.8281"/><text fill="#000000" font-family="sans-serif" font-size="13" lengthAdjust="spacingAndGlyphs" textLength="65" x="102" y="242.895">withdraw()</text><polygon fill="#A80036" points="313,272.9609,323,276.9609,313,280.9609,317,276.9609" style="stroke: #A80036; stroke-width: 1.0;"/><line style="stroke: #A80036; stroke-width: 1.0;" x1="184" x2="319" y1="276.9609" y2="276.9609"/><text fill="#000000" font-family="sans-serif" font-size="13" lengthAdjust="spacingAndGlyphs" textLength="117" x="191" y="272.0278">getAccount("123")</text><polygon fill="#A80036" points="195,302.0938,185,306.0938,195,310.0938,191,306.0938" style="stroke: #A80036; stroke-width: 1.0;"/><line style="stroke: #A80036; stroke-width: 1.0; stroke-dasharray: 2.0,2.0;" x1="189" x2="324" y1="306.0938" y2="306.0938"/><text fill="#000000" font-family="sans-serif" font-size="13" lengthAdjust="spacingAndGlyphs" textLength="52" x="201" y="301.1606">Account</text><polygon fill="#A80036" points="413,331.2266,423,335.2266,413,339.2266,417,335.2266" style="stroke: #A80036; stroke-width: 1.0;"/><line style="stroke: #A80036; stroke-width: 1.0;" x1="184" x2="419" y1="335.2266" y2="335.2266"/><text fill="#000000" font-family="sans-serif" font-size="13" lengthAdjust="spacingAndGlyphs" textLength="55" x="191" y="330.2935">withdraw</text><polygon fill="#A80036" points="195,345.3594,185,349.3594,195,353.3594,191,349.3594" style="stroke: #A80036; stroke-width: 1.0;"/><line style="stroke: #A80036; stroke-width: 1.0; stroke-dasharray: 2.0,2.0;" x1="189" x2="424" y1="349.3594" y2="349.3594"/><polygon fill="#A80036" points="106,359.3594,96,363.3594,106,367.3594,102,363.3594" style="stroke: #A80036; stroke-width: 1.0;"/><line style="stroke: #A80036; stroke-width: 1.0; stroke-dasharray: 2.0,2.0;" x1="100" x2="183" y1="363.3594" y2="363.3594"/><polygon fill="#A80036" points="313,388.3594,323,392.3594,313,396.3594,317,392.3594" style="stroke: #A80036; stroke-width: 1.0;"/><line style="stroke: #A80036; stroke-width: 1.0;" x1="184" x2="319" y1="392.3594" y2="392.3594"/><text fill="#000000" font-family="sans-serif" font-size="13" lengthAdjust="spacingAndGlyphs" textLength="50" x="191" y="387.4263">store(Y)</text><polygon fill="#A80036" points="313,417.4922,323,421.4922,313,425.4922,317,421.4922" style="stroke: #A80036; stroke-width: 1.0;"/><line style="stroke: #A80036; stroke-width: 1.0;" x1="184" x2="319" y1="421.4922" y2="421.4922"/><text fill="#000000" font-family="sans-serif" font-size="13" lengthAdjust="spacingAndGlyphs" textLength="51" x="191" y="416.5591">store(X)</text><polygon fill="#A80036" points="195,431.625,185,435.625,195,439.625,191,435.625" style="stroke: #A80036; stroke-width: 1.0;"/><line style="stroke: #A80036; stroke-width: 1.0; stroke-dasharray: 2.0,2.0;" x1="189" x2="324" y1="435.625" y2="435.625"/><polygon fill="#A80036" points="44.5,445.625,34.5,449.625,44.5,453.625,40.5,449.625" style="stroke: #A80036; stroke-width: 1.0;"/><line style="stroke: #A80036; stroke-width: 1.0; stroke-dasharray: 2.0,2.0;" x1="38.5" x2="183" y1="449.625" y2="449.625"/><!--
@startuml

actor "User A" as U1
actor "User B" as U2
participant "Service" as S
participant "Repository" as R
participant "Account X" as A

U1 -> S: withdraw()
S -> R: getAccount("123")
S <- - R: Account
S -> A: withdraw
S <- - A:

U2 -> S: withdraw()
S -> R: getAccount("123")
S <- - R: Account
S -> A: withdraw
S <- - A:
U2 <- - S:

S -> R: store(Y)

S -> R: store(X)
S <- - R:
U1 <- - S:

@enduml

PlantUML version 1.2017.15(Mon Jul 03 18:45:34 CEST 2017)
(GPL source distribution)
Java Runtime: Java(TM) SE Runtime Environment
JVM: Java HotSpot(TM) 64-Bit Server VM
Java Version: 1.8.0_191-b12
Operating System: Linux
OS Version: 4.15.0-72-generic
Default Encoding: UTF-8
Language: en
Country: US
--></g></svg>