<?xml version="1.0" encoding="UTF-8" standalone="no"?><svg xmlns="http://www.w3.org/2000/svg" xmlns:xlink="http://www.w3.org/1999/xlink" contentScriptType="application/ecmascript" contentStyleType="text/css" height="628px" preserveAspectRatio="none" style="width:554px;height:628px;" version="1.1" viewBox="0 0 554 628" width="554px" zoomAndPan="magnify"><defs><filter height="300%" id="fa8per42wqrvq" width="300%" x="-1" y="-1"><feGaussianBlur result="blurOut" stdDeviation="2.0"/><feColorMatrix in="blurOut" result="blurOut2" type="matrix" values="0 0 0 0 0 0 0 0 0 0 0 0 0 0 0 0 0 0 .4 0"/><feOffset dx="4.0" dy="4.0" in="blurOut2" result="blurOut3"/><feBlend in="SourceGraphic" in2="blurOut3" mode="normal"/></filter></defs><g><rect fill="#FEFECE" filter="url(#fa8per42wqrvq)" height="30.2969" style="stroke: #A80036; stroke-width: 1.5;" width="92" x="405" y="154.5625"/><text fill="#000000" font-family="sans-serif" font-size="14" lengthAdjust="spacingAndGlyphs" textLength="78" x="412" y="174.5576">i1: Account</text><line style="stroke: #A80036; stroke-width: 1.0; stroke-dasharray: 5.0,5.0;" x1="33" x2="33" y1="86.2969" y2="540.9219"/><line style="stroke: #A80036; stroke-width: 1.0; stroke-dasharray: 5.0,5.0;" x1="95" x2="95" y1="86.2969" y2="540.9219"/><line style="stroke: #A80036; stroke-width: 1.0; stroke-dasharray: 5.0,5.0;" x1="184" x2="184" y1="86.2969" y2="540.9219"/><line style="stroke: #A80036; stroke-width: 1.0; stroke-dasharray: 5.0,5.0;" x1="330" x2="330" y1="86.2969" y2="540.9219"/><line style="stroke: #A80036; stroke-width: 1.0; stroke-dasharray: 5.0,5.0;" x1="453" x2="453" y1="187.2109" y2="540.9219"/><line style="stroke: #A80036; stroke-width: 1.0; stroke-dasharray: 5.0,5.0;" x1="529" x2="529" y1="86.2969" y2="540.9219"/><text fill="#000000" font-family="sans-serif" font-size="14" lengthAdjust="spacingAndGlyphs" textLength="45" x="8" y="82.9951">User A</text><ellipse cx="33.5" cy="13" fill="#FEFECE" filter="url(#fa8per42wqrvq)" rx="8" ry="8" style="stroke: #A80036; stroke-width: 2.0;"/><path d="M33.5,21 L33.5,48 M20.5,29 L46.5,29 M33.5,48 L20.5,63 M33.5,48 L46.5,63 " fill="#FEFECE" filter="url(#fa8per42wqrvq)" style="stroke: #A80036; stroke-width: 2.0;"/><text fill="#000000" font-family="sans-serif" font-size="14" lengthAdjust="spacingAndGlyphs" textLength="45" x="8" y="552.917">User A</text><ellipse cx="33.5" cy="566.2188" fill="#FEFECE" filter="url(#fa8per42wqrvq)" rx="8" ry="8" style="stroke: #A80036; stroke-width: 2.0;"/><path d="M33.5,574.2188 L33.5,601.2188 M20.5,582.2188 L46.5,582.2188 M33.5,601.2188 L20.5,616.2188 M33.5,601.2188 L46.5,616.2188 " fill="#FEFECE" filter="url(#fa8per42wqrvq)" style="stroke: #A80036; stroke-width: 2.0;"/><text fill="#000000" font-family="sans-serif" font-size="14" lengthAdjust="spacingAndGlyphs" textLength="46" x="69" y="82.9951">User B</text><ellipse cx="95" cy="13" fill="#FEFECE" filter="url(#fa8per42wqrvq)" rx="8" ry="8" style="stroke: #A80036; stroke-width: 2.0;"/><path d="M95,21 L95,48 M82,29 L108,29 M95,48 L82,63 M95,48 L108,63 " fill="#FEFECE" filter="url(#fa8per42wqrvq)" style="stroke: #A80036; stroke-width: 2.0;"/><text fill="#000000" font-family="sans-serif" font-size="14" lengthAdjust="spacingAndGlyphs" textLength="46" x="69" y="552.917">User B</text><ellipse cx="95" cy="566.2188" fill="#FEFECE" filter="url(#fa8per42wqrvq)" rx="8" ry="8" style="stroke: #A80036; stroke-width: 2.0;"/><path d="M95,574.2188 L95,601.2188 M82,582.2188 L108,582.2188 M95,601.2188 L82,616.2188 M95,601.2188 L108,616.2188 " fill="#FEFECE" filter="url(#fa8per42wqrvq)" style="stroke: #A80036; stroke-width: 2.0;"/><rect fill="#FEFECE" filter="url(#fa8per42wqrvq)" height="30.2969" style="stroke: #A80036; stroke-width: 1.5;" width="64" x="150" y="51"/><text fill="#000000" font-family="sans-serif" font-size="14" lengthAdjust="spacingAndGlyphs" textLength="50" x="157" y="70.9951">Service</text><rect fill="#FEFECE" filter="url(#fa8per42wqrvq)" height="30.2969" style="stroke: #A80036; stroke-width: 1.5;" width="64" x="150" y="539.9219"/><text fill="#000000" font-family="sans-serif" font-size="14" lengthAdjust="spacingAndGlyphs" textLength="50" x="157" y="559.917">Service</text><rect fill="#FEFECE" filter="url(#fa8per42wqrvq)" height="30.2969" style="stroke: #A80036; stroke-width: 1.5;" width="88" x="284" y="51"/><text fill="#000000" font-family="sans-serif" font-size="14" lengthAdjust="spacingAndGlyphs" textLength="74" x="291" y="70.9951">Repository</text><rect fill="#FEFECE" filter="url(#fa8per42wqrvq)" height="30.2969" style="stroke: #A80036; stroke-width: 1.5;" width="88" x="284" y="539.9219"/><text fill="#000000" font-family="sans-serif" font-size="14" lengthAdjust="spacingAndGlyphs" textLength="74" x="291" y="559.917">Repository</text><rect fill="#FEFECE" filter="url(#fa8per42wqrvq)" height="30.2969" style="stroke: #A80036; stroke-width: 1.5;" width="92" x="405" y="539.9219"/><text fill="#000000" font-family="sans-serif" font-size="14" lengthAdjust="spacingAndGlyphs" textLength="78" x="412" y="559.917">i1: Account</text><rect fill="#FEFECE" filter="url(#fa8per42wqrvq)" height="30.2969" style="stroke: #A80036; stroke-width: 1.5;" width="32" x="511" y="51"/><text fill="#000000" font-family="sans-serif" font-size="14" lengthAdjust="spacingAndGlyphs" textLength="18" x="518" y="70.9951">A2</text><rect fill="#FEFECE" filter="url(#fa8per42wqrvq)" height="30.2969" style="stroke: #A80036; stroke-width: 1.5;" width="32" x="511" y="539.9219"/><text fill="#000000" font-family="sans-serif" font-size="14" lengthAdjust="spacingAndGlyphs" textLength="18" x="518" y="559.917">A2</text><polygon fill="#A80036" points="172,113.2969,182,117.2969,172,121.2969,176,117.2969" style="stroke: #A80036; stroke-width: 1.0;"/><line style="stroke: #A80036; stroke-width: 1.0;" x1="33.5" x2="178" y1="117.2969" y2="117.2969"/><text fill="#000000" font-family="sans-serif" font-size="13" lengthAdjust="spacingAndGlyphs" textLength="65" x="40.5" y="112.3638">withdraw()</text><polygon fill="#A80036" points="318,142.4297,328,146.4297,318,150.4297,322,146.4297" style="stroke: #A80036; stroke-width: 1.0;"/><line style="stroke: #A80036; stroke-width: 1.0;" x1="184" x2="324" y1="146.4297" y2="146.4297"/><text fill="#000000" font-family="sans-serif" font-size="13" lengthAdjust="spacingAndGlyphs" textLength="117" x="191" y="141.4966">getAccount("123")</text><polygon fill="#A80036" points="393,171.5625,403,175.5625,393,179.5625,397,175.5625" style="stroke: #A80036; stroke-width: 1.0;"/><line style="stroke: #A80036; stroke-width: 1.0;" x1="330" x2="399" y1="175.5625" y2="175.5625"/><text fill="#000000" font-family="sans-serif" font-size="13" lengthAdjust="spacingAndGlyphs" textLength="51" x="337" y="170.6294">create()</text><rect fill="#FEFECE" filter="url(#fa8per42wqrvq)" height="30.2969" style="stroke: #A80036; stroke-width: 1.5;" width="92" x="405" y="154.5625"/><text fill="#000000" font-family="sans-serif" font-size="14" lengthAdjust="spacingAndGlyphs" textLength="78" x="412" y="174.5576">i1: Account</text><polygon fill="#A80036" points="341,201.8594,331,205.8594,341,209.8594,337,205.8594" style="stroke: #A80036; stroke-width: 1.0;"/><line style="stroke: #A80036; stroke-width: 1.0; stroke-dasharray: 2.0,2.0;" x1="335" x2="452" y1="205.8594" y2="205.8594"/><polygon fill="#A80036" points="195,230.8594,185,234.8594,195,238.8594,191,234.8594" style="stroke: #A80036; stroke-width: 1.0;"/><line style="stroke: #A80036; stroke-width: 1.0; stroke-dasharray: 2.0,2.0;" x1="189" x2="329" y1="234.8594" y2="234.8594"/><text fill="#000000" font-family="sans-serif" font-size="13" lengthAdjust="spacingAndGlyphs" textLength="122" x="201" y="229.9263">instance1: Account</text><polygon fill="#A80036" points="441,259.9922,451,263.9922,441,267.9922,445,263.9922" style="stroke: #A80036; stroke-width: 1.0;"/><line style="stroke: #A80036; stroke-width: 1.0;" x1="184" x2="447" y1="263.9922" y2="263.9922"/><text fill="#000000" font-family="sans-serif" font-size="13" lengthAdjust="spacingAndGlyphs" textLength="55" x="191" y="259.0591">withdraw</text><polygon fill="#A80036" points="195,274.125,185,278.125,195,282.125,191,278.125" style="stroke: #A80036; stroke-width: 1.0;"/><line style="stroke: #A80036; stroke-width: 1.0; stroke-dasharray: 2.0,2.0;" x1="189" x2="452" y1="278.125" y2="278.125"/><polygon fill="#A80036" points="172,303.125,182,307.125,172,311.125,176,307.125" style="stroke: #A80036; stroke-width: 1.0;"/><line style="stroke: #A80036; stroke-width: 1.0;" x1="95" x2="178" y1="307.125" y2="307.125"/><text fill="#000000" font-family="sans-serif" font-size="13" lengthAdjust="spacingAndGlyphs" textLength="65" x="102" y="302.1919">withdraw()</text><polygon fill="#A80036" points="318,332.2578,328,336.2578,318,340.2578,322,336.2578" style="stroke: #A80036; stroke-width: 1.0;"/><line style="stroke: #A80036; stroke-width: 1.0;" x1="184" x2="324" y1="336.2578" y2="336.2578"/><text fill="#000000" font-family="sans-serif" font-size="13" lengthAdjust="spacingAndGlyphs" textLength="117" x="191" y="331.3247">getAccount("123")</text><polygon fill="#A80036" points="195,361.3906,185,365.3906,195,369.3906,191,365.3906" style="stroke: #A80036; stroke-width: 1.0;"/><line style="stroke: #A80036; stroke-width: 1.0; stroke-dasharray: 2.0,2.0;" x1="189" x2="329" y1="365.3906" y2="365.3906"/><text fill="#000000" font-family="sans-serif" font-size="13" lengthAdjust="spacingAndGlyphs" textLength="122" x="201" y="360.4575">instance2: Account</text><polygon fill="#A80036" points="517,390.5234,527,394.5234,517,398.5234,521,394.5234" style="stroke: #A80036; stroke-width: 1.0;"/><line style="stroke: #A80036; stroke-width: 1.0;" x1="184" x2="523" y1="394.5234" y2="394.5234"/><text fill="#000000" font-family="sans-serif" font-size="13" lengthAdjust="spacingAndGlyphs" textLength="55" x="191" y="389.5903">withdraw</text><polygon fill="#A80036" points="195,404.6563,185,408.6563,195,412.6563,191,408.6563" style="stroke: #A80036; stroke-width: 1.0;"/><line style="stroke: #A80036; stroke-width: 1.0; stroke-dasharray: 2.0,2.0;" x1="189" x2="528" y1="408.6563" y2="408.6563"/><polygon fill="#A80036" points="318,433.6563,328,437.6563,318,441.6563,322,437.6563" style="stroke: #A80036; stroke-width: 1.0;"/><line style="stroke: #A80036; stroke-width: 1.0;" x1="184" x2="324" y1="437.6563" y2="437.6563"/><text fill="#000000" font-family="sans-serif" font-size="13" lengthAdjust="spacingAndGlyphs" textLength="43" x="191" y="432.7231">store()</text><polygon fill="#A80036" points="195,447.7891,185,451.7891,195,455.7891,191,451.7891" style="stroke: #A80036; stroke-width: 1.0;"/><line style="stroke: #A80036; stroke-width: 1.0; stroke-dasharray: 2.0,2.0;" x1="189" x2="329" y1="451.7891" y2="451.7891"/><polygon fill="#A80036" points="106,461.7891,96,465.7891,106,469.7891,102,465.7891" style="stroke: #A80036; stroke-width: 1.0;"/><line style="stroke: #A80036; stroke-width: 1.0; stroke-dasharray: 2.0,2.0;" x1="100" x2="183" y1="465.7891" y2="465.7891"/><polygon fill="#A80036" points="318,490.7891,328,494.7891,318,498.7891,322,494.7891" style="stroke: #A80036; stroke-width: 1.0;"/><line style="stroke: #A80036; stroke-width: 1.0;" x1="184" x2="324" y1="494.7891" y2="494.7891"/><text fill="#000000" font-family="sans-serif" font-size="13" lengthAdjust="spacingAndGlyphs" textLength="43" x="191" y="489.856">store()</text><polygon fill="#A80036" points="195,504.9219,185,508.9219,195,512.9219,191,508.9219" style="stroke: #A80036; stroke-width: 1.0;"/><line style="stroke: #A80036; stroke-width: 1.0; stroke-dasharray: 2.0,2.0;" x1="189" x2="329" y1="508.9219" y2="508.9219"/><polygon fill="#A80036" points="44.5,518.9219,34.5,522.9219,44.5,526.9219,40.5,522.9219" style="stroke: #A80036; stroke-width: 1.0;"/><line style="stroke: #A80036; stroke-width: 1.0; stroke-dasharray: 2.0,2.0;" x1="38.5" x2="183" y1="522.9219" y2="522.9219"/><!--
@startuml

actor "User A" as U1
actor "User B" as U2
participant "Service" as S
participant "Repository" as R

U1 -> S: withdraw()
S -> R: getAccount("123")
create   "i1: Account" as A1
R -> A1: create()
return
S <- - R: instance1: Account
S -> A1: withdraw
return

U2 -> S: withdraw()
S -> R: getAccount("123")
S <- - R: instance2: Account
S -> A2: withdraw
S <- - A2:

S -> R: store()
return
U2 <- - S:

S -> R: store()
return
U1 <- - S:

@enduml

PlantUML version 1.2017.15(Mon Jul 03 18:45:34 CEST 2017)
(GPL source distribution)
Java Runtime: Java(TM) SE Runtime Environment
JVM: Java HotSpot(TM) 64-Bit Server VM
Java Version: 1.8.0_191-b12
Operating System: Linux
OS Version: 4.15.0-72-generic
Default Encoding: UTF-8
Language: en
Country: US
--></g></svg>