<?xml version="1.0" encoding="UTF-8" standalone="no"?><svg xmlns="http://www.w3.org/2000/svg" xmlns:xlink="http://www.w3.org/1999/xlink" contentScriptType="application/ecmascript" contentStyleType="text/css" height="684px" preserveAspectRatio="none" style="width:735px;height:684px;" version="1.1" viewBox="0 0 735 684" width="735px" zoomAndPan="magnify"><defs><filter height="300%" id="fklmivk6gb6ho" width="300%" x="-1" y="-1"><feGaussianBlur result="blurOut" stdDeviation="2.0"/><feColorMatrix in="blurOut" result="blurOut2" type="matrix" values="0 0 0 0 0 0 0 0 0 0 0 0 0 0 0 0 0 0 .4 0"/><feOffset dx="4.0" dy="4.0" in="blurOut2" result="blurOut3"/><feBlend in="SourceGraphic" in2="blurOut3" mode="normal"/></filter></defs><g><rect fill="#FEFECE" filter="url(#fklmivk6gb6ho)" height="30.2969" style="stroke: #A80036; stroke-width: 1.5;" width="84" x="496" y="212.8281"/><text fill="#000000" font-family="sans-serif" font-size="14" lengthAdjust="spacingAndGlyphs" textLength="70" x="503" y="232.8232">Account X</text><line style="stroke: #A80036; stroke-width: 1.0; stroke-dasharray: 5.0,5.0;" x1="27" x2="27" y1="86.2969" y2="597.1875"/><line style="stroke: #A80036; stroke-width: 1.0; stroke-dasharray: 5.0,5.0;" x1="129" x2="129" y1="86.2969" y2="597.1875"/><line style="stroke: #A80036; stroke-width: 1.0; stroke-dasharray: 5.0,5.0;" x1="259" x2="259" y1="86.2969" y2="597.1875"/><line style="stroke: #A80036; stroke-width: 1.0; stroke-dasharray: 5.0,5.0;" x1="433" x2="433" y1="86.2969" y2="597.1875"/><line style="stroke: #A80036; stroke-width: 1.0; stroke-dasharray: 5.0,5.0;" x1="540" x2="540" y1="245.4766" y2="597.1875"/><text fill="#000000" font-family="sans-serif" font-size="14" lengthAdjust="spacingAndGlyphs" textLength="32" x="8" y="82.9951">User</text><ellipse cx="27" cy="13" fill="#FEFECE" filter="url(#fklmivk6gb6ho)" rx="8" ry="8" style="stroke: #A80036; stroke-width: 2.0;"/><path d="M27,21 L27,48 M14,29 L40,29 M27,48 L14,63 M27,48 L40,63 " fill="#FEFECE" filter="url(#fklmivk6gb6ho)" style="stroke: #A80036; stroke-width: 2.0;"/><text fill="#000000" font-family="sans-serif" font-size="14" lengthAdjust="spacingAndGlyphs" textLength="32" x="8" y="609.1826">User</text><ellipse cx="27" cy="622.4844" fill="#FEFECE" filter="url(#fklmivk6gb6ho)" rx="8" ry="8" style="stroke: #A80036; stroke-width: 2.0;"/><path d="M27,630.4844 L27,657.4844 M14,638.4844 L40,638.4844 M27,657.4844 L14,672.4844 M27,657.4844 L40,672.4844 " fill="#FEFECE" filter="url(#fklmivk6gb6ho)" style="stroke: #A80036; stroke-width: 2.0;"/><rect fill="#FEFECE" filter="url(#fklmivk6gb6ho)" height="30.2969" style="stroke: #A80036; stroke-width: 1.5;" width="143" x="56" y="51"/><text fill="#000000" font-family="sans-serif" font-size="14" lengthAdjust="spacingAndGlyphs" textLength="129" x="63" y="70.9951">Application Service</text><rect fill="#FEFECE" filter="url(#fklmivk6gb6ho)" height="30.2969" style="stroke: #A80036; stroke-width: 1.5;" width="143" x="56" y="596.1875"/><text fill="#000000" font-family="sans-serif" font-size="14" lengthAdjust="spacingAndGlyphs" textLength="129" x="63" y="616.1826">Application Service</text><rect fill="#FEFECE" filter="url(#fklmivk6gb6ho)" height="30.2969" style="stroke: #A80036; stroke-width: 1.5;" width="88" x="213" y="51"/><text fill="#000000" font-family="sans-serif" font-size="14" lengthAdjust="spacingAndGlyphs" textLength="74" x="220" y="70.9951">Repository</text><rect fill="#FEFECE" filter="url(#fklmivk6gb6ho)" height="30.2969" style="stroke: #A80036; stroke-width: 1.5;" width="88" x="213" y="596.1875"/><text fill="#000000" font-family="sans-serif" font-size="14" lengthAdjust="spacingAndGlyphs" textLength="74" x="220" y="616.1826">Repository</text><rect fill="#FEFECE" filter="url(#fklmivk6gb6ho)" height="30.2969" style="stroke: #A80036; stroke-width: 1.5;" width="102" x="380" y="51"/><text fill="#000000" font-family="sans-serif" font-size="14" lengthAdjust="spacingAndGlyphs" textLength="88" x="387" y="70.9951">Even   tStore</text><rect fill="#FEFECE" filter="url(#fklmivk6gb6ho)" height="30.2969" style="stroke: #A80036; stroke-width: 1.5;" width="102" x="380" y="596.1875"/><text fill="#000000" font-family="sans-serif" font-size="14" lengthAdjust="spacingAndGlyphs" textLength="88" x="387" y="616.1826">Even   tStore</text><rect fill="#FEFECE" filter="url(#fklmivk6gb6ho)" height="30.2969" style="stroke: #A80036; stroke-width: 1.5;" width="84" x="496" y="596.1875"/><text fill="#000000" font-family="sans-serif" font-size="14" lengthAdjust="spacingAndGlyphs" textLength="70" x="503" y="616.1826">Account X</text><polygon fill="#A80036" points="117.5,113.2969,127.5,117.2969,117.5,121.2969,121.5,117.2969" style="stroke: #A80036; stroke-width: 1.0;"/><line style="stroke: #A80036; stroke-width: 1.0;" x1="27" x2="123.5" y1="117.2969" y2="117.2969"/><text fill="#000000" font-family="sans-serif" font-size="13" lengthAdjust="spacingAndGlyphs" textLength="55" x="34" y="112.3638">withdraw</text><polygon fill="#A80036" points="247,142.4297,257,146.4297,247,150.4297,251,146.4297" style="stroke: #A80036; stroke-width: 1.0;"/><line style="stroke: #A80036; stroke-width: 1.0;" x1="129.5" x2="253" y1="146.4297" y2="146.4297"/><text fill="#000000" font-family="sans-serif" font-size="13" lengthAdjust="spacingAndGlyphs" textLength="101" x="136.5" y="141.4966">getAccount("X")</text><polygon fill="#A80036" points="421,171.5625,431,175.5625,421,179.5625,425,175.5625" style="stroke: #A80036; stroke-width: 1.0;"/><line style="stroke: #A80036; stroke-width: 1.0;" x1="259" x2="427" y1="175.5625" y2="175.5625"/><text fill="#000000" font-family="sans-serif" font-size="13" lengthAdjust="spacingAndGlyphs" textLength="150" x="266" y="170.6294">load event stream for X</text><polygon fill="#A80036" points="270,200.6953,260,204.6953,270,208.6953,266,204.6953" style="stroke: #A80036; stroke-width: 1.0;"/><line style="stroke: #A80036; stroke-width: 1.0; stroke-dasharray: 2.0,2.0;" x1="264" x2="432" y1="204.6953" y2="204.6953"/><text fill="#000000" font-family="sans-serif" font-size="13" lengthAdjust="spacingAndGlyphs" textLength="142" x="276" y="199.7622">events : List&lt;Events&gt;</text><polygon fill="#A80036" points="484,229.8281,494,233.8281,484,237.8281,488,233.8281" style="stroke: #A80036; stroke-width: 1.0;"/><line style="stroke: #A80036; stroke-width: 1.0;" x1="259" x2="490" y1="233.8281" y2="233.8281"/><text fill="#000000" font-family="sans-serif" font-size="13" lengthAdjust="spacingAndGlyphs" textLength="94" x="266" y="228.895">create(events)</text><rect fill="#FEFECE" filter="url(#fklmivk6gb6ho)" height="30.2969" style="stroke: #A80036; stroke-width: 1.5;" width="84" x="496" y="212.8281"/><text fill="#000000" font-family="sans-serif" font-size="14" lengthAdjust="spacingAndGlyphs" textLength="70" x="503" y="232.8232">Account X</text><line style="stroke: #A80036; stroke-width: 1.0;" x1="540" x2="582" y1="279.2578" y2="279.2578"/><line style="stroke: #A80036; stroke-width: 1.0;" x1="582" x2="582" y1="279.2578" y2="292.2578"/><line style="stroke: #A80036; stroke-width: 1.0;" x1="541" x2="582" y1="292.2578" y2="292.2578"/><polygon fill="#A80036" points="551,288.2578,541,292.2578,551,296.2578,547,292.2578" style="stroke: #A80036; stroke-width: 1.0;"/><text fill="#000000" font-family="sans-serif" font-size="13" lengthAdjust="spacingAndGlyphs" textLength="87" x="547" y="274.1919">apply(events)</text><polygon fill="#A80036" points="270,302.2578,260,306.2578,270,310.2578,266,306.2578" style="stroke: #A80036; stroke-width: 1.0;"/><line style="stroke: #A80036; stroke-width: 1.0; stroke-dasharray: 2.0,2.0;" x1="264" x2="539" y1="306.2578" y2="306.2578"/><polygon fill="#A80036" points="528,331.2578,538,335.2578,528,339.2578,532,335.2578" style="stroke: #A80036; stroke-width: 1.0;"/><line style="stroke: #A80036; stroke-width: 1.0;" x1="259" x2="534" y1="335.2578" y2="335.2578"/><text fill="#000000" font-family="sans-serif" font-size="13" lengthAdjust="spacingAndGlyphs" textLength="215" x="266" y="330.3247">apply events from EventStream X</text><polygon fill="#A80036" points="270,345.3906,260,349.3906,270,353.3906,266,349.3906" style="stroke: #A80036; stroke-width: 1.0;"/><line style="stroke: #A80036; stroke-width: 1.0; stroke-dasharray: 2.0,2.0;" x1="264" x2="539" y1="349.3906" y2="349.3906"/><polygon fill="#A80036" points="140.5,374.3906,130.5,378.3906,140.5,382.3906,136.5,378.3906" style="stroke: #A80036; stroke-width: 1.0;"/><line style="stroke: #A80036; stroke-width: 1.0; stroke-dasharray: 2.0,2.0;" x1="134.5" x2="258" y1="378.3906" y2="378.3906"/><text fill="#000000" font-family="sans-serif" font-size="13" lengthAdjust="spacingAndGlyphs" textLength="68" x="146.5" y="373.4575">Account: X</text><polygon fill="#A80036" points="528,403.5234,538,407.5234,528,411.5234,532,407.5234" style="stroke: #A80036; stroke-width: 1.0;"/><line style="stroke: #A80036; stroke-width: 1.0;" x1="129.5" x2="534" y1="407.5234" y2="407.5234"/><text fill="#000000" font-family="sans-serif" font-size="13" lengthAdjust="spacingAndGlyphs" textLength="65" x="136.5" y="402.5903">withdraw()</text><line style="stroke: #A80036; stroke-width: 1.0;" x1="540" x2="582" y1="436.7891" y2="436.7891"/><line style="stroke: #A80036; stroke-width: 1.0;" x1="582" x2="582" y1="436.7891" y2="449.7891"/><line style="stroke: #A80036; stroke-width: 1.0;" x1="541" x2="582" y1="449.7891" y2="449.7891"/><polygon fill="#A80036" points="551,445.7891,541,449.7891,551,453.7891,547,449.7891" style="stroke: #A80036; stroke-width: 1.0;"/><text fill="#000000" font-family="sans-serif" font-size="13" lengthAdjust="spacingAndGlyphs" textLength="176" x="547" y="431.7231">emit MoneyWithdrawnEvent</text><polygon fill="#A80036" points="247,474.7891,257,478.7891,247,482.7891,251,478.7891" style="stroke: #A80036; stroke-width: 1.0;"/><line style="stroke: #A80036; stroke-width: 1.0;" x1="129.5" x2="253" y1="478.7891" y2="478.7891"/><text fill="#000000" font-family="sans-serif" font-size="13" lengthAdjust="spacingAndGlyphs" textLength="49" x="136.5" y="473.856">save(A)</text><polygon fill="#A80036" points="528,503.9219,538,507.9219,528,511.9219,532,507.9219" style="stroke: #A80036; stroke-width: 1.0;"/><line style="stroke: #A80036; stroke-width: 1.0;" x1="259" x2="534" y1="507.9219" y2="507.9219"/><text fill="#000000" font-family="sans-serif" font-size="13" lengthAdjust="spacingAndGlyphs" textLength="179" x="266" y="502.9888">getEmittedEvents() : events</text><polygon fill="#A80036" points="421,533.0547,431,537.0547,421,541.0547,425,537.0547" style="stroke: #A80036; stroke-width: 1.0;"/><line style="stroke: #A80036; stroke-width: 1.0;" x1="259" x2="427" y1="537.0547" y2="537.0547"/><text fill="#000000" font-family="sans-serif" font-size="13" lengthAdjust="spacingAndGlyphs" textLength="101" x="266" y="532.1216">append(events)</text><polygon fill="#A80036" points="270,547.1875,260,551.1875,270,555.1875,266,551.1875" style="stroke: #A80036; stroke-width: 1.0;"/><line style="stroke: #A80036; stroke-width: 1.0; stroke-dasharray: 2.0,2.0;" x1="264" x2="432" y1="551.1875" y2="551.1875"/><polygon fill="#A80036" points="140.5,561.1875,130.5,565.1875,140.5,569.1875,136.5,565.1875" style="stroke: #A80036; stroke-width: 1.0;"/><line style="stroke: #A80036; stroke-width: 1.0; stroke-dasharray: 2.0,2.0;" x1="134.5" x2="258" y1="565.1875" y2="565.1875"/><polygon fill="#A80036" points="38,575.1875,28,579.1875,38,583.1875,34,579.1875" style="stroke: #A80036; stroke-width: 1.0;"/><line style="stroke: #A80036; stroke-width: 1.0; stroke-dasharray: 2.0,2.0;" x1="32" x2="128.5" y1="579.1875" y2="579.1875"/><!--
@startuml

actor "User" as U
participant "Application Service" as AS
participant "Repository" as R
participant "Even   tStore" as ES

U -> AS: withdraw
AS -> R: getAccount("X")
R -> ES: load event stream for X
R <- - ES: events : List<Events>
create "Account X" as A
R ->  A: create(events)
A -> A: apply(events)
R <- - A
R -> A: apply events from EventStream X
R <- - A
AS <- - R: Account: X
AS -> A: withdraw()
A -> A: emit MoneyWithdrawnEvent
AS -> R: save(A)
R -> A: getEmittedEvents() : events
R -> ES: append(events)
R <- - ES
AS <- - R
U <- - AS

@enduml

PlantUML version 1.2017.15(Mon Jul 03 18:45:34 CEST 2017)
(GPL source distribution)
Java Runtime: Java(TM) SE Runtime Environment
JVM: Java HotSpot(TM) 64-Bit Server VM
Java Version: 1.8.0_191-b12
Operating System: Linux
OS Version: 4.15.0-72-generic
Default Encoding: UTF-8
Language: en
Country: US
--></g></svg>