<?xml version="1.0" encoding="UTF-8" standalone="no"?><svg xmlns="http://www.w3.org/2000/svg" xmlns:xlink="http://www.w3.org/1999/xlink" contentScriptType="application/ecmascript" contentStyleType="text/css" height="568px" preserveAspectRatio="none" style="width:595px;height:568px;" version="1.1" viewBox="0 0 595 568" width="595px" zoomAndPan="magnify"><defs><filter height="300%" id="f10hipqmrfp6gv" width="300%" x="-1" y="-1"><feGaussianBlur result="blurOut" stdDeviation="2.0"/><feColorMatrix in="blurOut" result="blurOut2" type="matrix" values="0 0 0 0 0 0 0 0 0 0 0 0 0 0 0 0 0 0 .4 0"/><feOffset dx="4.0" dy="4.0" in="blurOut2" result="blurOut3"/><feBlend in="SourceGraphic" in2="blurOut3" mode="normal"/></filter></defs><g><line style="stroke: #A80036; stroke-width: 1.0; stroke-dasharray: 5.0,5.0;" x1="33" x2="33" y1="86.2969" y2="481.625"/><line style="stroke: #A80036; stroke-width: 1.0; stroke-dasharray: 5.0,5.0;" x1="95" x2="95" y1="86.2969" y2="481.625"/><line style="stroke: #A80036; stroke-width: 1.0; stroke-dasharray: 5.0,5.0;" x1="184" x2="184" y1="86.2969" y2="481.625"/><line style="stroke: #A80036; stroke-width: 1.0; stroke-dasharray: 5.0,5.0;" x1="330" x2="330" y1="86.2969" y2="481.625"/><line style="stroke: #A80036; stroke-width: 1.0; stroke-dasharray: 5.0,5.0;" x1="434" x2="434" y1="86.2969" y2="481.625"/><line style="stroke: #A80036; stroke-width: 1.0; stroke-dasharray: 5.0,5.0;" x1="540" x2="540" y1="86.2969" y2="481.625"/><text fill="#000000" font-family="sans-serif" font-size="14" lengthAdjust="spacingAndGlyphs" textLength="45" x="8" y="82.9951">User A</text><ellipse cx="33.5" cy="13" fill="#FEFECE" filter="url(#f10hipqmrfp6gv)" rx="8" ry="8" style="stroke: #A80036; stroke-width: 2.0;"/><path d="M33.5,21 L33.5,48 M20.5,29 L46.5,29 M33.5,48 L20.5,63 M33.5,48 L46.5,63 " fill="#FEFECE" filter="url(#f10hipqmrfp6gv)" style="stroke: #A80036; stroke-width: 2.0;"/><text fill="#000000" font-family="sans-serif" font-size="14" lengthAdjust="spacingAndGlyphs" textLength="45" x="8" y="493.6201">User A</text><ellipse cx="33.5" cy="506.9219" fill="#FEFECE" filter="url(#f10hipqmrfp6gv)" rx="8" ry="8" style="stroke: #A80036; stroke-width: 2.0;"/><path d="M33.5,514.9219 L33.5,541.9219 M20.5,522.9219 L46.5,522.9219 M33.5,541.9219 L20.5,556.9219 M33.5,541.9219 L46.5,556.9219 " fill="#FEFECE" filter="url(#f10hipqmrfp6gv)" style="stroke: #A80036; stroke-width: 2.0;"/><text fill="#000000" font-family="sans-serif" font-size="14" lengthAdjust="spacingAndGlyphs" textLength="46" x="69" y="82.9951">User B</text><ellipse cx="95" cy="13" fill="#FEFECE" filter="url(#f10hipqmrfp6gv)" rx="8" ry="8" style="stroke: #A80036; stroke-width: 2.0;"/><path d="M95,21 L95,48 M82,29 L108,29 M95,48 L82,63 M95,48 L108,63 " fill="#FEFECE" filter="url(#f10hipqmrfp6gv)" style="stroke: #A80036; stroke-width: 2.0;"/><text fill="#000000" font-family="sans-serif" font-size="14" lengthAdjust="spacingAndGlyphs" textLength="46" x="69" y="493.6201">User B</text><ellipse cx="95" cy="506.9219" fill="#FEFECE" filter="url(#f10hipqmrfp6gv)" rx="8" ry="8" style="stroke: #A80036; stroke-width: 2.0;"/><path d="M95,514.9219 L95,541.9219 M82,522.9219 L108,522.9219 M95,541.9219 L82,556.9219 M95,541.9219 L108,556.9219 " fill="#FEFECE" filter="url(#f10hipqmrfp6gv)" style="stroke: #A80036; stroke-width: 2.0;"/><rect fill="#FEFECE" filter="url(#f10hipqmrfp6gv)" height="30.2969" style="stroke: #A80036; stroke-width: 1.5;" width="64" x="150" y="51"/><text fill="#000000" font-family="sans-serif" font-size="14" lengthAdjust="spacingAndGlyphs" textLength="50" x="157" y="70.9951">Service</text><rect fill="#FEFECE" filter="url(#f10hipqmrfp6gv)" height="30.2969" style="stroke: #A80036; stroke-width: 1.5;" width="64" x="150" y="480.625"/><text fill="#000000" font-family="sans-serif" font-size="14" lengthAdjust="spacingAndGlyphs" textLength="50" x="157" y="500.6201">Service</text><rect fill="#FEFECE" filter="url(#f10hipqmrfp6gv)" height="30.2969" style="stroke: #A80036; stroke-width: 1.5;" width="88" x="284" y="51"/><text fill="#000000" font-family="sans-serif" font-size="14" lengthAdjust="spacingAndGlyphs" textLength="74" x="291" y="70.9951">Repository</text><rect fill="#FEFECE" filter="url(#f10hipqmrfp6gv)" height="30.2969" style="stroke: #A80036; stroke-width: 1.5;" width="88" x="284" y="480.625"/><text fill="#000000" font-family="sans-serif" font-size="14" lengthAdjust="spacingAndGlyphs" textLength="74" x="291" y="500.6201">Repository</text><rect fill="#FEFECE" filter="url(#f10hipqmrfp6gv)" height="30.2969" style="stroke: #A80036; stroke-width: 1.5;" width="92" x="386" y="51"/><text fill="#000000" font-family="sans-serif" font-size="14" lengthAdjust="spacingAndGlyphs" textLength="78" x="393" y="70.9951">i1: Account</text><rect fill="#FEFECE" filter="url(#f10hipqmrfp6gv)" height="30.2969" style="stroke: #A80036; stroke-width: 1.5;" width="92" x="386" y="480.625"/><text fill="#000000" font-family="sans-serif" font-size="14" lengthAdjust="spacingAndGlyphs" textLength="78" x="393" y="500.6201">i1: Account</text><rect fill="#FEFECE" filter="url(#f10hipqmrfp6gv)" height="30.2969" style="stroke: #A80036; stroke-width: 1.5;" width="92" x="492" y="51"/><text fill="#000000" font-family="sans-serif" font-size="14" lengthAdjust="spacingAndGlyphs" textLength="78" x="499" y="70.9951">i2: Account</text><rect fill="#FEFECE" filter="url(#f10hipqmrfp6gv)" height="30.2969" style="stroke: #A80036; stroke-width: 1.5;" width="92" x="492" y="480.625"/><text fill="#000000" font-family="sans-serif" font-size="14" lengthAdjust="spacingAndGlyphs" textLength="78" x="499" y="500.6201">i2: Account</text><polygon fill="#A80036" points="172,113.2969,182,117.2969,172,121.2969,176,117.2969" style="stroke: #A80036; stroke-width: 1.0;"/><line style="stroke: #A80036; stroke-width: 1.0;" x1="33.5" x2="178" y1="117.2969" y2="117.2969"/><text fill="#000000" font-family="sans-serif" font-size="13" lengthAdjust="spacingAndGlyphs" textLength="65" x="40.5" y="112.3638">withdraw()</text><polygon fill="#A80036" points="318,142.4297,328,146.4297,318,150.4297,322,146.4297" style="stroke: #A80036; stroke-width: 1.0;"/><line style="stroke: #A80036; stroke-width: 1.0;" x1="184" x2="324" y1="146.4297" y2="146.4297"/><text fill="#000000" font-family="sans-serif" font-size="13" lengthAdjust="spacingAndGlyphs" textLength="117" x="191" y="141.4966">getAccount("123")</text><polygon fill="#A80036" points="195,171.5625,185,175.5625,195,179.5625,191,175.5625" style="stroke: #A80036; stroke-width: 1.0;"/><line style="stroke: #A80036; stroke-width: 1.0; stroke-dasharray: 2.0,2.0;" x1="189" x2="329" y1="175.5625" y2="175.5625"/><text fill="#000000" font-family="sans-serif" font-size="13" lengthAdjust="spacingAndGlyphs" textLength="122" x="201" y="170.6294">instance1: Account</text><polygon fill="#A80036" points="422,200.6953,432,204.6953,422,208.6953,426,204.6953" style="stroke: #A80036; stroke-width: 1.0;"/><line style="stroke: #A80036; stroke-width: 1.0;" x1="184" x2="428" y1="204.6953" y2="204.6953"/><text fill="#000000" font-family="sans-serif" font-size="13" lengthAdjust="spacingAndGlyphs" textLength="55" x="191" y="199.7622">withdraw</text><polygon fill="#A80036" points="195,214.8281,185,218.8281,195,222.8281,191,218.8281" style="stroke: #A80036; stroke-width: 1.0;"/><line style="stroke: #A80036; stroke-width: 1.0; stroke-dasharray: 2.0,2.0;" x1="189" x2="433" y1="218.8281" y2="218.8281"/><polygon fill="#A80036" points="172,243.8281,182,247.8281,172,251.8281,176,247.8281" style="stroke: #A80036; stroke-width: 1.0;"/><line style="stroke: #A80036; stroke-width: 1.0;" x1="95" x2="178" y1="247.8281" y2="247.8281"/><text fill="#000000" font-family="sans-serif" font-size="13" lengthAdjust="spacingAndGlyphs" textLength="65" x="102" y="242.895">withdraw()</text><polygon fill="#A80036" points="318,272.9609,328,276.9609,318,280.9609,322,276.9609" style="stroke: #A80036; stroke-width: 1.0;"/><line style="stroke: #A80036; stroke-width: 1.0;" x1="184" x2="324" y1="276.9609" y2="276.9609"/><text fill="#000000" font-family="sans-serif" font-size="13" lengthAdjust="spacingAndGlyphs" textLength="117" x="191" y="272.0278">getAccount("123")</text><polygon fill="#A80036" points="195,302.0938,185,306.0938,195,310.0938,191,306.0938" style="stroke: #A80036; stroke-width: 1.0;"/><line style="stroke: #A80036; stroke-width: 1.0; stroke-dasharray: 2.0,2.0;" x1="189" x2="329" y1="306.0938" y2="306.0938"/><text fill="#000000" font-family="sans-serif" font-size="13" lengthAdjust="spacingAndGlyphs" textLength="122" x="201" y="301.1606">instance2: Account</text><polygon fill="#A80036" points="528,331.2266,538,335.2266,528,339.2266,532,335.2266" style="stroke: #A80036; stroke-width: 1.0;"/><line style="stroke: #A80036; stroke-width: 1.0;" x1="184" x2="534" y1="335.2266" y2="335.2266"/><text fill="#000000" font-family="sans-serif" font-size="13" lengthAdjust="spacingAndGlyphs" textLength="55" x="191" y="330.2935">withdraw</text><polygon fill="#A80036" points="195,345.3594,185,349.3594,195,353.3594,191,349.3594" style="stroke: #A80036; stroke-width: 1.0;"/><line style="stroke: #A80036; stroke-width: 1.0; stroke-dasharray: 2.0,2.0;" x1="189" x2="539" y1="349.3594" y2="349.3594"/><polygon fill="#A80036" points="318,374.3594,328,378.3594,318,382.3594,322,378.3594" style="stroke: #A80036; stroke-width: 1.0;"/><line style="stroke: #A80036; stroke-width: 1.0;" x1="184" x2="324" y1="378.3594" y2="378.3594"/><text fill="#000000" font-family="sans-serif" font-size="13" lengthAdjust="spacingAndGlyphs" textLength="43" x="191" y="373.4263">store()</text><polygon fill="#A80036" points="195,388.4922,185,392.4922,195,396.4922,191,392.4922" style="stroke: #A80036; stroke-width: 1.0;"/><line style="stroke: #A80036; stroke-width: 1.0; stroke-dasharray: 2.0,2.0;" x1="189" x2="329" y1="392.4922" y2="392.4922"/><polygon fill="#A80036" points="106,402.4922,96,406.4922,106,410.4922,102,406.4922" style="stroke: #A80036; stroke-width: 1.0;"/><line style="stroke: #A80036; stroke-width: 1.0; stroke-dasharray: 2.0,2.0;" x1="100" x2="183" y1="406.4922" y2="406.4922"/><polygon fill="#A80036" points="318,431.4922,328,435.4922,318,439.4922,322,435.4922" style="stroke: #A80036; stroke-width: 1.0;"/><line style="stroke: #A80036; stroke-width: 1.0;" x1="184" x2="324" y1="435.4922" y2="435.4922"/><text fill="#000000" font-family="sans-serif" font-size="13" lengthAdjust="spacingAndGlyphs" textLength="43" x="191" y="430.5591">store()</text><polygon fill="#A80036" points="195,445.625,185,449.625,195,453.625,191,449.625" style="stroke: #A80036; stroke-width: 1.0;"/><line style="stroke: #A80036; stroke-width: 1.0; stroke-dasharray: 2.0,2.0;" x1="189" x2="329" y1="449.625" y2="449.625"/><polygon fill="#A80036" points="44.5,459.625,34.5,463.625,44.5,467.625,40.5,463.625" style="stroke: #A80036; stroke-width: 1.0;"/><line style="stroke: #A80036; stroke-width: 1.0; stroke-dasharray: 2.0,2.0;" x1="38.5" x2="183" y1="463.625" y2="463.625"/><!--
@startuml

actor "User A" as U1
actor "User B" as U2
participant "Service" as S
participant "Repository" as R
participant "i1: Account" as A1
participant "i2: Account" as A2

U1 -> S: withdraw()
S -> R: getAccount("123")
S <- - R: instance1: Account
S -> A1: withdraw
S <- - A1:

U2 -> S: withdraw()
S -> R: getAccount("123")
S <- - R: instance2: Account
S -> A2: withdraw
S <- - A2:

S -> R: store()
S <- - R
U2 <- - S:

S -> R: store()
S <- - R:
U1 <- - S:

@enduml

PlantUML version 1.2017.15(Mon Jul 03 18:45:34 CEST 2017)
(GPL source distribution)
Java Runtime: Java(TM) SE Runtime Environment
JVM: Java HotSpot(TM) 64-Bit Server VM
Java Version: 1.8.0_191-b12
Operating System: Linux
OS Version: 4.15.0-72-generic
Default Encoding: UTF-8
Language: en
Country: US
--></g></svg>