<?xml version="1.0" encoding="UTF-8" standalone="no"?><svg xmlns="http://www.w3.org/2000/svg" xmlns:xlink="http://www.w3.org/1999/xlink" contentScriptType="application/ecmascript" contentStyleType="text/css" height="337px" preserveAspectRatio="none" style="width:386px;height:337px;" version="1.1" viewBox="0 0 386 337" width="386px" zoomAndPan="magnify"><defs><filter height="300%" id="fqrtcvmaf0yct" width="300%" x="-1" y="-1"><feGaussianBlur result="blurOut" stdDeviation="2.0"/><feColorMatrix in="blurOut" result="blurOut2" type="matrix" values="0 0 0 0 0 0 0 0 0 0 0 0 0 0 0 0 0 0 .4 0"/><feOffset dx="4.0" dy="4.0" in="blurOut2" result="blurOut3"/><feBlend in="SourceGraphic" in2="blurOut3" mode="normal"/></filter></defs><g><line style="stroke: #A80036; stroke-width: 1.0; stroke-dasharray: 5.0,5.0;" x1="27" x2="27" y1="86.2969" y2="249.8281"/><line style="stroke: #A80036; stroke-width: 1.0; stroke-dasharray: 5.0,5.0;" x1="155.5" x2="155.5" y1="86.2969" y2="249.8281"/><line style="stroke: #A80036; stroke-width: 1.0; stroke-dasharray: 5.0,5.0;" x1="332" x2="332" y1="86.2969" y2="249.8281"/><text fill="#000000" font-family="sans-serif" font-size="14" lengthAdjust="spacingAndGlyphs" textLength="32" x="8" y="82.9951">User</text><ellipse cx="27" cy="13" fill="#FEFECE" filter="url(#fqrtcvmaf0yct)" rx="8" ry="8" style="stroke: #A80036; stroke-width: 2.0;"/><path d="M27,21 L27,48 M14,29 L40,29 M27,48 L14,63 M27,48 L40,63 " fill="#FEFECE" filter="url(#fqrtcvmaf0yct)" style="stroke: #A80036; stroke-width: 2.0;"/><text fill="#000000" font-family="sans-serif" font-size="14" lengthAdjust="spacingAndGlyphs" textLength="32" x="8" y="261.8232">User</text><ellipse cx="27" cy="275.125" fill="#FEFECE" filter="url(#fqrtcvmaf0yct)" rx="8" ry="8" style="stroke: #A80036; stroke-width: 2.0;"/><path d="M27,283.125 L27,310.125 M14,291.125 L40,291.125 M27,310.125 L14,325.125 M27,310.125 L40,325.125 " fill="#FEFECE" filter="url(#fqrtcvmaf0yct)" style="stroke: #A80036; stroke-width: 2.0;"/><rect fill="#FEFECE" filter="url(#fqrtcvmaf0yct)" height="30.2969" style="stroke: #A80036; stroke-width: 1.5;" width="125" x="91.5" y="51"/><text fill="#000000" font-family="sans-serif" font-size="14" lengthAdjust="spacingAndGlyphs" textLength="111" x="98.5" y="70.9951">Account Service</text><rect fill="#FEFECE" filter="url(#fqrtcvmaf0yct)" height="30.2969" style="stroke: #A80036; stroke-width: 1.5;" width="125" x="91.5" y="248.8281"/><text fill="#000000" font-family="sans-serif" font-size="14" lengthAdjust="spacingAndGlyphs" textLength="111" x="98.5" y="268.8232">Account Service</text><rect fill="#FEFECE" filter="url(#fqrtcvmaf0yct)" height="30.2969" style="stroke: #A80036; stroke-width: 1.5;" width="90" x="285" y="51"/><text fill="#000000" font-family="sans-serif" font-size="14" lengthAdjust="spacingAndGlyphs" textLength="76" x="292" y="70.9951">EventStore</text><rect fill="#FEFECE" filter="url(#fqrtcvmaf0yct)" height="30.2969" style="stroke: #A80036; stroke-width: 1.5;" width="90" x="285" y="248.8281"/><text fill="#000000" font-family="sans-serif" font-size="14" lengthAdjust="spacingAndGlyphs" textLength="76" x="292" y="268.8232">EventStore</text><polygon fill="#A80036" points="144,113.2969,154,117.2969,144,121.2969,148,117.2969" style="stroke: #A80036; stroke-width: 1.0;"/><line style="stroke: #A80036; stroke-width: 1.0;" x1="27" x2="150" y1="117.2969" y2="117.2969"/><text fill="#000000" font-family="sans-serif" font-size="13" lengthAdjust="spacingAndGlyphs" textLength="105" x="34" y="112.3638">withdraw 10 CHF</text><line style="stroke: #A80036; stroke-width: 1.0;" x1="156" x2="198" y1="146.5625" y2="146.5625"/><line style="stroke: #A80036; stroke-width: 1.0;" x1="198" x2="198" y1="146.5625" y2="159.5625"/><line style="stroke: #A80036; stroke-width: 1.0;" x1="157" x2="198" y1="159.5625" y2="159.5625"/><polygon fill="#A80036" points="167,155.5625,157,159.5625,167,163.5625,163,159.5625" style="stroke: #A80036; stroke-width: 1.0;"/><text fill="#000000" font-family="sans-serif" font-size="13" lengthAdjust="spacingAndGlyphs" textLength="91" x="163" y="141.4966">check balance</text><polygon fill="#A80036" points="320,184.5625,330,188.5625,320,192.5625,324,188.5625" style="stroke: #A80036; stroke-width: 1.0;"/><line style="stroke: #A80036; stroke-width: 1.0;" x1="156" x2="326" y1="188.5625" y2="188.5625"/><text fill="#000000" font-family="sans-serif" font-size="13" lengthAdjust="spacingAndGlyphs" textLength="152" x="163" y="183.6294">store "Withdrawn" Event</text><polygon fill="#A80036" points="167,198.6953,157,202.6953,167,206.6953,163,202.6953" style="stroke: #A80036; stroke-width: 1.0;"/><line style="stroke: #A80036; stroke-width: 1.0; stroke-dasharray: 2.0,2.0;" x1="161" x2="331" y1="202.6953" y2="202.6953"/><polygon fill="#A80036" points="38,227.6953,28,231.6953,38,235.6953,34,231.6953" style="stroke: #A80036; stroke-width: 1.0;"/><line style="stroke: #A80036; stroke-width: 1.0; stroke-dasharray: 2.0,2.0;" x1="32" x2="155" y1="231.6953" y2="231.6953"/><text fill="#000000" font-family="sans-serif" font-size="13" lengthAdjust="spacingAndGlyphs" textLength="78" x="44" y="226.7622">ok message</text><!--
@startuml

actor "User" as U
participant "Account Service" as S
participant "EventStore" as ES

U -> S: withdraw 10 CHF
S -> S: check balance
S -> ES: store "Withdrawn" Event
S <- - ES:
U <- - S: ok message

@enduml

PlantUML version 1.2017.15(Mon Jul 03 18:45:34 CEST 2017)
(GPL source distribution)
Java Runtime: Java(TM) SE Runtime Environment
JVM: Java HotSpot(TM) 64-Bit Server VM
Java Version: 1.8.0_191-b12
Operating System: Linux
OS Version: 4.15.0-72-generic
Default Encoding: UTF-8
Language: en
Country: US
--></g></svg>