<?xml version="1.0" encoding="UTF-8" standalone="no"?><svg xmlns="http://www.w3.org/2000/svg" xmlns:xlink="http://www.w3.org/1999/xlink" contentScriptType="application/ecmascript" contentStyleType="text/css" height="155px" preserveAspectRatio="none" style="width:503px;height:155px;" version="1.1" viewBox="0 0 503 155" width="503px" zoomAndPan="magnify"><defs><filter height="300%" id="f15hs4ozh3od5m" width="300%" x="-1" y="-1"><feGaussianBlur result="blurOut" stdDeviation="2.0"/><feColorMatrix in="blurOut" result="blurOut2" type="matrix" values="0 0 0 0 0 0 0 0 0 0 0 0 0 0 0 0 0 0 .4 0"/><feOffset dx="4.0" dy="4.0" in="blurOut2" result="blurOut3"/><feBlend in="SourceGraphic" in2="blurOut3" mode="normal"/></filter></defs><g><!--cluster A--><rect fill="#FFFFFF" filter="url(#f15hs4ozh3od5m)" height="71" style="stroke: #000000; stroke-width: 2.0;" width="230" x="66.5" y="67"/><rect fill="#FFFFFF" height="10" style="stroke: #000000; stroke-width: 2.0;" width="15" x="276.5" y="72"/><rect fill="#FFFFFF" height="2" style="stroke: #000000; stroke-width: 2.0;" width="4" x="274.5" y="74"/><rect fill="#FFFFFF" height="2" style="stroke: #000000; stroke-width: 2.0;" width="4" x="274.5" y="78"/><text fill="#000000" font-family="sans-serif" font-size="14" font-weight="bold" lengthAdjust="spacingAndGlyphs" textLength="87" x="138" y="92.9951">Application</text><!--entity R--><rect fill="#FEFECE" filter="url(#f15hs4ozh3od5m)" height="36.2969" style="stroke: #A80036; stroke-width: 1.5;" width="90" x="198.5" y="94"/><rect fill="#FEFECE" height="5" style="stroke: #A80036; stroke-width: 1.5;" width="10" x="193.5" y="99"/><rect fill="#FEFECE" height="5" style="stroke: #A80036; stroke-width: 1.5;" width="10" x="193.5" y="120.2969"/><text fill="#000000" font-family="sans-serif" font-size="14" lengthAdjust="spacingAndGlyphs" textLength="70" x="208.5" y="116.9951">Read Side</text><!--entity W--><rect fill="#FEFECE" filter="url(#f15hs4ozh3od5m)" height="36.2969" style="stroke: #A80036; stroke-width: 1.5;" width="89" x="74" y="94"/><rect fill="#FEFECE" height="5" style="stroke: #A80036; stroke-width: 1.5;" width="10" x="69" y="99"/><rect fill="#FEFECE" height="5" style="stroke: #A80036; stroke-width: 1.5;" width="10" x="69" y="120.2969"/><text fill="#000000" font-family="sans-serif" font-size="14" lengthAdjust="spacingAndGlyphs" textLength="69" x="84" y="116.9951">Write Side</text><!--entity ES--><path d="M323.5,99.5 C323.5,89.5 371.5,89.5 371.5,89.5 C371.5,89.5 419.5,89.5 419.5,99.5 L419.5,124.7969 C419.5,134.7969 371.5,134.7969 371.5,134.7969 C371.5,134.7969 323.5,134.7969 323.5,124.7969 L323.5,99.5 " fill="#FEFECE" filter="url(#f15hs4ozh3od5m)" style="stroke: #000000; stroke-width: 1.5;"/><path d="M323.5,99.5 C323.5,109.5 371.5,109.5 371.5,109.5 C371.5,109.5 419.5,109.5 419.5,99.5 " fill="none" style="stroke: #000000; stroke-width: 1.5;"/><text fill="#000000" font-family="sans-serif" font-size="14" lengthAdjust="spacingAndGlyphs" textLength="76" x="333.5" y="126.4951">EventStore</text><!--entity UI--><rect fill="#FEFECE" filter="url(#f15hs4ozh3od5m)" height="36.2969" style="stroke: #A80036; stroke-width: 1.5;" width="33" x="6" y="94"/><rect fill="#FEFECE" height="5" style="stroke: #A80036; stroke-width: 1.5;" width="10" x="1" y="99"/><rect fill="#FEFECE" height="5" style="stroke: #A80036; stroke-width: 1.5;" width="10" x="1" y="120.2969"/><text fill="#000000" font-family="sans-serif" font-size="14" lengthAdjust="spacingAndGlyphs" textLength="13" x="16" y="116.9951">UI</text><!--entity RS--><ellipse cx="481.5" cy="112" fill="#FEFECE" filter="url(#f15hs4ozh3od5m)" rx="8" ry="8" style="stroke: #A80036; stroke-width: 2.0;"/><text fill="#000000" font-family="sans-serif" font-size="14" lengthAdjust="spacingAndGlyphs" textLength="19" x="472" y="141.9951">RS</text><!--link UI to R--><path d="M29.5252,93.8885 C37.6595,75.7461 52.965,48.8634 76,37 C110.3756,19.296 127.0207,22.8367 163,37 C189.769,47.5377 212.9032,71.6352 227.4141,89.6903 " fill="none" id="UI-R" style="stroke: #A80036; stroke-width: 1.0;"/><polygon fill="#A80036" points="230.5564,93.6746,228.1239,84.1309,227.4601,89.7486,221.8424,89.0849,230.5564,93.6746" style="stroke: #A80036; stroke-width: 1.0;"/><!--link UI to W--><path d="M39.375,112 C49.2012,112 59.0275,112 68.8537,112 " fill="none" id="UI-W" style="stroke: #A80036; stroke-width: 1.0;"/><polygon fill="#A80036" points="73.9922,112,64.9922,108,68.9922,112,64.9922,116,73.9922,112" style="stroke: #A80036; stroke-width: 1.0;"/><!--link R to ES--><path d="M289,112 C298.788,112 308.576,112 318.3639,112 " fill="none" id="R-ES" style="stroke: #A80036; stroke-width: 1.0;"/><polygon fill="#A80036" points="323.4824,112,314.4824,108,318.4824,112,314.4824,116,323.4824,112" style="stroke: #A80036; stroke-width: 1.0;"/><!--link W to RS--><path d="M134.5859,89.6903 C149.0968,71.6352 172.231,47.5377 199,37 C290.3958,1.0219 331.2167,-5.0134 420,37 C449.2235,50.8289 469.2055,86.102 477.37,102.8742 " fill="none" id="W-RS" style="stroke: #A80036; stroke-width: 1.0;"/><polygon fill="#A80036" points="131.4436,93.6746,140.1576,89.0849,134.5399,89.7486,133.8761,84.1309,131.4436,93.6746" style="stroke: #A80036; stroke-width: 1.0;"/><!--
@startuml


database "EventStore" as ES
[UI] as UI

component "Application" as A {

[Read Side] as R  
[Write Side] as W

}

UI -> R
UI -> W

R -> ES
W <- RS


@enduml

PlantUML version 1.2017.15(Mon Jul 03 18:45:34 CEST 2017)
(GPL source distribution)
Java Runtime: Java(TM) SE Runtime Environment
JVM: Java HotSpot(TM) 64-Bit Server VM
Java Version: 1.8.0_191-b12
Operating System: Linux
OS Version: 4.15.0-76-generic
Default Encoding: UTF-8
Language: en
Country: US
--></g></svg>