<?xml version="1.0" encoding="UTF-8" standalone="no"?><svg xmlns="http://www.w3.org/2000/svg" xmlns:xlink="http://www.w3.org/1999/xlink" contentScriptType="application/ecmascript" contentStyleType="text/css" height="614px" preserveAspectRatio="none" style="width:595px;height:614px;" version="1.1" viewBox="0 0 595 614" width="595px" zoomAndPan="magnify"><defs><filter height="300%" id="f1csvlwryoy172" width="300%" x="-1" y="-1"><feGaussianBlur result="blurOut" stdDeviation="2.0"/><feColorMatrix in="blurOut" result="blurOut2" type="matrix" values="0 0 0 0 0 0 0 0 0 0 0 0 0 0 0 0 0 0 .4 0"/><feOffset dx="4.0" dy="4.0" in="blurOut2" result="blurOut3"/><feBlend in="SourceGraphic" in2="blurOut3" mode="normal"/></filter></defs><g><rect fill="#FEFECE" filter="url(#f1csvlwryoy172)" height="30.2969" style="stroke: #A80036; stroke-width: 1.5;" width="92" x="492" y="154.5625"/><text fill="#000000" font-family="sans-serif" font-size="14" lengthAdjust="spacingAndGlyphs" textLength="78" x="499" y="174.5576">i1: Account</text><line style="stroke: #A80036; stroke-width: 1.0; stroke-dasharray: 5.0,5.0;" x1="33" x2="33" y1="86.2969" y2="526.9219"/><line style="stroke: #A80036; stroke-width: 1.0; stroke-dasharray: 5.0,5.0;" x1="95" x2="95" y1="86.2969" y2="526.9219"/><line style="stroke: #A80036; stroke-width: 1.0; stroke-dasharray: 5.0,5.0;" x1="184" x2="184" y1="86.2969" y2="526.9219"/><line style="stroke: #A80036; stroke-width: 1.0; stroke-dasharray: 5.0,5.0;" x1="330" x2="330" y1="86.2969" y2="526.9219"/><line style="stroke: #A80036; stroke-width: 1.0; stroke-dasharray: 5.0,5.0;" x1="434" x2="434" y1="86.2969" y2="526.9219"/><line style="stroke: #A80036; stroke-width: 1.0; stroke-dasharray: 5.0,5.0;" x1="540" x2="540" y1="187.2109" y2="526.9219"/><text fill="#000000" font-family="sans-serif" font-size="14" lengthAdjust="spacingAndGlyphs" textLength="45" x="8" y="82.9951">User A</text><ellipse cx="33.5" cy="13" fill="#FEFECE" filter="url(#f1csvlwryoy172)" rx="8" ry="8" style="stroke: #A80036; stroke-width: 2.0;"/><path d="M33.5,21 L33.5,48 M20.5,29 L46.5,29 M33.5,48 L20.5,63 M33.5,48 L46.5,63 " fill="#FEFECE" filter="url(#f1csvlwryoy172)" style="stroke: #A80036; stroke-width: 2.0;"/><text fill="#000000" font-family="sans-serif" font-size="14" lengthAdjust="spacingAndGlyphs" textLength="45" x="8" y="538.917">User A</text><ellipse cx="33.5" cy="552.2188" fill="#FEFECE" filter="url(#f1csvlwryoy172)" rx="8" ry="8" style="stroke: #A80036; stroke-width: 2.0;"/><path d="M33.5,560.2188 L33.5,587.2188 M20.5,568.2188 L46.5,568.2188 M33.5,587.2188 L20.5,602.2188 M33.5,587.2188 L46.5,602.2188 " fill="#FEFECE" filter="url(#f1csvlwryoy172)" style="stroke: #A80036; stroke-width: 2.0;"/><text fill="#000000" font-family="sans-serif" font-size="14" lengthAdjust="spacingAndGlyphs" textLength="46" x="69" y="82.9951">User B</text><ellipse cx="95" cy="13" fill="#FEFECE" filter="url(#f1csvlwryoy172)" rx="8" ry="8" style="stroke: #A80036; stroke-width: 2.0;"/><path d="M95,21 L95,48 M82,29 L108,29 M95,48 L82,63 M95,48 L108,63 " fill="#FEFECE" filter="url(#f1csvlwryoy172)" style="stroke: #A80036; stroke-width: 2.0;"/><text fill="#000000" font-family="sans-serif" font-size="14" lengthAdjust="spacingAndGlyphs" textLength="46" x="69" y="538.917">User B</text><ellipse cx="95" cy="552.2188" fill="#FEFECE" filter="url(#f1csvlwryoy172)" rx="8" ry="8" style="stroke: #A80036; stroke-width: 2.0;"/><path d="M95,560.2188 L95,587.2188 M82,568.2188 L108,568.2188 M95,587.2188 L82,602.2188 M95,587.2188 L108,602.2188 " fill="#FEFECE" filter="url(#f1csvlwryoy172)" style="stroke: #A80036; stroke-width: 2.0;"/><rect fill="#FEFECE" filter="url(#f1csvlwryoy172)" height="30.2969" style="stroke: #A80036; stroke-width: 1.5;" width="64" x="150" y="51"/><text fill="#000000" font-family="sans-serif" font-size="14" lengthAdjust="spacingAndGlyphs" textLength="50" x="157" y="70.9951">Service</text><rect fill="#FEFECE" filter="url(#f1csvlwryoy172)" height="30.2969" style="stroke: #A80036; stroke-width: 1.5;" width="64" x="150" y="525.9219"/><text fill="#000000" font-family="sans-serif" font-size="14" lengthAdjust="spacingAndGlyphs" textLength="50" x="157" y="545.917">Service</text><rect fill="#FEFECE" filter="url(#f1csvlwryoy172)" height="30.2969" style="stroke: #A80036; stroke-width: 1.5;" width="88" x="284" y="51"/><text fill="#000000" font-family="sans-serif" font-size="14" lengthAdjust="spacingAndGlyphs" textLength="74" x="291" y="70.9951">Repository</text><rect fill="#FEFECE" filter="url(#f1csvlwryoy172)" height="30.2969" style="stroke: #A80036; stroke-width: 1.5;" width="88" x="284" y="525.9219"/><text fill="#000000" font-family="sans-serif" font-size="14" lengthAdjust="spacingAndGlyphs" textLength="74" x="291" y="545.917">Repository</text><rect fill="#FEFECE" filter="url(#f1csvlwryoy172)" height="30.2969" style="stroke: #A80036; stroke-width: 1.5;" width="92" x="386" y="51"/><text fill="#000000" font-family="sans-serif" font-size="14" lengthAdjust="spacingAndGlyphs" textLength="78" x="393" y="70.9951">i2: Account</text><rect fill="#FEFECE" filter="url(#f1csvlwryoy172)" height="30.2969" style="stroke: #A80036; stroke-width: 1.5;" width="92" x="386" y="525.9219"/><text fill="#000000" font-family="sans-serif" font-size="14" lengthAdjust="spacingAndGlyphs" textLength="78" x="393" y="545.917">i2: Account</text><rect fill="#FEFECE" filter="url(#f1csvlwryoy172)" height="30.2969" style="stroke: #A80036; stroke-width: 1.5;" width="92" x="492" y="525.9219"/><text fill="#000000" font-family="sans-serif" font-size="14" lengthAdjust="spacingAndGlyphs" textLength="78" x="499" y="545.917">i1: Account</text><polygon fill="#A80036" points="172,113.2969,182,117.2969,172,121.2969,176,117.2969" style="stroke: #A80036; stroke-width: 1.0;"/><line style="stroke: #A80036; stroke-width: 1.0;" x1="33.5" x2="178" y1="117.2969" y2="117.2969"/><text fill="#000000" font-family="sans-serif" font-size="13" lengthAdjust="spacingAndGlyphs" textLength="65" x="40.5" y="112.3638">withdraw()</text><polygon fill="#A80036" points="318,142.4297,328,146.4297,318,150.4297,322,146.4297" style="stroke: #A80036; stroke-width: 1.0;"/><line style="stroke: #A80036; stroke-width: 1.0;" x1="184" x2="324" y1="146.4297" y2="146.4297"/><text fill="#000000" font-family="sans-serif" font-size="13" lengthAdjust="spacingAndGlyphs" textLength="117" x="191" y="141.4966">getAccount("123")</text><polygon fill="#A80036" points="480,171.5625,490,175.5625,480,179.5625,484,175.5625" style="stroke: #A80036; stroke-width: 1.0;"/><line style="stroke: #A80036; stroke-width: 1.0;" x1="330" x2="486" y1="175.5625" y2="175.5625"/><text fill="#000000" font-family="sans-serif" font-size="13" lengthAdjust="spacingAndGlyphs" textLength="51" x="337" y="170.6294">create()</text><rect fill="#FEFECE" filter="url(#f1csvlwryoy172)" height="30.2969" style="stroke: #A80036; stroke-width: 1.5;" width="92" x="492" y="154.5625"/><text fill="#000000" font-family="sans-serif" font-size="14" lengthAdjust="spacingAndGlyphs" textLength="78" x="499" y="174.5576">i1: Account</text><polygon fill="#A80036" points="195,216.8594,185,220.8594,195,224.8594,191,220.8594" style="stroke: #A80036; stroke-width: 1.0;"/><line style="stroke: #A80036; stroke-width: 1.0; stroke-dasharray: 2.0,2.0;" x1="189" x2="329" y1="220.8594" y2="220.8594"/><text fill="#000000" font-family="sans-serif" font-size="13" lengthAdjust="spacingAndGlyphs" textLength="122" x="201" y="215.9263">instance1: Account</text><polygon fill="#A80036" points="528,245.9922,538,249.9922,528,253.9922,532,249.9922" style="stroke: #A80036; stroke-width: 1.0;"/><line style="stroke: #A80036; stroke-width: 1.0;" x1="184" x2="534" y1="249.9922" y2="249.9922"/><text fill="#000000" font-family="sans-serif" font-size="13" lengthAdjust="spacingAndGlyphs" textLength="55" x="191" y="245.0591">withdraw</text><polygon fill="#A80036" points="195,260.125,185,264.125,195,268.125,191,264.125" style="stroke: #A80036; stroke-width: 1.0;"/><line style="stroke: #A80036; stroke-width: 1.0; stroke-dasharray: 2.0,2.0;" x1="189" x2="539" y1="264.125" y2="264.125"/><polygon fill="#A80036" points="172,289.125,182,293.125,172,297.125,176,293.125" style="stroke: #A80036; stroke-width: 1.0;"/><line style="stroke: #A80036; stroke-width: 1.0;" x1="95" x2="178" y1="293.125" y2="293.125"/><text fill="#000000" font-family="sans-serif" font-size="13" lengthAdjust="spacingAndGlyphs" textLength="65" x="102" y="288.1919">withdraw()</text><polygon fill="#A80036" points="318,318.2578,328,322.2578,318,326.2578,322,322.2578" style="stroke: #A80036; stroke-width: 1.0;"/><line style="stroke: #A80036; stroke-width: 1.0;" x1="184" x2="324" y1="322.2578" y2="322.2578"/><text fill="#000000" font-family="sans-serif" font-size="13" lengthAdjust="spacingAndGlyphs" textLength="117" x="191" y="317.3247">getAccount("123")</text><polygon fill="#A80036" points="195,347.3906,185,351.3906,195,355.3906,191,351.3906" style="stroke: #A80036; stroke-width: 1.0;"/><line style="stroke: #A80036; stroke-width: 1.0; stroke-dasharray: 2.0,2.0;" x1="189" x2="329" y1="351.3906" y2="351.3906"/><text fill="#000000" font-family="sans-serif" font-size="13" lengthAdjust="spacingAndGlyphs" textLength="122" x="201" y="346.4575">instance2: Account</text><polygon fill="#A80036" points="422,376.5234,432,380.5234,422,384.5234,426,380.5234" style="stroke: #A80036; stroke-width: 1.0;"/><line style="stroke: #A80036; stroke-width: 1.0;" x1="184" x2="428" y1="380.5234" y2="380.5234"/><text fill="#000000" font-family="sans-serif" font-size="13" lengthAdjust="spacingAndGlyphs" textLength="55" x="191" y="375.5903">withdraw</text><polygon fill="#A80036" points="195,390.6563,185,394.6563,195,398.6563,191,394.6563" style="stroke: #A80036; stroke-width: 1.0;"/><line style="stroke: #A80036; stroke-width: 1.0; stroke-dasharray: 2.0,2.0;" x1="189" x2="433" y1="394.6563" y2="394.6563"/><polygon fill="#A80036" points="318,419.6563,328,423.6563,318,427.6563,322,423.6563" style="stroke: #A80036; stroke-width: 1.0;"/><line style="stroke: #A80036; stroke-width: 1.0;" x1="184" x2="324" y1="423.6563" y2="423.6563"/><text fill="#000000" font-family="sans-serif" font-size="13" lengthAdjust="spacingAndGlyphs" textLength="43" x="191" y="418.7231">store()</text><polygon fill="#A80036" points="195,433.7891,185,437.7891,195,441.7891,191,437.7891" style="stroke: #A80036; stroke-width: 1.0;"/><line style="stroke: #A80036; stroke-width: 1.0; stroke-dasharray: 2.0,2.0;" x1="189" x2="329" y1="437.7891" y2="437.7891"/><polygon fill="#A80036" points="106,447.7891,96,451.7891,106,455.7891,102,451.7891" style="stroke: #A80036; stroke-width: 1.0;"/><line style="stroke: #A80036; stroke-width: 1.0; stroke-dasharray: 2.0,2.0;" x1="100" x2="183" y1="451.7891" y2="451.7891"/><polygon fill="#A80036" points="318,476.7891,328,480.7891,318,484.7891,322,480.7891" style="stroke: #A80036; stroke-width: 1.0;"/><line style="stroke: #A80036; stroke-width: 1.0;" x1="184" x2="324" y1="480.7891" y2="480.7891"/><text fill="#000000" font-family="sans-serif" font-size="13" lengthAdjust="spacingAndGlyphs" textLength="43" x="191" y="475.856">store()</text><polygon fill="#A80036" points="195,490.9219,185,494.9219,195,498.9219,191,494.9219" style="stroke: #A80036; stroke-width: 1.0;"/><line style="stroke: #A80036; stroke-width: 1.0; stroke-dasharray: 2.0,2.0;" x1="189" x2="329" y1="494.9219" y2="494.9219"/><polygon fill="#A80036" points="44.5,504.9219,34.5,508.9219,44.5,512.9219,40.5,508.9219" style="stroke: #A80036; stroke-width: 1.0;"/><line style="stroke: #A80036; stroke-width: 1.0; stroke-dasharray: 2.0,2.0;" x1="38.5" x2="183" y1="508.9219" y2="508.9219"/><!--
@startuml

actor "User A" as U1
actor "User B" as U2
participant "Service" as S
participant "Repository" as R

participant "i2: Account" as A2

U1 -> S: withdraw()
S -> R: getAccount("123")
create "i1: Account" as A1
R -> A1: create()
S <- - R: instance1: Account
S -> A1: withdraw
S <- - A1:

U2 -> S: withdraw()
S -> R: getAccount("123")
S <- - R: instance2: Account
S -> A2: withdraw
S <- - A2:

S -> R: store()
S <- - R
U2 <- - S:

S -> R: store()
S <- - R:
U1 <- - S:

@enduml

PlantUML version 1.2017.15(Mon Jul 03 18:45:34 CEST 2017)
(GPL source distribution)
Java Runtime: Java(TM) SE Runtime Environment
JVM: Java HotSpot(TM) 64-Bit Server VM
Java Version: 1.8.0_191-b12
Operating System: Linux
OS Version: 4.15.0-72-generic
Default Encoding: UTF-8
Language: en
Country: US
--></g></svg>