<?xml version="1.0" encoding="UTF-8" standalone="no"?><svg xmlns="http://www.w3.org/2000/svg" xmlns:xlink="http://www.w3.org/1999/xlink" contentScriptType="application/ecmascript" contentStyleType="text/css" height="132px" preserveAspectRatio="none" style="width:432px;height:132px;" version="1.1" viewBox="0 0 432 132" width="432px" zoomAndPan="magnify"><defs><filter height="300%" id="fh01d4l4f9tuf" width="300%" x="-1" y="-1"><feGaussianBlur result="blurOut" stdDeviation="2.0"/><feColorMatrix in="blurOut" result="blurOut2" type="matrix" values="0 0 0 0 0 0 0 0 0 0 0 0 0 0 0 0 0 0 .4 0"/><feOffset dx="4.0" dy="4.0" in="blurOut2" result="blurOut3"/><feBlend in="SourceGraphic" in2="blurOut3" mode="normal"/></filter></defs><g><!--cluster A--><rect fill="#FFFFFF" filter="url(#fh01d4l4f9tuf)" height="71" style="stroke: #000000; stroke-width: 2.0;" width="230" x="66.5" y="50"/><rect fill="#FFFFFF" height="10" style="stroke: #000000; stroke-width: 2.0;" width="15" x="276.5" y="55"/><rect fill="#FFFFFF" height="2" style="stroke: #000000; stroke-width: 2.0;" width="4" x="274.5" y="57"/><rect fill="#FFFFFF" height="2" style="stroke: #000000; stroke-width: 2.0;" width="4" x="274.5" y="61"/><text fill="#000000" font-family="sans-serif" font-size="14" font-weight="bold" lengthAdjust="spacingAndGlyphs" textLength="87" x="138" y="75.9951">Application</text><!--entity W--><rect fill="#FEFECE" filter="url(#fh01d4l4f9tuf)" height="36.2969" style="stroke: #A80036; stroke-width: 1.5;" width="89" x="200" y="77"/><rect fill="#FEFECE" height="5" style="stroke: #A80036; stroke-width: 1.5;" width="10" x="195" y="82"/><rect fill="#FEFECE" height="5" style="stroke: #A80036; stroke-width: 1.5;" width="10" x="195" y="103.2969"/><text fill="#000000" font-family="sans-serif" font-size="14" lengthAdjust="spacingAndGlyphs" textLength="69" x="210" y="99.9951">Write Side</text><!--entity R--><rect fill="#FEFECE" filter="url(#fh01d4l4f9tuf)" height="36.2969" style="stroke: #A80036; stroke-width: 1.5;" width="90" x="74.5" y="77"/><rect fill="#FEFECE" height="5" style="stroke: #A80036; stroke-width: 1.5;" width="10" x="69.5" y="82"/><rect fill="#FEFECE" height="5" style="stroke: #A80036; stroke-width: 1.5;" width="10" x="69.5" y="103.2969"/><text fill="#000000" font-family="sans-serif" font-size="14" lengthAdjust="spacingAndGlyphs" textLength="70" x="84.5" y="99.9951">Read Side</text><!--entity ES--><path d="M324.5,82.5 C324.5,72.5 372.5,72.5 372.5,72.5 C372.5,72.5 420.5,72.5 420.5,82.5 L420.5,107.7969 C420.5,117.7969 372.5,117.7969 372.5,117.7969 C372.5,117.7969 324.5,117.7969 324.5,107.7969 L324.5,82.5 " fill="#FEFECE" filter="url(#fh01d4l4f9tuf)" style="stroke: #000000; stroke-width: 1.5;"/><path d="M324.5,82.5 C324.5,92.5 372.5,92.5 372.5,92.5 C372.5,92.5 420.5,92.5 420.5,82.5 " fill="none" style="stroke: #000000; stroke-width: 1.5;"/><text fill="#000000" font-family="sans-serif" font-size="14" lengthAdjust="spacingAndGlyphs" textLength="76" x="334.5" y="109.4951">EventStore</text><!--entity UI--><rect fill="#FEFECE" filter="url(#fh01d4l4f9tuf)" height="36.2969" style="stroke: #A80036; stroke-width: 1.5;" width="33" x="6" y="77"/><rect fill="#FEFECE" height="5" style="stroke: #A80036; stroke-width: 1.5;" width="10" x="1" y="82"/><rect fill="#FEFECE" height="5" style="stroke: #A80036; stroke-width: 1.5;" width="10" x="1" y="103.2969"/><text fill="#000000" font-family="sans-serif" font-size="14" lengthAdjust="spacingAndGlyphs" textLength="13" x="16" y="99.9951">UI</text><!--link UI to W--><path d="M29.5252,76.8885 C37.6595,58.7461 52.965,31.8634 76,20 C111.1658,1.889 128.2389,5.3964 165,20 C191.5588,30.5507 214.3839,54.6459 228.6761,72.6969 " fill="none" id="UI-W" style="stroke: #A80036; stroke-width: 1.0;"/><polygon fill="#A80036" points="231.7703,76.6803,229.4082,67.1189,228.7031,72.7316,223.0903,72.0265,231.7703,76.6803" style="stroke: #A80036; stroke-width: 1.0;"/><!--link UI to R--><path d="M39.1719,95 C49.1475,95 59.1232,95 69.0988,95 " fill="none" id="UI-R" style="stroke: #A80036; stroke-width: 1.0;"/><polygon fill="#A80036" points="74.3154,95,65.3154,91,69.3154,95,65.3154,99,74.3154,95" style="stroke: #A80036; stroke-width: 1.0;"/><!--link R to ES--><path d="M132.4436,76.6746 C146.6184,58.3577 171.2064,31.3346 200,20 C235.9793,5.8367 250.8125,6.3775 287,20 C312.7701,29.701 335.8355,51.0885 351.496,68.5516 " fill="none" id="R-ES" style="stroke: #A80036; stroke-width: 1.0;"/><polygon fill="#A80036" points="354.9201,72.4398,351.9737,63.042,351.6155,68.6875,345.97,68.3293,354.9201,72.4398" style="stroke: #A80036; stroke-width: 1.0;"/><!--link W to ES--><path d="M294.4633,95 C304.4326,95 314.4018,95 324.3711,95 " fill="none" id="W-ES" style="stroke: #A80036; stroke-width: 1.0;"/><polygon fill="#A80036" points="289.25,95,298.25,99,294.25,95,298.25,91,289.25,95" style="stroke: #A80036; stroke-width: 1.0;"/><!--
@startuml


database "EventStore" as ES
[UI] as UI

component "Application" as A {

[Write Side] as W
[Read Side] as R  

}

UI -> W
UI -> R

R -> ES
W <- ES


@enduml

PlantUML version 1.2017.15(Mon Jul 03 18:45:34 CEST 2017)
(GPL source distribution)
Java Runtime: Java(TM) SE Runtime Environment
JVM: Java HotSpot(TM) 64-Bit Server VM
Java Version: 1.8.0_191-b12
Operating System: Linux
OS Version: 4.15.0-76-generic
Default Encoding: UTF-8
Language: en
Country: US
--></g></svg>