<?xml version="1.0" encoding="UTF-8" standalone="no"?><svg xmlns="http://www.w3.org/2000/svg" xmlns:xlink="http://www.w3.org/1999/xlink" contentScriptType="application/ecmascript" contentStyleType="text/css" height="219px" preserveAspectRatio="none" style="width:443px;height:219px;" version="1.1" viewBox="0 0 443 219" width="443px" zoomAndPan="magnify"><defs><filter height="300%" id="f1epkty5f6pzkw" width="300%" x="-1" y="-1"><feGaussianBlur result="blurOut" stdDeviation="2.0"/><feColorMatrix in="blurOut" result="blurOut2" type="matrix" values="0 0 0 0 0 0 0 0 0 0 0 0 0 0 0 0 0 0 .4 0"/><feOffset dx="4.0" dy="4.0" in="blurOut2" result="blurOut3"/><feBlend in="SourceGraphic" in2="blurOut3" mode="normal"/></filter></defs><g><!--cluster org.jaun.app.domain--><polygon fill="#FFFFFF" filter="url(#f1epkty5f6pzkw)" points="14,16,181,16,188,38.2969,191,38.2969,191,207,14,207,14,16" style="stroke: #000000; stroke-width: 2.0;"/><line style="stroke: #000000; stroke-width: 2.0;" x1="14" x2="188" y1="38.2969" y2="38.2969"/><text fill="#000000" font-family="sans-serif" font-size="14" font-weight="bold" lengthAdjust="spacingAndGlyphs" textLength="161" x="18" y="30.9951">org.jaun.app.domain</text><!--cluster net.sourceforge.plantuml--><polygon fill="#FFFFFF" filter="url(#f1epkty5f6pzkw)" points="204,124,411,124,418,146.2969,421,146.2969,421,207,204,207,204,124" style="stroke: #000000; stroke-width: 2.0;"/><line style="stroke: #000000; stroke-width: 2.0;" x1="204" x2="418" y1="146.2969" y2="146.2969"/><text fill="#000000" font-family="sans-serif" font-size="14" font-weight="bold" lengthAdjust="spacingAndGlyphs" textLength="201" x="208" y="138.9951">net.sourceforge.plantuml</text><!--class Object--><rect fill="#FEFECE" filter="url(#f1epkty5f6pzkw)" height="48" id="Object" style="stroke: #A80036; stroke-width: 1.5;" width="72" x="106" y="43"/><ellipse cx="121" cy="59" fill="#ADD1B2" rx="11" ry="11" style="stroke: #A80036; stroke-width: 1.0;"/><path d="M123.9688,64.6406 Q123.3906,64.9375 122.75,65.0859 Q122.1094,65.2344 121.4063,65.2344 Q118.9063,65.2344 117.5859,63.5859 Q116.2656,61.9375 116.2656,58.8125 Q116.2656,55.6875 117.5859,54.0313 Q118.9063,52.375 121.4063,52.375 Q122.1094,52.375 122.7578,52.5313 Q123.4063,52.6875 123.9688,52.9844 L123.9688,55.7031 Q123.3438,55.125 122.75,54.8516 Q122.1563,54.5781 121.5313,54.5781 Q120.1875,54.5781 119.5,55.6484 Q118.8125,56.7188 118.8125,58.8125 Q118.8125,60.9063 119.5,61.9766 Q120.1875,63.0469 121.5313,63.0469 Q122.1563,63.0469 122.75,62.7734 Q123.3438,62.5 123.9688,61.9219 L123.9688,64.6406 Z "/><text fill="#000000" font-family="sans-serif" font-size="12" lengthAdjust="spacingAndGlyphs" textLength="40" x="135" y="63.1543">Object</text><line style="stroke: #A80036; stroke-width: 1.5;" x1="107" x2="177" y1="75" y2="75"/><line style="stroke: #A80036; stroke-width: 1.5;" x1="107" x2="177" y1="83" y2="83"/><!--class ArrayList--><rect fill="#FEFECE" filter="url(#f1epkty5f6pzkw)" height="48" id="ArrayList" style="stroke: #A80036; stroke-width: 1.5;" width="85" x="94.5" y="151"/><ellipse cx="109.5" cy="167" fill="#ADD1B2" rx="11" ry="11" style="stroke: #A80036; stroke-width: 1.0;"/><path d="M112.4688,172.6406 Q111.8906,172.9375 111.25,173.0859 Q110.6094,173.2344 109.9063,173.2344 Q107.4063,173.2344 106.0859,171.5859 Q104.7656,169.9375 104.7656,166.8125 Q104.7656,163.6875 106.0859,162.0313 Q107.4063,160.375 109.9063,160.375 Q110.6094,160.375 111.2578,160.5313 Q111.9063,160.6875 112.4688,160.9844 L112.4688,163.7031 Q111.8438,163.125 111.25,162.8516 Q110.6563,162.5781 110.0313,162.5781 Q108.6875,162.5781 108,163.6484 Q107.3125,164.7188 107.3125,166.8125 Q107.3125,168.9063 108,169.9766 Q108.6875,171.0469 110.0313,171.0469 Q110.6563,171.0469 111.25,170.7734 Q111.8438,170.5 112.4688,169.9219 L112.4688,172.6406 Z "/><text fill="#000000" font-family="sans-serif" font-size="12" lengthAdjust="spacingAndGlyphs" textLength="53" x="123.5" y="171.1543">ArrayList</text><line style="stroke: #A80036; stroke-width: 1.5;" x1="95.5" x2="178.5" y1="183" y2="183"/><line style="stroke: #A80036; stroke-width: 1.5;" x1="95.5" x2="178.5" y1="191" y2="191"/><!--class Demo1--><rect fill="#FEFECE" filter="url(#f1epkty5f6pzkw)" height="48" id="Demo1" style="stroke: #A80036; stroke-width: 1.5;" width="76" x="215" y="151"/><ellipse cx="230" cy="167" fill="#ADD1B2" rx="11" ry="11" style="stroke: #A80036; stroke-width: 1.0;"/><path d="M232.9688,172.6406 Q232.3906,172.9375 231.75,173.0859 Q231.1094,173.2344 230.4063,173.2344 Q227.9063,173.2344 226.5859,171.5859 Q225.2656,169.9375 225.2656,166.8125 Q225.2656,163.6875 226.5859,162.0313 Q227.9063,160.375 230.4063,160.375 Q231.1094,160.375 231.7578,160.5313 Q232.4063,160.6875 232.9688,160.9844 L232.9688,163.7031 Q232.3438,163.125 231.75,162.8516 Q231.1563,162.5781 230.5313,162.5781 Q229.1875,162.5781 228.5,163.6484 Q227.8125,164.7188 227.8125,166.8125 Q227.8125,168.9063 228.5,169.9766 Q229.1875,171.0469 230.5313,171.0469 Q231.1563,171.0469 231.75,170.7734 Q232.3438,170.5 232.9688,169.9219 L232.9688,172.6406 Z "/><text fill="#000000" font-family="sans-serif" font-size="12" lengthAdjust="spacingAndGlyphs" textLength="44" x="244" y="171.1543">Demo1</text><line style="stroke: #A80036; stroke-width: 1.5;" x1="216" x2="290" y1="183" y2="183"/><line style="stroke: #A80036; stroke-width: 1.5;" x1="216" x2="290" y1="191" y2="191"/><!--class Demo2--><rect fill="#FEFECE" filter="url(#f1epkty5f6pzkw)" height="48" id="Demo2" style="stroke: #A80036; stroke-width: 1.5;" width="76" x="326" y="151"/><ellipse cx="341" cy="167" fill="#ADD1B2" rx="11" ry="11" style="stroke: #A80036; stroke-width: 1.0;"/><path d="M343.9688,172.6406 Q343.3906,172.9375 342.75,173.0859 Q342.1094,173.2344 341.4063,173.2344 Q338.9063,173.2344 337.5859,171.5859 Q336.2656,169.9375 336.2656,166.8125 Q336.2656,163.6875 337.5859,162.0313 Q338.9063,160.375 341.4063,160.375 Q342.1094,160.375 342.7578,160.5313 Q343.4063,160.6875 343.9688,160.9844 L343.9688,163.7031 Q343.3438,163.125 342.75,162.8516 Q342.1563,162.5781 341.5313,162.5781 Q340.1875,162.5781 339.5,163.6484 Q338.8125,164.7188 338.8125,166.8125 Q338.8125,168.9063 339.5,169.9766 Q340.1875,171.0469 341.5313,171.0469 Q342.1563,171.0469 342.75,170.7734 Q343.3438,170.5 343.9688,169.9219 L343.9688,172.6406 Z "/><text fill="#000000" font-family="sans-serif" font-size="12" lengthAdjust="spacingAndGlyphs" textLength="44" x="355" y="171.1543">Demo2</text><line style="stroke: #A80036; stroke-width: 1.5;" x1="327" x2="401" y1="183" y2="183"/><line style="stroke: #A80036; stroke-width: 1.5;" x1="327" x2="401" y1="191" y2="191"/><!--link Object to ArrayList--><path d="M139.9495,111.2911 C139.3233,124.8171 138.6582,139.1835 138.1184,150.8436 " fill="none" id="Object-ArrayList" style="stroke: #A80036; stroke-width: 1.0;"/><polygon fill="none" points="132.9604,110.8921,140.8779,91.2373,146.9454,111.5397,132.9604,110.8921" style="stroke: #A80036; stroke-width: 1.0;"/><!--link Object to Demo1--><path d="M181.627,105.556 C197.1477,120.6572 214.4766,137.5178 228.1726,150.8436 " fill="none" id="Object-Demo1" style="stroke: #A80036; stroke-width: 1.0;"/><polygon fill="none" points="176.3636,110.2015,166.9106,91.2373,186.1266,100.1673,176.3636,110.2015" style="stroke: #A80036; stroke-width: 1.0;"/><!--link Demo1 to Demo2--><path d="M304.1742,175 C311.4064,175 318.6386,175 325.8708,175 " fill="none" id="Demo1-Demo2" style="stroke: #A80036; stroke-width: 1.0;"/><polygon fill="#A80036" points="291.1563,175,297.1563,179,303.1563,175,297.1563,171,291.1563,175" style="stroke: #A80036; stroke-width: 1.0;"/><!--
@startuml


package org.jaun.app.domain {
  Object <|- - ArrayList
}

package net.sourceforge.plantuml {
  Object <|- - Demo1
  Demo1 *- Demo2
}


@enduml

PlantUML version 1.2017.15(Mon Jul 03 18:45:34 CEST 2017)
(GPL source distribution)
Java Runtime: Java(TM) SE Runtime Environment
JVM: Java HotSpot(TM) 64-Bit Server VM
Java Version: 1.8.0_191-b12
Operating System: Linux
OS Version: 4.15.0-91-generic
Default Encoding: UTF-8
Language: en
Country: US
--></g></svg>