<?xml version="1.0" encoding="UTF-8" standalone="no"?><svg xmlns="http://www.w3.org/2000/svg" xmlns:xlink="http://www.w3.org/1999/xlink" contentScriptType="application/ecmascript" contentStyleType="text/css" height="279px" preserveAspectRatio="none" style="width:277px;height:279px;" version="1.1" viewBox="0 0 277 279" width="277px" zoomAndPan="magnify"><defs><filter height="300%" id="f17ccjpplvmqc2" width="300%" x="-1" y="-1"><feGaussianBlur result="blurOut" stdDeviation="2.0"/><feColorMatrix in="blurOut" result="blurOut2" type="matrix" values="0 0 0 0 0 0 0 0 0 0 0 0 0 0 0 0 0 0 .4 0"/><feOffset dx="4.0" dy="4.0" in="blurOut2" result="blurOut3"/><feBlend in="SourceGraphic" in2="blurOut3" mode="normal"/></filter></defs><g><!--cluster org.jaun.app.domain--><polygon fill="#FFFFFF" filter="url(#f17ccjpplvmqc2)" points="14,16,181,16,188,38.2969,191,38.2969,191,83,14,83,14,16" style="stroke: #000000; stroke-width: 2.0;"/><line style="stroke: #000000; stroke-width: 2.0;" x1="14" x2="188" y1="38.2969" y2="38.2969"/><text fill="#000000" font-family="sans-serif" font-size="14" font-weight="bold" lengthAdjust="spacingAndGlyphs" textLength="161" x="18" y="30.9951">org.jaun.app.domain</text><!--cluster org.jaun.app.infrastructure--><polygon fill="#FFFFFF" filter="url(#f17ccjpplvmqc2)" points="25,108,245,108,252,130.2969,255,130.2969,255,267,25,267,25,108" style="stroke: #000000; stroke-width: 2.0;"/><line style="stroke: #000000; stroke-width: 2.0;" x1="25" x2="252" y1="130.2969" y2="130.2969"/><text fill="#000000" font-family="sans-serif" font-size="14" font-weight="bold" lengthAdjust="spacingAndGlyphs" textLength="214" x="29" y="122.9951">org.jaun.app.infrastructure</text><!--class MyBusinessLogic--><rect fill="#FEFECE" filter="url(#f17ccjpplvmqc2)" height="32" id="MyBusinessLogic" style="stroke: #A80036; stroke-width: 1.5;" width="136" x="34" y="43"/><ellipse cx="49" cy="59" fill="#ADD1B2" rx="11" ry="11" style="stroke: #A80036; stroke-width: 1.0;"/><path d="M51.9688,64.6406 Q51.3906,64.9375 50.75,65.0859 Q50.1094,65.2344 49.4063,65.2344 Q46.9063,65.2344 45.5859,63.5859 Q44.2656,61.9375 44.2656,58.8125 Q44.2656,55.6875 45.5859,54.0313 Q46.9063,52.375 49.4063,52.375 Q50.1094,52.375 50.7578,52.5313 Q51.4063,52.6875 51.9688,52.9844 L51.9688,55.7031 Q51.3438,55.125 50.75,54.8516 Q50.1563,54.5781 49.5313,54.5781 Q48.1875,54.5781 47.5,55.6484 Q46.8125,56.7188 46.8125,58.8125 Q46.8125,60.9063 47.5,61.9766 Q48.1875,63.0469 49.5313,63.0469 Q50.1563,63.0469 50.75,62.7734 Q51.3438,62.5 51.9688,61.9219 L51.9688,64.6406 Z "/><text fill="#000000" font-family="sans-serif" font-size="12" lengthAdjust="spacingAndGlyphs" textLength="104" x="63" y="63.1543">MyBusinessLogic</text><!--class org.jaun.app.infrastructure.MyDao--><rect fill="#FEFECE" filter="url(#f17ccjpplvmqc2)" height="32" id="org.jaun.app.infrastructure.MyDao" style="stroke: #A80036; stroke-width: 1.5;" width="74" x="65" y="135"/><ellipse cx="80" cy="151" fill="#B4A7E5" rx="11" ry="11" style="stroke: #A80036; stroke-width: 1.0;"/><path d="M75.9219,146.7656 L75.9219,144.6094 L83.3125,144.6094 L83.3125,146.7656 L80.8438,146.7656 L80.8438,154.8438 L83.3125,154.8438 L83.3125,157 L75.9219,157 L75.9219,154.8438 L78.3906,154.8438 L78.3906,146.7656 L75.9219,146.7656 Z "/><text fill="#000000" font-family="sans-serif" font-size="12" font-style="italic" lengthAdjust="spacingAndGlyphs" textLength="42" x="94" y="155.1543">MyDao</text><!--class org.jaun.app.infrastructure.MyJdbDaoImpl--><rect fill="#FEFECE" filter="url(#f17ccjpplvmqc2)" height="32" id="org.jaun.app.infrastructure.MyJdbDaoImpl" style="stroke: #A80036; stroke-width: 1.5;" width="117" x="43.5" y="227"/><ellipse cx="58.5" cy="243" fill="#ADD1B2" rx="11" ry="11" style="stroke: #A80036; stroke-width: 1.0;"/><path d="M61.4688,248.6406 Q60.8906,248.9375 60.25,249.0859 Q59.6094,249.2344 58.9063,249.2344 Q56.4063,249.2344 55.0859,247.5859 Q53.7656,245.9375 53.7656,242.8125 Q53.7656,239.6875 55.0859,238.0313 Q56.4063,236.375 58.9063,236.375 Q59.6094,236.375 60.2578,236.5313 Q60.9063,236.6875 61.4688,236.9844 L61.4688,239.7031 Q60.8438,239.125 60.25,238.8516 Q59.6563,238.5781 59.0313,238.5781 Q57.6875,238.5781 57,239.6484 Q56.3125,240.7188 56.3125,242.8125 Q56.3125,244.9063 57,245.9766 Q57.6875,247.0469 59.0313,247.0469 Q59.6563,247.0469 60.25,246.7734 Q60.8438,246.5 61.4688,245.9219 L61.4688,248.6406 Z "/><text fill="#000000" font-family="sans-serif" font-size="12" lengthAdjust="spacingAndGlyphs" textLength="85" x="72.5" y="247.1543">MyJdbDaoImpl</text><!--link MyBusinessLogic to org.jaun.app.infrastructure.MyDao--><path d="M102,75.0252 C102,90.1037 102,112.7931 102,129.4514 " fill="none" id="MyBusinessLogic-org.jaun.app.infrastructure.MyDao" style="stroke: #A80036; stroke-width: 1.0;"/><polygon fill="#A80036" points="102,134.8498,106,125.8498,102,129.8498,98,125.8498,102,134.8498" style="stroke: #A80036; stroke-width: 1.0;"/><!--link org.jaun.app.infrastructure.MyDao to org.jaun.app.infrastructure.MyJdbDaoImpl--><path d="M102,187.4048 C102,201.0788 102,215.9368 102,226.8498 " fill="none" id="org.jaun.app.infrastructure.MyDao-org.jaun.app.infrastructure.MyJdbDaoImpl" style="stroke: #A80036; stroke-width: 1.0;"/><polygon fill="none" points="95.0001,187.0252,102,167.0252,109.0001,187.0251,95.0001,187.0252" style="stroke: #A80036; stroke-width: 1.0;"/><!--
@startuml

hide empty members

package org.jaun.app.domain {
  class MyBusinessLogic
  
  MyBusinessLogic - -> org.jaun.app.infrastructure.MyDao
}

package org.jaun.app.infrastructure {
  interface MyDao
  class MyJdbDaoImpl
  
  MyDao <|- - MyJdbDaoImpl
}

@enduml

PlantUML version 1.2017.15(Mon Jul 03 18:45:34 CEST 2017)
(GPL source distribution)
Java Runtime: Java(TM) SE Runtime Environment
JVM: Java HotSpot(TM) 64-Bit Server VM
Java Version: 1.8.0_191-b12
Operating System: Linux
OS Version: 4.15.0-91-generic
Default Encoding: UTF-8
Language: en
Country: US
--></g></svg>