<?xml version="1.0" encoding="UTF-8" standalone="no"?><svg xmlns="http://www.w3.org/2000/svg" xmlns:xlink="http://www.w3.org/1999/xlink" contentScriptType="application/ecmascript" contentStyleType="text/css" height="642px" preserveAspectRatio="none" style="width:735px;height:642px;" version="1.1" viewBox="0 0 735 642" width="735px" zoomAndPan="magnify"><defs><filter height="300%" id="fmoz1thspkqge" width="300%" x="-1" y="-1"><feGaussianBlur result="blurOut" stdDeviation="2.0"/><feColorMatrix in="blurOut" result="blurOut2" type="matrix" values="0 0 0 0 0 0 0 0 0 0 0 0 0 0 0 0 0 0 .4 0"/><feOffset dx="4.0" dy="4.0" in="blurOut2" result="blurOut3"/><feBlend in="SourceGraphic" in2="blurOut3" mode="normal"/></filter></defs><g><rect fill="#FEFECE" filter="url(#fmoz1thspkqge)" height="30.2969" style="stroke: #A80036; stroke-width: 1.5;" width="84" x="496" y="212.8281"/><text fill="#000000" font-family="sans-serif" font-size="14" lengthAdjust="spacingAndGlyphs" textLength="70" x="503" y="232.8232">Account X</text><line style="stroke: #A80036; stroke-width: 1.0; stroke-dasharray: 5.0,5.0;" x1="27" x2="27" y1="86.2969" y2="555.0547"/><line style="stroke: #A80036; stroke-width: 1.0; stroke-dasharray: 5.0,5.0;" x1="129" x2="129" y1="86.2969" y2="555.0547"/><line style="stroke: #A80036; stroke-width: 1.0; stroke-dasharray: 5.0,5.0;" x1="259" x2="259" y1="86.2969" y2="555.0547"/><line style="stroke: #A80036; stroke-width: 1.0; stroke-dasharray: 5.0,5.0;" x1="433" x2="433" y1="86.2969" y2="555.0547"/><line style="stroke: #A80036; stroke-width: 1.0; stroke-dasharray: 5.0,5.0;" x1="540" x2="540" y1="245.4766" y2="555.0547"/><text fill="#000000" font-family="sans-serif" font-size="14" lengthAdjust="spacingAndGlyphs" textLength="32" x="8" y="82.9951">User</text><ellipse cx="27" cy="13" fill="#FEFECE" filter="url(#fmoz1thspkqge)" rx="8" ry="8" style="stroke: #A80036; stroke-width: 2.0;"/><path d="M27,21 L27,48 M14,29 L40,29 M27,48 L14,63 M27,48 L40,63 " fill="#FEFECE" filter="url(#fmoz1thspkqge)" style="stroke: #A80036; stroke-width: 2.0;"/><text fill="#000000" font-family="sans-serif" font-size="14" lengthAdjust="spacingAndGlyphs" textLength="32" x="8" y="567.0498">User</text><ellipse cx="27" cy="580.3516" fill="#FEFECE" filter="url(#fmoz1thspkqge)" rx="8" ry="8" style="stroke: #A80036; stroke-width: 2.0;"/><path d="M27,588.3516 L27,615.3516 M14,596.3516 L40,596.3516 M27,615.3516 L14,630.3516 M27,615.3516 L40,630.3516 " fill="#FEFECE" filter="url(#fmoz1thspkqge)" style="stroke: #A80036; stroke-width: 2.0;"/><rect fill="#FEFECE" filter="url(#fmoz1thspkqge)" height="30.2969" style="stroke: #A80036; stroke-width: 1.5;" width="143" x="56" y="51"/><text fill="#000000" font-family="sans-serif" font-size="14" lengthAdjust="spacingAndGlyphs" textLength="129" x="63" y="70.9951">Application Service</text><rect fill="#FEFECE" filter="url(#fmoz1thspkqge)" height="30.2969" style="stroke: #A80036; stroke-width: 1.5;" width="143" x="56" y="554.0547"/><text fill="#000000" font-family="sans-serif" font-size="14" lengthAdjust="spacingAndGlyphs" textLength="129" x="63" y="574.0498">Application Service</text><rect fill="#FEFECE" filter="url(#fmoz1thspkqge)" height="30.2969" style="stroke: #A80036; stroke-width: 1.5;" width="88" x="213" y="51"/><text fill="#000000" font-family="sans-serif" font-size="14" lengthAdjust="spacingAndGlyphs" textLength="74" x="220" y="70.9951">Repository</text><rect fill="#FEFECE" filter="url(#fmoz1thspkqge)" height="30.2969" style="stroke: #A80036; stroke-width: 1.5;" width="88" x="213" y="554.0547"/><text fill="#000000" font-family="sans-serif" font-size="14" lengthAdjust="spacingAndGlyphs" textLength="74" x="220" y="574.0498">Repository</text><rect fill="#FEFECE" filter="url(#fmoz1thspkqge)" height="30.2969" style="stroke: #A80036; stroke-width: 1.5;" width="102" x="380" y="51"/><text fill="#000000" font-family="sans-serif" font-size="14" lengthAdjust="spacingAndGlyphs" textLength="88" x="387" y="70.9951">Even   tStore</text><rect fill="#FEFECE" filter="url(#fmoz1thspkqge)" height="30.2969" style="stroke: #A80036; stroke-width: 1.5;" width="102" x="380" y="554.0547"/><text fill="#000000" font-family="sans-serif" font-size="14" lengthAdjust="spacingAndGlyphs" textLength="88" x="387" y="574.0498">Even   tStore</text><rect fill="#FEFECE" filter="url(#fmoz1thspkqge)" height="30.2969" style="stroke: #A80036; stroke-width: 1.5;" width="84" x="496" y="554.0547"/><text fill="#000000" font-family="sans-serif" font-size="14" lengthAdjust="spacingAndGlyphs" textLength="70" x="503" y="574.0498">Account X</text><polygon fill="#A80036" points="117.5,113.2969,127.5,117.2969,117.5,121.2969,121.5,117.2969" style="stroke: #A80036; stroke-width: 1.0;"/><line style="stroke: #A80036; stroke-width: 1.0;" x1="27" x2="123.5" y1="117.2969" y2="117.2969"/><text fill="#000000" font-family="sans-serif" font-size="13" lengthAdjust="spacingAndGlyphs" textLength="55" x="34" y="112.3638">withdraw</text><polygon fill="#A80036" points="247,142.4297,257,146.4297,247,150.4297,251,146.4297" style="stroke: #A80036; stroke-width: 1.0;"/><line style="stroke: #A80036; stroke-width: 1.0;" x1="129.5" x2="253" y1="146.4297" y2="146.4297"/><text fill="#000000" font-family="sans-serif" font-size="13" lengthAdjust="spacingAndGlyphs" textLength="101" x="136.5" y="141.4966">getAccount("X")</text><polygon fill="#A80036" points="421,171.5625,431,175.5625,421,179.5625,425,175.5625" style="stroke: #A80036; stroke-width: 1.0;"/><line style="stroke: #A80036; stroke-width: 1.0;" x1="259" x2="427" y1="175.5625" y2="175.5625"/><text fill="#000000" font-family="sans-serif" font-size="13" lengthAdjust="spacingAndGlyphs" textLength="150" x="266" y="170.6294">load event stream for X</text><polygon fill="#A80036" points="270,200.6953,260,204.6953,270,208.6953,266,204.6953" style="stroke: #A80036; stroke-width: 1.0;"/><line style="stroke: #A80036; stroke-width: 1.0; stroke-dasharray: 2.0,2.0;" x1="264" x2="432" y1="204.6953" y2="204.6953"/><text fill="#000000" font-family="sans-serif" font-size="13" lengthAdjust="spacingAndGlyphs" textLength="142" x="276" y="199.7622">events : List&lt;Events&gt;</text><polygon fill="#A80036" points="484,229.8281,494,233.8281,484,237.8281,488,233.8281" style="stroke: #A80036; stroke-width: 1.0;"/><line style="stroke: #A80036; stroke-width: 1.0;" x1="259" x2="490" y1="233.8281" y2="233.8281"/><text fill="#000000" font-family="sans-serif" font-size="13" lengthAdjust="spacingAndGlyphs" textLength="41" x="266" y="228.895">create</text><rect fill="#FEFECE" filter="url(#fmoz1thspkqge)" height="30.2969" style="stroke: #A80036; stroke-width: 1.5;" width="84" x="496" y="212.8281"/><text fill="#000000" font-family="sans-serif" font-size="14" lengthAdjust="spacingAndGlyphs" textLength="70" x="503" y="232.8232">Account X</text><polygon fill="#A80036" points="270,260.125,260,264.125,270,268.125,266,264.125" style="stroke: #A80036; stroke-width: 1.0;"/><line style="stroke: #A80036; stroke-width: 1.0; stroke-dasharray: 2.0,2.0;" x1="264" x2="539" y1="264.125" y2="264.125"/><polygon fill="#A80036" points="528,289.125,538,293.125,528,297.125,532,293.125" style="stroke: #A80036; stroke-width: 1.0;"/><line style="stroke: #A80036; stroke-width: 1.0;" x1="259" x2="534" y1="293.125" y2="293.125"/><text fill="#000000" font-family="sans-serif" font-size="13" lengthAdjust="spacingAndGlyphs" textLength="215" x="266" y="288.1919">apply events from EventStream X</text><polygon fill="#A80036" points="270,303.2578,260,307.2578,270,311.2578,266,307.2578" style="stroke: #A80036; stroke-width: 1.0;"/><line style="stroke: #A80036; stroke-width: 1.0; stroke-dasharray: 2.0,2.0;" x1="264" x2="539" y1="307.2578" y2="307.2578"/><polygon fill="#A80036" points="140.5,332.2578,130.5,336.2578,140.5,340.2578,136.5,336.2578" style="stroke: #A80036; stroke-width: 1.0;"/><line style="stroke: #A80036; stroke-width: 1.0; stroke-dasharray: 2.0,2.0;" x1="134.5" x2="258" y1="336.2578" y2="336.2578"/><text fill="#000000" font-family="sans-serif" font-size="13" lengthAdjust="spacingAndGlyphs" textLength="68" x="146.5" y="331.3247">Account: X</text><polygon fill="#A80036" points="528,361.3906,538,365.3906,528,369.3906,532,365.3906" style="stroke: #A80036; stroke-width: 1.0;"/><line style="stroke: #A80036; stroke-width: 1.0;" x1="129.5" x2="534" y1="365.3906" y2="365.3906"/><text fill="#000000" font-family="sans-serif" font-size="13" lengthAdjust="spacingAndGlyphs" textLength="65" x="136.5" y="360.4575">withdraw()</text><line style="stroke: #A80036; stroke-width: 1.0;" x1="540" x2="582" y1="394.6563" y2="394.6563"/><line style="stroke: #A80036; stroke-width: 1.0;" x1="582" x2="582" y1="394.6563" y2="407.6563"/><line style="stroke: #A80036; stroke-width: 1.0;" x1="541" x2="582" y1="407.6563" y2="407.6563"/><polygon fill="#A80036" points="551,403.6563,541,407.6563,551,411.6563,547,407.6563" style="stroke: #A80036; stroke-width: 1.0;"/><text fill="#000000" font-family="sans-serif" font-size="13" lengthAdjust="spacingAndGlyphs" textLength="176" x="547" y="389.5903">emit MoneyWithdrawnEvent</text><polygon fill="#A80036" points="247,432.6563,257,436.6563,247,440.6563,251,436.6563" style="stroke: #A80036; stroke-width: 1.0;"/><line style="stroke: #A80036; stroke-width: 1.0;" x1="129.5" x2="253" y1="436.6563" y2="436.6563"/><text fill="#000000" font-family="sans-serif" font-size="13" lengthAdjust="spacingAndGlyphs" textLength="49" x="136.5" y="431.7231">save(A)</text><polygon fill="#A80036" points="528,461.7891,538,465.7891,528,469.7891,532,465.7891" style="stroke: #A80036; stroke-width: 1.0;"/><line style="stroke: #A80036; stroke-width: 1.0;" x1="259" x2="534" y1="465.7891" y2="465.7891"/><text fill="#000000" font-family="sans-serif" font-size="13" lengthAdjust="spacingAndGlyphs" textLength="179" x="266" y="460.856">getEmittedEvents() : events</text><polygon fill="#A80036" points="421,490.9219,431,494.9219,421,498.9219,425,494.9219" style="stroke: #A80036; stroke-width: 1.0;"/><line style="stroke: #A80036; stroke-width: 1.0;" x1="259" x2="427" y1="494.9219" y2="494.9219"/><text fill="#000000" font-family="sans-serif" font-size="13" lengthAdjust="spacingAndGlyphs" textLength="101" x="266" y="489.9888">append(events)</text><polygon fill="#A80036" points="270,505.0547,260,509.0547,270,513.0547,266,509.0547" style="stroke: #A80036; stroke-width: 1.0;"/><line style="stroke: #A80036; stroke-width: 1.0; stroke-dasharray: 2.0,2.0;" x1="264" x2="432" y1="509.0547" y2="509.0547"/><polygon fill="#A80036" points="140.5,519.0547,130.5,523.0547,140.5,527.0547,136.5,523.0547" style="stroke: #A80036; stroke-width: 1.0;"/><line style="stroke: #A80036; stroke-width: 1.0; stroke-dasharray: 2.0,2.0;" x1="134.5" x2="258" y1="523.0547" y2="523.0547"/><polygon fill="#A80036" points="38,533.0547,28,537.0547,38,541.0547,34,537.0547" style="stroke: #A80036; stroke-width: 1.0;"/><line style="stroke: #A80036; stroke-width: 1.0; stroke-dasharray: 2.0,2.0;" x1="32" x2="128.5" y1="537.0547" y2="537.0547"/><!--
@startuml

actor "User" as U
participant "Application Service" as AS
participant "Repository" as R
participant "Even   tStore" as ES

U -> AS: withdraw
AS -> R: getAccount("X")
R -> ES: load event stream for X
R <- - ES: events : List<Events>
create "Account X" as A
R ->  A: create
R <- - A
R -> A: apply events from EventStream X
R <- - A
AS <- - R: Account: X
AS -> A: withdraw()
A -> A: emit MoneyWithdrawnEvent
AS -> R: save(A)
R -> A: getEmittedEvents() : events
R -> ES: append(events)
R <- - ES
AS <- - R
U <- - AS

@enduml

PlantUML version 1.2017.15(Mon Jul 03 18:45:34 CEST 2017)
(GPL source distribution)
Java Runtime: Java(TM) SE Runtime Environment
JVM: Java HotSpot(TM) 64-Bit Server VM
Java Version: 1.8.0_191-b12
Operating System: Linux
OS Version: 4.15.0-72-generic
Default Encoding: UTF-8
Language: en
Country: US
--></g></svg>