<?xml version="1.0" encoding="UTF-8" standalone="no"?><svg xmlns="http://www.w3.org/2000/svg" xmlns:xlink="http://www.w3.org/1999/xlink" contentScriptType="application/ecmascript" contentStyleType="text/css" height="489px" preserveAspectRatio="none" style="width:769px;height:489px;" version="1.1" viewBox="0 0 769 489" width="769px" zoomAndPan="magnify"><defs><filter height="300%" id="f8tzshb3s5wmi" width="300%" x="-1" y="-1"><feGaussianBlur result="blurOut" stdDeviation="2.0"/><feColorMatrix in="blurOut" result="blurOut2" type="matrix" values="0 0 0 0 0 0 0 0 0 0 0 0 0 0 0 0 0 0 .4 0"/><feOffset dx="4.0" dy="4.0" in="blurOut2" result="blurOut3"/><feBlend in="SourceGraphic" in2="blurOut3" mode="normal"/></filter></defs><g><rect fill="#FFFFFF" filter="url(#f8tzshb3s5wmi)" height="215.7969" style="stroke: #A80036; stroke-width: 1.0;" width="10" x="510" y="185.8281"/><line style="stroke: #A80036; stroke-width: 1.0; stroke-dasharray: 5.0,5.0;" x1="33" x2="33" y1="38.2969" y2="448.8906"/><line style="stroke: #A80036; stroke-width: 1.0; stroke-dasharray: 5.0,5.0;" x1="141" x2="141" y1="38.2969" y2="448.8906"/><line style="stroke: #A80036; stroke-width: 1.0; stroke-dasharray: 5.0,5.0;" x1="271" x2="271" y1="38.2969" y2="448.8906"/><line style="stroke: #A80036; stroke-width: 1.0; stroke-dasharray: 5.0,5.0;" x1="515" x2="515" y1="38.2969" y2="448.8906"/><line style="stroke: #A80036; stroke-width: 1.0; stroke-dasharray: 5.0,5.0;" x1="715" x2="715" y1="38.2969" y2="448.8906"/><rect fill="#FEFECE" filter="url(#f8tzshb3s5wmi)" height="30.2969" style="stroke: #A80036; stroke-width: 1.5;" width="46" x="8" y="3"/><text fill="#000000" font-family="sans-serif" font-size="14" lengthAdjust="spacingAndGlyphs" textLength="32" x="15" y="22.9951">User</text><rect fill="#FEFECE" filter="url(#f8tzshb3s5wmi)" height="30.2969" style="stroke: #A80036; stroke-width: 1.5;" width="46" x="8" y="447.8906"/><text fill="#000000" font-family="sans-serif" font-size="14" lengthAdjust="spacingAndGlyphs" textLength="32" x="15" y="467.8857">User</text><rect fill="#FEFECE" filter="url(#f8tzshb3s5wmi)" height="30.2969" style="stroke: #A80036; stroke-width: 1.5;" width="143" x="68" y="3"/><text fill="#000000" font-family="sans-serif" font-size="14" lengthAdjust="spacingAndGlyphs" textLength="129" x="75" y="22.9951">Application Service</text><rect fill="#FEFECE" filter="url(#f8tzshb3s5wmi)" height="30.2969" style="stroke: #A80036; stroke-width: 1.5;" width="143" x="68" y="447.8906"/><text fill="#000000" font-family="sans-serif" font-size="14" lengthAdjust="spacingAndGlyphs" textLength="129" x="75" y="467.8857">Application Service</text><rect fill="#FEFECE" filter="url(#f8tzshb3s5wmi)" height="30.2969" style="stroke: #A80036; stroke-width: 1.5;" width="88" x="225" y="3"/><text fill="#000000" font-family="sans-serif" font-size="14" lengthAdjust="spacingAndGlyphs" textLength="74" x="232" y="22.9951">Repository</text><rect fill="#FEFECE" filter="url(#f8tzshb3s5wmi)" height="30.2969" style="stroke: #A80036; stroke-width: 1.5;" width="88" x="225" y="447.8906"/><text fill="#000000" font-family="sans-serif" font-size="14" lengthAdjust="spacingAndGlyphs" textLength="74" x="232" y="467.8857">Repository</text><rect fill="#FEFECE" filter="url(#f8tzshb3s5wmi)" height="30.2969" style="stroke: #A80036; stroke-width: 1.5;" width="84" x="471" y="3"/><text fill="#000000" font-family="sans-serif" font-size="14" lengthAdjust="spacingAndGlyphs" textLength="70" x="478" y="22.9951">Account X</text><rect fill="#FEFECE" filter="url(#f8tzshb3s5wmi)" height="30.2969" style="stroke: #A80036; stroke-width: 1.5;" width="84" x="471" y="447.8906"/><text fill="#000000" font-family="sans-serif" font-size="14" lengthAdjust="spacingAndGlyphs" textLength="70" x="478" y="467.8857">Account X</text><rect fill="#FEFECE" filter="url(#f8tzshb3s5wmi)" height="30.2969" style="stroke: #A80036; stroke-width: 1.5;" width="90" x="668" y="3"/><text fill="#000000" font-family="sans-serif" font-size="14" lengthAdjust="spacingAndGlyphs" textLength="76" x="675" y="22.9951">EventStore</text><rect fill="#FEFECE" filter="url(#f8tzshb3s5wmi)" height="30.2969" style="stroke: #A80036; stroke-width: 1.5;" width="90" x="668" y="447.8906"/><text fill="#000000" font-family="sans-serif" font-size="14" lengthAdjust="spacingAndGlyphs" textLength="76" x="675" y="467.8857">EventStore</text><rect fill="#FFFFFF" filter="url(#f8tzshb3s5wmi)" height="215.7969" style="stroke: #A80036; stroke-width: 1.0;" width="10" x="510" y="185.8281"/><polygon fill="#A80036" points="129.5,65.2969,139.5,69.2969,129.5,73.2969,133.5,69.2969" style="stroke: #A80036; stroke-width: 1.0;"/><line style="stroke: #A80036; stroke-width: 1.0;" x1="33" x2="135.5" y1="69.2969" y2="69.2969"/><text fill="#000000" font-family="sans-serif" font-size="13" lengthAdjust="spacingAndGlyphs" textLength="55" x="40" y="64.3638">withdraw</text><polygon fill="#A80036" points="259,94.4297,269,98.4297,259,102.4297,263,98.4297" style="stroke: #A80036; stroke-width: 1.0;"/><line style="stroke: #A80036; stroke-width: 1.0;" x1="141.5" x2="265" y1="98.4297" y2="98.4297"/><text fill="#000000" font-family="sans-serif" font-size="13" lengthAdjust="spacingAndGlyphs" textLength="91" x="148.5" y="93.4966">getAccount(X)</text><polygon fill="#A80036" points="703,123.5625,713,127.5625,703,131.5625,707,127.5625" style="stroke: #A80036; stroke-width: 1.0;"/><line style="stroke: #A80036; stroke-width: 1.0;" x1="271" x2="709" y1="127.5625" y2="127.5625"/><text fill="#000000" font-family="sans-serif" font-size="13" lengthAdjust="spacingAndGlyphs" textLength="150" x="278" y="122.6294">load event stream for X</text><polygon fill="#A80036" points="282,152.6953,272,156.6953,282,160.6953,278,156.6953" style="stroke: #A80036; stroke-width: 1.0;"/><line style="stroke: #A80036; stroke-width: 1.0; stroke-dasharray: 2.0,2.0;" x1="276" x2="714" y1="156.6953" y2="156.6953"/><text fill="#000000" font-family="sans-serif" font-size="13" lengthAdjust="spacingAndGlyphs" textLength="100" x="288" y="151.7622">EventStream: X</text><polygon fill="#A80036" points="498,181.8281,508,185.8281,498,189.8281,502,185.8281" style="stroke: #A80036; stroke-width: 1.0;"/><line style="stroke: #A80036; stroke-width: 1.0;" x1="271" x2="504" y1="185.8281" y2="185.8281"/><text fill="#000000" font-family="sans-serif" font-size="13" lengthAdjust="spacingAndGlyphs" textLength="41" x="278" y="180.895">create</text><polygon fill="#A80036" points="282,195.9609,272,199.9609,282,203.9609,278,199.9609" style="stroke: #A80036; stroke-width: 1.0;"/><line style="stroke: #A80036; stroke-width: 1.0; stroke-dasharray: 2.0,2.0;" x1="276" x2="509" y1="199.9609" y2="199.9609"/><polygon fill="#A80036" points="498,224.9609,508,228.9609,498,232.9609,502,228.9609" style="stroke: #A80036; stroke-width: 1.0;"/><line style="stroke: #A80036; stroke-width: 1.0;" x1="271" x2="504" y1="228.9609" y2="228.9609"/><text fill="#000000" font-family="sans-serif" font-size="13" lengthAdjust="spacingAndGlyphs" textLength="215" x="278" y="224.0278">apply events from EventStream X</text><polygon fill="#A80036" points="282,239.0938,272,243.0938,282,247.0938,278,243.0938" style="stroke: #A80036; stroke-width: 1.0;"/><line style="stroke: #A80036; stroke-width: 1.0; stroke-dasharray: 2.0,2.0;" x1="276" x2="509" y1="243.0938" y2="243.0938"/><polygon fill="#A80036" points="152.5,268.0938,142.5,272.0938,152.5,276.0938,148.5,272.0938" style="stroke: #A80036; stroke-width: 1.0;"/><line style="stroke: #A80036; stroke-width: 1.0; stroke-dasharray: 2.0,2.0;" x1="146.5" x2="270" y1="272.0938" y2="272.0938"/><text fill="#000000" font-family="sans-serif" font-size="13" lengthAdjust="spacingAndGlyphs" textLength="68" x="158.5" y="267.1606">Account: X</text><polygon fill="#A80036" points="498,297.2266,508,301.2266,498,305.2266,502,301.2266" style="stroke: #A80036; stroke-width: 1.0;"/><line style="stroke: #A80036; stroke-width: 1.0;" x1="141.5" x2="504" y1="301.2266" y2="301.2266"/><text fill="#000000" font-family="sans-serif" font-size="13" lengthAdjust="spacingAndGlyphs" textLength="65" x="148.5" y="296.2935">withdraw()</text><line style="stroke: #A80036; stroke-width: 1.0;" x1="520" x2="562" y1="330.4922" y2="330.4922"/><line style="stroke: #A80036; stroke-width: 1.0;" x1="562" x2="562" y1="330.4922" y2="343.4922"/><line style="stroke: #A80036; stroke-width: 1.0;" x1="521" x2="562" y1="343.4922" y2="343.4922"/><polygon fill="#A80036" points="531,339.4922,521,343.4922,531,347.4922,527,343.4922" style="stroke: #A80036; stroke-width: 1.0;"/><text fill="#000000" font-family="sans-serif" font-size="13" lengthAdjust="spacingAndGlyphs" textLength="176" x="527" y="325.4263">emit MoneyWithdrawnEvent</text><polygon fill="#A80036" points="259,368.4922,269,372.4922,259,376.4922,263,372.4922" style="stroke: #A80036; stroke-width: 1.0;"/><line style="stroke: #A80036; stroke-width: 1.0;" x1="141.5" x2="265" y1="372.4922" y2="372.4922"/><text fill="#000000" font-family="sans-serif" font-size="13" lengthAdjust="spacingAndGlyphs" textLength="49" x="148.5" y="367.5591">save(A)</text><polygon fill="#A80036" points="503,397.625,513,401.625,503,405.625,507,401.625" style="stroke: #A80036; stroke-width: 1.0;"/><line style="stroke: #A80036; stroke-width: 1.0;" x1="271" x2="509" y1="401.625" y2="401.625"/><text fill="#000000" font-family="sans-serif" font-size="13" lengthAdjust="spacingAndGlyphs" textLength="179" x="278" y="396.6919">getEmittedEvents() : events</text><polygon fill="#A80036" points="703,426.7578,713,430.7578,703,434.7578,707,430.7578" style="stroke: #A80036; stroke-width: 1.0;"/><line style="stroke: #A80036; stroke-width: 1.0;" x1="271" x2="709" y1="430.7578" y2="430.7578"/><text fill="#000000" font-family="sans-serif" font-size="13" lengthAdjust="spacingAndGlyphs" textLength="101" x="278" y="425.8247">append(events)</text><!--
@startuml

participant "User" as U
participant "Application Service" as AS
participant "Repository" as R
participant "Account X" as A
participant "EventStore" as ES

U -> AS: withdraw
AS -> R: getAccount(X)
R -> ES: load event stream for X
R <- - ES: EventStream: X
R ->  A: create
activate A
R <- - A
R -> A: apply events from EventStream X
R <- - A
AS <- - R: Account: X
AS -> A: withdraw()
A -> A: emit MoneyWithdrawnEvent
AS -> R: save(A)
R -> A: getEmittedEvents() : events
deactivate A
R -> ES: append(events)

@enduml

PlantUML version 1.2017.15(Mon Jul 03 18:45:34 CEST 2017)
(GPL source distribution)
Java Runtime: Java(TM) SE Runtime Environment
JVM: Java HotSpot(TM) 64-Bit Server VM
Java Version: 1.8.0_191-b12
Operating System: Linux
OS Version: 4.15.0-72-generic
Default Encoding: UTF-8
Language: en
Country: US
--></g></svg>