<?xml version="1.0" encoding="UTF-8" standalone="no"?><svg xmlns="http://www.w3.org/2000/svg" xmlns:xlink="http://www.w3.org/1999/xlink" contentScriptType="application/ecmascript" contentStyleType="text/css" height="219px" preserveAspectRatio="none" style="width:451px;height:219px;" version="1.1" viewBox="0 0 451 219" width="451px" zoomAndPan="magnify"><defs><filter height="300%" id="f15aatxw7lv011" width="300%" x="-1" y="-1"><feGaussianBlur result="blurOut" stdDeviation="2.0"/><feColorMatrix in="blurOut" result="blurOut2" type="matrix" values="0 0 0 0 0 0 0 0 0 0 0 0 0 0 0 0 0 0 .4 0"/><feOffset dx="4.0" dy="4.0" in="blurOut2" result="blurOut3"/><feBlend in="SourceGraphic" in2="blurOut3" mode="normal"/></filter></defs><g><!--cluster org.jaun.app.domain--><polygon fill="#FFFFFF" filter="url(#f15aatxw7lv011)" points="14,16,181,16,188,38.2969,191,38.2969,191,99,14,99,14,16" style="stroke: #000000; stroke-width: 2.0;"/><line style="stroke: #000000; stroke-width: 2.0;" x1="14" x2="188" y1="38.2969" y2="38.2969"/><text fill="#000000" font-family="sans-serif" font-size="14" font-weight="bold" lengthAdjust="spacingAndGlyphs" textLength="161" x="18" y="30.9951">org.jaun.app.domain</text><!--cluster org.jaun.app.infrastructure--><polygon fill="#FFFFFF" filter="url(#f15aatxw7lv011)" points="199,16,419,16,426,38.2969,429,38.2969,429,207,199,207,199,16" style="stroke: #000000; stroke-width: 2.0;"/><line style="stroke: #000000; stroke-width: 2.0;" x1="199" x2="426" y1="38.2969" y2="38.2969"/><text fill="#000000" font-family="sans-serif" font-size="14" font-weight="bold" lengthAdjust="spacingAndGlyphs" textLength="214" x="203" y="30.9951">org.jaun.app.infrastructure</text><!--class MyBusinessLogic--><rect fill="#FEFECE" filter="url(#f15aatxw7lv011)" height="48" id="MyBusinessLogic" style="stroke: #A80036; stroke-width: 1.5;" width="136" x="34" y="43"/><ellipse cx="49" cy="59" fill="#ADD1B2" rx="11" ry="11" style="stroke: #A80036; stroke-width: 1.0;"/><path d="M51.9688,64.6406 Q51.3906,64.9375 50.75,65.0859 Q50.1094,65.2344 49.4063,65.2344 Q46.9063,65.2344 45.5859,63.5859 Q44.2656,61.9375 44.2656,58.8125 Q44.2656,55.6875 45.5859,54.0313 Q46.9063,52.375 49.4063,52.375 Q50.1094,52.375 50.7578,52.5313 Q51.4063,52.6875 51.9688,52.9844 L51.9688,55.7031 Q51.3438,55.125 50.75,54.8516 Q50.1563,54.5781 49.5313,54.5781 Q48.1875,54.5781 47.5,55.6484 Q46.8125,56.7188 46.8125,58.8125 Q46.8125,60.9063 47.5,61.9766 Q48.1875,63.0469 49.5313,63.0469 Q50.1563,63.0469 50.75,62.7734 Q51.3438,62.5 51.9688,61.9219 L51.9688,64.6406 Z "/><text fill="#000000" font-family="sans-serif" font-size="12" lengthAdjust="spacingAndGlyphs" textLength="104" x="63" y="63.1543">MyBusinessLogic</text><line style="stroke: #A80036; stroke-width: 1.5;" x1="35" x2="169" y1="75" y2="75"/><line style="stroke: #A80036; stroke-width: 1.5;" x1="35" x2="169" y1="83" y2="83"/><!--class MyDao--><rect fill="#FEFECE" filter="url(#f15aatxw7lv011)" height="48" id="MyDao" style="stroke: #A80036; stroke-width: 1.5;" width="73" x="277.5" y="43"/><ellipse cx="292.5" cy="59" fill="#ADD1B2" rx="11" ry="11" style="stroke: #A80036; stroke-width: 1.0;"/><path d="M295.4688,64.6406 Q294.8906,64.9375 294.25,65.0859 Q293.6094,65.2344 292.9063,65.2344 Q290.4063,65.2344 289.0859,63.5859 Q287.7656,61.9375 287.7656,58.8125 Q287.7656,55.6875 289.0859,54.0313 Q290.4063,52.375 292.9063,52.375 Q293.6094,52.375 294.2578,52.5313 Q294.9063,52.6875 295.4688,52.9844 L295.4688,55.7031 Q294.8438,55.125 294.25,54.8516 Q293.6563,54.5781 293.0313,54.5781 Q291.6875,54.5781 291,55.6484 Q290.3125,56.7188 290.3125,58.8125 Q290.3125,60.9063 291,61.9766 Q291.6875,63.0469 293.0313,63.0469 Q293.6563,63.0469 294.25,62.7734 Q294.8438,62.5 295.4688,61.9219 L295.4688,64.6406 Z "/><text fill="#000000" font-family="sans-serif" font-size="12" lengthAdjust="spacingAndGlyphs" textLength="41" x="306.5" y="63.1543">MyDao</text><line style="stroke: #A80036; stroke-width: 1.5;" x1="278.5" x2="349.5" y1="75" y2="75"/><line style="stroke: #A80036; stroke-width: 1.5;" x1="278.5" x2="349.5" y1="83" y2="83"/><!--class MyJdbDaoImpl--><rect fill="#FEFECE" filter="url(#f15aatxw7lv011)" height="48" id="MyJdbDaoImpl" style="stroke: #A80036; stroke-width: 1.5;" width="117" x="255.5" y="151"/><ellipse cx="270.5" cy="167" fill="#ADD1B2" rx="11" ry="11" style="stroke: #A80036; stroke-width: 1.0;"/><path d="M273.4688,172.6406 Q272.8906,172.9375 272.25,173.0859 Q271.6094,173.2344 270.9063,173.2344 Q268.4063,173.2344 267.0859,171.5859 Q265.7656,169.9375 265.7656,166.8125 Q265.7656,163.6875 267.0859,162.0313 Q268.4063,160.375 270.9063,160.375 Q271.6094,160.375 272.2578,160.5313 Q272.9063,160.6875 273.4688,160.9844 L273.4688,163.7031 Q272.8438,163.125 272.25,162.8516 Q271.6563,162.5781 271.0313,162.5781 Q269.6875,162.5781 269,163.6484 Q268.3125,164.7188 268.3125,166.8125 Q268.3125,168.9063 269,169.9766 Q269.6875,171.0469 271.0313,171.0469 Q271.6563,171.0469 272.25,170.7734 Q272.8438,170.5 273.4688,169.9219 L273.4688,172.6406 Z "/><text fill="#000000" font-family="sans-serif" font-size="12" lengthAdjust="spacingAndGlyphs" textLength="85" x="284.5" y="171.1543">MyJdbDaoImpl</text><line style="stroke: #A80036; stroke-width: 1.5;" x1="256.5" x2="371.5" y1="183" y2="183"/><line style="stroke: #A80036; stroke-width: 1.5;" x1="256.5" x2="371.5" y1="191" y2="191"/><!--link MyDao to MyJdbDaoImpl--><path d="M314,111.2911 C314,124.8171 314,139.1835 314,150.8436 " fill="none" id="MyDao-MyJdbDaoImpl" style="stroke: #A80036; stroke-width: 1.0;"/><polygon fill="none" points="307.0001,111.2373,314,91.2373,321.0001,111.2373,307.0001,111.2373" style="stroke: #A80036; stroke-width: 1.0;"/><!--
@startuml


package org.jaun.app.domain {
  class MyBusinessLogic
}

package org.jaun.app.infrastructure {
  class MyDao
  class MyJdbDaoImpl
  
  MyDao <|- - MyJdbDaoImpl
}


@enduml

PlantUML version 1.2017.15(Mon Jul 03 18:45:34 CEST 2017)
(GPL source distribution)
Java Runtime: Java(TM) SE Runtime Environment
JVM: Java HotSpot(TM) 64-Bit Server VM
Java Version: 1.8.0_191-b12
Operating System: Linux
OS Version: 4.15.0-91-generic
Default Encoding: UTF-8
Language: en
Country: US
--></g></svg>