<?xml version="1.0" encoding="UTF-8" standalone="no"?><svg xmlns="http://www.w3.org/2000/svg" xmlns:xlink="http://www.w3.org/1999/xlink" contentScriptType="application/ecmascript" contentStyleType="text/css" height="641px" preserveAspectRatio="none" style="width:729px;height:641px;" version="1.1" viewBox="0 0 729 641" width="729px" zoomAndPan="magnify"><defs><filter height="300%" id="f1tey6k7mhm1oa" width="300%" x="-1" y="-1"><feGaussianBlur result="blurOut" stdDeviation="2.0"/><feColorMatrix in="blurOut" result="blurOut2" type="matrix" values="0 0 0 0 0 0 0 0 0 0 0 0 0 0 0 0 0 0 .4 0"/><feOffset dx="4.0" dy="4.0" in="blurOut2" result="blurOut3"/><feBlend in="SourceGraphic" in2="blurOut3" mode="normal"/></filter></defs><g><rect fill="#FEFECE" filter="url(#f1tey6k7mhm1oa)" height="30.2969" style="stroke: #A80036; stroke-width: 1.5;" width="84" x="490" y="212.8281"/><text fill="#000000" font-family="sans-serif" font-size="14" lengthAdjust="spacingAndGlyphs" textLength="70" x="497" y="232.8232">Account X</text><line style="stroke: #A80036; stroke-width: 1.0; stroke-dasharray: 5.0,5.0;" x1="27" x2="27" y1="86.2969" y2="554.0547"/><line style="stroke: #A80036; stroke-width: 1.0; stroke-dasharray: 5.0,5.0;" x1="129" x2="129" y1="86.2969" y2="554.0547"/><line style="stroke: #A80036; stroke-width: 1.0; stroke-dasharray: 5.0,5.0;" x1="259" x2="259" y1="86.2969" y2="554.0547"/><line style="stroke: #A80036; stroke-width: 1.0; stroke-dasharray: 5.0,5.0;" x1="433" x2="433" y1="86.2969" y2="554.0547"/><line style="stroke: #A80036; stroke-width: 1.0; stroke-dasharray: 5.0,5.0;" x1="534" x2="534" y1="245.4766" y2="554.0547"/><text fill="#000000" font-family="sans-serif" font-size="14" lengthAdjust="spacingAndGlyphs" textLength="32" x="8" y="82.9951">User</text><ellipse cx="27" cy="13" fill="#FEFECE" filter="url(#f1tey6k7mhm1oa)" rx="8" ry="8" style="stroke: #A80036; stroke-width: 2.0;"/><path d="M27,21 L27,48 M14,29 L40,29 M27,48 L14,63 M27,48 L40,63 " fill="#FEFECE" filter="url(#f1tey6k7mhm1oa)" style="stroke: #A80036; stroke-width: 2.0;"/><text fill="#000000" font-family="sans-serif" font-size="14" lengthAdjust="spacingAndGlyphs" textLength="32" x="8" y="566.0498">User</text><ellipse cx="27" cy="579.3516" fill="#FEFECE" filter="url(#f1tey6k7mhm1oa)" rx="8" ry="8" style="stroke: #A80036; stroke-width: 2.0;"/><path d="M27,587.3516 L27,614.3516 M14,595.3516 L40,595.3516 M27,614.3516 L14,629.3516 M27,614.3516 L40,629.3516 " fill="#FEFECE" filter="url(#f1tey6k7mhm1oa)" style="stroke: #A80036; stroke-width: 2.0;"/><rect fill="#FEFECE" filter="url(#f1tey6k7mhm1oa)" height="30.2969" style="stroke: #A80036; stroke-width: 1.5;" width="143" x="56" y="51"/><text fill="#000000" font-family="sans-serif" font-size="14" lengthAdjust="spacingAndGlyphs" textLength="129" x="63" y="70.9951">Application Service</text><rect fill="#FEFECE" filter="url(#f1tey6k7mhm1oa)" height="30.2969" style="stroke: #A80036; stroke-width: 1.5;" width="143" x="56" y="553.0547"/><text fill="#000000" font-family="sans-serif" font-size="14" lengthAdjust="spacingAndGlyphs" textLength="129" x="63" y="573.0498">Application Service</text><rect fill="#FEFECE" filter="url(#f1tey6k7mhm1oa)" height="30.2969" style="stroke: #A80036; stroke-width: 1.5;" width="88" x="213" y="51"/><text fill="#000000" font-family="sans-serif" font-size="14" lengthAdjust="spacingAndGlyphs" textLength="74" x="220" y="70.9951">Repository</text><rect fill="#FEFECE" filter="url(#f1tey6k7mhm1oa)" height="30.2969" style="stroke: #A80036; stroke-width: 1.5;" width="88" x="213" y="553.0547"/><text fill="#000000" font-family="sans-serif" font-size="14" lengthAdjust="spacingAndGlyphs" textLength="74" x="220" y="573.0498">Repository</text><rect fill="#FEFECE" filter="url(#f1tey6k7mhm1oa)" height="30.2969" style="stroke: #A80036; stroke-width: 1.5;" width="90" x="386" y="51"/><text fill="#000000" font-family="sans-serif" font-size="14" lengthAdjust="spacingAndGlyphs" textLength="76" x="393" y="70.9951">EventStore</text><rect fill="#FEFECE" filter="url(#f1tey6k7mhm1oa)" height="30.2969" style="stroke: #A80036; stroke-width: 1.5;" width="90" x="386" y="553.0547"/><text fill="#000000" font-family="sans-serif" font-size="14" lengthAdjust="spacingAndGlyphs" textLength="76" x="393" y="573.0498">EventStore</text><rect fill="#FEFECE" filter="url(#f1tey6k7mhm1oa)" height="30.2969" style="stroke: #A80036; stroke-width: 1.5;" width="84" x="490" y="553.0547"/><text fill="#000000" font-family="sans-serif" font-size="14" lengthAdjust="spacingAndGlyphs" textLength="70" x="497" y="573.0498">Account X</text><polygon fill="#A80036" points="117.5,113.2969,127.5,117.2969,117.5,121.2969,121.5,117.2969" style="stroke: #A80036; stroke-width: 1.0;"/><line style="stroke: #A80036; stroke-width: 1.0;" x1="27" x2="123.5" y1="117.2969" y2="117.2969"/><text fill="#000000" font-family="sans-serif" font-size="13" lengthAdjust="spacingAndGlyphs" textLength="55" x="34" y="112.3638">withdraw</text><polygon fill="#A80036" points="247,142.4297,257,146.4297,247,150.4297,251,146.4297" style="stroke: #A80036; stroke-width: 1.0;"/><line style="stroke: #A80036; stroke-width: 1.0;" x1="129.5" x2="253" y1="146.4297" y2="146.4297"/><text fill="#000000" font-family="sans-serif" font-size="13" lengthAdjust="spacingAndGlyphs" textLength="101" x="136.5" y="141.4966">getAccount("X")</text><polygon fill="#A80036" points="421,171.5625,431,175.5625,421,179.5625,425,175.5625" style="stroke: #A80036; stroke-width: 1.0;"/><line style="stroke: #A80036; stroke-width: 1.0;" x1="259" x2="427" y1="175.5625" y2="175.5625"/><text fill="#000000" font-family="sans-serif" font-size="13" lengthAdjust="spacingAndGlyphs" textLength="150" x="266" y="170.6294">load event stream for X</text><polygon fill="#A80036" points="270,200.6953,260,204.6953,270,208.6953,266,204.6953" style="stroke: #A80036; stroke-width: 1.0;"/><line style="stroke: #A80036; stroke-width: 1.0; stroke-dasharray: 2.0,2.0;" x1="264" x2="432" y1="204.6953" y2="204.6953"/><text fill="#000000" font-family="sans-serif" font-size="13" lengthAdjust="spacingAndGlyphs" textLength="142" x="276" y="199.7622">events : List&lt;Events&gt;</text><polygon fill="#A80036" points="478,229.8281,488,233.8281,478,237.8281,482,233.8281" style="stroke: #A80036; stroke-width: 1.0;"/><line style="stroke: #A80036; stroke-width: 1.0;" x1="259" x2="484" y1="233.8281" y2="233.8281"/><text fill="#000000" font-family="sans-serif" font-size="13" lengthAdjust="spacingAndGlyphs" textLength="94" x="266" y="228.895">create(events)</text><rect fill="#FEFECE" filter="url(#f1tey6k7mhm1oa)" height="30.2969" style="stroke: #A80036; stroke-width: 1.5;" width="84" x="490" y="212.8281"/><text fill="#000000" font-family="sans-serif" font-size="14" lengthAdjust="spacingAndGlyphs" textLength="70" x="497" y="232.8232">Account X</text><line style="stroke: #A80036; stroke-width: 1.0;" x1="534" x2="576" y1="279.2578" y2="279.2578"/><line style="stroke: #A80036; stroke-width: 1.0;" x1="576" x2="576" y1="279.2578" y2="292.2578"/><line style="stroke: #A80036; stroke-width: 1.0;" x1="535" x2="576" y1="292.2578" y2="292.2578"/><polygon fill="#A80036" points="545,288.2578,535,292.2578,545,296.2578,541,292.2578" style="stroke: #A80036; stroke-width: 1.0;"/><text fill="#000000" font-family="sans-serif" font-size="13" lengthAdjust="spacingAndGlyphs" textLength="87" x="541" y="274.1919">apply(events)</text><polygon fill="#A80036" points="270,302.2578,260,306.2578,270,310.2578,266,306.2578" style="stroke: #A80036; stroke-width: 1.0;"/><line style="stroke: #A80036; stroke-width: 1.0; stroke-dasharray: 2.0,2.0;" x1="264" x2="533" y1="306.2578" y2="306.2578"/><polygon fill="#A80036" points="140.5,331.2578,130.5,335.2578,140.5,339.2578,136.5,335.2578" style="stroke: #A80036; stroke-width: 1.0;"/><line style="stroke: #A80036; stroke-width: 1.0; stroke-dasharray: 2.0,2.0;" x1="134.5" x2="258" y1="335.2578" y2="335.2578"/><text fill="#000000" font-family="sans-serif" font-size="13" lengthAdjust="spacingAndGlyphs" textLength="68" x="146.5" y="330.3247">Account: X</text><polygon fill="#A80036" points="522,360.3906,532,364.3906,522,368.3906,526,364.3906" style="stroke: #A80036; stroke-width: 1.0;"/><line style="stroke: #A80036; stroke-width: 1.0;" x1="129.5" x2="528" y1="364.3906" y2="364.3906"/><text fill="#000000" font-family="sans-serif" font-size="13" lengthAdjust="spacingAndGlyphs" textLength="65" x="136.5" y="359.4575">withdraw()</text><line style="stroke: #A80036; stroke-width: 1.0;" x1="534" x2="576" y1="393.6563" y2="393.6563"/><line style="stroke: #A80036; stroke-width: 1.0;" x1="576" x2="576" y1="393.6563" y2="406.6563"/><line style="stroke: #A80036; stroke-width: 1.0;" x1="535" x2="576" y1="406.6563" y2="406.6563"/><polygon fill="#A80036" points="545,402.6563,535,406.6563,545,410.6563,541,406.6563" style="stroke: #A80036; stroke-width: 1.0;"/><text fill="#000000" font-family="sans-serif" font-size="13" lengthAdjust="spacingAndGlyphs" textLength="176" x="541" y="388.5903">emit MoneyWithdrawnEvent</text><polygon fill="#A80036" points="247,431.6563,257,435.6563,247,439.6563,251,435.6563" style="stroke: #A80036; stroke-width: 1.0;"/><line style="stroke: #A80036; stroke-width: 1.0;" x1="129.5" x2="253" y1="435.6563" y2="435.6563"/><text fill="#000000" font-family="sans-serif" font-size="13" lengthAdjust="spacingAndGlyphs" textLength="49" x="136.5" y="430.7231">save(A)</text><polygon fill="#A80036" points="522,460.7891,532,464.7891,522,468.7891,526,464.7891" style="stroke: #A80036; stroke-width: 1.0;"/><line style="stroke: #A80036; stroke-width: 1.0;" x1="259" x2="528" y1="464.7891" y2="464.7891"/><text fill="#000000" font-family="sans-serif" font-size="13" lengthAdjust="spacingAndGlyphs" textLength="179" x="266" y="459.856">getEmittedEvents() : events</text><polygon fill="#A80036" points="421,489.9219,431,493.9219,421,497.9219,425,493.9219" style="stroke: #A80036; stroke-width: 1.0;"/><line style="stroke: #A80036; stroke-width: 1.0;" x1="259" x2="427" y1="493.9219" y2="493.9219"/><text fill="#000000" font-family="sans-serif" font-size="13" lengthAdjust="spacingAndGlyphs" textLength="101" x="266" y="488.9888">append(events)</text><polygon fill="#A80036" points="270,504.0547,260,508.0547,270,512.0547,266,508.0547" style="stroke: #A80036; stroke-width: 1.0;"/><line style="stroke: #A80036; stroke-width: 1.0; stroke-dasharray: 2.0,2.0;" x1="264" x2="432" y1="508.0547" y2="508.0547"/><polygon fill="#A80036" points="140.5,518.0547,130.5,522.0547,140.5,526.0547,136.5,522.0547" style="stroke: #A80036; stroke-width: 1.0;"/><line style="stroke: #A80036; stroke-width: 1.0; stroke-dasharray: 2.0,2.0;" x1="134.5" x2="258" y1="522.0547" y2="522.0547"/><polygon fill="#A80036" points="38,532.0547,28,536.0547,38,540.0547,34,536.0547" style="stroke: #A80036; stroke-width: 1.0;"/><line style="stroke: #A80036; stroke-width: 1.0; stroke-dasharray: 2.0,2.0;" x1="32" x2="128.5" y1="536.0547" y2="536.0547"/><!--
@startuml

actor "User" as U
participant "Application Service" as AS
participant "Repository" as R
participant "EventStore" as ES

U -> AS: withdraw
AS -> R: getAccount("X")
R -> ES: load event stream for X
R <- - ES: events : List<Events>
create "Account X" as A
R ->  A: create(events)
A -> A: apply(events)
R <- - A
AS <- - R: Account: X
AS -> A: withdraw()
A -> A: emit MoneyWithdrawnEvent
AS -> R: save(A)
R -> A: getEmittedEvents() : events
R -> ES: append(events)
R <- - ES
AS <- - R
U <- - AS

@enduml

PlantUML version 1.2017.15(Mon Jul 03 18:45:34 CEST 2017)
(GPL source distribution)
Java Runtime: Java(TM) SE Runtime Environment
JVM: Java HotSpot(TM) 64-Bit Server VM
Java Version: 1.8.0_191-b12
Operating System: Linux
OS Version: 4.15.0-72-generic
Default Encoding: UTF-8
Language: en
Country: US
--></g></svg>