<?xml version="1.0" encoding="UTF-8" standalone="no"?><svg xmlns="http://www.w3.org/2000/svg" xmlns:xlink="http://www.w3.org/1999/xlink" contentScriptType="application/ecmascript" contentStyleType="text/css" height="187px" preserveAspectRatio="none" style="width:575px;height:187px;" version="1.1" viewBox="0 0 575 187" width="575px" zoomAndPan="magnify"><defs><filter height="300%" id="fbcu5yz9uw5e6" width="300%" x="-1" y="-1"><feGaussianBlur result="blurOut" stdDeviation="2.0"/><feColorMatrix in="blurOut" result="blurOut2" type="matrix" values="0 0 0 0 0 0 0 0 0 0 0 0 0 0 0 0 0 0 .4 0"/><feOffset dx="4.0" dy="4.0" in="blurOut2" result="blurOut3"/><feBlend in="SourceGraphic" in2="blurOut3" mode="normal"/></filter></defs><g><!--cluster org.jaun.app.domain--><polygon fill="#FFFFFF" filter="url(#fbcu5yz9uw5e6)" points="14,16,181,16,188,38.2969,315,38.2969,315,175,14,175,14,16" style="stroke: #000000; stroke-width: 2.0;"/><line style="stroke: #000000; stroke-width: 2.0;" x1="14" x2="188" y1="38.2969" y2="38.2969"/><text fill="#000000" font-family="sans-serif" font-size="14" font-weight="bold" lengthAdjust="spacingAndGlyphs" textLength="161" x="18" y="30.9951">org.jaun.app.domain</text><!--cluster org.jaun.app.infrastructure--><polygon fill="#FFFFFF" filter="url(#fbcu5yz9uw5e6)" points="323,108,543,108,550,130.2969,553,130.2969,553,175,323,175,323,108" style="stroke: #000000; stroke-width: 2.0;"/><line style="stroke: #000000; stroke-width: 2.0;" x1="323" x2="550" y1="130.2969" y2="130.2969"/><text fill="#000000" font-family="sans-serif" font-size="14" font-weight="bold" lengthAdjust="spacingAndGlyphs" textLength="214" x="327" y="122.9951">org.jaun.app.infrastructure</text><!--class MyBusinessLogic--><rect fill="#FEFECE" filter="url(#fbcu5yz9uw5e6)" height="32" id="MyBusinessLogic" style="stroke: #A80036; stroke-width: 1.5;" width="136" x="22" y="43"/><ellipse cx="37" cy="59" fill="#ADD1B2" rx="11" ry="11" style="stroke: #A80036; stroke-width: 1.0;"/><path d="M39.9688,64.6406 Q39.3906,64.9375 38.75,65.0859 Q38.1094,65.2344 37.4063,65.2344 Q34.9063,65.2344 33.5859,63.5859 Q32.2656,61.9375 32.2656,58.8125 Q32.2656,55.6875 33.5859,54.0313 Q34.9063,52.375 37.4063,52.375 Q38.1094,52.375 38.7578,52.5313 Q39.4063,52.6875 39.9688,52.9844 L39.9688,55.7031 Q39.3438,55.125 38.75,54.8516 Q38.1563,54.5781 37.5313,54.5781 Q36.1875,54.5781 35.5,55.6484 Q34.8125,56.7188 34.8125,58.8125 Q34.8125,60.9063 35.5,61.9766 Q36.1875,63.0469 37.5313,63.0469 Q38.1563,63.0469 38.75,62.7734 Q39.3438,62.5 39.9688,61.9219 L39.9688,64.6406 Z "/><text fill="#000000" font-family="sans-serif" font-size="12" lengthAdjust="spacingAndGlyphs" textLength="104" x="51" y="63.1543">MyBusinessLogic</text><!--class MyRepository--><rect fill="#FEFECE" filter="url(#fbcu5yz9uw5e6)" height="32" id="MyRepository" style="stroke: #A80036; stroke-width: 1.5;" width="115" x="32.5" y="135"/><ellipse cx="47.5" cy="151" fill="#B4A7E5" rx="11" ry="11" style="stroke: #A80036; stroke-width: 1.0;"/><path d="M43.4219,146.7656 L43.4219,144.6094 L50.8125,144.6094 L50.8125,146.7656 L48.3438,146.7656 L48.3438,154.8438 L50.8125,154.8438 L50.8125,157 L43.4219,157 L43.4219,154.8438 L45.8906,154.8438 L45.8906,146.7656 L43.4219,146.7656 Z "/><text fill="#000000" font-family="sans-serif" font-size="12" font-style="italic" lengthAdjust="spacingAndGlyphs" textLength="83" x="61.5" y="155.1543">MyRepository</text><!--class org.jaun.app.domain.MyRepository--><rect fill="#FEFECE" filter="url(#fbcu5yz9uw5e6)" height="32" id="org.jaun.app.domain.MyRepository" style="stroke: #A80036; stroke-width: 1.5;" width="114" x="193" y="43"/><ellipse cx="208" cy="59" fill="#ADD1B2" rx="11" ry="11" style="stroke: #A80036; stroke-width: 1.0;"/><path d="M210.9688,64.6406 Q210.3906,64.9375 209.75,65.0859 Q209.1094,65.2344 208.4063,65.2344 Q205.9063,65.2344 204.5859,63.5859 Q203.2656,61.9375 203.2656,58.8125 Q203.2656,55.6875 204.5859,54.0313 Q205.9063,52.375 208.4063,52.375 Q209.1094,52.375 209.7578,52.5313 Q210.4063,52.6875 210.9688,52.9844 L210.9688,55.7031 Q210.3438,55.125 209.75,54.8516 Q209.1563,54.5781 208.5313,54.5781 Q207.1875,54.5781 206.5,55.6484 Q205.8125,56.7188 205.8125,58.8125 Q205.8125,60.9063 206.5,61.9766 Q207.1875,63.0469 208.5313,63.0469 Q209.1563,63.0469 209.75,62.7734 Q210.3438,62.5 210.9688,61.9219 L210.9688,64.6406 Z "/><text fill="#000000" font-family="sans-serif" font-size="12" lengthAdjust="spacingAndGlyphs" textLength="82" x="222" y="63.1543">MyRepository</text><!--class MyJdbcRepositoryImpl--><rect fill="#FEFECE" filter="url(#fbcu5yz9uw5e6)" height="32" id="MyJdbcRepositoryImpl" style="stroke: #A80036; stroke-width: 1.5;" width="165" x="331.5" y="135"/><ellipse cx="346.5" cy="151" fill="#ADD1B2" rx="11" ry="11" style="stroke: #A80036; stroke-width: 1.0;"/><path d="M349.4688,156.6406 Q348.8906,156.9375 348.25,157.0859 Q347.6094,157.2344 346.9063,157.2344 Q344.4063,157.2344 343.0859,155.5859 Q341.7656,153.9375 341.7656,150.8125 Q341.7656,147.6875 343.0859,146.0313 Q344.4063,144.375 346.9063,144.375 Q347.6094,144.375 348.2578,144.5313 Q348.9063,144.6875 349.4688,144.9844 L349.4688,147.7031 Q348.8438,147.125 348.25,146.8516 Q347.6563,146.5781 347.0313,146.5781 Q345.6875,146.5781 345,147.6484 Q344.3125,148.7188 344.3125,150.8125 Q344.3125,152.9063 345,153.9766 Q345.6875,155.0469 347.0313,155.0469 Q347.6563,155.0469 348.25,154.7734 Q348.8438,154.5 349.4688,153.9219 L349.4688,156.6406 Z "/><text fill="#000000" font-family="sans-serif" font-size="12" lengthAdjust="spacingAndGlyphs" textLength="133" x="360.5" y="155.1543">MyJdbcRepositoryImpl</text><!--link MyBusinessLogic to MyRepository--><path d="M90,75.0252 C90,90.1037 90,112.7931 90,129.4514 " fill="none" id="MyBusinessLogic-MyRepository" style="stroke: #A80036; stroke-width: 1.0;"/><polygon fill="#A80036" points="90,134.8498,94,125.8498,90,129.8498,86,125.8498,90,134.8498" style="stroke: #A80036; stroke-width: 1.0;"/><!--link org.jaun.app.domain.MyRepository to MyJdbcRepositoryImpl--><path d="M296.1276,84.8764 C324.7362,100.9252 360.6005,121.0442 385.2105,134.8498 " fill="none" id="org.jaun.app.domain.MyRepository-MyJdbcRepositoryImpl" style="stroke: #A80036; stroke-width: 1.0;"/><polygon fill="none" points="292.5847,90.9153,278.5666,75.0252,299.4343,78.7052,292.5847,90.9153" style="stroke: #A80036; stroke-width: 1.0;"/><!--
@startuml

hide empty members

package org.jaun.app.domain {
  class MyBusinessLogic
  interface MyRepository
  
  MyBusinessLogic - -> MyRepository
}

package org.jaun.app.infrastructure {
  
  class MyJdbcRepositoryImpl
  
  org.jaun.app.domain.MyRepository <|- - MyJdbcRepositoryImpl
}

@enduml

PlantUML version 1.2017.15(Mon Jul 03 18:45:34 CEST 2017)
(GPL source distribution)
Java Runtime: Java(TM) SE Runtime Environment
JVM: Java HotSpot(TM) 64-Bit Server VM
Java Version: 1.8.0_191-b12
Operating System: Linux
OS Version: 4.15.0-91-generic
Default Encoding: UTF-8
Language: en
Country: US
--></g></svg>