<?xml version="1.0" encoding="UTF-8" standalone="no"?><svg xmlns="http://www.w3.org/2000/svg" xmlns:xlink="http://www.w3.org/1999/xlink" contentScriptType="application/ecmascript" contentStyleType="text/css" height="687px" preserveAspectRatio="none" style="width:671px;height:687px;" version="1.1" viewBox="0 0 671 687" width="671px" zoomAndPan="magnify"><defs><filter height="300%" id="f1wbzpdo068na6" width="300%" x="-1" y="-1"><feGaussianBlur result="blurOut" stdDeviation="2.0"/><feColorMatrix in="blurOut" result="blurOut2" type="matrix" values="0 0 0 0 0 0 0 0 0 0 0 0 0 0 0 0 0 0 .4 0"/><feOffset dx="4.0" dy="4.0" in="blurOut2" result="blurOut3"/><feBlend in="SourceGraphic" in2="blurOut3" mode="normal"/></filter></defs><g><rect fill="#FEFECE" filter="url(#f1wbzpdo068na6)" height="30.2969" style="stroke: #A80036; stroke-width: 1.5;" width="123" x="400" y="154.5625"/><text fill="#000000" font-family="sans-serif" font-size="14" lengthAdjust="spacingAndGlyphs" textLength="109" x="407" y="174.5576">i1: Account 123</text><rect fill="#FEFECE" filter="url(#f1wbzpdo068na6)" height="30.2969" style="stroke: #A80036; stroke-width: 1.5;" width="123" x="537" y="344.3906"/><text fill="#000000" font-family="sans-serif" font-size="14" lengthAdjust="spacingAndGlyphs" textLength="109" x="544" y="364.3857">i2: Account 123</text><line style="stroke: #A80036; stroke-width: 1.0; stroke-dasharray: 5.0,5.0;" x1="33" x2="33" y1="86.2969" y2="600.2188"/><line style="stroke: #A80036; stroke-width: 1.0; stroke-dasharray: 5.0,5.0;" x1="95" x2="95" y1="86.2969" y2="600.2188"/><line style="stroke: #A80036; stroke-width: 1.0; stroke-dasharray: 5.0,5.0;" x1="184" x2="184" y1="86.2969" y2="600.2188"/><line style="stroke: #A80036; stroke-width: 1.0; stroke-dasharray: 5.0,5.0;" x1="325" x2="325" y1="86.2969" y2="600.2188"/><line style="stroke: #A80036; stroke-width: 1.0; stroke-dasharray: 5.0,5.0;" x1="463" x2="463" y1="187.2109" y2="600.2188"/><line style="stroke: #A80036; stroke-width: 1.0; stroke-dasharray: 5.0,5.0;" x1="600" x2="600" y1="377.0391" y2="600.2188"/><text fill="#000000" font-family="sans-serif" font-size="14" lengthAdjust="spacingAndGlyphs" textLength="45" x="8" y="82.9951">User A</text><ellipse cx="33.5" cy="13" fill="#FEFECE" filter="url(#f1wbzpdo068na6)" rx="8" ry="8" style="stroke: #A80036; stroke-width: 2.0;"/><path d="M33.5,21 L33.5,48 M20.5,29 L46.5,29 M33.5,48 L20.5,63 M33.5,48 L46.5,63 " fill="#FEFECE" filter="url(#f1wbzpdo068na6)" style="stroke: #A80036; stroke-width: 2.0;"/><text fill="#000000" font-family="sans-serif" font-size="14" lengthAdjust="spacingAndGlyphs" textLength="45" x="8" y="612.2139">User A</text><ellipse cx="33.5" cy="625.5156" fill="#FEFECE" filter="url(#f1wbzpdo068na6)" rx="8" ry="8" style="stroke: #A80036; stroke-width: 2.0;"/><path d="M33.5,633.5156 L33.5,660.5156 M20.5,641.5156 L46.5,641.5156 M33.5,660.5156 L20.5,675.5156 M33.5,660.5156 L46.5,675.5156 " fill="#FEFECE" filter="url(#f1wbzpdo068na6)" style="stroke: #A80036; stroke-width: 2.0;"/><text fill="#000000" font-family="sans-serif" font-size="14" lengthAdjust="spacingAndGlyphs" textLength="46" x="69" y="82.9951">User B</text><ellipse cx="95" cy="13" fill="#FEFECE" filter="url(#f1wbzpdo068na6)" rx="8" ry="8" style="stroke: #A80036; stroke-width: 2.0;"/><path d="M95,21 L95,48 M82,29 L108,29 M95,48 L82,63 M95,48 L108,63 " fill="#FEFECE" filter="url(#f1wbzpdo068na6)" style="stroke: #A80036; stroke-width: 2.0;"/><text fill="#000000" font-family="sans-serif" font-size="14" lengthAdjust="spacingAndGlyphs" textLength="46" x="69" y="612.2139">User B</text><ellipse cx="95" cy="625.5156" fill="#FEFECE" filter="url(#f1wbzpdo068na6)" rx="8" ry="8" style="stroke: #A80036; stroke-width: 2.0;"/><path d="M95,633.5156 L95,660.5156 M82,641.5156 L108,641.5156 M95,660.5156 L82,675.5156 M95,660.5156 L108,675.5156 " fill="#FEFECE" filter="url(#f1wbzpdo068na6)" style="stroke: #A80036; stroke-width: 2.0;"/><rect fill="#FEFECE" filter="url(#f1wbzpdo068na6)" height="30.2969" style="stroke: #A80036; stroke-width: 1.5;" width="64" x="150" y="51"/><text fill="#000000" font-family="sans-serif" font-size="14" lengthAdjust="spacingAndGlyphs" textLength="50" x="157" y="70.9951">Service</text><rect fill="#FEFECE" filter="url(#f1wbzpdo068na6)" height="30.2969" style="stroke: #A80036; stroke-width: 1.5;" width="64" x="150" y="599.2188"/><text fill="#000000" font-family="sans-serif" font-size="14" lengthAdjust="spacingAndGlyphs" textLength="50" x="157" y="619.2139">Service</text><rect fill="#FEFECE" filter="url(#f1wbzpdo068na6)" height="30.2969" style="stroke: #A80036; stroke-width: 1.5;" width="88" x="279" y="51"/><text fill="#000000" font-family="sans-serif" font-size="14" lengthAdjust="spacingAndGlyphs" textLength="74" x="286" y="70.9951">Repository</text><rect fill="#FEFECE" filter="url(#f1wbzpdo068na6)" height="30.2969" style="stroke: #A80036; stroke-width: 1.5;" width="88" x="279" y="599.2188"/><text fill="#000000" font-family="sans-serif" font-size="14" lengthAdjust="spacingAndGlyphs" textLength="74" x="286" y="619.2139">Repository</text><rect fill="#FEFECE" filter="url(#f1wbzpdo068na6)" height="30.2969" style="stroke: #A80036; stroke-width: 1.5;" width="123" x="400" y="599.2188"/><text fill="#000000" font-family="sans-serif" font-size="14" lengthAdjust="spacingAndGlyphs" textLength="109" x="407" y="619.2139">i1: Account 123</text><rect fill="#FEFECE" filter="url(#f1wbzpdo068na6)" height="30.2969" style="stroke: #A80036; stroke-width: 1.5;" width="123" x="537" y="599.2188"/><text fill="#000000" font-family="sans-serif" font-size="14" lengthAdjust="spacingAndGlyphs" textLength="109" x="544" y="619.2139">i2: Account 123</text><polygon fill="#A80036" points="172,113.2969,182,117.2969,172,121.2969,176,117.2969" style="stroke: #A80036; stroke-width: 1.0;"/><line style="stroke: #A80036; stroke-width: 1.0;" x1="33.5" x2="178" y1="117.2969" y2="117.2969"/><text fill="#000000" font-family="sans-serif" font-size="13" lengthAdjust="spacingAndGlyphs" textLength="65" x="40.5" y="112.3638">withdraw()</text><polygon fill="#A80036" points="313,142.4297,323,146.4297,313,150.4297,317,146.4297" style="stroke: #A80036; stroke-width: 1.0;"/><line style="stroke: #A80036; stroke-width: 1.0;" x1="184" x2="319" y1="146.4297" y2="146.4297"/><text fill="#000000" font-family="sans-serif" font-size="13" lengthAdjust="spacingAndGlyphs" textLength="117" x="191" y="141.4966">getAccount("123")</text><polygon fill="#A80036" points="388,171.5625,398,175.5625,388,179.5625,392,175.5625" style="stroke: #A80036; stroke-width: 1.0;"/><line style="stroke: #A80036; stroke-width: 1.0;" x1="325" x2="394" y1="175.5625" y2="175.5625"/><text fill="#000000" font-family="sans-serif" font-size="13" lengthAdjust="spacingAndGlyphs" textLength="51" x="332" y="170.6294">create()</text><rect fill="#FEFECE" filter="url(#f1wbzpdo068na6)" height="30.2969" style="stroke: #A80036; stroke-width: 1.5;" width="123" x="400" y="154.5625"/><text fill="#000000" font-family="sans-serif" font-size="14" lengthAdjust="spacingAndGlyphs" textLength="109" x="407" y="174.5576">i1: Account 123</text><polygon fill="#A80036" points="336,201.8594,326,205.8594,336,209.8594,332,205.8594" style="stroke: #A80036; stroke-width: 1.0;"/><line style="stroke: #A80036; stroke-width: 1.0; stroke-dasharray: 2.0,2.0;" x1="330" x2="462.5" y1="205.8594" y2="205.8594"/><polygon fill="#A80036" points="195,230.8594,185,234.8594,195,238.8594,191,234.8594" style="stroke: #A80036; stroke-width: 1.0;"/><line style="stroke: #A80036; stroke-width: 1.0; stroke-dasharray: 2.0,2.0;" x1="189" x2="324" y1="234.8594" y2="234.8594"/><text fill="#000000" font-family="sans-serif" font-size="13" lengthAdjust="spacingAndGlyphs" textLength="71" x="201" y="229.9263">i1: Account</text><polygon fill="#A80036" points="451.5,259.9922,461.5,263.9922,451.5,267.9922,455.5,263.9922" style="stroke: #A80036; stroke-width: 1.0;"/><line style="stroke: #A80036; stroke-width: 1.0;" x1="184" x2="457.5" y1="263.9922" y2="263.9922"/><text fill="#000000" font-family="sans-serif" font-size="13" lengthAdjust="spacingAndGlyphs" textLength="55" x="191" y="259.0591">withdraw</text><polygon fill="#A80036" points="195,274.125,185,278.125,195,282.125,191,278.125" style="stroke: #A80036; stroke-width: 1.0;"/><line style="stroke: #A80036; stroke-width: 1.0; stroke-dasharray: 2.0,2.0;" x1="189" x2="462.5" y1="278.125" y2="278.125"/><polygon fill="#A80036" points="172,303.125,182,307.125,172,311.125,176,307.125" style="stroke: #A80036; stroke-width: 1.0;"/><line style="stroke: #A80036; stroke-width: 1.0;" x1="95" x2="178" y1="307.125" y2="307.125"/><text fill="#000000" font-family="sans-serif" font-size="13" lengthAdjust="spacingAndGlyphs" textLength="65" x="102" y="302.1919">withdraw()</text><polygon fill="#A80036" points="313,332.2578,323,336.2578,313,340.2578,317,336.2578" style="stroke: #A80036; stroke-width: 1.0;"/><line style="stroke: #A80036; stroke-width: 1.0;" x1="184" x2="319" y1="336.2578" y2="336.2578"/><text fill="#000000" font-family="sans-serif" font-size="13" lengthAdjust="spacingAndGlyphs" textLength="117" x="191" y="331.3247">getAccount("123")</text><polygon fill="#A80036" points="525,361.3906,535,365.3906,525,369.3906,529,365.3906" style="stroke: #A80036; stroke-width: 1.0;"/><line style="stroke: #A80036; stroke-width: 1.0;" x1="325" x2="531" y1="365.3906" y2="365.3906"/><text fill="#000000" font-family="sans-serif" font-size="13" lengthAdjust="spacingAndGlyphs" textLength="51" x="332" y="360.4575">create()</text><rect fill="#FEFECE" filter="url(#f1wbzpdo068na6)" height="30.2969" style="stroke: #A80036; stroke-width: 1.5;" width="123" x="537" y="344.3906"/><text fill="#000000" font-family="sans-serif" font-size="14" lengthAdjust="spacingAndGlyphs" textLength="109" x="544" y="364.3857">i2: Account 123</text><polygon fill="#A80036" points="336,391.6875,326,395.6875,336,399.6875,332,395.6875" style="stroke: #A80036; stroke-width: 1.0;"/><line style="stroke: #A80036; stroke-width: 1.0; stroke-dasharray: 2.0,2.0;" x1="330" x2="599.5" y1="395.6875" y2="395.6875"/><polygon fill="#A80036" points="195,420.6875,185,424.6875,195,428.6875,191,424.6875" style="stroke: #A80036; stroke-width: 1.0;"/><line style="stroke: #A80036; stroke-width: 1.0; stroke-dasharray: 2.0,2.0;" x1="189" x2="324" y1="424.6875" y2="424.6875"/><text fill="#000000" font-family="sans-serif" font-size="13" lengthAdjust="spacingAndGlyphs" textLength="71" x="201" y="419.7544">i2: Account</text><polygon fill="#A80036" points="588.5,449.8203,598.5,453.8203,588.5,457.8203,592.5,453.8203" style="stroke: #A80036; stroke-width: 1.0;"/><line style="stroke: #A80036; stroke-width: 1.0;" x1="184" x2="594.5" y1="453.8203" y2="453.8203"/><text fill="#000000" font-family="sans-serif" font-size="13" lengthAdjust="spacingAndGlyphs" textLength="55" x="191" y="448.8872">withdraw</text><polygon fill="#A80036" points="195,463.9531,185,467.9531,195,471.9531,191,467.9531" style="stroke: #A80036; stroke-width: 1.0;"/><line style="stroke: #A80036; stroke-width: 1.0; stroke-dasharray: 2.0,2.0;" x1="189" x2="599.5" y1="467.9531" y2="467.9531"/><polygon fill="#A80036" points="313,492.9531,323,496.9531,313,500.9531,317,496.9531" style="stroke: #A80036; stroke-width: 1.0;"/><line style="stroke: #A80036; stroke-width: 1.0;" x1="184" x2="319" y1="496.9531" y2="496.9531"/><text fill="#000000" font-family="sans-serif" font-size="13" lengthAdjust="spacingAndGlyphs" textLength="54" x="191" y="492.02">store(i2)</text><polygon fill="#A80036" points="195,507.0859,185,511.0859,195,515.0859,191,511.0859" style="stroke: #A80036; stroke-width: 1.0;"/><line style="stroke: #A80036; stroke-width: 1.0; stroke-dasharray: 2.0,2.0;" x1="189" x2="324" y1="511.0859" y2="511.0859"/><polygon fill="#A80036" points="106,521.0859,96,525.0859,106,529.0859,102,525.0859" style="stroke: #A80036; stroke-width: 1.0;"/><line style="stroke: #A80036; stroke-width: 1.0; stroke-dasharray: 2.0,2.0;" x1="100" x2="183" y1="525.0859" y2="525.0859"/><polygon fill="#A80036" points="313,550.0859,323,554.0859,313,558.0859,317,554.0859" style="stroke: #A80036; stroke-width: 1.0;"/><line style="stroke: #A80036; stroke-width: 1.0;" x1="184" x2="319" y1="554.0859" y2="554.0859"/><text fill="#000000" font-family="sans-serif" font-size="13" lengthAdjust="spacingAndGlyphs" textLength="54" x="191" y="549.1528">store(i1)</text><polygon fill="#A80036" points="195,564.2188,185,568.2188,195,572.2188,191,568.2188" style="stroke: #A80036; stroke-width: 1.0;"/><line style="stroke: #A80036; stroke-width: 1.0; stroke-dasharray: 2.0,2.0;" x1="189" x2="324" y1="568.2188" y2="568.2188"/><polygon fill="#A80036" points="44.5,578.2188,34.5,582.2188,44.5,586.2188,40.5,582.2188" style="stroke: #A80036; stroke-width: 1.0;"/><line style="stroke: #A80036; stroke-width: 1.0; stroke-dasharray: 2.0,2.0;" x1="38.5" x2="183" y1="582.2188" y2="582.2188"/><!--
@startuml

actor "User A" as U1
actor "User B" as U2
participant "Service" as S
participant "Repository" as R

U1 -> S: withdraw()
S -> R: getAccount("123")
create   "i1: Account 123" as A1
R -> A1: create()
return
S <- - R: i1: Account
S -> A1: withdraw
return

U2 -> S: withdraw()
S -> R: getAccount("123")
create   "i2: Account 123" as A2
R -> A2: create()
return
S <- - R: i2: Account
S -> A2: withdraw
S <- - A2:

S -> R: store(i2)
return
U2 <- - S:

S -> R: store(i1)
return
U1 <- - S:

@enduml

PlantUML version 1.2017.15(Mon Jul 03 18:45:34 CEST 2017)
(GPL source distribution)
Java Runtime: Java(TM) SE Runtime Environment
JVM: Java HotSpot(TM) 64-Bit Server VM
Java Version: 1.8.0_191-b12
Operating System: Linux
OS Version: 4.15.0-72-generic
Default Encoding: UTF-8
Language: en
Country: US
--></g></svg>