<?xml version="1.0" encoding="UTF-8" standalone="no"?><svg xmlns="http://www.w3.org/2000/svg" xmlns:xlink="http://www.w3.org/1999/xlink" contentScriptType="application/ecmascript" contentStyleType="text/css" height="626px" preserveAspectRatio="none" style="width:704px;height:626px;" version="1.1" viewBox="0 0 704 626" width="704px" zoomAndPan="magnify"><defs><filter height="300%" id="f161bppc0l008q" width="300%" x="-1" y="-1"><feGaussianBlur result="blurOut" stdDeviation="2.0"/><feColorMatrix in="blurOut" result="blurOut2" type="matrix" values="0 0 0 0 0 0 0 0 0 0 0 0 0 0 0 0 0 0 .4 0"/><feOffset dx="4.0" dy="4.0" in="blurOut2" result="blurOut3"/><feBlend in="SourceGraphic" in2="blurOut3" mode="normal"/></filter></defs><g><line style="stroke: #A80036; stroke-width: 1.0; stroke-dasharray: 5.0,5.0;" x1="27" x2="27" y1="86.2969" y2="538.8906"/><line style="stroke: #A80036; stroke-width: 1.0; stroke-dasharray: 5.0,5.0;" x1="129" x2="129" y1="86.2969" y2="538.8906"/><line style="stroke: #A80036; stroke-width: 1.0; stroke-dasharray: 5.0,5.0;" x1="259" x2="259" y1="86.2969" y2="538.8906"/><line style="stroke: #A80036; stroke-width: 1.0; stroke-dasharray: 5.0,5.0;" x1="433" x2="433" y1="86.2969" y2="538.8906"/><line style="stroke: #A80036; stroke-width: 1.0; stroke-dasharray: 5.0,5.0;" x1="509" x2="509" y1="86.2969" y2="538.8906"/><text fill="#000000" font-family="sans-serif" font-size="14" lengthAdjust="spacingAndGlyphs" textLength="32" x="8" y="82.9951">User</text><ellipse cx="27" cy="13" fill="#FEFECE" filter="url(#f161bppc0l008q)" rx="8" ry="8" style="stroke: #A80036; stroke-width: 2.0;"/><path d="M27,21 L27,48 M14,29 L40,29 M27,48 L14,63 M27,48 L40,63 " fill="#FEFECE" filter="url(#f161bppc0l008q)" style="stroke: #A80036; stroke-width: 2.0;"/><text fill="#000000" font-family="sans-serif" font-size="14" lengthAdjust="spacingAndGlyphs" textLength="32" x="8" y="550.8857">User</text><ellipse cx="27" cy="564.1875" fill="#FEFECE" filter="url(#f161bppc0l008q)" rx="8" ry="8" style="stroke: #A80036; stroke-width: 2.0;"/><path d="M27,572.1875 L27,599.1875 M14,580.1875 L40,580.1875 M27,599.1875 L14,614.1875 M27,599.1875 L40,614.1875 " fill="#FEFECE" filter="url(#f161bppc0l008q)" style="stroke: #A80036; stroke-width: 2.0;"/><rect fill="#FEFECE" filter="url(#f161bppc0l008q)" height="30.2969" style="stroke: #A80036; stroke-width: 1.5;" width="143" x="56" y="51"/><text fill="#000000" font-family="sans-serif" font-size="14" lengthAdjust="spacingAndGlyphs" textLength="129" x="63" y="70.9951">Application Service</text><rect fill="#FEFECE" filter="url(#f161bppc0l008q)" height="30.2969" style="stroke: #A80036; stroke-width: 1.5;" width="143" x="56" y="537.8906"/><text fill="#000000" font-family="sans-serif" font-size="14" lengthAdjust="spacingAndGlyphs" textLength="129" x="63" y="557.8857">Application Service</text><rect fill="#FEFECE" filter="url(#f161bppc0l008q)" height="30.2969" style="stroke: #A80036; stroke-width: 1.5;" width="88" x="213" y="51"/><text fill="#000000" font-family="sans-serif" font-size="14" lengthAdjust="spacingAndGlyphs" textLength="74" x="220" y="70.9951">Repository</text><rect fill="#FEFECE" filter="url(#f161bppc0l008q)" height="30.2969" style="stroke: #A80036; stroke-width: 1.5;" width="88" x="213" y="537.8906"/><text fill="#000000" font-family="sans-serif" font-size="14" lengthAdjust="spacingAndGlyphs" textLength="74" x="220" y="557.8857">Repository</text><rect fill="#FEFECE" filter="url(#f161bppc0l008q)" height="30.2969" style="stroke: #A80036; stroke-width: 1.5;" width="102" x="380" y="51"/><text fill="#000000" font-family="sans-serif" font-size="14" lengthAdjust="spacingAndGlyphs" textLength="88" x="387" y="70.9951">Even   tStore</text><rect fill="#FEFECE" filter="url(#f161bppc0l008q)" height="30.2969" style="stroke: #A80036; stroke-width: 1.5;" width="102" x="380" y="537.8906"/><text fill="#000000" font-family="sans-serif" font-size="14" lengthAdjust="spacingAndGlyphs" textLength="88" x="387" y="557.8857">Even   tStore</text><rect fill="#FEFECE" filter="url(#f161bppc0l008q)" height="30.2969" style="stroke: #A80036; stroke-width: 1.5;" width="23" x="496" y="51"/><text fill="#000000" font-family="sans-serif" font-size="14" lengthAdjust="spacingAndGlyphs" textLength="9" x="503" y="70.9951">A</text><rect fill="#FEFECE" filter="url(#f161bppc0l008q)" height="30.2969" style="stroke: #A80036; stroke-width: 1.5;" width="23" x="496" y="537.8906"/><text fill="#000000" font-family="sans-serif" font-size="14" lengthAdjust="spacingAndGlyphs" textLength="9" x="503" y="557.8857">A</text><polygon fill="#A80036" points="117.5,113.2969,127.5,117.2969,117.5,121.2969,121.5,117.2969" style="stroke: #A80036; stroke-width: 1.0;"/><line style="stroke: #A80036; stroke-width: 1.0;" x1="27" x2="123.5" y1="117.2969" y2="117.2969"/><text fill="#000000" font-family="sans-serif" font-size="13" lengthAdjust="spacingAndGlyphs" textLength="55" x="34" y="112.3638">withdraw</text><polygon fill="#A80036" points="247,142.4297,257,146.4297,247,150.4297,251,146.4297" style="stroke: #A80036; stroke-width: 1.0;"/><line style="stroke: #A80036; stroke-width: 1.0;" x1="129.5" x2="253" y1="146.4297" y2="146.4297"/><text fill="#000000" font-family="sans-serif" font-size="13" lengthAdjust="spacingAndGlyphs" textLength="101" x="136.5" y="141.4966">getAccount("X")</text><polygon fill="#A80036" points="421,171.5625,431,175.5625,421,179.5625,425,175.5625" style="stroke: #A80036; stroke-width: 1.0;"/><line style="stroke: #A80036; stroke-width: 1.0;" x1="259" x2="427" y1="175.5625" y2="175.5625"/><text fill="#000000" font-family="sans-serif" font-size="13" lengthAdjust="spacingAndGlyphs" textLength="150" x="266" y="170.6294">load event stream for X</text><polygon fill="#A80036" points="270,200.6953,260,204.6953,270,208.6953,266,204.6953" style="stroke: #A80036; stroke-width: 1.0;"/><line style="stroke: #A80036; stroke-width: 1.0; stroke-dasharray: 2.0,2.0;" x1="264" x2="432" y1="204.6953" y2="204.6953"/><text fill="#000000" font-family="sans-serif" font-size="13" lengthAdjust="spacingAndGlyphs" textLength="142" x="276" y="199.7622">events : List&lt;Events&gt;</text><polygon fill="#A80036" points="497.5,229.8281,507.5,233.8281,497.5,237.8281,501.5,233.8281" style="stroke: #A80036; stroke-width: 1.0;"/><line style="stroke: #A80036; stroke-width: 1.0;" x1="259" x2="503.5" y1="233.8281" y2="233.8281"/><text fill="#000000" font-family="sans-serif" font-size="13" lengthAdjust="spacingAndGlyphs" textLength="41" x="266" y="228.895">create</text><polygon fill="#A80036" points="270,243.9609,260,247.9609,270,251.9609,266,247.9609" style="stroke: #A80036; stroke-width: 1.0;"/><line style="stroke: #A80036; stroke-width: 1.0; stroke-dasharray: 2.0,2.0;" x1="264" x2="508.5" y1="247.9609" y2="247.9609"/><polygon fill="#A80036" points="497.5,272.9609,507.5,276.9609,497.5,280.9609,501.5,276.9609" style="stroke: #A80036; stroke-width: 1.0;"/><line style="stroke: #A80036; stroke-width: 1.0;" x1="259" x2="503.5" y1="276.9609" y2="276.9609"/><text fill="#000000" font-family="sans-serif" font-size="13" lengthAdjust="spacingAndGlyphs" textLength="215" x="266" y="272.0278">apply events from EventStream X</text><polygon fill="#A80036" points="270,287.0938,260,291.0938,270,295.0938,266,291.0938" style="stroke: #A80036; stroke-width: 1.0;"/><line style="stroke: #A80036; stroke-width: 1.0; stroke-dasharray: 2.0,2.0;" x1="264" x2="508.5" y1="291.0938" y2="291.0938"/><polygon fill="#A80036" points="140.5,316.0938,130.5,320.0938,140.5,324.0938,136.5,320.0938" style="stroke: #A80036; stroke-width: 1.0;"/><line style="stroke: #A80036; stroke-width: 1.0; stroke-dasharray: 2.0,2.0;" x1="134.5" x2="258" y1="320.0938" y2="320.0938"/><text fill="#000000" font-family="sans-serif" font-size="13" lengthAdjust="spacingAndGlyphs" textLength="68" x="146.5" y="315.1606">Account: X</text><polygon fill="#A80036" points="497.5,345.2266,507.5,349.2266,497.5,353.2266,501.5,349.2266" style="stroke: #A80036; stroke-width: 1.0;"/><line style="stroke: #A80036; stroke-width: 1.0;" x1="129.5" x2="503.5" y1="349.2266" y2="349.2266"/><text fill="#000000" font-family="sans-serif" font-size="13" lengthAdjust="spacingAndGlyphs" textLength="65" x="136.5" y="344.2935">withdraw()</text><line style="stroke: #A80036; stroke-width: 1.0;" x1="509.5" x2="551.5" y1="378.4922" y2="378.4922"/><line style="stroke: #A80036; stroke-width: 1.0;" x1="551.5" x2="551.5" y1="378.4922" y2="391.4922"/><line style="stroke: #A80036; stroke-width: 1.0;" x1="510.5" x2="551.5" y1="391.4922" y2="391.4922"/><polygon fill="#A80036" points="520.5,387.4922,510.5,391.4922,520.5,395.4922,516.5,391.4922" style="stroke: #A80036; stroke-width: 1.0;"/><text fill="#000000" font-family="sans-serif" font-size="13" lengthAdjust="spacingAndGlyphs" textLength="176" x="516.5" y="373.4263">emit MoneyWithdrawnEvent</text><polygon fill="#A80036" points="247,416.4922,257,420.4922,247,424.4922,251,420.4922" style="stroke: #A80036; stroke-width: 1.0;"/><line style="stroke: #A80036; stroke-width: 1.0;" x1="129.5" x2="253" y1="420.4922" y2="420.4922"/><text fill="#000000" font-family="sans-serif" font-size="13" lengthAdjust="spacingAndGlyphs" textLength="49" x="136.5" y="415.5591">save(A)</text><polygon fill="#A80036" points="497.5,445.625,507.5,449.625,497.5,453.625,501.5,449.625" style="stroke: #A80036; stroke-width: 1.0;"/><line style="stroke: #A80036; stroke-width: 1.0;" x1="259" x2="503.5" y1="449.625" y2="449.625"/><text fill="#000000" font-family="sans-serif" font-size="13" lengthAdjust="spacingAndGlyphs" textLength="179" x="266" y="444.6919">getEmittedEvents() : events</text><polygon fill="#A80036" points="421,474.7578,431,478.7578,421,482.7578,425,478.7578" style="stroke: #A80036; stroke-width: 1.0;"/><line style="stroke: #A80036; stroke-width: 1.0;" x1="259" x2="427" y1="478.7578" y2="478.7578"/><text fill="#000000" font-family="sans-serif" font-size="13" lengthAdjust="spacingAndGlyphs" textLength="101" x="266" y="473.8247">append(events)</text><polygon fill="#A80036" points="270,488.8906,260,492.8906,270,496.8906,266,492.8906" style="stroke: #A80036; stroke-width: 1.0;"/><line style="stroke: #A80036; stroke-width: 1.0; stroke-dasharray: 2.0,2.0;" x1="264" x2="432" y1="492.8906" y2="492.8906"/><polygon fill="#A80036" points="140.5,502.8906,130.5,506.8906,140.5,510.8906,136.5,506.8906" style="stroke: #A80036; stroke-width: 1.0;"/><line style="stroke: #A80036; stroke-width: 1.0; stroke-dasharray: 2.0,2.0;" x1="134.5" x2="258" y1="506.8906" y2="506.8906"/><polygon fill="#A80036" points="38,516.8906,28,520.8906,38,524.8906,34,520.8906" style="stroke: #A80036; stroke-width: 1.0;"/><line style="stroke: #A80036; stroke-width: 1.0; stroke-dasharray: 2.0,2.0;" x1="32" x2="128.5" y1="520.8906" y2="520.8906"/><!--
@startuml

actor "User" as U
participant "Application Service" as AS
participant "Repository" as R
participant "Even   tStore" as ES

U -> AS: withdraw
AS -> R: getAccount("X")
R -> ES: load event stream for X
R <- - ES: events : List<Events>
R ->  A: create
create "Account X" as A
R <- - A
R -> A: apply events from EventStream X
R <- - A
AS <- - R: Account: X
AS -> A: withdraw()
A -> A: emit MoneyWithdrawnEvent
AS -> R: save(A)
R -> A: getEmittedEvents() : events
R -> ES: append(events)
R <- - ES
AS <- - R
U <- - AS

@enduml

PlantUML version 1.2017.15(Mon Jul 03 18:45:34 CEST 2017)
(GPL source distribution)
Java Runtime: Java(TM) SE Runtime Environment
JVM: Java HotSpot(TM) 64-Bit Server VM
Java Version: 1.8.0_191-b12
Operating System: Linux
OS Version: 4.15.0-72-generic
Default Encoding: UTF-8
Language: en
Country: US
--></g></svg>