<?xml version="1.0" encoding="UTF-8" standalone="no"?><svg xmlns="http://www.w3.org/2000/svg" xmlns:xlink="http://www.w3.org/1999/xlink" contentScriptType="application/ecmascript" contentStyleType="text/css" height="175px" preserveAspectRatio="none" style="width:454px;height:175px;" version="1.1" viewBox="0 0 454 175" width="454px" zoomAndPan="magnify"><defs><filter height="300%" id="f8mippb6kwvun" width="300%" x="-1" y="-1"><feGaussianBlur result="blurOut" stdDeviation="2.0"/><feColorMatrix in="blurOut" result="blurOut2" type="matrix" values="0 0 0 0 0 0 0 0 0 0 0 0 0 0 0 0 0 0 .4 0"/><feOffset dx="4.0" dy="4.0" in="blurOut2" result="blurOut3"/><feBlend in="SourceGraphic" in2="blurOut3" mode="normal"/></filter></defs><g><!--class Entity01--><rect fill="#FEFECE" filter="url(#f8mippb6kwvun)" height="48" id="Entity01" style="stroke: #A80036; stroke-width: 1.5;" width="83" x="6" y="8"/><ellipse cx="21" cy="24" fill="#ADD1B2" rx="11" ry="11" style="stroke: #A80036; stroke-width: 1.0;"/><path d="M23.9688,29.6406 Q23.3906,29.9375 22.75,30.0859 Q22.1094,30.2344 21.4063,30.2344 Q18.9063,30.2344 17.5859,28.5859 Q16.2656,26.9375 16.2656,23.8125 Q16.2656,20.6875 17.5859,19.0313 Q18.9063,17.375 21.4063,17.375 Q22.1094,17.375 22.7578,17.5313 Q23.4063,17.6875 23.9688,17.9844 L23.9688,20.7031 Q23.3438,20.125 22.75,19.8516 Q22.1563,19.5781 21.5313,19.5781 Q20.1875,19.5781 19.5,20.6484 Q18.8125,21.7188 18.8125,23.8125 Q18.8125,25.9063 19.5,26.9766 Q20.1875,28.0469 21.5313,28.0469 Q22.1563,28.0469 22.75,27.7734 Q23.3438,27.5 23.9688,26.9219 L23.9688,29.6406 Z "/><text fill="#000000" font-family="sans-serif" font-size="12" lengthAdjust="spacingAndGlyphs" textLength="51" x="35" y="28.1543">Entity01</text><line style="stroke: #A80036; stroke-width: 1.5;" x1="7" x2="88" y1="40" y2="40"/><line style="stroke: #A80036; stroke-width: 1.5;" x1="7" x2="88" y1="48" y2="48"/><!--class Entity02--><rect fill="#FEFECE" filter="url(#f8mippb6kwvun)" height="48" id="Entity02" style="stroke: #A80036; stroke-width: 1.5;" width="83" x="6" y="116"/><ellipse cx="21" cy="132" fill="#ADD1B2" rx="11" ry="11" style="stroke: #A80036; stroke-width: 1.0;"/><path d="M23.9688,137.6406 Q23.3906,137.9375 22.75,138.0859 Q22.1094,138.2344 21.4063,138.2344 Q18.9063,138.2344 17.5859,136.5859 Q16.2656,134.9375 16.2656,131.8125 Q16.2656,128.6875 17.5859,127.0313 Q18.9063,125.375 21.4063,125.375 Q22.1094,125.375 22.7578,125.5313 Q23.4063,125.6875 23.9688,125.9844 L23.9688,128.7031 Q23.3438,128.125 22.75,127.8516 Q22.1563,127.5781 21.5313,127.5781 Q20.1875,127.5781 19.5,128.6484 Q18.8125,129.7188 18.8125,131.8125 Q18.8125,133.9063 19.5,134.9766 Q20.1875,136.0469 21.5313,136.0469 Q22.1563,136.0469 22.75,135.7734 Q23.3438,135.5 23.9688,134.9219 L23.9688,137.6406 Z "/><text fill="#000000" font-family="sans-serif" font-size="12" lengthAdjust="spacingAndGlyphs" textLength="51" x="35" y="136.1543">Entity02</text><line style="stroke: #A80036; stroke-width: 1.5;" x1="7" x2="88" y1="148" y2="148"/><line style="stroke: #A80036; stroke-width: 1.5;" x1="7" x2="88" y1="156" y2="156"/><!--class Entity03--><rect fill="#FEFECE" filter="url(#f8mippb6kwvun)" height="48" id="Entity03" style="stroke: #A80036; stroke-width: 1.5;" width="83" x="124" y="8"/><ellipse cx="139" cy="24" fill="#ADD1B2" rx="11" ry="11" style="stroke: #A80036; stroke-width: 1.0;"/><path d="M141.9688,29.6406 Q141.3906,29.9375 140.75,30.0859 Q140.1094,30.2344 139.4063,30.2344 Q136.9063,30.2344 135.5859,28.5859 Q134.2656,26.9375 134.2656,23.8125 Q134.2656,20.6875 135.5859,19.0313 Q136.9063,17.375 139.4063,17.375 Q140.1094,17.375 140.7578,17.5313 Q141.4063,17.6875 141.9688,17.9844 L141.9688,20.7031 Q141.3438,20.125 140.75,19.8516 Q140.1563,19.5781 139.5313,19.5781 Q138.1875,19.5781 137.5,20.6484 Q136.8125,21.7188 136.8125,23.8125 Q136.8125,25.9063 137.5,26.9766 Q138.1875,28.0469 139.5313,28.0469 Q140.1563,28.0469 140.75,27.7734 Q141.3438,27.5 141.9688,26.9219 L141.9688,29.6406 Z "/><text fill="#000000" font-family="sans-serif" font-size="12" lengthAdjust="spacingAndGlyphs" textLength="51" x="153" y="28.1543">Entity03</text><line style="stroke: #A80036; stroke-width: 1.5;" x1="125" x2="206" y1="40" y2="40"/><line style="stroke: #A80036; stroke-width: 1.5;" x1="125" x2="206" y1="48" y2="48"/><!--class Entity04--><rect fill="#FEFECE" filter="url(#f8mippb6kwvun)" height="48" id="Entity04" style="stroke: #A80036; stroke-width: 1.5;" width="83" x="124" y="116"/><ellipse cx="139" cy="132" fill="#ADD1B2" rx="11" ry="11" style="stroke: #A80036; stroke-width: 1.0;"/><path d="M141.9688,137.6406 Q141.3906,137.9375 140.75,138.0859 Q140.1094,138.2344 139.4063,138.2344 Q136.9063,138.2344 135.5859,136.5859 Q134.2656,134.9375 134.2656,131.8125 Q134.2656,128.6875 135.5859,127.0313 Q136.9063,125.375 139.4063,125.375 Q140.1094,125.375 140.7578,125.5313 Q141.4063,125.6875 141.9688,125.9844 L141.9688,128.7031 Q141.3438,128.125 140.75,127.8516 Q140.1563,127.5781 139.5313,127.5781 Q138.1875,127.5781 137.5,128.6484 Q136.8125,129.7188 136.8125,131.8125 Q136.8125,133.9063 137.5,134.9766 Q138.1875,136.0469 139.5313,136.0469 Q140.1563,136.0469 140.75,135.7734 Q141.3438,135.5 141.9688,134.9219 L141.9688,137.6406 Z "/><text fill="#000000" font-family="sans-serif" font-size="12" lengthAdjust="spacingAndGlyphs" textLength="51" x="153" y="136.1543">Entity04</text><line style="stroke: #A80036; stroke-width: 1.5;" x1="125" x2="206" y1="148" y2="148"/><line style="stroke: #A80036; stroke-width: 1.5;" x1="125" x2="206" y1="156" y2="156"/><!--class Entity05--><rect fill="#FEFECE" filter="url(#f8mippb6kwvun)" height="48" id="Entity05" style="stroke: #A80036; stroke-width: 1.5;" width="83" x="242" y="8"/><ellipse cx="257" cy="24" fill="#ADD1B2" rx="11" ry="11" style="stroke: #A80036; stroke-width: 1.0;"/><path d="M259.9688,29.6406 Q259.3906,29.9375 258.75,30.0859 Q258.1094,30.2344 257.4063,30.2344 Q254.9063,30.2344 253.5859,28.5859 Q252.2656,26.9375 252.2656,23.8125 Q252.2656,20.6875 253.5859,19.0313 Q254.9063,17.375 257.4063,17.375 Q258.1094,17.375 258.7578,17.5313 Q259.4063,17.6875 259.9688,17.9844 L259.9688,20.7031 Q259.3438,20.125 258.75,19.8516 Q258.1563,19.5781 257.5313,19.5781 Q256.1875,19.5781 255.5,20.6484 Q254.8125,21.7188 254.8125,23.8125 Q254.8125,25.9063 255.5,26.9766 Q256.1875,28.0469 257.5313,28.0469 Q258.1563,28.0469 258.75,27.7734 Q259.3438,27.5 259.9688,26.9219 L259.9688,29.6406 Z "/><text fill="#000000" font-family="sans-serif" font-size="12" lengthAdjust="spacingAndGlyphs" textLength="51" x="271" y="28.1543">Entity05</text><line style="stroke: #A80036; stroke-width: 1.5;" x1="243" x2="324" y1="40" y2="40"/><line style="stroke: #A80036; stroke-width: 1.5;" x1="243" x2="324" y1="48" y2="48"/><!--class Entity06--><rect fill="#FEFECE" filter="url(#f8mippb6kwvun)" height="48" id="Entity06" style="stroke: #A80036; stroke-width: 1.5;" width="83" x="242" y="116"/><ellipse cx="257" cy="132" fill="#ADD1B2" rx="11" ry="11" style="stroke: #A80036; stroke-width: 1.0;"/><path d="M259.9688,137.6406 Q259.3906,137.9375 258.75,138.0859 Q258.1094,138.2344 257.4063,138.2344 Q254.9063,138.2344 253.5859,136.5859 Q252.2656,134.9375 252.2656,131.8125 Q252.2656,128.6875 253.5859,127.0313 Q254.9063,125.375 257.4063,125.375 Q258.1094,125.375 258.7578,125.5313 Q259.4063,125.6875 259.9688,125.9844 L259.9688,128.7031 Q259.3438,128.125 258.75,127.8516 Q258.1563,127.5781 257.5313,127.5781 Q256.1875,127.5781 255.5,128.6484 Q254.8125,129.7188 254.8125,131.8125 Q254.8125,133.9063 255.5,134.9766 Q256.1875,136.0469 257.5313,136.0469 Q258.1563,136.0469 258.75,135.7734 Q259.3438,135.5 259.9688,134.9219 L259.9688,137.6406 Z "/><text fill="#000000" font-family="sans-serif" font-size="12" lengthAdjust="spacingAndGlyphs" textLength="51" x="271" y="136.1543">Entity06</text><line style="stroke: #A80036; stroke-width: 1.5;" x1="243" x2="324" y1="148" y2="148"/><line style="stroke: #A80036; stroke-width: 1.5;" x1="243" x2="324" y1="156" y2="156"/><!--class Entity07--><rect fill="#FEFECE" filter="url(#f8mippb6kwvun)" height="48" id="Entity07" style="stroke: #A80036; stroke-width: 1.5;" width="83" x="360" y="8"/><ellipse cx="375" cy="24" fill="#ADD1B2" rx="11" ry="11" style="stroke: #A80036; stroke-width: 1.0;"/><path d="M377.9688,29.6406 Q377.3906,29.9375 376.75,30.0859 Q376.1094,30.2344 375.4063,30.2344 Q372.9063,30.2344 371.5859,28.5859 Q370.2656,26.9375 370.2656,23.8125 Q370.2656,20.6875 371.5859,19.0313 Q372.9063,17.375 375.4063,17.375 Q376.1094,17.375 376.7578,17.5313 Q377.4063,17.6875 377.9688,17.9844 L377.9688,20.7031 Q377.3438,20.125 376.75,19.8516 Q376.1563,19.5781 375.5313,19.5781 Q374.1875,19.5781 373.5,20.6484 Q372.8125,21.7188 372.8125,23.8125 Q372.8125,25.9063 373.5,26.9766 Q374.1875,28.0469 375.5313,28.0469 Q376.1563,28.0469 376.75,27.7734 Q377.3438,27.5 377.9688,26.9219 L377.9688,29.6406 Z "/><text fill="#000000" font-family="sans-serif" font-size="12" lengthAdjust="spacingAndGlyphs" textLength="51" x="389" y="28.1543">Entity07</text><line style="stroke: #A80036; stroke-width: 1.5;" x1="361" x2="442" y1="40" y2="40"/><line style="stroke: #A80036; stroke-width: 1.5;" x1="361" x2="442" y1="48" y2="48"/><!--class Entity08--><rect fill="#FEFECE" filter="url(#f8mippb6kwvun)" height="48" id="Entity08" style="stroke: #A80036; stroke-width: 1.5;" width="83" x="360" y="116"/><ellipse cx="375" cy="132" fill="#ADD1B2" rx="11" ry="11" style="stroke: #A80036; stroke-width: 1.0;"/><path d="M377.9688,137.6406 Q377.3906,137.9375 376.75,138.0859 Q376.1094,138.2344 375.4063,138.2344 Q372.9063,138.2344 371.5859,136.5859 Q370.2656,134.9375 370.2656,131.8125 Q370.2656,128.6875 371.5859,127.0313 Q372.9063,125.375 375.4063,125.375 Q376.1094,125.375 376.7578,125.5313 Q377.4063,125.6875 377.9688,125.9844 L377.9688,128.7031 Q377.3438,128.125 376.75,127.8516 Q376.1563,127.5781 375.5313,127.5781 Q374.1875,127.5781 373.5,128.6484 Q372.8125,129.7188 372.8125,131.8125 Q372.8125,133.9063 373.5,134.9766 Q374.1875,136.0469 375.5313,136.0469 Q376.1563,136.0469 376.75,135.7734 Q377.3438,135.5 377.9688,134.9219 L377.9688,137.6406 Z "/><text fill="#000000" font-family="sans-serif" font-size="12" lengthAdjust="spacingAndGlyphs" textLength="51" x="389" y="136.1543">Entity08</text><line style="stroke: #A80036; stroke-width: 1.5;" x1="361" x2="442" y1="148" y2="148"/><line style="stroke: #A80036; stroke-width: 1.5;" x1="361" x2="442" y1="156" y2="156"/><!--link Entity01 to Entity02--><path d="M47.5,64.5311 C47.5,78.1909 47.5,94.0401 47.5,107.6775 " fill="none" id="Entity01-Entity02" style="stroke: #A80036; stroke-width: 1.0; stroke-dasharray: 7.0,7.0;"/><line style="stroke: #A80036; stroke-width: 1.0;" x1="51.5" x2="43.5" y1="111.8436" y2="111.8436"/><line style="stroke: #A80036; stroke-width: 1.0;" x1="51.5" x2="43.5" y1="108.8436" y2="108.8436"/><line style="stroke: #A80036; stroke-width: 1.0;" x1="47.5" x2="47.5" y1="107.8436" y2="115.8436"/><line style="stroke: #A80036; stroke-width: 1.0;" x1="47.5" x2="41.5" y1="64.2373" y2="56.2373"/><line style="stroke: #A80036; stroke-width: 1.0;" x1="47.5" x2="53.5" y1="64.2373" y2="56.2373"/><line style="stroke: #A80036; stroke-width: 1.0;" x1="47.5" x2="47.5" y1="64.2373" y2="56.2373"/><line style="stroke: #A80036; stroke-width: 1.0;" x1="43.5" x2="51.5" y1="66.2373" y2="66.2373"/><!--link Entity03 to Entity04--><path d="M165.5,64.5311 C165.5,78.1909 165.5,94.0401 165.5,107.6775 " fill="none" id="Entity03-Entity04" style="stroke: #A80036; stroke-width: 1.0; stroke-dasharray: 7.0,7.0;"/><line style="stroke: #A80036; stroke-width: 1.0;" x1="165.5" x2="165.5" y1="104.8436" y2="115.8436"/><ellipse cx="165.5" cy="104.8436" fill="none" rx="4" ry="4" style="stroke: #A80036; stroke-width: 1.0;"/><line style="stroke: #A80036; stroke-width: 1.0;" x1="169.5" x2="161.5" y1="111.8436" y2="111.8436"/><line style="stroke: #A80036; stroke-width: 1.0;" x1="165.5" x2="159.5" y1="64.2373" y2="56.2373"/><line style="stroke: #A80036; stroke-width: 1.0;" x1="165.5" x2="171.5" y1="64.2373" y2="56.2373"/><line style="stroke: #A80036; stroke-width: 1.0;" x1="165.5" x2="165.5" y1="64.2373" y2="56.2373"/><ellipse cx="165.5" cy="70.2373" fill="none" rx="4" ry="4" style="stroke: #A80036; stroke-width: 1.0;"/><!--link Entity05 to Entity06--><path d="M283.5,64.5311 C283.5,78.1909 283.5,94.0401 283.5,107.6775 " fill="none" id="Entity05-Entity06" style="stroke: #A80036; stroke-width: 1.0;"/><line style="stroke: #A80036; stroke-width: 1.0;" x1="283.5" x2="289.5" y1="107.8436" y2="115.8436"/><line style="stroke: #A80036; stroke-width: 1.0;" x1="283.5" x2="277.5" y1="107.8436" y2="115.8436"/><line style="stroke: #A80036; stroke-width: 1.0;" x1="283.5" x2="283.5" y1="107.8436" y2="115.8436"/><ellipse cx="283.5" cy="101.8436" fill="none" rx="4" ry="4" style="stroke: #A80036; stroke-width: 1.0;"/><line style="stroke: #A80036; stroke-width: 1.0;" x1="279.5" x2="287.5" y1="60.2373" y2="60.2373"/><line style="stroke: #A80036; stroke-width: 1.0;" x1="279.5" x2="287.5" y1="63.2373" y2="63.2373"/><line style="stroke: #A80036; stroke-width: 1.0;" x1="283.5" x2="283.5" y1="64.2373" y2="56.2373"/><!--link Entity07 to Entity08--><path d="M401.5,64.5311 C401.5,78.1909 401.5,94.0401 401.5,107.6775 " fill="none" id="Entity07-Entity08" style="stroke: #A80036; stroke-width: 1.0;"/><line style="stroke: #A80036; stroke-width: 1.0;" x1="405.5" x2="397.5" y1="111.8436" y2="111.8436"/><line style="stroke: #A80036; stroke-width: 1.0;" x1="405.5" x2="397.5" y1="108.8436" y2="108.8436"/><line style="stroke: #A80036; stroke-width: 1.0;" x1="401.5" x2="401.5" y1="107.8436" y2="115.8436"/><line style="stroke: #A80036; stroke-width: 1.0;" x1="401.5" x2="401.5" y1="67.2373" y2="56.2373"/><ellipse cx="401.5" cy="67.2373" fill="none" rx="4" ry="4" style="stroke: #A80036; stroke-width: 1.0;"/><line style="stroke: #A80036; stroke-width: 1.0;" x1="397.5" x2="405.5" y1="60.2373" y2="60.2373"/><!--
@startuml

Entity01 }|..|| Entity02
Entity03 }o..o| Entity04
Entity05 ||- -o{ Entity06
Entity07 |o- -|| Entity08

@enduml

PlantUML version 1.2017.15(Mon Jul 03 18:45:34 CEST 2017)
(GPL source distribution)
Java Runtime: Java(TM) SE Runtime Environment
JVM: Java HotSpot(TM) 64-Bit Server VM
Java Version: 1.8.0_191-b12
Operating System: Linux
OS Version: 4.15.0-66-generic
Default Encoding: UTF-8
Language: en
Country: US
--></g></svg>