<?xml version="1.0" encoding="UTF-8" standalone="no"?><svg xmlns="http://www.w3.org/2000/svg" xmlns:xlink="http://www.w3.org/1999/xlink" contentScriptType="application/ecmascript" contentStyleType="text/css" height="598px" preserveAspectRatio="none" style="width:595px;height:598px;" version="1.1" viewBox="0 0 595 598" width="595px" zoomAndPan="magnify"><defs><filter height="300%" id="f1w0yd8b7gxjfn" width="300%" x="-1" y="-1"><feGaussianBlur result="blurOut" stdDeviation="2.0"/><feColorMatrix in="blurOut" result="blurOut2" type="matrix" values="0 0 0 0 0 0 0 0 0 0 0 0 0 0 0 0 0 0 .4 0"/><feOffset dx="4.0" dy="4.0" in="blurOut2" result="blurOut3"/><feBlend in="SourceGraphic" in2="blurOut3" mode="normal"/></filter></defs><g><line style="stroke: #A80036; stroke-width: 1.0; stroke-dasharray: 5.0,5.0;" x1="33" x2="33" y1="86.2969" y2="510.7578"/><line style="stroke: #A80036; stroke-width: 1.0; stroke-dasharray: 5.0,5.0;" x1="95" x2="95" y1="86.2969" y2="510.7578"/><line style="stroke: #A80036; stroke-width: 1.0; stroke-dasharray: 5.0,5.0;" x1="184" x2="184" y1="86.2969" y2="510.7578"/><line style="stroke: #A80036; stroke-width: 1.0; stroke-dasharray: 5.0,5.0;" x1="330" x2="330" y1="86.2969" y2="510.7578"/><line style="stroke: #A80036; stroke-width: 1.0; stroke-dasharray: 5.0,5.0;" x1="434" x2="434" y1="86.2969" y2="510.7578"/><line style="stroke: #A80036; stroke-width: 1.0; stroke-dasharray: 5.0,5.0;" x1="540" x2="540" y1="86.2969" y2="510.7578"/><text fill="#000000" font-family="sans-serif" font-size="14" lengthAdjust="spacingAndGlyphs" textLength="45" x="8" y="82.9951">User A</text><ellipse cx="33.5" cy="13" fill="#FEFECE" filter="url(#f1w0yd8b7gxjfn)" rx="8" ry="8" style="stroke: #A80036; stroke-width: 2.0;"/><path d="M33.5,21 L33.5,48 M20.5,29 L46.5,29 M33.5,48 L20.5,63 M33.5,48 L46.5,63 " fill="#FEFECE" filter="url(#f1w0yd8b7gxjfn)" style="stroke: #A80036; stroke-width: 2.0;"/><text fill="#000000" font-family="sans-serif" font-size="14" lengthAdjust="spacingAndGlyphs" textLength="45" x="8" y="522.7529">User A</text><ellipse cx="33.5" cy="536.0547" fill="#FEFECE" filter="url(#f1w0yd8b7gxjfn)" rx="8" ry="8" style="stroke: #A80036; stroke-width: 2.0;"/><path d="M33.5,544.0547 L33.5,571.0547 M20.5,552.0547 L46.5,552.0547 M33.5,571.0547 L20.5,586.0547 M33.5,571.0547 L46.5,586.0547 " fill="#FEFECE" filter="url(#f1w0yd8b7gxjfn)" style="stroke: #A80036; stroke-width: 2.0;"/><text fill="#000000" font-family="sans-serif" font-size="14" lengthAdjust="spacingAndGlyphs" textLength="46" x="69" y="82.9951">User B</text><ellipse cx="95" cy="13" fill="#FEFECE" filter="url(#f1w0yd8b7gxjfn)" rx="8" ry="8" style="stroke: #A80036; stroke-width: 2.0;"/><path d="M95,21 L95,48 M82,29 L108,29 M95,48 L82,63 M95,48 L108,63 " fill="#FEFECE" filter="url(#f1w0yd8b7gxjfn)" style="stroke: #A80036; stroke-width: 2.0;"/><text fill="#000000" font-family="sans-serif" font-size="14" lengthAdjust="spacingAndGlyphs" textLength="46" x="69" y="522.7529">User B</text><ellipse cx="95" cy="536.0547" fill="#FEFECE" filter="url(#f1w0yd8b7gxjfn)" rx="8" ry="8" style="stroke: #A80036; stroke-width: 2.0;"/><path d="M95,544.0547 L95,571.0547 M82,552.0547 L108,552.0547 M95,571.0547 L82,586.0547 M95,571.0547 L108,586.0547 " fill="#FEFECE" filter="url(#f1w0yd8b7gxjfn)" style="stroke: #A80036; stroke-width: 2.0;"/><rect fill="#FEFECE" filter="url(#f1w0yd8b7gxjfn)" height="30.2969" style="stroke: #A80036; stroke-width: 1.5;" width="64" x="150" y="51"/><text fill="#000000" font-family="sans-serif" font-size="14" lengthAdjust="spacingAndGlyphs" textLength="50" x="157" y="70.9951">Service</text><rect fill="#FEFECE" filter="url(#f1w0yd8b7gxjfn)" height="30.2969" style="stroke: #A80036; stroke-width: 1.5;" width="64" x="150" y="509.7578"/><text fill="#000000" font-family="sans-serif" font-size="14" lengthAdjust="spacingAndGlyphs" textLength="50" x="157" y="529.7529">Service</text><rect fill="#FEFECE" filter="url(#f1w0yd8b7gxjfn)" height="30.2969" style="stroke: #A80036; stroke-width: 1.5;" width="88" x="284" y="51"/><text fill="#000000" font-family="sans-serif" font-size="14" lengthAdjust="spacingAndGlyphs" textLength="74" x="291" y="70.9951">Repository</text><rect fill="#FEFECE" filter="url(#f1w0yd8b7gxjfn)" height="30.2969" style="stroke: #A80036; stroke-width: 1.5;" width="88" x="284" y="509.7578"/><text fill="#000000" font-family="sans-serif" font-size="14" lengthAdjust="spacingAndGlyphs" textLength="74" x="291" y="529.7529">Repository</text><rect fill="#FEFECE" filter="url(#f1w0yd8b7gxjfn)" height="30.2969" style="stroke: #A80036; stroke-width: 1.5;" width="92" x="386" y="51"/><text fill="#000000" font-family="sans-serif" font-size="14" lengthAdjust="spacingAndGlyphs" textLength="78" x="393" y="70.9951">i2: Account</text><rect fill="#FEFECE" filter="url(#f1w0yd8b7gxjfn)" height="30.2969" style="stroke: #A80036; stroke-width: 1.5;" width="92" x="386" y="509.7578"/><text fill="#000000" font-family="sans-serif" font-size="14" lengthAdjust="spacingAndGlyphs" textLength="78" x="393" y="529.7529">i2: Account</text><rect fill="#FEFECE" filter="url(#f1w0yd8b7gxjfn)" height="30.2969" style="stroke: #A80036; stroke-width: 1.5;" width="92" x="492" y="51"/><text fill="#000000" font-family="sans-serif" font-size="14" lengthAdjust="spacingAndGlyphs" textLength="78" x="499" y="70.9951">i1: Account</text><rect fill="#FEFECE" filter="url(#f1w0yd8b7gxjfn)" height="30.2969" style="stroke: #A80036; stroke-width: 1.5;" width="92" x="492" y="509.7578"/><text fill="#000000" font-family="sans-serif" font-size="14" lengthAdjust="spacingAndGlyphs" textLength="78" x="499" y="529.7529">i1: Account</text><polygon fill="#A80036" points="172,113.2969,182,117.2969,172,121.2969,176,117.2969" style="stroke: #A80036; stroke-width: 1.0;"/><line style="stroke: #A80036; stroke-width: 1.0;" x1="33.5" x2="178" y1="117.2969" y2="117.2969"/><text fill="#000000" font-family="sans-serif" font-size="13" lengthAdjust="spacingAndGlyphs" textLength="65" x="40.5" y="112.3638">withdraw()</text><polygon fill="#A80036" points="318,142.4297,328,146.4297,318,150.4297,322,146.4297" style="stroke: #A80036; stroke-width: 1.0;"/><line style="stroke: #A80036; stroke-width: 1.0;" x1="184" x2="324" y1="146.4297" y2="146.4297"/><text fill="#000000" font-family="sans-serif" font-size="13" lengthAdjust="spacingAndGlyphs" textLength="117" x="191" y="141.4966">getAccount("123")</text><polygon fill="#A80036" points="528,171.5625,538,175.5625,528,179.5625,532,175.5625" style="stroke: #A80036; stroke-width: 1.0;"/><line style="stroke: #A80036; stroke-width: 1.0;" x1="330" x2="534" y1="175.5625" y2="175.5625"/><text fill="#000000" font-family="sans-serif" font-size="13" lengthAdjust="spacingAndGlyphs" textLength="51" x="337" y="170.6294">create()</text><polygon fill="#A80036" points="195,200.6953,185,204.6953,195,208.6953,191,204.6953" style="stroke: #A80036; stroke-width: 1.0;"/><line style="stroke: #A80036; stroke-width: 1.0; stroke-dasharray: 2.0,2.0;" x1="189" x2="329" y1="204.6953" y2="204.6953"/><text fill="#000000" font-family="sans-serif" font-size="13" lengthAdjust="spacingAndGlyphs" textLength="122" x="201" y="199.7622">instance1: Account</text><polygon fill="#A80036" points="528,229.8281,538,233.8281,528,237.8281,532,233.8281" style="stroke: #A80036; stroke-width: 1.0;"/><line style="stroke: #A80036; stroke-width: 1.0;" x1="184" x2="534" y1="233.8281" y2="233.8281"/><text fill="#000000" font-family="sans-serif" font-size="13" lengthAdjust="spacingAndGlyphs" textLength="55" x="191" y="228.895">withdraw</text><polygon fill="#A80036" points="195,243.9609,185,247.9609,195,251.9609,191,247.9609" style="stroke: #A80036; stroke-width: 1.0;"/><line style="stroke: #A80036; stroke-width: 1.0; stroke-dasharray: 2.0,2.0;" x1="189" x2="539" y1="247.9609" y2="247.9609"/><polygon fill="#A80036" points="172,272.9609,182,276.9609,172,280.9609,176,276.9609" style="stroke: #A80036; stroke-width: 1.0;"/><line style="stroke: #A80036; stroke-width: 1.0;" x1="95" x2="178" y1="276.9609" y2="276.9609"/><text fill="#000000" font-family="sans-serif" font-size="13" lengthAdjust="spacingAndGlyphs" textLength="65" x="102" y="272.0278">withdraw()</text><polygon fill="#A80036" points="318,302.0938,328,306.0938,318,310.0938,322,306.0938" style="stroke: #A80036; stroke-width: 1.0;"/><line style="stroke: #A80036; stroke-width: 1.0;" x1="184" x2="324" y1="306.0938" y2="306.0938"/><text fill="#000000" font-family="sans-serif" font-size="13" lengthAdjust="spacingAndGlyphs" textLength="117" x="191" y="301.1606">getAccount("123")</text><polygon fill="#A80036" points="195,331.2266,185,335.2266,195,339.2266,191,335.2266" style="stroke: #A80036; stroke-width: 1.0;"/><line style="stroke: #A80036; stroke-width: 1.0; stroke-dasharray: 2.0,2.0;" x1="189" x2="329" y1="335.2266" y2="335.2266"/><text fill="#000000" font-family="sans-serif" font-size="13" lengthAdjust="spacingAndGlyphs" textLength="122" x="201" y="330.2935">instance2: Account</text><polygon fill="#A80036" points="422,360.3594,432,364.3594,422,368.3594,426,364.3594" style="stroke: #A80036; stroke-width: 1.0;"/><line style="stroke: #A80036; stroke-width: 1.0;" x1="184" x2="428" y1="364.3594" y2="364.3594"/><text fill="#000000" font-family="sans-serif" font-size="13" lengthAdjust="spacingAndGlyphs" textLength="55" x="191" y="359.4263">withdraw</text><polygon fill="#A80036" points="195,374.4922,185,378.4922,195,382.4922,191,378.4922" style="stroke: #A80036; stroke-width: 1.0;"/><line style="stroke: #A80036; stroke-width: 1.0; stroke-dasharray: 2.0,2.0;" x1="189" x2="433" y1="378.4922" y2="378.4922"/><polygon fill="#A80036" points="318,403.4922,328,407.4922,318,411.4922,322,407.4922" style="stroke: #A80036; stroke-width: 1.0;"/><line style="stroke: #A80036; stroke-width: 1.0;" x1="184" x2="324" y1="407.4922" y2="407.4922"/><text fill="#000000" font-family="sans-serif" font-size="13" lengthAdjust="spacingAndGlyphs" textLength="43" x="191" y="402.5591">store()</text><polygon fill="#A80036" points="195,417.625,185,421.625,195,425.625,191,421.625" style="stroke: #A80036; stroke-width: 1.0;"/><line style="stroke: #A80036; stroke-width: 1.0; stroke-dasharray: 2.0,2.0;" x1="189" x2="329" y1="421.625" y2="421.625"/><polygon fill="#A80036" points="106,431.625,96,435.625,106,439.625,102,435.625" style="stroke: #A80036; stroke-width: 1.0;"/><line style="stroke: #A80036; stroke-width: 1.0; stroke-dasharray: 2.0,2.0;" x1="100" x2="183" y1="435.625" y2="435.625"/><polygon fill="#A80036" points="318,460.625,328,464.625,318,468.625,322,464.625" style="stroke: #A80036; stroke-width: 1.0;"/><line style="stroke: #A80036; stroke-width: 1.0;" x1="184" x2="324" y1="464.625" y2="464.625"/><text fill="#000000" font-family="sans-serif" font-size="13" lengthAdjust="spacingAndGlyphs" textLength="43" x="191" y="459.6919">store()</text><polygon fill="#A80036" points="195,474.7578,185,478.7578,195,482.7578,191,478.7578" style="stroke: #A80036; stroke-width: 1.0;"/><line style="stroke: #A80036; stroke-width: 1.0; stroke-dasharray: 2.0,2.0;" x1="189" x2="329" y1="478.7578" y2="478.7578"/><polygon fill="#A80036" points="44.5,488.7578,34.5,492.7578,44.5,496.7578,40.5,492.7578" style="stroke: #A80036; stroke-width: 1.0;"/><line style="stroke: #A80036; stroke-width: 1.0; stroke-dasharray: 2.0,2.0;" x1="38.5" x2="183" y1="492.7578" y2="492.7578"/><!--
@startuml

actor "User A" as U1
actor "User B" as U2
participant "Service" as S
participant "Repository" as R

participant "i2: Account" as A2

U1 -> S: withdraw()
S -> R: getAccount("123")
participant "i1: Account" as A1
R -> A1: create()
S <- - R: instance1: Account
S -> A1: withdraw
S <- - A1:

U2 -> S: withdraw()
S -> R: getAccount("123")
S <- - R: instance2: Account
S -> A2: withdraw
S <- - A2:

S -> R: store()
S <- - R
U2 <- - S:

S -> R: store()
S <- - R:
U1 <- - S:

@enduml

PlantUML version 1.2017.15(Mon Jul 03 18:45:34 CEST 2017)
(GPL source distribution)
Java Runtime: Java(TM) SE Runtime Environment
JVM: Java HotSpot(TM) 64-Bit Server VM
Java Version: 1.8.0_191-b12
Operating System: Linux
OS Version: 4.15.0-72-generic
Default Encoding: UTF-8
Language: en
Country: US
--></g></svg>