<?xml version="1.0" encoding="UTF-8" standalone="no"?><svg xmlns="http://www.w3.org/2000/svg" xmlns:xlink="http://www.w3.org/1999/xlink" contentScriptType="application/ecmascript" contentStyleType="text/css" height="700px" preserveAspectRatio="none" style="width:848px;height:700px;" version="1.1" viewBox="0 0 848 700" width="848px" zoomAndPan="magnify"><defs><filter height="300%" id="f968kyuty06va" width="300%" x="-1" y="-1"><feGaussianBlur result="blurOut" stdDeviation="2.0"/><feColorMatrix in="blurOut" result="blurOut2" type="matrix" values="0 0 0 0 0 0 0 0 0 0 0 0 0 0 0 0 0 0 .4 0"/><feOffset dx="4.0" dy="4.0" in="blurOut2" result="blurOut3"/><feBlend in="SourceGraphic" in2="blurOut3" mode="normal"/></filter></defs><g><rect fill="#FEFECE" filter="url(#f968kyuty06va)" height="46.5938" style="stroke: #A80036; stroke-width: 1.5;" width="98" x="589" y="212.8281"/><text fill="#000000" font-family="sans-serif" font-size="14" lengthAdjust="spacingAndGlyphs" textLength="84" x="596" y="232.8232">&lt;&lt;Actor&gt;&gt;</text><text fill="#000000" font-family="sans-serif" font-size="14" lengthAdjust="spacingAndGlyphs" textLength="57" x="609.5" y="249.1201">Account</text><line style="stroke: #A80036; stroke-width: 1.0; stroke-dasharray: 5.0,5.0;" x1="27" x2="27" y1="86.2969" y2="613.4844"/><line style="stroke: #A80036; stroke-width: 1.0; stroke-dasharray: 5.0,5.0;" x1="170.5" x2="170.5" y1="86.2969" y2="613.4844"/><line style="stroke: #A80036; stroke-width: 1.0; stroke-dasharray: 5.0,5.0;" x1="309" x2="309" y1="86.2969" y2="613.4844"/><line style="stroke: #A80036; stroke-width: 1.0; stroke-dasharray: 5.0,5.0;" x1="532" x2="532" y1="86.2969" y2="613.4844"/><line style="stroke: #A80036; stroke-width: 1.0; stroke-dasharray: 5.0,5.0;" x1="640" x2="640" y1="253.625" y2="613.4844"/><text fill="#000000" font-family="sans-serif" font-size="14" lengthAdjust="spacingAndGlyphs" textLength="32" x="8" y="82.9951">User</text><ellipse cx="27" cy="13" fill="#FEFECE" filter="url(#f968kyuty06va)" rx="8" ry="8" style="stroke: #A80036; stroke-width: 2.0;"/><path d="M27,21 L27,48 M14,29 L40,29 M27,48 L14,63 M27,48 L40,63 " fill="#FEFECE" filter="url(#f968kyuty06va)" style="stroke: #A80036; stroke-width: 2.0;"/><text fill="#000000" font-family="sans-serif" font-size="14" lengthAdjust="spacingAndGlyphs" textLength="32" x="8" y="625.4795">User</text><ellipse cx="27" cy="638.7813" fill="#FEFECE" filter="url(#f968kyuty06va)" rx="8" ry="8" style="stroke: #A80036; stroke-width: 2.0;"/><path d="M27,646.7813 L27,673.7813 M14,654.7813 L40,654.7813 M27,673.7813 L14,688.7813 M27,673.7813 L40,688.7813 " fill="#FEFECE" filter="url(#f968kyuty06va)" style="stroke: #A80036; stroke-width: 2.0;"/><rect fill="#FEFECE" filter="url(#f968kyuty06va)" height="30.2969" style="stroke: #A80036; stroke-width: 1.5;" width="143" x="97.5" y="51"/><text fill="#000000" font-family="sans-serif" font-size="14" lengthAdjust="spacingAndGlyphs" textLength="129" x="104.5" y="70.9951">Application Service</text><rect fill="#FEFECE" filter="url(#f968kyuty06va)" height="30.2969" style="stroke: #A80036; stroke-width: 1.5;" width="143" x="97.5" y="612.4844"/><text fill="#000000" font-family="sans-serif" font-size="14" lengthAdjust="spacingAndGlyphs" textLength="129" x="104.5" y="632.4795">Application Service</text><rect fill="#FEFECE" filter="url(#f968kyuty06va)" height="30.2969" style="stroke: #A80036; stroke-width: 1.5;" width="88" x="263" y="51"/><text fill="#000000" font-family="sans-serif" font-size="14" lengthAdjust="spacingAndGlyphs" textLength="74" x="270" y="70.9951">Repository</text><rect fill="#FEFECE" filter="url(#f968kyuty06va)" height="30.2969" style="stroke: #A80036; stroke-width: 1.5;" width="88" x="263" y="612.4844"/><text fill="#000000" font-family="sans-serif" font-size="14" lengthAdjust="spacingAndGlyphs" textLength="74" x="270" y="632.4795">Repository</text><rect fill="#FEFECE" filter="url(#f968kyuty06va)" height="30.2969" style="stroke: #A80036; stroke-width: 1.5;" width="90" x="485" y="51"/><text fill="#000000" font-family="sans-serif" font-size="14" lengthAdjust="spacingAndGlyphs" textLength="76" x="492" y="70.9951">EventStore</text><rect fill="#FEFECE" filter="url(#f968kyuty06va)" height="30.2969" style="stroke: #A80036; stroke-width: 1.5;" width="90" x="485" y="612.4844"/><text fill="#000000" font-family="sans-serif" font-size="14" lengthAdjust="spacingAndGlyphs" textLength="76" x="492" y="632.4795">EventStore</text><rect fill="#FEFECE" filter="url(#f968kyuty06va)" height="46.5938" style="stroke: #A80036; stroke-width: 1.5;" width="98" x="589" y="612.4844"/><text fill="#000000" font-family="sans-serif" font-size="14" lengthAdjust="spacingAndGlyphs" textLength="84" x="596" y="632.4795">&lt;&lt;Actor&gt;&gt;</text><text fill="#000000" font-family="sans-serif" font-size="14" lengthAdjust="spacingAndGlyphs" textLength="57" x="609.5" y="648.7764">Account</text><polygon fill="#A80036" points="159,113.2969,169,117.2969,159,121.2969,163,117.2969" style="stroke: #A80036; stroke-width: 1.0;"/><line style="stroke: #A80036; stroke-width: 1.0;" x1="27" x2="165" y1="117.2969" y2="117.2969"/><text fill="#000000" font-family="sans-serif" font-size="13" font-weight="bold" lengthAdjust="spacingAndGlyphs" textLength="9" x="34" y="112.3638">1</text><text fill="#000000" font-family="sans-serif" font-size="13" lengthAdjust="spacingAndGlyphs" textLength="107" x="47" y="112.3638">withdraw("X", 42)</text><polygon fill="#A80036" points="297,142.4297,307,146.4297,297,150.4297,301,146.4297" style="stroke: #A80036; stroke-width: 1.0;"/><line style="stroke: #A80036; stroke-width: 1.0;" x1="171" x2="303" y1="146.4297" y2="146.4297"/><text fill="#000000" font-family="sans-serif" font-size="13" font-weight="bold" lengthAdjust="spacingAndGlyphs" textLength="9" x="178" y="141.4966">2</text><text fill="#000000" font-family="sans-serif" font-size="13" lengthAdjust="spacingAndGlyphs" textLength="101" x="191" y="141.4966">getAccount("X")</text><polygon fill="#A80036" points="520,171.5625,530,175.5625,520,179.5625,524,175.5625" style="stroke: #A80036; stroke-width: 1.0;"/><line style="stroke: #A80036; stroke-width: 1.0;" x1="309" x2="526" y1="175.5625" y2="175.5625"/><text fill="#000000" font-family="sans-serif" font-size="13" font-weight="bold" lengthAdjust="spacingAndGlyphs" textLength="9" x="316" y="170.6294">3</text><text fill="#000000" font-family="sans-serif" font-size="13" lengthAdjust="spacingAndGlyphs" textLength="139" x="329" y="170.6294">loadEventStream("X")</text><polygon fill="#A80036" points="320,200.6953,310,204.6953,320,208.6953,316,204.6953" style="stroke: #A80036; stroke-width: 1.0;"/><line style="stroke: #A80036; stroke-width: 1.0; stroke-dasharray: 2.0,2.0;" x1="314" x2="531" y1="204.6953" y2="204.6953"/><text fill="#000000" font-family="sans-serif" font-size="13" lengthAdjust="spacingAndGlyphs" textLength="142" x="326" y="199.7622">events : List&lt;Events&gt;</text><polygon fill="#A80036" points="577,229.8281,587,233.8281,577,237.8281,581,233.8281" style="stroke: #A80036; stroke-width: 1.0;"/><line style="stroke: #A80036; stroke-width: 1.0;" x1="309" x2="583" y1="233.8281" y2="233.8281"/><text fill="#000000" font-family="sans-serif" font-size="13" font-weight="bold" lengthAdjust="spacingAndGlyphs" textLength="9" x="316" y="228.895">4</text><text fill="#000000" font-family="sans-serif" font-size="13" lengthAdjust="spacingAndGlyphs" textLength="94" x="329" y="228.895">create(events)</text><rect fill="#FEFECE" filter="url(#f968kyuty06va)" height="46.5938" style="stroke: #A80036; stroke-width: 1.5;" width="98" x="589" y="212.8281"/><text fill="#000000" font-family="sans-serif" font-size="14" lengthAdjust="spacingAndGlyphs" textLength="84" x="596" y="232.8232">&lt;&lt;Actor&gt;&gt;</text><text fill="#000000" font-family="sans-serif" font-size="14" lengthAdjust="spacingAndGlyphs" textLength="57" x="609.5" y="249.1201">Account</text><line style="stroke: #A80036; stroke-width: 1.0;" x1="640" x2="682" y1="295.5547" y2="295.5547"/><line style="stroke: #A80036; stroke-width: 1.0;" x1="682" x2="682" y1="295.5547" y2="308.5547"/><line style="stroke: #A80036; stroke-width: 1.0;" x1="641" x2="682" y1="308.5547" y2="308.5547"/><polygon fill="#A80036" points="651,304.5547,641,308.5547,651,312.5547,647,308.5547" style="stroke: #A80036; stroke-width: 1.0;"/><text fill="#000000" font-family="sans-serif" font-size="13" font-weight="bold" lengthAdjust="spacingAndGlyphs" textLength="9" x="647" y="290.4888">5</text><text fill="#000000" font-family="sans-serif" font-size="13" lengthAdjust="spacingAndGlyphs" textLength="87" x="660" y="290.4888">apply(events)</text><polygon fill="#A80036" points="320,318.5547,310,322.5547,320,326.5547,316,322.5547" style="stroke: #A80036; stroke-width: 1.0;"/><line style="stroke: #A80036; stroke-width: 1.0; stroke-dasharray: 2.0,2.0;" x1="314" x2="639" y1="322.5547" y2="322.5547"/><polygon fill="#A80036" points="182,347.5547,172,351.5547,182,355.5547,178,351.5547" style="stroke: #A80036; stroke-width: 1.0;"/><line style="stroke: #A80036; stroke-width: 1.0; stroke-dasharray: 2.0,2.0;" x1="176" x2="308" y1="351.5547" y2="351.5547"/><text fill="#000000" font-family="sans-serif" font-size="13" lengthAdjust="spacingAndGlyphs" textLength="68" x="188" y="346.6216">a: Account</text><polygon fill="#A80036" points="628,376.6875,638,380.6875,628,384.6875,632,380.6875" style="stroke: #A80036; stroke-width: 1.0;"/><line style="stroke: #A80036; stroke-width: 1.0;" x1="171" x2="634" y1="380.6875" y2="380.6875"/><text fill="#000000" font-family="sans-serif" font-size="13" font-weight="bold" lengthAdjust="spacingAndGlyphs" textLength="9" x="178" y="375.7544">6</text><text fill="#000000" font-family="sans-serif" font-size="13" lengthAdjust="spacingAndGlyphs" textLength="81" x="191" y="375.7544">withdraw(42)</text><line style="stroke: #A80036; stroke-width: 1.0;" x1="640" x2="682" y1="409.9531" y2="409.9531"/><line style="stroke: #A80036; stroke-width: 1.0;" x1="682" x2="682" y1="409.9531" y2="422.9531"/><line style="stroke: #A80036; stroke-width: 1.0;" x1="641" x2="682" y1="422.9531" y2="422.9531"/><polygon fill="#A80036" points="651,418.9531,641,422.9531,651,426.9531,647,422.9531" style="stroke: #A80036; stroke-width: 1.0;"/><text fill="#000000" font-family="sans-serif" font-size="13" font-weight="bold" lengthAdjust="spacingAndGlyphs" textLength="9" x="647" y="404.8872">7</text><text fill="#000000" font-family="sans-serif" font-size="13" lengthAdjust="spacingAndGlyphs" textLength="176" x="660" y="404.8872">emit MoneyWithdrawnEvent</text><polygon fill="#A80036" points="182,432.9531,172,436.9531,182,440.9531,178,436.9531" style="stroke: #A80036; stroke-width: 1.0;"/><line style="stroke: #A80036; stroke-width: 1.0; stroke-dasharray: 2.0,2.0;" x1="176" x2="639" y1="436.9531" y2="436.9531"/><polygon fill="#A80036" points="297,461.9531,307,465.9531,297,469.9531,301,465.9531" style="stroke: #A80036; stroke-width: 1.0;"/><line style="stroke: #A80036; stroke-width: 1.0;" x1="171" x2="303" y1="465.9531" y2="465.9531"/><text fill="#000000" font-family="sans-serif" font-size="13" font-weight="bold" lengthAdjust="spacingAndGlyphs" textLength="9" x="178" y="461.02">8</text><text fill="#000000" font-family="sans-serif" font-size="13" lengthAdjust="spacingAndGlyphs" textLength="48" x="191" y="461.02">save(a)</text><polygon fill="#A80036" points="628,491.0859,638,495.0859,628,499.0859,632,495.0859" style="stroke: #A80036; stroke-width: 1.0;"/><line style="stroke: #A80036; stroke-width: 1.0;" x1="309" x2="634" y1="495.0859" y2="495.0859"/><text fill="#000000" font-family="sans-serif" font-size="13" font-weight="bold" lengthAdjust="spacingAndGlyphs" textLength="9" x="316" y="490.1528">9</text><text fill="#000000" font-family="sans-serif" font-size="13" lengthAdjust="spacingAndGlyphs" textLength="124" x="329" y="490.1528">getEmittedEvents()</text><polygon fill="#A80036" points="320,520.2188,310,524.2188,320,528.2188,316,524.2188" style="stroke: #A80036; stroke-width: 1.0;"/><line style="stroke: #A80036; stroke-width: 1.0; stroke-dasharray: 2.0,2.0;" x1="314" x2="639" y1="524.2188" y2="524.2188"/><text fill="#000000" font-family="sans-serif" font-size="13" lengthAdjust="spacingAndGlyphs" textLength="181" x="326" y="519.2856">emittedEvents: List&lt;Event&gt;</text><line style="stroke: #A80036; stroke-width: 2.0;" x1="631" x2="649" y1="515.2188" y2="533.2188"/><line style="stroke: #A80036; stroke-width: 2.0;" x1="631" x2="649" y1="533.2188" y2="515.2188"/><polygon fill="#A80036" points="520,549.3516,530,553.3516,520,557.3516,524,553.3516" style="stroke: #A80036; stroke-width: 1.0;"/><line style="stroke: #A80036; stroke-width: 1.0;" x1="309" x2="526" y1="553.3516" y2="553.3516"/><text fill="#000000" font-family="sans-serif" font-size="13" font-weight="bold" lengthAdjust="spacingAndGlyphs" textLength="18" x="316" y="548.4185">10</text><text fill="#000000" font-family="sans-serif" font-size="13" lengthAdjust="spacingAndGlyphs" textLength="177" x="338" y="548.4185">append("X", emittedEvents)</text><polygon fill="#A80036" points="320,563.4844,310,567.4844,320,571.4844,316,567.4844" style="stroke: #A80036; stroke-width: 1.0;"/><line style="stroke: #A80036; stroke-width: 1.0; stroke-dasharray: 2.0,2.0;" x1="314" x2="531" y1="567.4844" y2="567.4844"/><polygon fill="#A80036" points="182,577.4844,172,581.4844,182,585.4844,178,581.4844" style="stroke: #A80036; stroke-width: 1.0;"/><line style="stroke: #A80036; stroke-width: 1.0; stroke-dasharray: 2.0,2.0;" x1="176" x2="308" y1="581.4844" y2="581.4844"/><polygon fill="#A80036" points="38,591.4844,28,595.4844,38,599.4844,34,595.4844" style="stroke: #A80036; stroke-width: 1.0;"/><line style="stroke: #A80036; stroke-width: 1.0; stroke-dasharray: 2.0,2.0;" x1="32" x2="170" y1="595.4844" y2="595.4844"/><!--
@startuml

actor "User" as U
participant "Application Service" as AS
participant "Repository" as R
participant "EventStore" as ES
U -> AS: **1** withdraw("X", 42)
AS -> R: **2** getAccount("X")
R -> ES: **3** loadEventStream("X")
R <- - ES: events : List<Events>
create "<<Actor>>\nAccount" as A
R ->  A: **4** create(events)
A -> A: **5** apply(events)
R <- - A
AS <- - R: a: Account
AS -> A: **6** withdraw(42)
A -> A: **7** emit MoneyWithdrawnEvent
AS <- - A 
AS -> R: **8** save(a)
R -> A: **9** getEmittedEvents()
R <- - A: emittedEvents: List<Event>
destroy A
R -> ES: **10** append("X", emittedEvents)
R <- - ES
AS <- - R
U <- - AS

@enduml

PlantUML version 1.2017.15(Mon Jul 03 18:45:34 CEST 2017)
(GPL source distribution)
Java Runtime: Java(TM) SE Runtime Environment
JVM: Java HotSpot(TM) 64-Bit Server VM
Java Version: 1.8.0_191-b12
Operating System: Linux
OS Version: 4.15.0-91-generic
Default Encoding: UTF-8
Language: en
Country: US
--></g></svg>