<?xml version="1.0" encoding="UTF-8" standalone="no"?><svg xmlns="http://www.w3.org/2000/svg" xmlns:xlink="http://www.w3.org/1999/xlink" contentScriptType="application/ecmascript" contentStyleType="text/css" height="440px" preserveAspectRatio="none" style="width:472px;height:440px;" version="1.1" viewBox="0 0 472 440" width="472px" zoomAndPan="magnify"><defs><filter height="300%" id="f1b3yd0gkyihld" width="300%" x="-1" y="-1"><feGaussianBlur result="blurOut" stdDeviation="2.0"/><feColorMatrix in="blurOut" result="blurOut2" type="matrix" values="0 0 0 0 0 0 0 0 0 0 0 0 0 0 0 0 0 0 .4 0"/><feOffset dx="4.0" dy="4.0" in="blurOut2" result="blurOut3"/><feBlend in="SourceGraphic" in2="blurOut3" mode="normal"/></filter></defs><g><rect fill="#FEFECE" filter="url(#f1b3yd0gkyihld)" height="30.2969" style="stroke: #A80036; stroke-width: 1.5;" width="123" x="338.5" y="154.5625"/><text fill="#000000" font-family="sans-serif" font-size="14" lengthAdjust="spacingAndGlyphs" textLength="109" x="345.5" y="174.5576">i1: Account 123</text><line style="stroke: #A80036; stroke-width: 1.0; stroke-dasharray: 5.0,5.0;" x1="33" x2="33" y1="86.2969" y2="353.2578"/><line style="stroke: #A80036; stroke-width: 1.0; stroke-dasharray: 5.0,5.0;" x1="122.5" x2="122.5" y1="86.2969" y2="353.2578"/><line style="stroke: #A80036; stroke-width: 1.0; stroke-dasharray: 5.0,5.0;" x1="263.5" x2="263.5" y1="86.2969" y2="353.2578"/><line style="stroke: #A80036; stroke-width: 1.0; stroke-dasharray: 5.0,5.0;" x1="401.5" x2="401.5" y1="187.2109" y2="353.2578"/><text fill="#000000" font-family="sans-serif" font-size="14" lengthAdjust="spacingAndGlyphs" textLength="45" x="8" y="82.9951">User A</text><ellipse cx="33.5" cy="13" fill="#FEFECE" filter="url(#f1b3yd0gkyihld)" rx="8" ry="8" style="stroke: #A80036; stroke-width: 2.0;"/><path d="M33.5,21 L33.5,48 M20.5,29 L46.5,29 M33.5,48 L20.5,63 M33.5,48 L46.5,63 " fill="#FEFECE" filter="url(#f1b3yd0gkyihld)" style="stroke: #A80036; stroke-width: 2.0;"/><text fill="#000000" font-family="sans-serif" font-size="14" lengthAdjust="spacingAndGlyphs" textLength="45" x="8" y="365.2529">User A</text><ellipse cx="33.5" cy="378.5547" fill="#FEFECE" filter="url(#f1b3yd0gkyihld)" rx="8" ry="8" style="stroke: #A80036; stroke-width: 2.0;"/><path d="M33.5,386.5547 L33.5,413.5547 M20.5,394.5547 L46.5,394.5547 M33.5,413.5547 L20.5,428.5547 M33.5,413.5547 L46.5,428.5547 " fill="#FEFECE" filter="url(#f1b3yd0gkyihld)" style="stroke: #A80036; stroke-width: 2.0;"/><rect fill="#FEFECE" filter="url(#f1b3yd0gkyihld)" height="30.2969" style="stroke: #A80036; stroke-width: 1.5;" width="64" x="88.5" y="51"/><text fill="#000000" font-family="sans-serif" font-size="14" lengthAdjust="spacingAndGlyphs" textLength="50" x="95.5" y="70.9951">Service</text><rect fill="#FEFECE" filter="url(#f1b3yd0gkyihld)" height="30.2969" style="stroke: #A80036; stroke-width: 1.5;" width="64" x="88.5" y="352.2578"/><text fill="#000000" font-family="sans-serif" font-size="14" lengthAdjust="spacingAndGlyphs" textLength="50" x="95.5" y="372.2529">Service</text><rect fill="#FEFECE" filter="url(#f1b3yd0gkyihld)" height="30.2969" style="stroke: #A80036; stroke-width: 1.5;" width="88" x="217.5" y="51"/><text fill="#000000" font-family="sans-serif" font-size="14" lengthAdjust="spacingAndGlyphs" textLength="74" x="224.5" y="70.9951">Repository</text><rect fill="#FEFECE" filter="url(#f1b3yd0gkyihld)" height="30.2969" style="stroke: #A80036; stroke-width: 1.5;" width="88" x="217.5" y="352.2578"/><text fill="#000000" font-family="sans-serif" font-size="14" lengthAdjust="spacingAndGlyphs" textLength="74" x="224.5" y="372.2529">Repository</text><rect fill="#FEFECE" filter="url(#f1b3yd0gkyihld)" height="30.2969" style="stroke: #A80036; stroke-width: 1.5;" width="123" x="338.5" y="352.2578"/><text fill="#000000" font-family="sans-serif" font-size="14" lengthAdjust="spacingAndGlyphs" textLength="109" x="345.5" y="372.2529">i1: Account 123</text><polygon fill="#A80036" points="110.5,113.2969,120.5,117.2969,110.5,121.2969,114.5,117.2969" style="stroke: #A80036; stroke-width: 1.0;"/><line style="stroke: #A80036; stroke-width: 1.0;" x1="33.5" x2="116.5" y1="117.2969" y2="117.2969"/><text fill="#000000" font-family="sans-serif" font-size="13" lengthAdjust="spacingAndGlyphs" textLength="65" x="40.5" y="112.3638">withdraw()</text><polygon fill="#A80036" points="251.5,142.4297,261.5,146.4297,251.5,150.4297,255.5,146.4297" style="stroke: #A80036; stroke-width: 1.0;"/><line style="stroke: #A80036; stroke-width: 1.0;" x1="122.5" x2="257.5" y1="146.4297" y2="146.4297"/><text fill="#000000" font-family="sans-serif" font-size="13" lengthAdjust="spacingAndGlyphs" textLength="117" x="129.5" y="141.4966">getAccount("123")</text><polygon fill="#A80036" points="326.5,171.5625,336.5,175.5625,326.5,179.5625,330.5,175.5625" style="stroke: #A80036; stroke-width: 1.0;"/><line style="stroke: #A80036; stroke-width: 1.0;" x1="263.5" x2="332.5" y1="175.5625" y2="175.5625"/><text fill="#000000" font-family="sans-serif" font-size="13" lengthAdjust="spacingAndGlyphs" textLength="51" x="270.5" y="170.6294">create()</text><rect fill="#FEFECE" filter="url(#f1b3yd0gkyihld)" height="30.2969" style="stroke: #A80036; stroke-width: 1.5;" width="123" x="338.5" y="154.5625"/><text fill="#000000" font-family="sans-serif" font-size="14" lengthAdjust="spacingAndGlyphs" textLength="109" x="345.5" y="174.5576">i1: Account 123</text><polygon fill="#A80036" points="274.5,201.8594,264.5,205.8594,274.5,209.8594,270.5,205.8594" style="stroke: #A80036; stroke-width: 1.0;"/><line style="stroke: #A80036; stroke-width: 1.0; stroke-dasharray: 2.0,2.0;" x1="268.5" x2="401" y1="205.8594" y2="205.8594"/><polygon fill="#A80036" points="133.5,230.8594,123.5,234.8594,133.5,238.8594,129.5,234.8594" style="stroke: #A80036; stroke-width: 1.0;"/><line style="stroke: #A80036; stroke-width: 1.0; stroke-dasharray: 2.0,2.0;" x1="127.5" x2="262.5" y1="234.8594" y2="234.8594"/><text fill="#000000" font-family="sans-serif" font-size="13" lengthAdjust="spacingAndGlyphs" textLength="71" x="139.5" y="229.9263">i1: Account</text><polygon fill="#A80036" points="390,259.9922,400,263.9922,390,267.9922,394,263.9922" style="stroke: #A80036; stroke-width: 1.0;"/><line style="stroke: #A80036; stroke-width: 1.0;" x1="122.5" x2="396" y1="263.9922" y2="263.9922"/><text fill="#000000" font-family="sans-serif" font-size="13" lengthAdjust="spacingAndGlyphs" textLength="55" x="129.5" y="259.0591">withdraw</text><polygon fill="#A80036" points="133.5,274.125,123.5,278.125,133.5,282.125,129.5,278.125" style="stroke: #A80036; stroke-width: 1.0;"/><line style="stroke: #A80036; stroke-width: 1.0; stroke-dasharray: 2.0,2.0;" x1="127.5" x2="401" y1="278.125" y2="278.125"/><polygon fill="#A80036" points="251.5,303.125,261.5,307.125,251.5,311.125,255.5,307.125" style="stroke: #A80036; stroke-width: 1.0;"/><line style="stroke: #A80036; stroke-width: 1.0;" x1="122.5" x2="257.5" y1="307.125" y2="307.125"/><text fill="#000000" font-family="sans-serif" font-size="13" lengthAdjust="spacingAndGlyphs" textLength="54" x="129.5" y="302.1919">store(i1)</text><polygon fill="#A80036" points="133.5,317.2578,123.5,321.2578,133.5,325.2578,129.5,321.2578" style="stroke: #A80036; stroke-width: 1.0;"/><line style="stroke: #A80036; stroke-width: 1.0; stroke-dasharray: 2.0,2.0;" x1="127.5" x2="262.5" y1="321.2578" y2="321.2578"/><polygon fill="#A80036" points="44.5,331.2578,34.5,335.2578,44.5,339.2578,40.5,335.2578" style="stroke: #A80036; stroke-width: 1.0;"/><line style="stroke: #A80036; stroke-width: 1.0; stroke-dasharray: 2.0,2.0;" x1="38.5" x2="121.5" y1="335.2578" y2="335.2578"/><!--
@startuml

actor "User A" as U1
participant "Service" as S
participant "Repository" as R

U1 -> S: withdraw()
S -> R: getAccount("123")
create   "i1: Account 123" as A1
R -> A1: create()
return
S <- - R: i1: Account
S -> A1: withdraw
return
S -> R: store(i1)
return
U1 <- - S:

@enduml

PlantUML version 1.2017.15(Mon Jul 03 18:45:34 CEST 2017)
(GPL source distribution)
Java Runtime: Java(TM) SE Runtime Environment
JVM: Java HotSpot(TM) 64-Bit Server VM
Java Version: 1.8.0_191-b12
Operating System: Linux
OS Version: 4.15.0-72-generic
Default Encoding: UTF-8
Language: en
Country: US
--></g></svg>