<?xml version="1.0" encoding="UTF-8" standalone="no"?><svg xmlns="http://www.w3.org/2000/svg" xmlns:xlink="http://www.w3.org/1999/xlink" contentScriptType="application/ecmascript" contentStyleType="text/css" height="673px" preserveAspectRatio="none" style="width:614px;height:673px;" version="1.1" viewBox="0 0 614 673" width="614px" zoomAndPan="magnify"><defs><filter height="300%" id="f18d2j42kzhw40" width="300%" x="-1" y="-1"><feGaussianBlur result="blurOut" stdDeviation="2.0"/><feColorMatrix in="blurOut" result="blurOut2" type="matrix" values="0 0 0 0 0 0 0 0 0 0 0 0 0 0 0 0 0 0 .4 0"/><feOffset dx="4.0" dy="4.0" in="blurOut2" result="blurOut3"/><feBlend in="SourceGraphic" in2="blurOut3" mode="normal"/></filter></defs><g><rect fill="#FEFECE" filter="url(#f18d2j42kzhw40)" height="30.2969" style="stroke: #A80036; stroke-width: 1.5;" width="92" x="405" y="154.5625"/><text fill="#000000" font-family="sans-serif" font-size="14" lengthAdjust="spacingAndGlyphs" textLength="78" x="412" y="174.5576">i1: Account</text><rect fill="#FEFECE" filter="url(#f18d2j42kzhw40)" height="30.2969" style="stroke: #A80036; stroke-width: 1.5;" width="92" x="511" y="344.3906"/><text fill="#000000" font-family="sans-serif" font-size="14" lengthAdjust="spacingAndGlyphs" textLength="78" x="518" y="364.3857">i2: Account</text><line style="stroke: #A80036; stroke-width: 1.0; stroke-dasharray: 5.0,5.0;" x1="33" x2="33" y1="86.2969" y2="586.2188"/><line style="stroke: #A80036; stroke-width: 1.0; stroke-dasharray: 5.0,5.0;" x1="95" x2="95" y1="86.2969" y2="586.2188"/><line style="stroke: #A80036; stroke-width: 1.0; stroke-dasharray: 5.0,5.0;" x1="184" x2="184" y1="86.2969" y2="586.2188"/><line style="stroke: #A80036; stroke-width: 1.0; stroke-dasharray: 5.0,5.0;" x1="330" x2="330" y1="86.2969" y2="586.2188"/><line style="stroke: #A80036; stroke-width: 1.0; stroke-dasharray: 5.0,5.0;" x1="453" x2="453" y1="187.2109" y2="586.2188"/><line style="stroke: #A80036; stroke-width: 1.0; stroke-dasharray: 5.0,5.0;" x1="559" x2="559" y1="377.0391" y2="586.2188"/><text fill="#000000" font-family="sans-serif" font-size="14" lengthAdjust="spacingAndGlyphs" textLength="45" x="8" y="82.9951">User A</text><ellipse cx="33.5" cy="13" fill="#FEFECE" filter="url(#f18d2j42kzhw40)" rx="8" ry="8" style="stroke: #A80036; stroke-width: 2.0;"/><path d="M33.5,21 L33.5,48 M20.5,29 L46.5,29 M33.5,48 L20.5,63 M33.5,48 L46.5,63 " fill="#FEFECE" filter="url(#f18d2j42kzhw40)" style="stroke: #A80036; stroke-width: 2.0;"/><text fill="#000000" font-family="sans-serif" font-size="14" lengthAdjust="spacingAndGlyphs" textLength="45" x="8" y="598.2139">User A</text><ellipse cx="33.5" cy="611.5156" fill="#FEFECE" filter="url(#f18d2j42kzhw40)" rx="8" ry="8" style="stroke: #A80036; stroke-width: 2.0;"/><path d="M33.5,619.5156 L33.5,646.5156 M20.5,627.5156 L46.5,627.5156 M33.5,646.5156 L20.5,661.5156 M33.5,646.5156 L46.5,661.5156 " fill="#FEFECE" filter="url(#f18d2j42kzhw40)" style="stroke: #A80036; stroke-width: 2.0;"/><text fill="#000000" font-family="sans-serif" font-size="14" lengthAdjust="spacingAndGlyphs" textLength="46" x="69" y="82.9951">User B</text><ellipse cx="95" cy="13" fill="#FEFECE" filter="url(#f18d2j42kzhw40)" rx="8" ry="8" style="stroke: #A80036; stroke-width: 2.0;"/><path d="M95,21 L95,48 M82,29 L108,29 M95,48 L82,63 M95,48 L108,63 " fill="#FEFECE" filter="url(#f18d2j42kzhw40)" style="stroke: #A80036; stroke-width: 2.0;"/><text fill="#000000" font-family="sans-serif" font-size="14" lengthAdjust="spacingAndGlyphs" textLength="46" x="69" y="598.2139">User B</text><ellipse cx="95" cy="611.5156" fill="#FEFECE" filter="url(#f18d2j42kzhw40)" rx="8" ry="8" style="stroke: #A80036; stroke-width: 2.0;"/><path d="M95,619.5156 L95,646.5156 M82,627.5156 L108,627.5156 M95,646.5156 L82,661.5156 M95,646.5156 L108,661.5156 " fill="#FEFECE" filter="url(#f18d2j42kzhw40)" style="stroke: #A80036; stroke-width: 2.0;"/><rect fill="#FEFECE" filter="url(#f18d2j42kzhw40)" height="30.2969" style="stroke: #A80036; stroke-width: 1.5;" width="64" x="150" y="51"/><text fill="#000000" font-family="sans-serif" font-size="14" lengthAdjust="spacingAndGlyphs" textLength="50" x="157" y="70.9951">Service</text><rect fill="#FEFECE" filter="url(#f18d2j42kzhw40)" height="30.2969" style="stroke: #A80036; stroke-width: 1.5;" width="64" x="150" y="585.2188"/><text fill="#000000" font-family="sans-serif" font-size="14" lengthAdjust="spacingAndGlyphs" textLength="50" x="157" y="605.2139">Service</text><rect fill="#FEFECE" filter="url(#f18d2j42kzhw40)" height="30.2969" style="stroke: #A80036; stroke-width: 1.5;" width="88" x="284" y="51"/><text fill="#000000" font-family="sans-serif" font-size="14" lengthAdjust="spacingAndGlyphs" textLength="74" x="291" y="70.9951">Repository</text><rect fill="#FEFECE" filter="url(#f18d2j42kzhw40)" height="30.2969" style="stroke: #A80036; stroke-width: 1.5;" width="88" x="284" y="585.2188"/><text fill="#000000" font-family="sans-serif" font-size="14" lengthAdjust="spacingAndGlyphs" textLength="74" x="291" y="605.2139">Repository</text><rect fill="#FEFECE" filter="url(#f18d2j42kzhw40)" height="30.2969" style="stroke: #A80036; stroke-width: 1.5;" width="92" x="405" y="585.2188"/><text fill="#000000" font-family="sans-serif" font-size="14" lengthAdjust="spacingAndGlyphs" textLength="78" x="412" y="605.2139">i1: Account</text><rect fill="#FEFECE" filter="url(#f18d2j42kzhw40)" height="30.2969" style="stroke: #A80036; stroke-width: 1.5;" width="92" x="511" y="585.2188"/><text fill="#000000" font-family="sans-serif" font-size="14" lengthAdjust="spacingAndGlyphs" textLength="78" x="518" y="605.2139">i2: Account</text><polygon fill="#A80036" points="172,113.2969,182,117.2969,172,121.2969,176,117.2969" style="stroke: #A80036; stroke-width: 1.0;"/><line style="stroke: #A80036; stroke-width: 1.0;" x1="33.5" x2="178" y1="117.2969" y2="117.2969"/><text fill="#000000" font-family="sans-serif" font-size="13" lengthAdjust="spacingAndGlyphs" textLength="65" x="40.5" y="112.3638">withdraw()</text><polygon fill="#A80036" points="318,142.4297,328,146.4297,318,150.4297,322,146.4297" style="stroke: #A80036; stroke-width: 1.0;"/><line style="stroke: #A80036; stroke-width: 1.0;" x1="184" x2="324" y1="146.4297" y2="146.4297"/><text fill="#000000" font-family="sans-serif" font-size="13" lengthAdjust="spacingAndGlyphs" textLength="117" x="191" y="141.4966">getAccount("123")</text><polygon fill="#A80036" points="393,171.5625,403,175.5625,393,179.5625,397,175.5625" style="stroke: #A80036; stroke-width: 1.0;"/><line style="stroke: #A80036; stroke-width: 1.0;" x1="330" x2="399" y1="175.5625" y2="175.5625"/><text fill="#000000" font-family="sans-serif" font-size="13" lengthAdjust="spacingAndGlyphs" textLength="51" x="337" y="170.6294">create()</text><rect fill="#FEFECE" filter="url(#f18d2j42kzhw40)" height="30.2969" style="stroke: #A80036; stroke-width: 1.5;" width="92" x="405" y="154.5625"/><text fill="#000000" font-family="sans-serif" font-size="14" lengthAdjust="spacingAndGlyphs" textLength="78" x="412" y="174.5576">i1: Account</text><polygon fill="#A80036" points="341,201.8594,331,205.8594,341,209.8594,337,205.8594" style="stroke: #A80036; stroke-width: 1.0;"/><line style="stroke: #A80036; stroke-width: 1.0; stroke-dasharray: 2.0,2.0;" x1="335" x2="452" y1="205.8594" y2="205.8594"/><polygon fill="#A80036" points="195,230.8594,185,234.8594,195,238.8594,191,234.8594" style="stroke: #A80036; stroke-width: 1.0;"/><line style="stroke: #A80036; stroke-width: 1.0; stroke-dasharray: 2.0,2.0;" x1="189" x2="329" y1="234.8594" y2="234.8594"/><text fill="#000000" font-family="sans-serif" font-size="13" lengthAdjust="spacingAndGlyphs" textLength="122" x="201" y="229.9263">instance1: Account</text><polygon fill="#A80036" points="441,259.9922,451,263.9922,441,267.9922,445,263.9922" style="stroke: #A80036; stroke-width: 1.0;"/><line style="stroke: #A80036; stroke-width: 1.0;" x1="184" x2="447" y1="263.9922" y2="263.9922"/><text fill="#000000" font-family="sans-serif" font-size="13" lengthAdjust="spacingAndGlyphs" textLength="55" x="191" y="259.0591">withdraw</text><polygon fill="#A80036" points="195,274.125,185,278.125,195,282.125,191,278.125" style="stroke: #A80036; stroke-width: 1.0;"/><line style="stroke: #A80036; stroke-width: 1.0; stroke-dasharray: 2.0,2.0;" x1="189" x2="452" y1="278.125" y2="278.125"/><polygon fill="#A80036" points="172,303.125,182,307.125,172,311.125,176,307.125" style="stroke: #A80036; stroke-width: 1.0;"/><line style="stroke: #A80036; stroke-width: 1.0;" x1="95" x2="178" y1="307.125" y2="307.125"/><text fill="#000000" font-family="sans-serif" font-size="13" lengthAdjust="spacingAndGlyphs" textLength="65" x="102" y="302.1919">withdraw()</text><polygon fill="#A80036" points="318,332.2578,328,336.2578,318,340.2578,322,336.2578" style="stroke: #A80036; stroke-width: 1.0;"/><line style="stroke: #A80036; stroke-width: 1.0;" x1="184" x2="324" y1="336.2578" y2="336.2578"/><text fill="#000000" font-family="sans-serif" font-size="13" lengthAdjust="spacingAndGlyphs" textLength="117" x="191" y="331.3247">getAccount("123")</text><polygon fill="#A80036" points="499,361.3906,509,365.3906,499,369.3906,503,365.3906" style="stroke: #A80036; stroke-width: 1.0;"/><line style="stroke: #A80036; stroke-width: 1.0;" x1="330" x2="505" y1="365.3906" y2="365.3906"/><text fill="#000000" font-family="sans-serif" font-size="13" lengthAdjust="spacingAndGlyphs" textLength="51" x="337" y="360.4575">create()</text><rect fill="#FEFECE" filter="url(#f18d2j42kzhw40)" height="30.2969" style="stroke: #A80036; stroke-width: 1.5;" width="92" x="511" y="344.3906"/><text fill="#000000" font-family="sans-serif" font-size="14" lengthAdjust="spacingAndGlyphs" textLength="78" x="518" y="364.3857">i2: Account</text><polygon fill="#A80036" points="195,406.6875,185,410.6875,195,414.6875,191,410.6875" style="stroke: #A80036; stroke-width: 1.0;"/><line style="stroke: #A80036; stroke-width: 1.0; stroke-dasharray: 2.0,2.0;" x1="189" x2="329" y1="410.6875" y2="410.6875"/><text fill="#000000" font-family="sans-serif" font-size="13" lengthAdjust="spacingAndGlyphs" textLength="122" x="201" y="405.7544">instance2: Account</text><polygon fill="#A80036" points="547,435.8203,557,439.8203,547,443.8203,551,439.8203" style="stroke: #A80036; stroke-width: 1.0;"/><line style="stroke: #A80036; stroke-width: 1.0;" x1="184" x2="553" y1="439.8203" y2="439.8203"/><text fill="#000000" font-family="sans-serif" font-size="13" lengthAdjust="spacingAndGlyphs" textLength="55" x="191" y="434.8872">withdraw</text><polygon fill="#A80036" points="195,449.9531,185,453.9531,195,457.9531,191,453.9531" style="stroke: #A80036; stroke-width: 1.0;"/><line style="stroke: #A80036; stroke-width: 1.0; stroke-dasharray: 2.0,2.0;" x1="189" x2="558" y1="453.9531" y2="453.9531"/><polygon fill="#A80036" points="318,478.9531,328,482.9531,318,486.9531,322,482.9531" style="stroke: #A80036; stroke-width: 1.0;"/><line style="stroke: #A80036; stroke-width: 1.0;" x1="184" x2="324" y1="482.9531" y2="482.9531"/><text fill="#000000" font-family="sans-serif" font-size="13" lengthAdjust="spacingAndGlyphs" textLength="43" x="191" y="478.02">store()</text><polygon fill="#A80036" points="195,493.0859,185,497.0859,195,501.0859,191,497.0859" style="stroke: #A80036; stroke-width: 1.0;"/><line style="stroke: #A80036; stroke-width: 1.0; stroke-dasharray: 2.0,2.0;" x1="189" x2="329" y1="497.0859" y2="497.0859"/><polygon fill="#A80036" points="106,507.0859,96,511.0859,106,515.0859,102,511.0859" style="stroke: #A80036; stroke-width: 1.0;"/><line style="stroke: #A80036; stroke-width: 1.0; stroke-dasharray: 2.0,2.0;" x1="100" x2="183" y1="511.0859" y2="511.0859"/><polygon fill="#A80036" points="318,536.0859,328,540.0859,318,544.0859,322,540.0859" style="stroke: #A80036; stroke-width: 1.0;"/><line style="stroke: #A80036; stroke-width: 1.0;" x1="184" x2="324" y1="540.0859" y2="540.0859"/><text fill="#000000" font-family="sans-serif" font-size="13" lengthAdjust="spacingAndGlyphs" textLength="43" x="191" y="535.1528">store()</text><polygon fill="#A80036" points="195,550.2188,185,554.2188,195,558.2188,191,554.2188" style="stroke: #A80036; stroke-width: 1.0;"/><line style="stroke: #A80036; stroke-width: 1.0; stroke-dasharray: 2.0,2.0;" x1="189" x2="329" y1="554.2188" y2="554.2188"/><polygon fill="#A80036" points="44.5,564.2188,34.5,568.2188,44.5,572.2188,40.5,568.2188" style="stroke: #A80036; stroke-width: 1.0;"/><line style="stroke: #A80036; stroke-width: 1.0; stroke-dasharray: 2.0,2.0;" x1="38.5" x2="183" y1="568.2188" y2="568.2188"/><!--
@startuml

actor "User A" as U1
actor "User B" as U2
participant "Service" as S
participant "Repository" as R

U1 -> S: withdraw()
S -> R: getAccount("123")
create   "i1: Account" as A1
R -> A1: create()
return
S <- - R: instance1: Account
S -> A1: withdraw
return

U2 -> S: withdraw()
S -> R: getAccount("123")
create   "i2: Account" as A2
R -> A2: create()
S <- - R: instance2: Account
S -> A2: withdraw
S <- - A2:

S -> R: store()
return
U2 <- - S:

S -> R: store()
return
U1 <- - S:

@enduml

PlantUML version 1.2017.15(Mon Jul 03 18:45:34 CEST 2017)
(GPL source distribution)
Java Runtime: Java(TM) SE Runtime Environment
JVM: Java HotSpot(TM) 64-Bit Server VM
Java Version: 1.8.0_191-b12
Operating System: Linux
OS Version: 4.15.0-72-generic
Default Encoding: UTF-8
Language: en
Country: US
--></g></svg>