<?xml version="1.0" encoding="UTF-8" standalone="no"?><svg xmlns="http://www.w3.org/2000/svg" xmlns:xlink="http://www.w3.org/1999/xlink" contentScriptType="application/ecmascript" contentStyleType="text/css" height="118px" preserveAspectRatio="none" style="width:123px;height:118px;" version="1.1" viewBox="0 0 123 118" width="123px" zoomAndPan="magnify"><defs><filter height="300%" id="f1nbr8p0yu9d48" width="300%" x="-1" y="-1"><feGaussianBlur result="blurOut" stdDeviation="2.0"/><feColorMatrix in="blurOut" result="blurOut2" type="matrix" values="0 0 0 0 0 0 0 0 0 0 0 0 0 0 0 0 0 0 .4 0"/><feOffset dx="4.0" dy="4.0" in="blurOut2" result="blurOut3"/><feBlend in="SourceGraphic" in2="blurOut3" mode="normal"/></filter></defs><g><!--class Person--><rect fill="#FEFECE" filter="url(#f1nbr8p0yu9d48)" height="99.2188" id="Person" style="stroke: #A80036; stroke-width: 1.5;" width="106" x="6" y="8"/><ellipse cx="34.5" cy="24" fill="#ADD1B2" rx="11" ry="11" style="stroke: #A80036; stroke-width: 1.0;"/><path d="M37.4688,29.6406 Q36.8906,29.9375 36.25,30.0859 Q35.6094,30.2344 34.9063,30.2344 Q32.4063,30.2344 31.0859,28.5859 Q29.7656,26.9375 29.7656,23.8125 Q29.7656,20.6875 31.0859,19.0313 Q32.4063,17.375 34.9063,17.375 Q35.6094,17.375 36.2578,17.5313 Q36.9063,17.6875 37.4688,17.9844 L37.4688,20.7031 Q36.8438,20.125 36.25,19.8516 Q35.6563,19.5781 35.0313,19.5781 Q33.6875,19.5781 33,20.6484 Q32.3125,21.7188 32.3125,23.8125 Q32.3125,25.9063 33,26.9766 Q33.6875,28.0469 35.0313,28.0469 Q35.6563,28.0469 36.25,27.7734 Q36.8438,27.5 37.4688,26.9219 L37.4688,29.6406 Z "/><text fill="#000000" font-family="sans-serif" font-size="12" lengthAdjust="spacingAndGlyphs" textLength="44" x="51.5" y="28.1543">Person</text><line style="stroke: #A80036; stroke-width: 1.5;" x1="7" x2="111" y1="40" y2="40"/><text fill="#000000" font-family="sans-serif" font-size="11" lengthAdjust="spacingAndGlyphs" textLength="94" x="12" y="54.2104">String firstName</text><text fill="#000000" font-family="sans-serif" font-size="11" lengthAdjust="spacingAndGlyphs" textLength="92" x="12" y="67.0151">String lastName</text><text fill="#000000" font-family="sans-serif" font-size="11" lengthAdjust="spacingAndGlyphs" textLength="72" x="12" y="79.8198">String street</text><text fill="#000000" font-family="sans-serif" font-size="11" lengthAdjust="spacingAndGlyphs" textLength="53" x="12" y="92.6245">String zip</text><line style="stroke: #A80036; stroke-width: 1.5;" x1="7" x2="111" y1="99.2188" y2="99.2188"/><!--
@startuml

class Person {
  String firstName
  String lastName
  String street
  String zip
}


@enduml

PlantUML version 1.2017.15(Mon Jul 03 18:45:34 CEST 2017)
(GPL source distribution)
Java Runtime: Java(TM) SE Runtime Environment
JVM: Java HotSpot(TM) 64-Bit Server VM
Java Version: 1.8.0_191-b12
Operating System: Linux
OS Version: 4.15.0-66-generic
Default Encoding: UTF-8
Language: en
Country: US
--></g></svg>