<?xml version="1.0" encoding="UTF-8" standalone="no"?><svg xmlns="http://www.w3.org/2000/svg" xmlns:xlink="http://www.w3.org/1999/xlink" contentScriptType="application/ecmascript" contentStyleType="text/css" height="416px" preserveAspectRatio="none" style="width:1094px;height:416px;" version="1.1" viewBox="0 0 1094 416" width="1094px" zoomAndPan="magnify"><defs><filter height="300%" id="f1b2fija8782mk" width="300%" x="-1" y="-1"><feGaussianBlur result="blurOut" stdDeviation="2.0"/><feColorMatrix in="blurOut" result="blurOut2" type="matrix" values="0 0 0 0 0 0 0 0 0 0 0 0 0 0 0 0 0 0 .4 0"/><feOffset dx="4.0" dy="4.0" in="blurOut2" result="blurOut3"/><feBlend in="SourceGraphic" in2="blurOut3" mode="normal"/></filter></defs><g><line style="stroke: #A80036; stroke-width: 1.0; stroke-dasharray: 5.0,5.0;" x1="33" x2="33" y1="38.2969" y2="376.4922"/><line style="stroke: #A80036; stroke-width: 1.0; stroke-dasharray: 5.0,5.0;" x1="141" x2="141" y1="38.2969" y2="376.4922"/><line style="stroke: #A80036; stroke-width: 1.0; stroke-dasharray: 5.0,5.0;" x1="378.5" x2="378.5" y1="38.2969" y2="376.4922"/><line style="stroke: #A80036; stroke-width: 1.0; stroke-dasharray: 5.0,5.0;" x1="603.5" x2="603.5" y1="38.2969" y2="376.4922"/><line style="stroke: #A80036; stroke-width: 1.0; stroke-dasharray: 5.0,5.0;" x1="939.5" x2="939.5" y1="38.2969" y2="376.4922"/><line style="stroke: #A80036; stroke-width: 1.0; stroke-dasharray: 5.0,5.0;" x1="1040.5" x2="1040.5" y1="38.2969" y2="376.4922"/><rect fill="#FEFECE" filter="url(#f1b2fija8782mk)" height="30.2969" style="stroke: #A80036; stroke-width: 1.5;" width="46" x="8" y="3"/><text fill="#000000" font-family="sans-serif" font-size="14" lengthAdjust="spacingAndGlyphs" textLength="32" x="15" y="22.9951">User</text><rect fill="#FEFECE" filter="url(#f1b2fija8782mk)" height="30.2969" style="stroke: #A80036; stroke-width: 1.5;" width="46" x="8" y="375.4922"/><text fill="#000000" font-family="sans-serif" font-size="14" lengthAdjust="spacingAndGlyphs" textLength="32" x="15" y="395.4873">User</text><rect fill="#FEFECE" filter="url(#f1b2fija8782mk)" height="30.2969" style="stroke: #A80036; stroke-width: 1.5;" width="143" x="68" y="3"/><text fill="#000000" font-family="sans-serif" font-size="14" lengthAdjust="spacingAndGlyphs" textLength="129" x="75" y="22.9951">Application Service</text><rect fill="#FEFECE" filter="url(#f1b2fija8782mk)" height="30.2969" style="stroke: #A80036; stroke-width: 1.5;" width="143" x="68" y="375.4922"/><text fill="#000000" font-family="sans-serif" font-size="14" lengthAdjust="spacingAndGlyphs" textLength="129" x="75" y="395.4873">Application Service</text><rect fill="#FEFECE" filter="url(#f1b2fija8782mk)" height="30.2969" style="stroke: #A80036; stroke-width: 1.5;" width="148" x="302.5" y="3"/><text fill="#000000" font-family="sans-serif" font-size="14" lengthAdjust="spacingAndGlyphs" textLength="134" x="309.5" y="22.9951">Command Gateway</text><rect fill="#FEFECE" filter="url(#f1b2fija8782mk)" height="30.2969" style="stroke: #A80036; stroke-width: 1.5;" width="148" x="302.5" y="375.4922"/><text fill="#000000" font-family="sans-serif" font-size="14" lengthAdjust="spacingAndGlyphs" textLength="134" x="309.5" y="395.4873">Command Gateway</text><rect fill="#FEFECE" filter="url(#f1b2fija8782mk)" height="30.2969" style="stroke: #A80036; stroke-width: 1.5;" width="124" x="539.5" y="3"/><text fill="#000000" font-family="sans-serif" font-size="14" lengthAdjust="spacingAndGlyphs" textLength="110" x="546.5" y="22.9951">Account X Actor</text><rect fill="#FEFECE" filter="url(#f1b2fija8782mk)" height="30.2969" style="stroke: #A80036; stroke-width: 1.5;" width="124" x="539.5" y="375.4922"/><text fill="#000000" font-family="sans-serif" font-size="14" lengthAdjust="spacingAndGlyphs" textLength="110" x="546.5" y="395.4873">Account X Actor</text><rect fill="#FEFECE" filter="url(#f1b2fija8782mk)" height="30.2969" style="stroke: #A80036; stroke-width: 1.5;" width="84" x="895.5" y="3"/><text fill="#000000" font-family="sans-serif" font-size="14" lengthAdjust="spacingAndGlyphs" textLength="70" x="902.5" y="22.9951">Account X</text><rect fill="#FEFECE" filter="url(#f1b2fija8782mk)" height="30.2969" style="stroke: #A80036; stroke-width: 1.5;" width="84" x="895.5" y="375.4922"/><text fill="#000000" font-family="sans-serif" font-size="14" lengthAdjust="spacingAndGlyphs" textLength="70" x="902.5" y="395.4873">Account X</text><rect fill="#FEFECE" filter="url(#f1b2fija8782mk)" height="30.2969" style="stroke: #A80036; stroke-width: 1.5;" width="90" x="993.5" y="3"/><text fill="#000000" font-family="sans-serif" font-size="14" lengthAdjust="spacingAndGlyphs" textLength="76" x="1000.5" y="22.9951">EventStore</text><rect fill="#FEFECE" filter="url(#f1b2fija8782mk)" height="30.2969" style="stroke: #A80036; stroke-width: 1.5;" width="90" x="993.5" y="375.4922"/><text fill="#000000" font-family="sans-serif" font-size="14" lengthAdjust="spacingAndGlyphs" textLength="76" x="1000.5" y="395.4873">EventStore</text><polygon fill="#A80036" points="129.5,65.2969,139.5,69.2969,129.5,73.2969,133.5,69.2969" style="stroke: #A80036; stroke-width: 1.0;"/><line style="stroke: #A80036; stroke-width: 1.0;" x1="33" x2="135.5" y1="69.2969" y2="69.2969"/><text fill="#000000" font-family="sans-serif" font-size="13" lengthAdjust="spacingAndGlyphs" textLength="55" x="40" y="64.3638">withdraw</text><polygon fill="#A80036" points="366.5,94.4297,376.5,98.4297,366.5,102.4297,370.5,98.4297" style="stroke: #A80036; stroke-width: 1.0;"/><line style="stroke: #A80036; stroke-width: 1.0;" x1="141.5" x2="372.5" y1="98.4297" y2="98.4297"/><text fill="#000000" font-family="sans-serif" font-size="13" lengthAdjust="spacingAndGlyphs" textLength="213" x="148.5" y="93.4966">handle(cmd: WithdrawCommand)</text><polygon fill="#A80036" points="591.5,123.5625,601.5,127.5625,591.5,131.5625,595.5,127.5625" style="stroke: #A80036; stroke-width: 1.0;"/><line style="stroke: #A80036; stroke-width: 1.0;" x1="378.5" x2="597.5" y1="127.5625" y2="127.5625"/><text fill="#000000" font-family="sans-serif" font-size="13" lengthAdjust="spacingAndGlyphs" textLength="201" x="385.5" y="122.6294">send(cmd: WithdrawCommand)</text><polygon fill="#A80036" points="1028.5,152.6953,1038.5,156.6953,1028.5,160.6953,1032.5,156.6953" style="stroke: #A80036; stroke-width: 1.0;"/><line style="stroke: #A80036; stroke-width: 1.0;" x1="603.5" x2="1034.5" y1="156.6953" y2="156.6953"/><text fill="#000000" font-family="sans-serif" font-size="13" lengthAdjust="spacingAndGlyphs" textLength="150" x="610.5" y="151.7622">load event stream for X</text><polygon fill="#A80036" points="614.5,181.8281,604.5,185.8281,614.5,189.8281,610.5,185.8281" style="stroke: #A80036; stroke-width: 1.0;"/><line style="stroke: #A80036; stroke-width: 1.0; stroke-dasharray: 2.0,2.0;" x1="608.5" x2="1039.5" y1="185.8281" y2="185.8281"/><text fill="#000000" font-family="sans-serif" font-size="13" lengthAdjust="spacingAndGlyphs" textLength="100" x="620.5" y="180.895">EventStream: X</text><polygon fill="#A80036" points="927.5,210.9609,937.5,214.9609,927.5,218.9609,931.5,214.9609" style="stroke: #A80036; stroke-width: 1.0;"/><line style="stroke: #A80036; stroke-width: 1.0;" x1="603.5" x2="933.5" y1="214.9609" y2="214.9609"/><text fill="#000000" font-family="sans-serif" font-size="13" lengthAdjust="spacingAndGlyphs" textLength="215" x="610.5" y="210.0278">apply events from EventStream X</text><polygon fill="#A80036" points="614.5,225.0938,604.5,229.0938,614.5,233.0938,610.5,229.0938" style="stroke: #A80036; stroke-width: 1.0;"/><line style="stroke: #A80036; stroke-width: 1.0; stroke-dasharray: 2.0,2.0;" x1="608.5" x2="938.5" y1="229.0938" y2="229.0938"/><polygon fill="#A80036" points="927.5,254.0938,937.5,258.0938,927.5,262.0938,931.5,258.0938" style="stroke: #A80036; stroke-width: 1.0;"/><line style="stroke: #A80036; stroke-width: 1.0;" x1="603.5" x2="933.5" y1="258.0938" y2="258.0938"/><text fill="#000000" font-family="sans-serif" font-size="13" lengthAdjust="spacingAndGlyphs" textLength="312" x="610.5" y="253.1606">handle(cmd: WithdrawCommand) : List&lt;Events&gt;</text><polygon fill="#A80036" points="614.5,268.2266,604.5,272.2266,614.5,276.2266,610.5,272.2266" style="stroke: #A80036; stroke-width: 1.0;"/><line style="stroke: #A80036; stroke-width: 1.0; stroke-dasharray: 2.0,2.0;" x1="608.5" x2="938.5" y1="272.2266" y2="272.2266"/><polygon fill="#A80036" points="1028.5,297.2266,1038.5,301.2266,1028.5,305.2266,1032.5,301.2266" style="stroke: #A80036; stroke-width: 1.0;"/><line style="stroke: #A80036; stroke-width: 1.0;" x1="603.5" x2="1034.5" y1="301.2266" y2="301.2266"/><text fill="#000000" font-family="sans-serif" font-size="13" lengthAdjust="spacingAndGlyphs" textLength="178" x="610.5" y="296.2935">save(events: List&lt;Events&gt;)</text><polygon fill="#A80036" points="389.5,326.3594,379.5,330.3594,389.5,334.3594,385.5,330.3594" style="stroke: #A80036; stroke-width: 1.0;"/><line style="stroke: #A80036; stroke-width: 1.0;" x1="383.5" x2="602.5" y1="330.3594" y2="330.3594"/><text fill="#000000" font-family="sans-serif" font-size="13" lengthAdjust="spacingAndGlyphs" textLength="116" x="395.5" y="325.4263">send(r: Response)</text><polygon fill="#A80036" points="152.5,340.4922,142.5,344.4922,152.5,348.4922,148.5,344.4922" style="stroke: #A80036; stroke-width: 1.0;"/><line style="stroke: #A80036; stroke-width: 1.0; stroke-dasharray: 2.0,2.0;" x1="146.5" x2="377.5" y1="344.4922" y2="344.4922"/><polygon fill="#A80036" points="44,354.4922,34,358.4922,44,362.4922,40,358.4922" style="stroke: #A80036; stroke-width: 1.0;"/><line style="stroke: #A80036; stroke-width: 1.0; stroke-dasharray: 2.0,2.0;" x1="38" x2="140.5" y1="358.4922" y2="358.4922"/><!--
@startuml

participant "User" as U
participant "Application Service" as AS
participant "Command Gateway" as CG
participant "Account X Actor" as AC
participant "Account X" as A
participant "EventStore" as ES

U -> AS: withdraw
AS -> CG: handle(cmd: WithdrawCommand)
CG -> AC: send(cmd: WithdrawCommand)
AC -> ES: load event stream for X
AC <- - ES: EventStream: X
AC -> A: apply events from EventStream X
AC <- - A
AC -> A: handle(cmd: WithdrawCommand) : List<Events>
AC <- - A:
AC -> ES: save(events: List<Events>)
CG <- AC: send(r: Response)
AS <- - CG
U <- - AS

@enduml

PlantUML version 1.2017.15(Mon Jul 03 18:45:34 CEST 2017)
(GPL source distribution)
Java Runtime: Java(TM) SE Runtime Environment
JVM: Java HotSpot(TM) 64-Bit Server VM
Java Version: 1.8.0_191-b12
Operating System: Linux
OS Version: 4.15.0-72-generic
Default Encoding: UTF-8
Language: en
Country: US
--></g></svg>