<?xml version="1.0" encoding="UTF-8" standalone="no"?><svg xmlns="http://www.w3.org/2000/svg" xmlns:xlink="http://www.w3.org/1999/xlink" contentScriptType="application/ecmascript" contentStyleType="text/css" height="497px" preserveAspectRatio="none" style="width:1082px;height:497px;" version="1.1" viewBox="0 0 1082 497" width="1082px" zoomAndPan="magnify"><defs><filter height="300%" id="f1ln3inh6slvah" width="300%" x="-1" y="-1"><feGaussianBlur result="blurOut" stdDeviation="2.0"/><feColorMatrix in="blurOut" result="blurOut2" type="matrix" values="0 0 0 0 0 0 0 0 0 0 0 0 0 0 0 0 0 0 .4 0"/><feOffset dx="4.0" dy="4.0" in="blurOut2" result="blurOut3"/><feBlend in="SourceGraphic" in2="blurOut3" mode="normal"/></filter></defs><g><line style="stroke: #A80036; stroke-width: 1.0; stroke-dasharray: 5.0,5.0;" x1="27" x2="27" y1="86.2969" y2="410.4922"/><line style="stroke: #A80036; stroke-width: 1.0; stroke-dasharray: 5.0,5.0;" x1="129" x2="129" y1="86.2969" y2="410.4922"/><line style="stroke: #A80036; stroke-width: 1.0; stroke-dasharray: 5.0,5.0;" x1="366.5" x2="366.5" y1="86.2969" y2="410.4922"/><line style="stroke: #A80036; stroke-width: 1.0; stroke-dasharray: 5.0,5.0;" x1="591.5" x2="591.5" y1="86.2969" y2="410.4922"/><line style="stroke: #A80036; stroke-width: 1.0; stroke-dasharray: 5.0,5.0;" x1="927.5" x2="927.5" y1="86.2969" y2="410.4922"/><line style="stroke: #A80036; stroke-width: 1.0; stroke-dasharray: 5.0,5.0;" x1="1028.5" x2="1028.5" y1="86.2969" y2="410.4922"/><text fill="#000000" font-family="sans-serif" font-size="14" lengthAdjust="spacingAndGlyphs" textLength="32" x="8" y="82.9951">User</text><ellipse cx="27" cy="13" fill="#FEFECE" filter="url(#f1ln3inh6slvah)" rx="8" ry="8" style="stroke: #A80036; stroke-width: 2.0;"/><path d="M27,21 L27,48 M14,29 L40,29 M27,48 L14,63 M27,48 L40,63 " fill="#FEFECE" filter="url(#f1ln3inh6slvah)" style="stroke: #A80036; stroke-width: 2.0;"/><text fill="#000000" font-family="sans-serif" font-size="14" lengthAdjust="spacingAndGlyphs" textLength="32" x="8" y="422.4873">User</text><ellipse cx="27" cy="435.7891" fill="#FEFECE" filter="url(#f1ln3inh6slvah)" rx="8" ry="8" style="stroke: #A80036; stroke-width: 2.0;"/><path d="M27,443.7891 L27,470.7891 M14,451.7891 L40,451.7891 M27,470.7891 L14,485.7891 M27,470.7891 L40,485.7891 " fill="#FEFECE" filter="url(#f1ln3inh6slvah)" style="stroke: #A80036; stroke-width: 2.0;"/><rect fill="#FEFECE" filter="url(#f1ln3inh6slvah)" height="30.2969" style="stroke: #A80036; stroke-width: 1.5;" width="143" x="56" y="51"/><text fill="#000000" font-family="sans-serif" font-size="14" lengthAdjust="spacingAndGlyphs" textLength="129" x="63" y="70.9951">Application Service</text><rect fill="#FEFECE" filter="url(#f1ln3inh6slvah)" height="30.2969" style="stroke: #A80036; stroke-width: 1.5;" width="143" x="56" y="409.4922"/><text fill="#000000" font-family="sans-serif" font-size="14" lengthAdjust="spacingAndGlyphs" textLength="129" x="63" y="429.4873">Application Service</text><rect fill="#FEFECE" filter="url(#f1ln3inh6slvah)" height="30.2969" style="stroke: #A80036; stroke-width: 1.5;" width="148" x="290.5" y="51"/><text fill="#000000" font-family="sans-serif" font-size="14" lengthAdjust="spacingAndGlyphs" textLength="134" x="297.5" y="70.9951">Command Gateway</text><rect fill="#FEFECE" filter="url(#f1ln3inh6slvah)" height="30.2969" style="stroke: #A80036; stroke-width: 1.5;" width="148" x="290.5" y="409.4922"/><text fill="#000000" font-family="sans-serif" font-size="14" lengthAdjust="spacingAndGlyphs" textLength="134" x="297.5" y="429.4873">Command Gateway</text><rect fill="#FEFECE" filter="url(#f1ln3inh6slvah)" height="30.2969" style="stroke: #A80036; stroke-width: 1.5;" width="124" x="527.5" y="51"/><text fill="#000000" font-family="sans-serif" font-size="14" lengthAdjust="spacingAndGlyphs" textLength="110" x="534.5" y="70.9951">Account X Actor</text><rect fill="#FEFECE" filter="url(#f1ln3inh6slvah)" height="30.2969" style="stroke: #A80036; stroke-width: 1.5;" width="124" x="527.5" y="409.4922"/><text fill="#000000" font-family="sans-serif" font-size="14" lengthAdjust="spacingAndGlyphs" textLength="110" x="534.5" y="429.4873">Account X Actor</text><rect fill="#FEFECE" filter="url(#f1ln3inh6slvah)" height="30.2969" style="stroke: #A80036; stroke-width: 1.5;" width="84" x="883.5" y="51"/><text fill="#000000" font-family="sans-serif" font-size="14" lengthAdjust="spacingAndGlyphs" textLength="70" x="890.5" y="70.9951">Account X</text><rect fill="#FEFECE" filter="url(#f1ln3inh6slvah)" height="30.2969" style="stroke: #A80036; stroke-width: 1.5;" width="84" x="883.5" y="409.4922"/><text fill="#000000" font-family="sans-serif" font-size="14" lengthAdjust="spacingAndGlyphs" textLength="70" x="890.5" y="429.4873">Account X</text><rect fill="#FEFECE" filter="url(#f1ln3inh6slvah)" height="30.2969" style="stroke: #A80036; stroke-width: 1.5;" width="90" x="981.5" y="51"/><text fill="#000000" font-family="sans-serif" font-size="14" lengthAdjust="spacingAndGlyphs" textLength="76" x="988.5" y="70.9951">EventStore</text><rect fill="#FEFECE" filter="url(#f1ln3inh6slvah)" height="30.2969" style="stroke: #A80036; stroke-width: 1.5;" width="90" x="981.5" y="409.4922"/><text fill="#000000" font-family="sans-serif" font-size="14" lengthAdjust="spacingAndGlyphs" textLength="76" x="988.5" y="429.4873">EventStore</text><polygon fill="#A80036" points="117.5,113.2969,127.5,117.2969,117.5,121.2969,121.5,117.2969" style="stroke: #A80036; stroke-width: 1.0;"/><line style="stroke: #A80036; stroke-width: 1.0;" x1="27" x2="123.5" y1="117.2969" y2="117.2969"/><text fill="#000000" font-family="sans-serif" font-size="13" lengthAdjust="spacingAndGlyphs" textLength="55" x="34" y="112.3638">withdraw</text><polygon fill="#A80036" points="354.5,142.4297,364.5,146.4297,354.5,150.4297,358.5,146.4297" style="stroke: #A80036; stroke-width: 1.0;"/><line style="stroke: #A80036; stroke-width: 1.0;" x1="129.5" x2="360.5" y1="146.4297" y2="146.4297"/><text fill="#000000" font-family="sans-serif" font-size="13" lengthAdjust="spacingAndGlyphs" textLength="213" x="136.5" y="141.4966">handle(cmd: WithdrawCommand)</text><polygon fill="#A80036" points="579.5,171.5625,589.5,175.5625,579.5,179.5625,583.5,175.5625" style="stroke: #A80036; stroke-width: 1.0;"/><line style="stroke: #A80036; stroke-width: 1.0;" x1="366.5" x2="585.5" y1="175.5625" y2="175.5625"/><text fill="#000000" font-family="sans-serif" font-size="13" lengthAdjust="spacingAndGlyphs" textLength="201" x="373.5" y="170.6294">send(cmd: WithdrawCommand)</text><polygon fill="#A80036" points="1016.5,200.6953,1026.5,204.6953,1016.5,208.6953,1020.5,204.6953" style="stroke: #A80036; stroke-width: 1.0;"/><line style="stroke: #A80036; stroke-width: 1.0;" x1="591.5" x2="1022.5" y1="204.6953" y2="204.6953"/><text fill="#000000" font-family="sans-serif" font-size="13" lengthAdjust="spacingAndGlyphs" textLength="150" x="598.5" y="199.7622">load event stream for X</text><polygon fill="#A80036" points="602.5,229.8281,592.5,233.8281,602.5,237.8281,598.5,233.8281" style="stroke: #A80036; stroke-width: 1.0;"/><line style="stroke: #A80036; stroke-width: 1.0; stroke-dasharray: 2.0,2.0;" x1="596.5" x2="1027.5" y1="233.8281" y2="233.8281"/><text fill="#000000" font-family="sans-serif" font-size="13" lengthAdjust="spacingAndGlyphs" textLength="100" x="608.5" y="228.895">EventStream: X</text><polygon fill="#A80036" points="915.5,258.9609,925.5,262.9609,915.5,266.9609,919.5,262.9609" style="stroke: #A80036; stroke-width: 1.0;"/><line style="stroke: #A80036; stroke-width: 1.0;" x1="591.5" x2="921.5" y1="262.9609" y2="262.9609"/><text fill="#000000" font-family="sans-serif" font-size="13" lengthAdjust="spacingAndGlyphs" textLength="215" x="598.5" y="258.0278">apply events from EventStream X</text><polygon fill="#A80036" points="602.5,273.0938,592.5,277.0938,602.5,281.0938,598.5,277.0938" style="stroke: #A80036; stroke-width: 1.0;"/><line style="stroke: #A80036; stroke-width: 1.0; stroke-dasharray: 2.0,2.0;" x1="596.5" x2="926.5" y1="277.0938" y2="277.0938"/><polygon fill="#A80036" points="915.5,302.0938,925.5,306.0938,915.5,310.0938,919.5,306.0938" style="stroke: #A80036; stroke-width: 1.0;"/><line style="stroke: #A80036; stroke-width: 1.0;" x1="591.5" x2="921.5" y1="306.0938" y2="306.0938"/><text fill="#000000" font-family="sans-serif" font-size="13" lengthAdjust="spacingAndGlyphs" textLength="312" x="598.5" y="301.1606">handle(cmd: WithdrawCommand) : List&lt;Events&gt;</text><polygon fill="#A80036" points="602.5,316.2266,592.5,320.2266,602.5,324.2266,598.5,320.2266" style="stroke: #A80036; stroke-width: 1.0;"/><line style="stroke: #A80036; stroke-width: 1.0; stroke-dasharray: 2.0,2.0;" x1="596.5" x2="926.5" y1="320.2266" y2="320.2266"/><polygon fill="#A80036" points="1016.5,345.2266,1026.5,349.2266,1016.5,353.2266,1020.5,349.2266" style="stroke: #A80036; stroke-width: 1.0;"/><line style="stroke: #A80036; stroke-width: 1.0;" x1="591.5" x2="1022.5" y1="349.2266" y2="349.2266"/><text fill="#000000" font-family="sans-serif" font-size="13" lengthAdjust="spacingAndGlyphs" textLength="178" x="598.5" y="344.2935">save(events: List&lt;Events&gt;)</text><polygon fill="#A80036" points="377.5,374.3594,367.5,378.3594,377.5,382.3594,373.5,378.3594" style="stroke: #A80036; stroke-width: 1.0;"/><line style="stroke: #A80036; stroke-width: 1.0; stroke-dasharray: 2.0,2.0;" x1="371.5" x2="590.5" y1="378.3594" y2="378.3594"/><text fill="#000000" font-family="sans-serif" font-size="13" lengthAdjust="spacingAndGlyphs" textLength="116" x="383.5" y="373.4263">send(r: Response)</text><polygon fill="#A80036" points="140.5,388.4922,130.5,392.4922,140.5,396.4922,136.5,392.4922" style="stroke: #A80036; stroke-width: 1.0;"/><line style="stroke: #A80036; stroke-width: 1.0; stroke-dasharray: 2.0,2.0;" x1="134.5" x2="365.5" y1="392.4922" y2="392.4922"/><!--
@startuml

actor "User" as U
participant "Application Service" as AS
participant "Command Gateway" as CG
participant "Account X Actor" as AC
participant "Account X" as A
participant "EventStore" as ES

U -> AS: withdraw
AS -> CG: handle(cmd: WithdrawCommand)
CG -> AC: send(cmd: WithdrawCommand)
AC -> ES: load event stream for X
AC <- - ES: EventStream: X
AC -> A: apply events from EventStream X
AC <- - A
AC -> A: handle(cmd: WithdrawCommand) : List<Events>
AC <- - A:
AC -> ES: save(events: List<Events>)
CG <- - AC: send(r: Response)
AS <- - CG

@enduml

PlantUML version 1.2017.15(Mon Jul 03 18:45:34 CEST 2017)
(GPL source distribution)
Java Runtime: Java(TM) SE Runtime Environment
JVM: Java HotSpot(TM) 64-Bit Server VM
Java Version: 1.8.0_191-b12
Operating System: Linux
OS Version: 4.15.0-72-generic
Default Encoding: UTF-8
Language: en
Country: US
--></g></svg>