<?xml version="1.0" encoding="UTF-8" standalone="no"?><svg xmlns="http://www.w3.org/2000/svg" xmlns:xlink="http://www.w3.org/1999/xlink" contentScriptType="application/ecmascript" contentStyleType="text/css" height="327px" preserveAspectRatio="none" style="width:277px;height:327px;" version="1.1" viewBox="0 0 277 327" width="277px" zoomAndPan="magnify"><defs><filter height="300%" id="fxita7om6bqep" width="300%" x="-1" y="-1"><feGaussianBlur result="blurOut" stdDeviation="2.0"/><feColorMatrix in="blurOut" result="blurOut2" type="matrix" values="0 0 0 0 0 0 0 0 0 0 0 0 0 0 0 0 0 0 .4 0"/><feOffset dx="4.0" dy="4.0" in="blurOut2" result="blurOut3"/><feBlend in="SourceGraphic" in2="blurOut3" mode="normal"/></filter></defs><g><!--cluster org.jaun.app.domain--><polygon fill="#FFFFFF" filter="url(#fxita7om6bqep)" points="14,16,181,16,188,38.2969,191,38.2969,191,99,14,99,14,16" style="stroke: #000000; stroke-width: 2.0;"/><line style="stroke: #000000; stroke-width: 2.0;" x1="14" x2="188" y1="38.2969" y2="38.2969"/><text fill="#000000" font-family="sans-serif" font-size="14" font-weight="bold" lengthAdjust="spacingAndGlyphs" textLength="161" x="18" y="30.9951">org.jaun.app.domain</text><!--cluster org.jaun.app.infrastructure--><polygon fill="#FFFFFF" filter="url(#fxita7om6bqep)" points="25,124,245,124,252,146.2969,255,146.2969,255,315,25,315,25,124" style="stroke: #000000; stroke-width: 2.0;"/><line style="stroke: #000000; stroke-width: 2.0;" x1="25" x2="252" y1="146.2969" y2="146.2969"/><text fill="#000000" font-family="sans-serif" font-size="14" font-weight="bold" lengthAdjust="spacingAndGlyphs" textLength="214" x="29" y="138.9951">org.jaun.app.infrastructure</text><!--class MyBusinessLogic--><rect fill="#FEFECE" filter="url(#fxita7om6bqep)" height="48" id="MyBusinessLogic" style="stroke: #A80036; stroke-width: 1.5;" width="136" x="34" y="43"/><ellipse cx="49" cy="59" fill="#ADD1B2" rx="11" ry="11" style="stroke: #A80036; stroke-width: 1.0;"/><path d="M51.9688,64.6406 Q51.3906,64.9375 50.75,65.0859 Q50.1094,65.2344 49.4063,65.2344 Q46.9063,65.2344 45.5859,63.5859 Q44.2656,61.9375 44.2656,58.8125 Q44.2656,55.6875 45.5859,54.0313 Q46.9063,52.375 49.4063,52.375 Q50.1094,52.375 50.7578,52.5313 Q51.4063,52.6875 51.9688,52.9844 L51.9688,55.7031 Q51.3438,55.125 50.75,54.8516 Q50.1563,54.5781 49.5313,54.5781 Q48.1875,54.5781 47.5,55.6484 Q46.8125,56.7188 46.8125,58.8125 Q46.8125,60.9063 47.5,61.9766 Q48.1875,63.0469 49.5313,63.0469 Q50.1563,63.0469 50.75,62.7734 Q51.3438,62.5 51.9688,61.9219 L51.9688,64.6406 Z "/><text fill="#000000" font-family="sans-serif" font-size="12" lengthAdjust="spacingAndGlyphs" textLength="104" x="63" y="63.1543">MyBusinessLogic</text><line style="stroke: #A80036; stroke-width: 1.5;" x1="35" x2="169" y1="75" y2="75"/><line style="stroke: #A80036; stroke-width: 1.5;" x1="35" x2="169" y1="83" y2="83"/><!--class org.jaun.app.infrastructure.MyDao--><rect fill="#FEFECE" filter="url(#fxita7om6bqep)" height="48" id="org.jaun.app.infrastructure.MyDao" style="stroke: #A80036; stroke-width: 1.5;" width="73" x="65.5" y="151"/><ellipse cx="80.5" cy="167" fill="#ADD1B2" rx="11" ry="11" style="stroke: #A80036; stroke-width: 1.0;"/><path d="M83.4688,172.6406 Q82.8906,172.9375 82.25,173.0859 Q81.6094,173.2344 80.9063,173.2344 Q78.4063,173.2344 77.0859,171.5859 Q75.7656,169.9375 75.7656,166.8125 Q75.7656,163.6875 77.0859,162.0313 Q78.4063,160.375 80.9063,160.375 Q81.6094,160.375 82.2578,160.5313 Q82.9063,160.6875 83.4688,160.9844 L83.4688,163.7031 Q82.8438,163.125 82.25,162.8516 Q81.6563,162.5781 81.0313,162.5781 Q79.6875,162.5781 79,163.6484 Q78.3125,164.7188 78.3125,166.8125 Q78.3125,168.9063 79,169.9766 Q79.6875,171.0469 81.0313,171.0469 Q81.6563,171.0469 82.25,170.7734 Q82.8438,170.5 83.4688,169.9219 L83.4688,172.6406 Z "/><text fill="#000000" font-family="sans-serif" font-size="12" lengthAdjust="spacingAndGlyphs" textLength="41" x="94.5" y="171.1543">MyDao</text><line style="stroke: #A80036; stroke-width: 1.5;" x1="66.5" x2="137.5" y1="183" y2="183"/><line style="stroke: #A80036; stroke-width: 1.5;" x1="66.5" x2="137.5" y1="191" y2="191"/><!--class org.jaun.app.infrastructure.MyJdbDaoImpl--><rect fill="#FEFECE" filter="url(#fxita7om6bqep)" height="48" id="org.jaun.app.infrastructure.MyJdbDaoImpl" style="stroke: #A80036; stroke-width: 1.5;" width="117" x="43.5" y="259"/><ellipse cx="58.5" cy="275" fill="#ADD1B2" rx="11" ry="11" style="stroke: #A80036; stroke-width: 1.0;"/><path d="M61.4688,280.6406 Q60.8906,280.9375 60.25,281.0859 Q59.6094,281.2344 58.9063,281.2344 Q56.4063,281.2344 55.0859,279.5859 Q53.7656,277.9375 53.7656,274.8125 Q53.7656,271.6875 55.0859,270.0313 Q56.4063,268.375 58.9063,268.375 Q59.6094,268.375 60.2578,268.5313 Q60.9063,268.6875 61.4688,268.9844 L61.4688,271.7031 Q60.8438,271.125 60.25,270.8516 Q59.6563,270.5781 59.0313,270.5781 Q57.6875,270.5781 57,271.6484 Q56.3125,272.7188 56.3125,274.8125 Q56.3125,276.9063 57,277.9766 Q57.6875,279.0469 59.0313,279.0469 Q59.6563,279.0469 60.25,278.7734 Q60.8438,278.5 61.4688,277.9219 L61.4688,280.6406 Z "/><text fill="#000000" font-family="sans-serif" font-size="12" lengthAdjust="spacingAndGlyphs" textLength="85" x="72.5" y="279.1543">MyJdbDaoImpl</text><line style="stroke: #A80036; stroke-width: 1.5;" x1="44.5" x2="159.5" y1="291" y2="291"/><line style="stroke: #A80036; stroke-width: 1.5;" x1="44.5" x2="159.5" y1="299" y2="299"/><!--link MyBusinessLogic to org.jaun.app.infrastructure.MyDao--><path d="M102,91.2373 C102,107.3565 102,128.6212 102,145.6911 " fill="none" id="MyBusinessLogic-org.jaun.app.infrastructure.MyDao" style="stroke: #A80036; stroke-width: 1.0;"/><polygon fill="#A80036" points="102,150.8436,106,141.8436,102,145.8436,98,141.8436,102,150.8436" style="stroke: #A80036; stroke-width: 1.0;"/><!--link org.jaun.app.infrastructure.MyDao to org.jaun.app.infrastructure.MyJdbDaoImpl--><path d="M102,219.2911 C102,232.8171 102,247.1835 102,258.8436 " fill="none" id="org.jaun.app.infrastructure.MyDao-org.jaun.app.infrastructure.MyJdbDaoImpl" style="stroke: #A80036; stroke-width: 1.0;"/><polygon fill="none" points="95.0001,219.2373,102,199.2373,109.0001,219.2373,95.0001,219.2373" style="stroke: #A80036; stroke-width: 1.0;"/><!--
@startuml

package org.jaun.app.domain {
  class MyBusinessLogic
  
  MyBusinessLogic - -> org.jaun.app.infrastructure.MyDao
}

package org.jaun.app.infrastructure {
  class MyDao
  class MyJdbDaoImpl
  
  MyDao <|- - MyJdbDaoImpl
}

@enduml

PlantUML version 1.2017.15(Mon Jul 03 18:45:34 CEST 2017)
(GPL source distribution)
Java Runtime: Java(TM) SE Runtime Environment
JVM: Java HotSpot(TM) 64-Bit Server VM
Java Version: 1.8.0_191-b12
Operating System: Linux
OS Version: 4.15.0-91-generic
Default Encoding: UTF-8
Language: en
Country: US
--></g></svg>