<?xml version="1.0" encoding="UTF-8" standalone="no"?><svg xmlns="http://www.w3.org/2000/svg" xmlns:xlink="http://www.w3.org/1999/xlink" contentScriptType="application/ecmascript" contentStyleType="text/css" height="324px" preserveAspectRatio="none" style="width:404px;height:324px;" version="1.1" viewBox="0 0 404 324" width="404px" zoomAndPan="magnify"><defs><filter height="300%" id="flzt3j93qnx04" width="300%" x="-1" y="-1"><feGaussianBlur result="blurOut" stdDeviation="2.0"/><feColorMatrix in="blurOut" result="blurOut2" type="matrix" values="0 0 0 0 0 0 0 0 0 0 0 0 0 0 0 0 0 0 .4 0"/><feOffset dx="4.0" dy="4.0" in="blurOut2" result="blurOut3"/><feBlend in="SourceGraphic" in2="blurOut3" mode="normal"/></filter></defs><g><line style="stroke: #A80036; stroke-width: 1.0; stroke-dasharray: 5.0,5.0;" x1="27" x2="27" y1="86.2969" y2="236.8281"/><line style="stroke: #A80036; stroke-width: 1.0; stroke-dasharray: 5.0,5.0;" x1="75" x2="75" y1="86.2969" y2="236.8281"/><line style="stroke: #A80036; stroke-width: 1.0; stroke-dasharray: 5.0,5.0;" x1="138" x2="138" y1="86.2969" y2="236.8281"/><line style="stroke: #A80036; stroke-width: 1.0; stroke-dasharray: 5.0,5.0;" x1="253" x2="253" y1="86.2969" y2="236.8281"/><line style="stroke: #A80036; stroke-width: 1.0; stroke-dasharray: 5.0,5.0;" x1="353" x2="353" y1="86.2969" y2="236.8281"/><text fill="#000000" font-family="sans-serif" font-size="14" lengthAdjust="spacingAndGlyphs" textLength="32" x="8" y="82.9951">User</text><ellipse cx="27" cy="13" fill="#FEFECE" filter="url(#flzt3j93qnx04)" rx="8" ry="8" style="stroke: #A80036; stroke-width: 2.0;"/><path d="M27,21 L27,48 M14,29 L40,29 M27,48 L14,63 M27,48 L40,63 " fill="#FEFECE" filter="url(#flzt3j93qnx04)" style="stroke: #A80036; stroke-width: 2.0;"/><text fill="#000000" font-family="sans-serif" font-size="14" lengthAdjust="spacingAndGlyphs" textLength="32" x="8" y="248.8232">User</text><ellipse cx="27" cy="262.125" fill="#FEFECE" filter="url(#flzt3j93qnx04)" rx="8" ry="8" style="stroke: #A80036; stroke-width: 2.0;"/><path d="M27,270.125 L27,297.125 M14,278.125 L40,278.125 M27,297.125 L14,312.125 M27,297.125 L40,312.125 " fill="#FEFECE" filter="url(#flzt3j93qnx04)" style="stroke: #A80036; stroke-width: 2.0;"/><text fill="#000000" font-family="sans-serif" font-size="14" lengthAdjust="spacingAndGlyphs" textLength="32" x="56" y="82.9951">User</text><ellipse cx="75" cy="13" fill="#FEFECE" filter="url(#flzt3j93qnx04)" rx="8" ry="8" style="stroke: #A80036; stroke-width: 2.0;"/><path d="M75,21 L75,48 M62,29 L88,29 M75,48 L62,63 M75,48 L88,63 " fill="#FEFECE" filter="url(#flzt3j93qnx04)" style="stroke: #A80036; stroke-width: 2.0;"/><text fill="#000000" font-family="sans-serif" font-size="14" lengthAdjust="spacingAndGlyphs" textLength="32" x="56" y="248.8232">User</text><ellipse cx="75" cy="262.125" fill="#FEFECE" filter="url(#flzt3j93qnx04)" rx="8" ry="8" style="stroke: #A80036; stroke-width: 2.0;"/><path d="M75,270.125 L75,297.125 M62,278.125 L88,278.125 M75,297.125 L62,312.125 M75,297.125 L88,312.125 " fill="#FEFECE" filter="url(#flzt3j93qnx04)" style="stroke: #A80036; stroke-width: 2.0;"/><rect fill="#FEFECE" filter="url(#flzt3j93qnx04)" height="30.2969" style="stroke: #A80036; stroke-width: 1.5;" width="64" x="104" y="51"/><text fill="#000000" font-family="sans-serif" font-size="14" lengthAdjust="spacingAndGlyphs" textLength="50" x="111" y="70.9951">Service</text><rect fill="#FEFECE" filter="url(#flzt3j93qnx04)" height="30.2969" style="stroke: #A80036; stroke-width: 1.5;" width="64" x="104" y="235.8281"/><text fill="#000000" font-family="sans-serif" font-size="14" lengthAdjust="spacingAndGlyphs" textLength="50" x="111" y="255.8232">Service</text><rect fill="#FEFECE" filter="url(#flzt3j93qnx04)" height="30.2969" style="stroke: #A80036; stroke-width: 1.5;" width="88" x="207" y="51"/><text fill="#000000" font-family="sans-serif" font-size="14" lengthAdjust="spacingAndGlyphs" textLength="74" x="214" y="70.9951">Repository</text><rect fill="#FEFECE" filter="url(#flzt3j93qnx04)" height="30.2969" style="stroke: #A80036; stroke-width: 1.5;" width="88" x="207" y="235.8281"/><text fill="#000000" font-family="sans-serif" font-size="14" lengthAdjust="spacingAndGlyphs" textLength="74" x="214" y="255.8232">Repository</text><rect fill="#FEFECE" filter="url(#flzt3j93qnx04)" height="30.2969" style="stroke: #A80036; stroke-width: 1.5;" width="84" x="309" y="51"/><text fill="#000000" font-family="sans-serif" font-size="14" lengthAdjust="spacingAndGlyphs" textLength="70" x="316" y="70.9951">Account X</text><rect fill="#FEFECE" filter="url(#flzt3j93qnx04)" height="30.2969" style="stroke: #A80036; stroke-width: 1.5;" width="84" x="309" y="235.8281"/><text fill="#000000" font-family="sans-serif" font-size="14" lengthAdjust="spacingAndGlyphs" textLength="70" x="316" y="255.8232">Account X</text><polygon fill="#A80036" points="126,113.2969,136,117.2969,126,121.2969,130,117.2969" style="stroke: #A80036; stroke-width: 1.0;"/><line style="stroke: #A80036; stroke-width: 1.0;" x1="27" x2="132" y1="117.2969" y2="117.2969"/><text fill="#000000" font-family="sans-serif" font-size="13" lengthAdjust="spacingAndGlyphs" textLength="55" x="34" y="112.3638">withdraw</text><polygon fill="#A80036" points="241,142.4297,251,146.4297,241,150.4297,245,146.4297" style="stroke: #A80036; stroke-width: 1.0;"/><line style="stroke: #A80036; stroke-width: 1.0;" x1="138" x2="247" y1="146.4297" y2="146.4297"/><text fill="#000000" font-family="sans-serif" font-size="13" lengthAdjust="spacingAndGlyphs" textLength="91" x="145" y="141.4966">getAccount(X)</text><polygon fill="#A80036" points="149,171.5625,139,175.5625,149,179.5625,145,175.5625" style="stroke: #A80036; stroke-width: 1.0;"/><line style="stroke: #A80036; stroke-width: 1.0; stroke-dasharray: 2.0,2.0;" x1="143" x2="252" y1="175.5625" y2="175.5625"/><text fill="#000000" font-family="sans-serif" font-size="13" lengthAdjust="spacingAndGlyphs" textLength="64" x="155" y="170.6294">Account X</text><polygon fill="#A80036" points="341,200.6953,351,204.6953,341,208.6953,345,204.6953" style="stroke: #A80036; stroke-width: 1.0;"/><line style="stroke: #A80036; stroke-width: 1.0;" x1="138" x2="347" y1="204.6953" y2="204.6953"/><text fill="#000000" font-family="sans-serif" font-size="13" lengthAdjust="spacingAndGlyphs" textLength="55" x="145" y="199.7622">withdraw</text><polygon fill="#A80036" points="149,214.8281,139,218.8281,149,222.8281,145,218.8281" style="stroke: #A80036; stroke-width: 1.0;"/><line style="stroke: #A80036; stroke-width: 1.0; stroke-dasharray: 2.0,2.0;" x1="143" x2="352" y1="218.8281" y2="218.8281"/><!--
@startuml

actor "User" as U1
actor "User" as U2
participant "Service" as S
participant "Repository" as R
participant "Account X" as A

U1 -> S: withdraw
S -> R: getAccount(X)
S <- - R: Account X
S -> A: withdraw
S <- - A:

@enduml

PlantUML version 1.2017.15(Mon Jul 03 18:45:34 CEST 2017)
(GPL source distribution)
Java Runtime: Java(TM) SE Runtime Environment
JVM: Java HotSpot(TM) 64-Bit Server VM
Java Version: 1.8.0_191-b12
Operating System: Linux
OS Version: 4.15.0-72-generic
Default Encoding: UTF-8
Language: en
Country: US
--></g></svg>