<?xml version="1.0" encoding="UTF-8" standalone="no"?><svg xmlns="http://www.w3.org/2000/svg" xmlns:xlink="http://www.w3.org/1999/xlink" contentScriptType="application/ecmascript" contentStyleType="text/css" height="556px" preserveAspectRatio="none" style="width:1170px;height:556px;" version="1.1" viewBox="0 0 1170 556" width="1170px" zoomAndPan="magnify"><defs><filter height="300%" id="f78vnav1nb2bo" width="300%" x="-1" y="-1"><feGaussianBlur result="blurOut" stdDeviation="2.0"/><feColorMatrix in="blurOut" result="blurOut2" type="matrix" values="0 0 0 0 0 0 0 0 0 0 0 0 0 0 0 0 0 0 .4 0"/><feOffset dx="4.0" dy="4.0" in="blurOut2" result="blurOut3"/><feBlend in="SourceGraphic" in2="blurOut3" mode="normal"/></filter></defs><g><rect fill="#FFFFFF" filter="url(#f78vnav1nb2bo)" height="118.5313" style="stroke: #000000; stroke-width: 2.0;" width="568" x="591.5" y="190.6953"/><line style="stroke: #A80036; stroke-width: 1.0;" x1="27" x2="27" y1="86.2969" y2="402.4922"/><line style="stroke: #A80036; stroke-width: 1.0; stroke-dasharray: 1.0,4.0;" x1="27" x2="27" y1="402.4922" y2="430.4922"/><line style="stroke: #A80036; stroke-width: 1.0;" x1="27" x2="27" y1="430.4922" y2="469.625"/><line style="stroke: #A80036; stroke-width: 1.0;" x1="170.5" x2="170.5" y1="86.2969" y2="402.4922"/><line style="stroke: #A80036; stroke-width: 1.0; stroke-dasharray: 1.0,4.0;" x1="170.5" x2="170.5" y1="402.4922" y2="430.4922"/><line style="stroke: #A80036; stroke-width: 1.0;" x1="170.5" x2="170.5" y1="430.4922" y2="469.625"/><line style="stroke: #A80036; stroke-width: 1.0;" x1="421" x2="421" y1="86.2969" y2="402.4922"/><line style="stroke: #A80036; stroke-width: 1.0; stroke-dasharray: 1.0,4.0;" x1="421" x2="421" y1="402.4922" y2="430.4922"/><line style="stroke: #A80036; stroke-width: 1.0;" x1="421" x2="421" y1="430.4922" y2="469.625"/><line style="stroke: #A80036; stroke-width: 1.0;" x1="658.5" x2="658.5" y1="86.2969" y2="402.4922"/><line style="stroke: #A80036; stroke-width: 1.0; stroke-dasharray: 1.0,4.0;" x1="658.5" x2="658.5" y1="402.4922" y2="430.4922"/><line style="stroke: #A80036; stroke-width: 1.0;" x1="658.5" x2="658.5" y1="430.4922" y2="469.625"/><line style="stroke: #A80036; stroke-width: 1.0;" x1="1007.5" x2="1007.5" y1="86.2969" y2="402.4922"/><line style="stroke: #A80036; stroke-width: 1.0; stroke-dasharray: 1.0,4.0;" x1="1007.5" x2="1007.5" y1="402.4922" y2="430.4922"/><line style="stroke: #A80036; stroke-width: 1.0;" x1="1007.5" x2="1007.5" y1="430.4922" y2="469.625"/><line style="stroke: #A80036; stroke-width: 1.0;" x1="1102.5" x2="1102.5" y1="86.2969" y2="402.4922"/><line style="stroke: #A80036; stroke-width: 1.0; stroke-dasharray: 1.0,4.0;" x1="1102.5" x2="1102.5" y1="402.4922" y2="430.4922"/><line style="stroke: #A80036; stroke-width: 1.0;" x1="1102.5" x2="1102.5" y1="430.4922" y2="469.625"/><text fill="#000000" font-family="sans-serif" font-size="14" lengthAdjust="spacingAndGlyphs" textLength="32" x="8" y="82.9951">User</text><ellipse cx="27" cy="13" fill="#FEFECE" filter="url(#f78vnav1nb2bo)" rx="8" ry="8" style="stroke: #A80036; stroke-width: 2.0;"/><path d="M27,21 L27,48 M14,29 L40,29 M27,48 L14,63 M27,48 L40,63 " fill="#FEFECE" filter="url(#f78vnav1nb2bo)" style="stroke: #A80036; stroke-width: 2.0;"/><text fill="#000000" font-family="sans-serif" font-size="14" lengthAdjust="spacingAndGlyphs" textLength="32" x="8" y="481.6201">User</text><ellipse cx="27" cy="494.9219" fill="#FEFECE" filter="url(#f78vnav1nb2bo)" rx="8" ry="8" style="stroke: #A80036; stroke-width: 2.0;"/><path d="M27,502.9219 L27,529.9219 M14,510.9219 L40,510.9219 M27,529.9219 L14,544.9219 M27,529.9219 L40,544.9219 " fill="#FEFECE" filter="url(#f78vnav1nb2bo)" style="stroke: #A80036; stroke-width: 2.0;"/><rect fill="#FEFECE" filter="url(#f78vnav1nb2bo)" height="30.2969" style="stroke: #A80036; stroke-width: 1.5;" width="143" x="97.5" y="51"/><text fill="#000000" font-family="sans-serif" font-size="14" lengthAdjust="spacingAndGlyphs" textLength="129" x="104.5" y="70.9951">Application Service</text><rect fill="#FEFECE" filter="url(#f78vnav1nb2bo)" height="30.2969" style="stroke: #A80036; stroke-width: 1.5;" width="143" x="97.5" y="468.625"/><text fill="#000000" font-family="sans-serif" font-size="14" lengthAdjust="spacingAndGlyphs" textLength="129" x="104.5" y="488.6201">Application Service</text><rect fill="#FEFECE" filter="url(#f78vnav1nb2bo)" height="30.2969" style="stroke: #A80036; stroke-width: 1.5;" width="148" x="345" y="51"/><text fill="#000000" font-family="sans-serif" font-size="14" lengthAdjust="spacingAndGlyphs" textLength="134" x="352" y="70.9951">Command Gateway</text><rect fill="#FEFECE" filter="url(#f78vnav1nb2bo)" height="30.2969" style="stroke: #A80036; stroke-width: 1.5;" width="148" x="345" y="468.625"/><text fill="#000000" font-family="sans-serif" font-size="14" lengthAdjust="spacingAndGlyphs" textLength="134" x="352" y="488.6201">Command Gateway</text><rect fill="#FEFECE" filter="url(#f78vnav1nb2bo)" height="30.2969" style="stroke: #A80036; stroke-width: 1.5;" width="111" x="601.5" y="51"/><text fill="#000000" font-family="sans-serif" font-size="14" lengthAdjust="spacingAndGlyphs" textLength="97" x="608.5" y="70.9951">Account Actor</text><rect fill="#FEFECE" filter="url(#f78vnav1nb2bo)" height="30.2969" style="stroke: #A80036; stroke-width: 1.5;" width="111" x="601.5" y="468.625"/><text fill="#000000" font-family="sans-serif" font-size="14" lengthAdjust="spacingAndGlyphs" textLength="97" x="608.5" y="488.6201">Account Actor</text><rect fill="#FEFECE" filter="url(#f78vnav1nb2bo)" height="30.2969" style="stroke: #A80036; stroke-width: 1.5;" width="71" x="970.5" y="51"/><text fill="#000000" font-family="sans-serif" font-size="14" lengthAdjust="spacingAndGlyphs" textLength="57" x="977.5" y="70.9951">Account</text><rect fill="#FEFECE" filter="url(#f78vnav1nb2bo)" height="30.2969" style="stroke: #A80036; stroke-width: 1.5;" width="71" x="970.5" y="468.625"/><text fill="#000000" font-family="sans-serif" font-size="14" lengthAdjust="spacingAndGlyphs" textLength="57" x="977.5" y="488.6201">Account</text><rect fill="#FEFECE" filter="url(#f78vnav1nb2bo)" height="30.2969" style="stroke: #A80036; stroke-width: 1.5;" width="90" x="1055.5" y="51"/><text fill="#000000" font-family="sans-serif" font-size="14" lengthAdjust="spacingAndGlyphs" textLength="76" x="1062.5" y="70.9951">EventStore</text><rect fill="#FEFECE" filter="url(#f78vnav1nb2bo)" height="30.2969" style="stroke: #A80036; stroke-width: 1.5;" width="90" x="1055.5" y="468.625"/><text fill="#000000" font-family="sans-serif" font-size="14" lengthAdjust="spacingAndGlyphs" textLength="76" x="1062.5" y="488.6201">EventStore</text><polygon fill="#A80036" points="159,113.2969,169,117.2969,159,121.2969,163,117.2969" style="stroke: #A80036; stroke-width: 1.0;"/><line style="stroke: #A80036; stroke-width: 1.0;" x1="27" x2="165" y1="117.2969" y2="117.2969"/><text fill="#000000" font-family="sans-serif" font-size="13" font-weight="bold" lengthAdjust="spacingAndGlyphs" textLength="9" x="34" y="112.3638">1</text><text fill="#000000" font-family="sans-serif" font-size="13" lengthAdjust="spacingAndGlyphs" textLength="107" x="47" y="112.3638">withdraw("X", 42)</text><polygon fill="#A80036" points="409,142.4297,419,146.4297,409,150.4297,413,146.4297" style="stroke: #A80036; stroke-width: 1.0;"/><line style="stroke: #A80036; stroke-width: 1.0;" x1="171" x2="415" y1="146.4297" y2="146.4297"/><text fill="#000000" font-family="sans-serif" font-size="13" font-weight="bold" lengthAdjust="spacingAndGlyphs" textLength="9" x="178" y="141.4966">2</text><text fill="#000000" font-family="sans-serif" font-size="13" lengthAdjust="spacingAndGlyphs" textLength="213" x="191" y="141.4966">handle(cmd: WithdrawCommand)</text><polygon fill="#A80036" points="647,171.5625,657,175.5625,647,179.5625,651,175.5625" style="stroke: #A80036; stroke-width: 1.0;"/><line style="stroke: #A80036; stroke-width: 1.0;" x1="421" x2="653" y1="175.5625" y2="175.5625"/><text fill="#000000" font-family="sans-serif" font-size="13" font-weight="bold" lengthAdjust="spacingAndGlyphs" textLength="9" x="428" y="170.6294">3</text><text fill="#000000" font-family="sans-serif" font-size="13" lengthAdjust="spacingAndGlyphs" textLength="201" x="441" y="170.6294">send(cmd: WithdrawCommand)</text><rect fill="none" height="118.5313" style="stroke: #000000; stroke-width: 2.0;" width="568" x="591.5" y="190.6953"/><polygon fill="#EEEEEE" points="591.5,190.6953,655.5,190.6953,655.5,197.6953,645.5,207.6953,591.5,207.6953,591.5,190.6953" style="stroke: #000000; stroke-width: 2.0;"/><text fill="#000000" font-family="sans-serif" font-size="13" font-weight="bold" lengthAdjust="spacingAndGlyphs" textLength="19" x="606.5" y="203.7622">alt</text><text fill="#000000" font-family="sans-serif" font-size="11" font-weight="bold" lengthAdjust="spacingAndGlyphs" textLength="173" x="670.5" y="202.9058">[aggregate not loaded yet]</text><polygon fill="#A80036" points="1090.5,224.8281,1100.5,228.8281,1090.5,232.8281,1094.5,228.8281" style="stroke: #A80036; stroke-width: 1.0;"/><line style="stroke: #A80036; stroke-width: 1.0;" x1="659" x2="1096.5" y1="228.8281" y2="228.8281"/><text fill="#000000" font-family="sans-serif" font-size="13" font-weight="bold" lengthAdjust="spacingAndGlyphs" textLength="23" x="666" y="223.895">4.1</text><text fill="#000000" font-family="sans-serif" font-size="13" lengthAdjust="spacingAndGlyphs" textLength="98" x="693" y="223.895">loadEvents("X")</text><polygon fill="#A80036" points="670,253.9609,660,257.9609,670,261.9609,666,257.9609" style="stroke: #A80036; stroke-width: 1.0;"/><line style="stroke: #A80036; stroke-width: 1.0; stroke-dasharray: 2.0,2.0;" x1="664" x2="1101.5" y1="257.9609" y2="257.9609"/><text fill="#000000" font-family="sans-serif" font-size="13" lengthAdjust="spacingAndGlyphs" textLength="138" x="676" y="253.0278">events: List&lt;Events&gt;</text><polygon fill="#A80036" points="996,283.0938,1006,287.0938,996,291.0938,1000,287.0938" style="stroke: #A80036; stroke-width: 1.0;"/><line style="stroke: #A80036; stroke-width: 1.0;" x1="659" x2="1002" y1="287.0938" y2="287.0938"/><text fill="#000000" font-family="sans-serif" font-size="13" font-weight="bold" lengthAdjust="spacingAndGlyphs" textLength="23" x="666" y="282.1606">4.2</text><text fill="#000000" font-family="sans-serif" font-size="13" lengthAdjust="spacingAndGlyphs" textLength="87" x="693" y="282.1606">apply(events)</text><polygon fill="#A80036" points="670,297.2266,660,301.2266,670,305.2266,666,301.2266" style="stroke: #A80036; stroke-width: 1.0;"/><line style="stroke: #A80036; stroke-width: 1.0; stroke-dasharray: 2.0,2.0;" x1="664" x2="1007" y1="301.2266" y2="301.2266"/><polygon fill="#A80036" points="996,333.2266,1006,337.2266,996,341.2266,1000,337.2266" style="stroke: #A80036; stroke-width: 1.0;"/><line style="stroke: #A80036; stroke-width: 1.0;" x1="659" x2="1002" y1="337.2266" y2="337.2266"/><text fill="#000000" font-family="sans-serif" font-size="13" font-weight="bold" lengthAdjust="spacingAndGlyphs" textLength="9" x="666" y="332.2935">5</text><text fill="#000000" font-family="sans-serif" font-size="13" lengthAdjust="spacingAndGlyphs" textLength="312" x="679" y="332.2935">handle(cmd: WithdrawCommand) : List&lt;Events&gt;</text><polygon fill="#A80036" points="670,347.3594,660,351.3594,670,355.3594,666,351.3594" style="stroke: #A80036; stroke-width: 1.0;"/><line style="stroke: #A80036; stroke-width: 1.0; stroke-dasharray: 2.0,2.0;" x1="664" x2="1007" y1="351.3594" y2="351.3594"/><polygon fill="#A80036" points="1090.5,376.3594,1100.5,380.3594,1090.5,384.3594,1094.5,380.3594" style="stroke: #A80036; stroke-width: 1.0;"/><line style="stroke: #A80036; stroke-width: 1.0;" x1="659" x2="1096.5" y1="380.3594" y2="380.3594"/><text fill="#000000" font-family="sans-serif" font-size="13" font-weight="bold" lengthAdjust="spacingAndGlyphs" textLength="9" x="666" y="375.4263">7</text><text fill="#000000" font-family="sans-serif" font-size="13" lengthAdjust="spacingAndGlyphs" textLength="83" x="679" y="375.4263">save(events)</text><polygon fill="#A80036" points="670,390.4922,660,394.4922,670,398.4922,666,394.4922" style="stroke: #A80036; stroke-width: 1.0;"/><line style="stroke: #A80036; stroke-width: 1.0; stroke-dasharray: 2.0,2.0;" x1="664" x2="1101.5" y1="394.4922" y2="394.4922"/><polygon fill="#A80036" points="432,447.4922,422,451.4922,432,455.4922,428,451.4922" style="stroke: #A80036; stroke-width: 1.0;"/><line style="stroke: #A80036; stroke-width: 1.0;" x1="426" x2="658" y1="451.4922" y2="451.4922"/><text fill="#000000" font-family="sans-serif" font-size="13" font-weight="bold" lengthAdjust="spacingAndGlyphs" textLength="9" x="438" y="446.5591">8</text><text fill="#000000" font-family="sans-serif" font-size="13" lengthAdjust="spacingAndGlyphs" textLength="116" x="451" y="446.5591">send(r: Response)</text><!--
@startuml

actor "User" as U
participant "Application Service" as AS
participant "Command Gateway" as CG
participant "Account Actor" as AC
participant "Account" as A
participant "EventStore" as ES

U -> AS: **1** withdraw("X", 42)
AS -> CG: **2** handle(cmd: WithdrawCommand)
CG -> AC: **3** send(cmd: WithdrawCommand)
alt aggregate not loaded yet
  AC -> ES: **4.1** loadEvents("X")
  AC <- - ES: events: List<Events>
  AC -> A: **4.2** apply(events)
  return
end
AC -> A: **5** handle(cmd: WithdrawCommand) : List<Events>
AC <- - A:
AC -> ES: **7** save(events)
return
...
CG <- AC: **8** send(r: Response)

@enduml

PlantUML version 1.2017.15(Mon Jul 03 18:45:34 CEST 2017)
(GPL source distribution)
Java Runtime: Java(TM) SE Runtime Environment
JVM: Java HotSpot(TM) 64-Bit Server VM
Java Version: 1.8.0_191-b12
Operating System: Linux
OS Version: 4.15.0-72-generic
Default Encoding: UTF-8
Language: en
Country: US
--></g></svg>