<?xml version="1.0" encoding="UTF-8" standalone="no"?><svg xmlns="http://www.w3.org/2000/svg" xmlns:xlink="http://www.w3.org/1999/xlink" contentScriptType="application/ecmascript" contentStyleType="text/css" height="684px" preserveAspectRatio="none" style="width:726px;height:684px;" version="1.1" viewBox="0 0 726 684" width="726px" zoomAndPan="magnify"><defs><filter height="300%" id="f1x73oet5xdb0q" width="300%" x="-1" y="-1"><feGaussianBlur result="blurOut" stdDeviation="2.0"/><feColorMatrix in="blurOut" result="blurOut2" type="matrix" values="0 0 0 0 0 0 0 0 0 0 0 0 0 0 0 0 0 0 .4 0"/><feOffset dx="4.0" dy="4.0" in="blurOut2" result="blurOut3"/><feBlend in="SourceGraphic" in2="blurOut3" mode="normal"/></filter></defs><g><rect fill="#FEFECE" filter="url(#f1x73oet5xdb0q)" height="30.2969" style="stroke: #A80036; stroke-width: 1.5;" width="71" x="493.5" y="212.8281"/><text fill="#000000" font-family="sans-serif" font-size="14" lengthAdjust="spacingAndGlyphs" textLength="57" x="500.5" y="232.8232">Account</text><line style="stroke: #A80036; stroke-width: 1.0; stroke-dasharray: 5.0,5.0;" x1="27" x2="27" y1="86.2969" y2="597.1875"/><line style="stroke: #A80036; stroke-width: 1.0; stroke-dasharray: 5.0,5.0;" x1="131.5" x2="131.5" y1="86.2969" y2="597.1875"/><line style="stroke: #A80036; stroke-width: 1.0; stroke-dasharray: 5.0,5.0;" x1="261.5" x2="261.5" y1="86.2969" y2="597.1875"/><line style="stroke: #A80036; stroke-width: 1.0; stroke-dasharray: 5.0,5.0;" x1="436.5" x2="436.5" y1="86.2969" y2="597.1875"/><line style="stroke: #A80036; stroke-width: 1.0; stroke-dasharray: 5.0,5.0;" x1="530.5" x2="530.5" y1="245.4766" y2="597.1875"/><text fill="#000000" font-family="sans-serif" font-size="14" lengthAdjust="spacingAndGlyphs" textLength="32" x="8" y="82.9951">User</text><ellipse cx="27" cy="13" fill="#FEFECE" filter="url(#f1x73oet5xdb0q)" rx="8" ry="8" style="stroke: #A80036; stroke-width: 2.0;"/><path d="M27,21 L27,48 M14,29 L40,29 M27,48 L14,63 M27,48 L40,63 " fill="#FEFECE" filter="url(#f1x73oet5xdb0q)" style="stroke: #A80036; stroke-width: 2.0;"/><text fill="#000000" font-family="sans-serif" font-size="14" lengthAdjust="spacingAndGlyphs" textLength="32" x="8" y="609.1826">User</text><ellipse cx="27" cy="622.4844" fill="#FEFECE" filter="url(#f1x73oet5xdb0q)" rx="8" ry="8" style="stroke: #A80036; stroke-width: 2.0;"/><path d="M27,630.4844 L27,657.4844 M14,638.4844 L40,638.4844 M27,657.4844 L14,672.4844 M27,657.4844 L40,672.4844 " fill="#FEFECE" filter="url(#f1x73oet5xdb0q)" style="stroke: #A80036; stroke-width: 2.0;"/><rect fill="#FEFECE" filter="url(#f1x73oet5xdb0q)" height="30.2969" style="stroke: #A80036; stroke-width: 1.5;" width="143" x="58.5" y="51"/><text fill="#000000" font-family="sans-serif" font-size="14" lengthAdjust="spacingAndGlyphs" textLength="129" x="65.5" y="70.9951">Application Service</text><rect fill="#FEFECE" filter="url(#f1x73oet5xdb0q)" height="30.2969" style="stroke: #A80036; stroke-width: 1.5;" width="143" x="58.5" y="596.1875"/><text fill="#000000" font-family="sans-serif" font-size="14" lengthAdjust="spacingAndGlyphs" textLength="129" x="65.5" y="616.1826">Application Service</text><rect fill="#FEFECE" filter="url(#f1x73oet5xdb0q)" height="30.2969" style="stroke: #A80036; stroke-width: 1.5;" width="88" x="215.5" y="51"/><text fill="#000000" font-family="sans-serif" font-size="14" lengthAdjust="spacingAndGlyphs" textLength="74" x="222.5" y="70.9951">Repository</text><rect fill="#FEFECE" filter="url(#f1x73oet5xdb0q)" height="30.2969" style="stroke: #A80036; stroke-width: 1.5;" width="88" x="215.5" y="596.1875"/><text fill="#000000" font-family="sans-serif" font-size="14" lengthAdjust="spacingAndGlyphs" textLength="74" x="222.5" y="616.1826">Repository</text><rect fill="#FEFECE" filter="url(#f1x73oet5xdb0q)" height="30.2969" style="stroke: #A80036; stroke-width: 1.5;" width="90" x="389.5" y="51"/><text fill="#000000" font-family="sans-serif" font-size="14" lengthAdjust="spacingAndGlyphs" textLength="76" x="396.5" y="70.9951">EventStore</text><rect fill="#FEFECE" filter="url(#f1x73oet5xdb0q)" height="30.2969" style="stroke: #A80036; stroke-width: 1.5;" width="90" x="389.5" y="596.1875"/><text fill="#000000" font-family="sans-serif" font-size="14" lengthAdjust="spacingAndGlyphs" textLength="76" x="396.5" y="616.1826">EventStore</text><rect fill="#FEFECE" filter="url(#f1x73oet5xdb0q)" height="30.2969" style="stroke: #A80036; stroke-width: 1.5;" width="71" x="493.5" y="596.1875"/><text fill="#000000" font-family="sans-serif" font-size="14" lengthAdjust="spacingAndGlyphs" textLength="57" x="500.5" y="616.1826">Account</text><polygon fill="#A80036" points="120,113.2969,130,117.2969,120,121.2969,124,117.2969" style="stroke: #A80036; stroke-width: 1.0;"/><line style="stroke: #A80036; stroke-width: 1.0;" x1="27" x2="126" y1="117.2969" y2="117.2969"/><text fill="#000000" font-family="sans-serif" font-size="13" lengthAdjust="spacingAndGlyphs" textLength="81" x="34" y="112.3638">withdraw(42)</text><polygon fill="#A80036" points="249.5,142.4297,259.5,146.4297,249.5,150.4297,253.5,146.4297" style="stroke: #A80036; stroke-width: 1.0;"/><line style="stroke: #A80036; stroke-width: 1.0;" x1="132" x2="255.5" y1="146.4297" y2="146.4297"/><text fill="#000000" font-family="sans-serif" font-size="13" lengthAdjust="spacingAndGlyphs" textLength="101" x="139" y="141.4966">getAccount("X")</text><polygon fill="#A80036" points="424.5,171.5625,434.5,175.5625,424.5,179.5625,428.5,175.5625" style="stroke: #A80036; stroke-width: 1.0;"/><line style="stroke: #A80036; stroke-width: 1.0;" x1="261.5" x2="430.5" y1="175.5625" y2="175.5625"/><text fill="#000000" font-family="sans-serif" font-size="13" lengthAdjust="spacingAndGlyphs" textLength="150" x="268.5" y="170.6294">load event stream for X</text><polygon fill="#A80036" points="272.5,200.6953,262.5,204.6953,272.5,208.6953,268.5,204.6953" style="stroke: #A80036; stroke-width: 1.0;"/><line style="stroke: #A80036; stroke-width: 1.0; stroke-dasharray: 2.0,2.0;" x1="266.5" x2="435.5" y1="204.6953" y2="204.6953"/><text fill="#000000" font-family="sans-serif" font-size="13" lengthAdjust="spacingAndGlyphs" textLength="142" x="278.5" y="199.7622">events : List&lt;Events&gt;</text><polygon fill="#A80036" points="481.5,229.8281,491.5,233.8281,481.5,237.8281,485.5,233.8281" style="stroke: #A80036; stroke-width: 1.0;"/><line style="stroke: #A80036; stroke-width: 1.0;" x1="261.5" x2="487.5" y1="233.8281" y2="233.8281"/><text fill="#000000" font-family="sans-serif" font-size="13" lengthAdjust="spacingAndGlyphs" textLength="94" x="268.5" y="228.895">create(events)</text><rect fill="#FEFECE" filter="url(#f1x73oet5xdb0q)" height="30.2969" style="stroke: #A80036; stroke-width: 1.5;" width="71" x="493.5" y="212.8281"/><text fill="#000000" font-family="sans-serif" font-size="14" lengthAdjust="spacingAndGlyphs" textLength="57" x="500.5" y="232.8232">Account</text><line style="stroke: #A80036; stroke-width: 1.0;" x1="531" x2="573" y1="279.2578" y2="279.2578"/><line style="stroke: #A80036; stroke-width: 1.0;" x1="573" x2="573" y1="279.2578" y2="292.2578"/><line style="stroke: #A80036; stroke-width: 1.0;" x1="532" x2="573" y1="292.2578" y2="292.2578"/><polygon fill="#A80036" points="542,288.2578,532,292.2578,542,296.2578,538,292.2578" style="stroke: #A80036; stroke-width: 1.0;"/><text fill="#000000" font-family="sans-serif" font-size="13" lengthAdjust="spacingAndGlyphs" textLength="87" x="538" y="274.1919">apply(events)</text><polygon fill="#A80036" points="272.5,302.2578,262.5,306.2578,272.5,310.2578,268.5,306.2578" style="stroke: #A80036; stroke-width: 1.0;"/><line style="stroke: #A80036; stroke-width: 1.0; stroke-dasharray: 2.0,2.0;" x1="266.5" x2="530" y1="306.2578" y2="306.2578"/><polygon fill="#A80036" points="143,331.2578,133,335.2578,143,339.2578,139,335.2578" style="stroke: #A80036; stroke-width: 1.0;"/><line style="stroke: #A80036; stroke-width: 1.0; stroke-dasharray: 2.0,2.0;" x1="137" x2="260.5" y1="335.2578" y2="335.2578"/><text fill="#000000" font-family="sans-serif" font-size="13" lengthAdjust="spacingAndGlyphs" textLength="68" x="149" y="330.3247">a: Account</text><polygon fill="#A80036" points="519,360.3906,529,364.3906,519,368.3906,523,364.3906" style="stroke: #A80036; stroke-width: 1.0;"/><line style="stroke: #A80036; stroke-width: 1.0;" x1="132" x2="525" y1="364.3906" y2="364.3906"/><text fill="#000000" font-family="sans-serif" font-size="13" lengthAdjust="spacingAndGlyphs" textLength="81" x="139" y="359.4575">withdraw(42)</text><line style="stroke: #A80036; stroke-width: 1.0;" x1="531" x2="573" y1="393.6563" y2="393.6563"/><line style="stroke: #A80036; stroke-width: 1.0;" x1="573" x2="573" y1="393.6563" y2="406.6563"/><line style="stroke: #A80036; stroke-width: 1.0;" x1="532" x2="573" y1="406.6563" y2="406.6563"/><polygon fill="#A80036" points="542,402.6563,532,406.6563,542,410.6563,538,406.6563" style="stroke: #A80036; stroke-width: 1.0;"/><text fill="#000000" font-family="sans-serif" font-size="13" lengthAdjust="spacingAndGlyphs" textLength="176" x="538" y="388.5903">emit MoneyWithdrawnEvent</text><polygon fill="#A80036" points="143,416.6563,133,420.6563,143,424.6563,139,420.6563" style="stroke: #A80036; stroke-width: 1.0;"/><line style="stroke: #A80036; stroke-width: 1.0; stroke-dasharray: 2.0,2.0;" x1="137" x2="530" y1="420.6563" y2="420.6563"/><polygon fill="#A80036" points="249.5,445.6563,259.5,449.6563,249.5,453.6563,253.5,449.6563" style="stroke: #A80036; stroke-width: 1.0;"/><line style="stroke: #A80036; stroke-width: 1.0;" x1="132" x2="255.5" y1="449.6563" y2="449.6563"/><text fill="#000000" font-family="sans-serif" font-size="13" lengthAdjust="spacingAndGlyphs" textLength="49" x="139" y="444.7231">save(A)</text><polygon fill="#A80036" points="519,474.7891,529,478.7891,519,482.7891,523,478.7891" style="stroke: #A80036; stroke-width: 1.0;"/><line style="stroke: #A80036; stroke-width: 1.0;" x1="261.5" x2="525" y1="478.7891" y2="478.7891"/><text fill="#000000" font-family="sans-serif" font-size="13" lengthAdjust="spacingAndGlyphs" textLength="124" x="268.5" y="473.856">getEmittedEvents()</text><polygon fill="#A80036" points="272.5,503.9219,262.5,507.9219,272.5,511.9219,268.5,507.9219" style="stroke: #A80036; stroke-width: 1.0;"/><line style="stroke: #A80036; stroke-width: 1.0; stroke-dasharray: 2.0,2.0;" x1="266.5" x2="530" y1="507.9219" y2="507.9219"/><text fill="#000000" font-family="sans-serif" font-size="13" lengthAdjust="spacingAndGlyphs" textLength="181" x="278.5" y="502.9888">emittedEvents: List&lt;Event&gt;</text><polygon fill="#A80036" points="424.5,533.0547,434.5,537.0547,424.5,541.0547,428.5,537.0547" style="stroke: #A80036; stroke-width: 1.0;"/><line style="stroke: #A80036; stroke-width: 1.0;" x1="261.5" x2="430.5" y1="537.0547" y2="537.0547"/><text fill="#000000" font-family="sans-serif" font-size="13" lengthAdjust="spacingAndGlyphs" textLength="151" x="268.5" y="532.1216">append(emittedEvents)</text><polygon fill="#A80036" points="272.5,547.1875,262.5,551.1875,272.5,555.1875,268.5,551.1875" style="stroke: #A80036; stroke-width: 1.0;"/><line style="stroke: #A80036; stroke-width: 1.0; stroke-dasharray: 2.0,2.0;" x1="266.5" x2="435.5" y1="551.1875" y2="551.1875"/><polygon fill="#A80036" points="143,561.1875,133,565.1875,143,569.1875,139,565.1875" style="stroke: #A80036; stroke-width: 1.0;"/><line style="stroke: #A80036; stroke-width: 1.0; stroke-dasharray: 2.0,2.0;" x1="137" x2="260.5" y1="565.1875" y2="565.1875"/><polygon fill="#A80036" points="38,575.1875,28,579.1875,38,583.1875,34,579.1875" style="stroke: #A80036; stroke-width: 1.0;"/><line style="stroke: #A80036; stroke-width: 1.0; stroke-dasharray: 2.0,2.0;" x1="32" x2="131" y1="579.1875" y2="579.1875"/><!--
@startuml

actor "User" as U
participant "Application Service" as AS
participant "Repository" as R
participant "EventStore" as ES

U -> AS: withdraw(42)
AS -> R: getAccount("X")
R -> ES: load event stream for X
R <- - ES: events : List<Events>
create "Account" as A
R ->  A: create(events)
A -> A: apply(events)
R <- - A
AS <- - R: a: Account
AS -> A: withdraw(42)
A -> A: emit MoneyWithdrawnEvent
AS <- - A
AS -> R: save(A)
R -> A: getEmittedEvents()
R <- - A: emittedEvents: List<Event>
R -> ES: append(emittedEvents)
R <- - ES
AS <- - R
U <- - AS

@enduml

PlantUML version 1.2017.15(Mon Jul 03 18:45:34 CEST 2017)
(GPL source distribution)
Java Runtime: Java(TM) SE Runtime Environment
JVM: Java HotSpot(TM) 64-Bit Server VM
Java Version: 1.8.0_191-b12
Operating System: Linux
OS Version: 4.15.0-72-generic
Default Encoding: UTF-8
Language: en
Country: US
--></g></svg>